<svg width="1440" height="1024" viewBox="0 0 1440 1024" fill="none" xmlns="http://www.w3.org/2000/svg">
<g clip-path="url(#clip0_73_1102)">
<rect width="1440" height="1024" fill="#00966C"/>
<g opacity="0.5">
<path d="M1117.66 398.173C1068.72 300.214 841.907 179.211 784.24 145.515C723.682 110.166 720.245 96.2455 720.245 96.2455L719.013 93V96.2455C719.013 96.2455 715.543 110.166 655.053 145.515C597.386 179.211 370.54 300.214 321.603 398.173C275.256 491.103 281.254 526.122 281.254 873.756V1398.64H719.633H1158.01V873.756C1158.01 526.122 1164.04 491.103 1117.66 398.173Z" fill="#7CD7BD" fill-opacity="0.5"/>
<path opacity="0.04" d="M1117.66 1650.1C1068.72 1748.06 841.907 1869.06 784.24 1902.76C723.682 1938.11 720.245 1952.03 720.245 1952.03L719.013 1955.27V1952.03C719.013 1952.03 715.543 1938.11 655.053 1902.76C597.386 1869.06 370.54 1748.06 321.603 1650.1C275.256 1557.17 281.254 1522.15 281.254 1174.52V649.629H719.633H1158.01V1174.52C1158.01 1522.15 1164.04 1557.17 1117.66 1650.1Z" fill="#7CD7BD" fill-opacity="0.5"/>
</g>
<g opacity="0.8">
<path d="M972.18 628.959C941.26 567.073 797.971 490.629 761.539 469.341C723.282 447.009 721.11 438.215 721.11 438.215L720.332 436.165V438.215C720.332 438.215 718.14 447.009 679.925 469.341C643.493 490.629 500.183 567.073 469.266 628.959C439.986 687.668 443.775 709.791 443.775 929.41V1261.01H720.723H997.671V929.41C997.671 709.791 1001.48 687.668 972.18 628.959Z" fill="#7CD7BD"/>
<path d="M972.18 1419.87C941.26 1481.75 797.971 1558.2 761.539 1579.49C723.282 1601.82 721.11 1610.61 721.11 1610.61L720.332 1612.66V1610.61C720.332 1610.61 718.14 1601.82 679.925 1579.49C643.493 1558.2 500.183 1481.75 469.266 1419.87C439.986 1361.16 443.775 1339.04 443.775 1119.42L443.775 787.817H720.723H997.671V1119.42C997.671 1339.04 1001.48 1361.16 972.18 1419.87Z" fill="#7CD7BD"/>
</g>
<g opacity="0.7">
<path d="M1017.92 557.265C981.374 484.122 812.021 393.773 768.963 368.614C723.746 342.219 721.18 331.825 721.18 331.825L720.26 329.402V331.825C720.26 331.825 717.669 342.219 672.503 368.614C629.444 393.773 460.066 484.122 423.526 557.265C388.92 626.653 393.398 652.801 393.398 912.368V1304.28H720.722H1048.05V912.368C1048.05 652.801 1052.55 626.653 1017.92 557.265Z" fill="#7CD7BD"/>
<path d="M1017.92 1492.04C981.374 1565.18 812.021 1655.53 768.963 1680.69C723.746 1707.08 721.18 1717.48 721.18 1717.48L720.26 1719.9V1717.48C720.26 1717.48 717.669 1707.08 672.503 1680.69C629.444 1655.53 460.066 1565.18 423.526 1492.04C388.92 1422.65 393.398 1396.5 393.398 1136.94V745.02H720.722H1048.05V1136.94C1048.05 1396.5 1052.55 1422.65 1017.92 1492.04Z" fill="#7CD7BD"/>
</g>
<g opacity="0.6">
<path d="M1058.38 491.938C1016.76 408.641 823.897 305.751 774.862 277.099C723.368 247.041 720.446 235.204 720.446 235.204L719.398 232.445V235.204C719.398 235.204 716.448 247.041 665.012 277.099C615.977 305.751 423.087 408.641 381.474 491.938C342.065 570.957 347.165 600.735 347.165 896.333V1342.65H719.925H1092.68V896.333C1092.68 600.735 1097.81 570.957 1058.38 491.938Z" fill="#7CD7BD"/>
<path d="M1058.38 1556.47C1016.76 1639.76 823.897 1742.66 774.862 1771.31C723.368 1801.36 720.446 1813.2 720.446 1813.2L719.398 1815.96V1813.2C719.398 1813.2 716.448 1801.36 665.012 1771.31C615.977 1742.66 423.087 1639.76 381.474 1556.47C342.065 1477.45 347.165 1447.67 347.165 1152.07V705.755H719.925H1092.68V1152.07C1092.68 1447.67 1097.81 1477.45 1058.38 1556.47Z" fill="#7CD7BD"/>
</g>
<path d="M891.574 754.059C870.468 711.814 772.656 659.632 747.788 645.101C721.672 629.857 720.19 623.853 720.19 623.853L719.659 622.454V623.853C719.659 623.853 718.162 629.857 692.076 645.101C667.208 659.632 569.381 711.814 548.277 754.059C528.29 794.134 530.877 809.236 530.877 959.151V1185.51H719.926H908.975V959.151C908.975 809.236 911.576 794.134 891.574 754.059Z" fill="#7CD7BD"/>
<path d="M891.574 1293.95C870.468 1336.19 772.656 1388.37 747.788 1402.9C721.672 1418.15 720.19 1424.15 720.19 1424.15L719.659 1425.55V1424.15C719.659 1424.15 718.162 1418.15 692.076 1402.9C667.208 1388.37 569.381 1336.19 548.277 1293.95C528.29 1253.87 530.877 1238.77 530.877 1088.85V862.498H719.926H908.975V1088.85C908.975 1238.77 911.576 1253.87 891.574 1293.95Z" fill="#7CD7BD"/>
<rect width="1440" height="277" fill="url(#paint0_linear_73_1102)"/>
</g>
<defs>
<linearGradient id="paint0_linear_73_1102" x1="720" y1="0" x2="720" y2="277" gradientUnits="userSpaceOnUse">
<stop stop-color="#00966C"/>
<stop offset="1" stop-color="#00966C" stop-opacity="0"/>
</linearGradient>
<clipPath id="clip0_73_1102">
<rect width="1440" height="1024" fill="white"/>
</clipPath>
</defs>
</svg>
