<svg width="199" height="273" viewBox="0 0 199 273" fill="none" xmlns="http://www.w3.org/2000/svg">
<path d="M189.724 228.049C178.626 242.26 127.193 259.813 114.116 264.701C100.384 269.829 99.6047 271.849 99.6047 271.849L99.3253 272.32V271.849C99.3253 271.849 98.5384 269.829 84.8215 264.701C71.7447 259.813 20.3044 242.26 9.20725 228.049C-1.3026 214.568 0.0574968 209.488 0.0574968 159.057V82.9136H198.874V159.057C198.874 209.488 200.242 214.568 189.724 228.049Z" fill="#EC86AD"/>
<path d="M189.724 44.2707C178.626 30.0599 127.193 12.5064 114.116 7.61827C100.384 2.49023 99.6047 0.47082 99.6047 0.47082L99.3253 0V0.47082C99.3253 0.47082 98.5384 2.49023 84.8215 7.61827C71.7447 12.5064 20.3044 30.0599 9.20725 44.2707C-1.3026 57.7517 0.0574968 62.8319 0.0574968 113.262V189.406H198.874V113.262C198.874 62.8319 200.242 57.7517 189.724 44.2707Z" fill="#EC86AD"/>
</svg>
