<svg width="318" height="252" viewBox="0 0 318 252" fill="none" xmlns="http://www.w3.org/2000/svg">
<path d="M318 172.216C318 172.216 306.468 169.611 304.254 169.722C303.149 169.777 301.784 169.844 300.18 169.926C299.378 169.965 298.516 170.009 297.597 170.056C296.675 170.093 295.682 170.103 294.641 170.131C292.555 170.176 290.244 170.229 287.73 170.284C285.216 170.32 282.508 170.27 279.609 170.265C276.713 170.286 273.631 170.146 270.382 170.042C268.757 169.977 267.092 169.957 265.387 169.852C263.682 169.749 261.942 169.639 260.163 169.528C259.273 169.475 258.374 169.42 257.465 169.361C257.011 169.332 256.555 169.304 256.095 169.276C255.638 169.235 255.179 169.193 254.717 169.151C252.869 168.985 250.985 168.814 249.073 168.642C248.115 168.554 247.15 168.468 246.177 168.379C245.204 168.266 244.226 168.149 243.241 168.035C241.271 167.8 239.268 167.559 237.241 167.318C235.211 167.084 233.168 166.732 231.094 166.436C230.056 166.283 229.014 166.128 227.963 165.97C226.914 165.821 225.859 165.658 224.806 165.458C220.582 164.697 216.257 163.982 211.904 163.014C210.814 162.786 209.718 162.556 208.62 162.326L206.966 161.981L205.32 161.585C203.119 161.056 200.902 160.522 198.673 159.984C197.555 159.73 196.447 159.42 195.334 159.113C194.223 158.811 193.106 158.506 191.987 158.201C190.869 157.894 189.747 157.587 188.622 157.28C187.498 156.977 186.388 156.607 185.267 156.274C183.031 155.584 180.787 154.892 178.534 154.2C176.303 153.44 174.066 152.677 171.825 151.914C169.572 151.183 167.37 150.296 165.142 149.471C162.921 148.633 160.687 147.819 158.5 146.886C156.305 145.972 154.111 145.062 151.916 144.153C149.753 143.175 147.589 142.199 145.431 141.221L143.814 140.491C143.278 140.243 142.752 139.972 142.22 139.713C141.159 139.192 140.1 138.672 139.044 138.151C137.989 137.632 136.932 137.11 135.879 136.594C134.823 136.079 133.803 135.498 132.767 134.955C124.451 130.655 116.579 125.844 109.143 120.935C107.299 119.683 105.471 118.441 103.659 117.212C101.892 115.923 100.142 114.642 98.4091 113.379C96.6574 112.137 95.0059 110.805 93.3591 109.508C92.5357 108.859 91.717 108.215 90.9046 107.573C90.0906 106.934 89.2766 106.305 88.5095 105.632C85.4022 102.978 82.3324 100.455 79.5413 97.8093C78.134 96.5006 76.7142 95.253 75.3852 93.9584C74.0671 92.6544 72.7741 91.3755 71.5062 90.1216C70.8737 89.4955 70.246 88.8724 69.6261 88.2604C69.0297 87.6264 68.4395 86.9955 67.8556 86.374C66.691 85.128 65.5545 83.9101 64.4446 82.722C63.3128 81.5573 62.3126 80.3285 61.2982 79.1701C60.2932 78.0054 59.3164 76.8752 58.3693 75.781C54.6875 71.3102 51.5504 67.3513 49.1428 63.9606C46.6366 60.642 44.8756 57.8885 43.6232 56.0444C42.3819 54.1972 41.7197 53.2095 41.7197 53.2095L43.6467 51.9587C43.6467 51.9587 44.3105 52.9293 45.5565 54.7483C46.8088 56.5595 48.5746 59.2691 51.0808 62.5299C53.49 65.8642 56.627 69.7511 60.3042 74.1405C61.2497 75.2175 62.2218 76.3258 63.2267 77.4716C64.2396 78.605 65.2383 79.8087 66.3669 80.9562C67.4737 82.1193 68.607 83.3137 69.7701 84.5347C70.3524 85.1452 70.9395 85.7604 71.5343 86.385C72.1527 86.9877 72.7773 87.595 73.4081 88.2102C74.6714 89.4375 75.9597 90.693 77.2731 91.9719C78.5958 93.2399 80.011 94.4593 81.412 95.7398C84.1922 98.3306 87.2494 100.798 90.3395 103.396C91.1049 104.055 91.9143 104.669 92.7236 105.295C93.5313 105.921 94.3453 106.552 95.164 107.186C96.8014 108.454 98.4435 109.756 100.186 110.966C101.908 112.202 103.649 113.451 105.403 114.711C107.204 115.912 109.019 117.123 110.852 118.343C118.24 123.133 126.056 127.818 134.307 131.996C135.334 132.524 136.345 133.089 137.394 133.59C138.44 134.092 139.487 134.598 140.534 135.103C141.584 135.607 142.633 136.116 143.684 136.62C144.211 136.871 144.732 137.134 145.265 137.375L146.869 138.082C149.009 139.028 151.152 139.975 153.298 140.922C155.473 141.805 157.65 142.685 159.826 143.566C161.993 144.472 164.208 145.257 166.41 146.066C168.617 146.861 170.799 147.72 173.032 148.423C175.253 149.159 177.468 149.893 179.677 150.624C181.908 151.29 184.132 151.955 186.347 152.615C187.455 152.938 188.556 153.292 189.669 153.583C190.782 153.877 191.89 154.172 193 154.461C194.107 154.757 195.21 155.048 196.314 155.339C197.414 155.629 198.512 155.929 199.618 156.171C201.827 156.682 204.019 157.19 206.198 157.697L207.829 158.072L209.465 158.4C210.554 158.617 211.636 158.835 212.716 159.051C217.023 159.973 221.302 160.643 225.479 161.36C226.52 161.549 227.562 161.701 228.603 161.84C229.641 161.986 230.673 162.132 231.698 162.274C233.75 162.548 235.77 162.88 237.777 163.093C239.783 163.313 241.761 163.533 243.708 163.75C244.685 163.854 245.649 163.963 246.61 164.065C247.571 164.145 248.526 164.223 249.472 164.3C251.364 164.455 253.224 164.606 255.051 164.757C255.506 164.794 255.96 164.832 256.413 164.868C256.867 164.893 257.318 164.916 257.765 164.941C258.662 164.987 259.553 165.037 260.431 165.082C262.191 165.176 263.911 165.269 265.594 165.356C267.277 165.449 268.923 165.455 270.528 165.505C273.737 165.582 276.78 165.694 279.642 165.649C282.503 165.629 285.183 165.658 287.655 165.602C290.122 165.527 292.387 165.456 294.435 165.394C295.46 165.359 296.424 165.344 297.342 165.294C298.261 165.24 299.123 165.19 299.925 165.143C301.529 165.049 302.891 164.971 303.998 164.907C306.21 164.776 311.469 163.497 311.469 163.497L318 172.216Z" fill="#EC86AD"/>
<path d="M263.07 151.484C256.413 140.153 248.337 129.07 241.285 119.326C239.53 116.885 237.835 114.531 236.214 112.283C235.815 111.719 235.421 111.162 235.031 110.614C234.638 110.085 234.25 109.564 233.868 109.049C233.095 107.997 232.345 106.976 231.617 105.985C228.737 102.025 226.348 98.556 224.637 95.8181C227.113 97.9251 230.189 100.774 233.699 104.199C234.575 105.063 235.479 105.954 236.409 106.87C236.639 107.102 236.872 107.336 237.108 107.57L237.462 107.922L237.639 108.1L237.728 108.191L237.842 108.312C238.301 108.805 238.771 109.304 239.243 109.81C241.131 111.835 243.102 113.986 245.114 116.25C249.137 120.78 253.348 125.755 257.443 131.082C261.527 136.411 265.481 142.105 268.963 148.016C269.246 148.492 269.518 148.957 269.783 149.408C270.033 149.867 270.278 150.313 270.515 150.745C270.976 151.615 271.408 152.429 271.815 153.193C272.576 154.754 273.2 156.122 273.717 157.323C274.687 159.794 275.26 161.554 275.414 162.78C275.794 165.259 275.108 165.831 274.24 166.2C273.371 166.568 272.483 166.662 270.965 164.666C270.22 163.631 269.251 162.226 268.064 160.103C267.424 159.04 266.713 157.797 265.915 156.358C265.498 155.645 265.057 154.884 264.584 154.071C264.352 153.663 264.115 153.242 263.866 152.808C263.607 152.382 263.343 151.939 263.07 151.484Z" fill="#EC86AD"/>
<path d="M254.094 157.418C246.263 149.507 238.447 141.16 231.786 133.696C230.12 131.832 228.527 130.019 227.027 128.285C225.516 126.561 224.079 124.922 222.764 123.374C221.437 121.837 220.263 120.351 219.211 118.989C218.159 117.63 217.237 116.391 216.459 115.292C217.528 116.099 218.73 117.056 220.044 118.144C221.374 119.257 222.815 120.459 224.35 121.746C225.906 123.05 227.562 124.454 229.286 125.969C231 127.492 232.789 129.106 234.633 130.797C242.011 137.556 250.273 145.513 258.099 153.416C268.221 163.647 267.928 165.156 266.823 166.26C265.719 167.365 264.216 167.648 254.094 157.418Z" fill="#EC86AD"/>
<path d="M241.936 150.511C234.203 138.438 226.434 125.88 219.41 115.068C215.894 109.653 212.771 104.567 209.913 100.14C209.221 99.027 208.55 97.95 207.905 96.9137C207.257 95.8978 206.637 94.9225 206.039 93.988C204.863 92.1205 203.831 90.4111 202.966 88.8958C204.24 90.0682 205.676 91.4567 207.249 93.0378C208.035 93.8283 208.86 94.6627 209.706 95.5471C210.525 96.4519 211.377 97.3912 212.258 98.3633C215.81 102.228 219.625 106.935 223.695 112.006C231.851 122.164 240.34 134.421 248.151 146.617C258.062 162.419 257.226 164.243 255.518 165.314C253.791 166.394 251.831 166.292 241.936 150.511Z" fill="#EC86AD"/>
<path d="M248.196 149.051C244.537 143.356 240.835 137.534 237.415 131.811C233.969 126.091 230.687 120.47 227.68 115.21C226.178 112.576 224.746 110.03 223.406 107.596C222.083 105.182 220.787 102.858 219.632 100.69C217.304 96.3487 215.421 92.5729 214.084 89.594C216.247 92.0157 218.915 95.2936 221.938 99.179C223.448 101.131 225.048 103.202 226.707 105.469C228.357 107.71 230.073 110.08 231.834 112.552C235.366 117.499 239.052 122.854 242.773 128.392C246.485 133.95 250.279 139.582 253.914 145.242C263.546 159.78 262.887 161.49 261.298 162.551C259.728 163.595 257.843 163.614 248.196 149.051Z" fill="#EC86AD"/>
<path d="M275.508 156.783C268.147 148.752 259.757 141.075 252.621 134.047C250.842 132.287 249.143 130.562 247.54 128.92C245.942 127.268 244.463 125.683 243.071 124.213C241.679 122.754 240.425 121.312 239.303 120.018C238.21 118.685 237.287 117.442 236.501 116.365C237.587 117.162 238.783 118.117 240.125 119.158C241.507 120.202 243.004 121.331 244.599 122.535C246.227 123.753 247.93 125.11 249.719 126.531C251.516 127.943 253.384 129.448 255.323 131.014C263.083 137.26 272.007 144.601 279.683 152.966C279.994 153.301 280.298 153.625 280.594 153.94C280.875 154.276 281.148 154.602 281.414 154.918C281.935 155.555 282.424 156.155 282.885 156.715C283.787 157.847 284.574 158.835 285.19 159.711C286.339 161.477 287.045 162.765 287.442 163.727C288.239 165.644 287.802 166.236 287.178 166.706C286.555 167.174 285.858 167.426 284.239 166.123C283.432 165.47 282.392 164.431 281.018 162.836C280.312 162.077 279.501 161.239 278.599 160.23C278.15 159.724 277.674 159.185 277.167 158.609C276.916 158.32 276.655 158.021 276.389 157.714C276.106 157.413 275.811 157.102 275.508 156.783Z" fill="#EC86AD"/>
<path d="M280.528 151.941C272.927 140.487 265.662 128.524 258.813 118.441C258.392 117.806 257.974 117.176 257.561 116.552C257.13 115.943 256.703 115.339 256.282 114.742C255.44 113.545 254.616 112.374 253.81 111.233C253.412 110.656 253.019 110.09 252.63 109.528C252.271 109.005 251.831 108.44 251.448 107.911C250.651 106.846 249.906 105.763 249.15 104.811C246.23 100.841 243.438 97.637 241.345 95.0745C244.101 96.8747 247.599 99.4388 251.251 102.964C252.204 103.822 253.082 104.747 254.035 105.688C254.511 106.173 254.973 106.613 255.476 107.159C255.944 107.67 256.416 108.188 256.895 108.712C257.853 109.77 258.836 110.854 259.835 111.96C260.333 112.516 260.845 113.077 261.341 113.654C261.826 114.243 262.315 114.836 262.809 115.434C270.798 124.977 278.791 136.723 286.328 148.08C288.775 151.739 290.569 154.542 291.876 156.772C293.228 158.988 294.056 160.599 294.515 161.792C295.434 164.177 294.874 164.899 294.089 165.456C293.305 166.012 292.443 166.3 290.497 164.642C289.523 163.814 288.279 162.499 286.64 160.486C285.027 158.436 283.003 155.64 280.528 151.941Z" fill="#EC86AD"/>
<path d="M284.589 189.736C282.673 193.026 280.739 196.329 278.738 199.61C277.739 201.246 276.741 202.884 275.745 204.513C274.716 206.124 273.69 207.733 272.667 209.332C270.653 212.536 268.486 215.613 266.407 218.627C265.384 220.142 264.289 221.593 263.212 223.021C262.135 224.444 261.074 225.848 260.03 227.229C259.768 227.57 259.507 227.913 259.247 228.251C258.972 228.581 258.701 228.908 258.43 229.237C257.885 229.888 257.348 230.533 256.815 231.172C255.744 232.44 254.698 233.68 253.674 234.891C253.418 235.19 253.161 235.491 252.907 235.787C252.646 236.076 252.383 236.363 252.123 236.649C251.608 237.211 251.099 237.765 250.597 238.313C249.587 239.395 248.607 240.447 247.659 241.464C245.775 243.468 244.017 245.336 242.407 247.047C242.205 247.258 242.007 247.466 241.81 247.671C241.625 247.884 241.441 248.094 241.259 248.301C240.894 248.714 240.541 249.115 240.195 249.506C239.5 250.284 238.836 251.015 238.205 251.688C238.596 250.865 239.032 249.98 239.509 249.039C239.75 248.568 239.999 248.085 240.254 247.588C240.384 247.339 240.517 247.087 240.653 246.832C240.799 246.585 240.945 246.338 241.095 246.084C242.299 244.063 243.657 241.832 245.215 239.541C245.991 238.385 246.794 237.193 247.621 235.964C248.039 235.348 248.463 234.729 248.894 234.099C249.107 233.788 249.321 233.473 249.539 233.158C249.747 232.836 249.957 232.512 250.166 232.185C251.018 230.884 251.887 229.549 252.776 228.188C253.225 227.51 253.679 226.825 254.136 226.133C254.363 225.789 254.595 225.444 254.828 225.094C255.047 224.737 255.268 224.375 255.49 224.017C256.382 222.576 257.287 221.113 258.208 219.626C259.134 218.146 260.085 216.648 260.978 215.086C262.797 211.98 264.721 208.856 266.554 205.59C267.489 203.973 268.431 202.347 269.377 200.712C270.313 199.066 271.251 197.414 272.19 195.759C274.092 192.45 276 189.133 277.893 185.843C280.377 181.585 282.399 178.357 284.032 175.968C285.685 173.604 286.958 172.045 287.969 171.047C289.992 169.051 290.972 169.298 291.887 169.851C292.803 170.402 293.481 171.155 292.657 173.877C292.246 175.237 291.46 177.091 290.142 179.656C288.854 182.233 287.064 185.49 284.589 189.736Z" fill="#EC86AD"/>
<path d="M266.158 188.765C261.406 195.381 256.558 202.052 251.606 208.431C249.146 211.629 246.7 214.77 244.291 217.822C241.829 220.839 239.403 223.766 237.047 226.576C235.863 227.975 234.7 229.35 233.562 230.696C232.989 231.366 232.426 232.027 231.864 232.683L231.491 233.118L231.082 233.611C230.812 233.936 230.539 234.261 230.272 234.58C229.205 235.86 228.163 237.113 227.152 238.329C226.119 239.548 225.126 240.73 224.112 241.845C222.131 244.101 220.101 246.07 218.196 247.743C217.208 248.554 216.242 249.282 215.339 249.955C214.375 250.567 213.473 251.118 212.636 251.619C213.293 250.879 213.998 250.105 214.747 249.299C215.439 248.426 216.18 247.519 216.931 246.554C218.384 244.553 219.921 242.344 221.461 239.844C223.027 237.319 224.697 234.622 226.454 231.789C226.681 231.433 226.904 231.078 227.133 230.721L227.476 230.181L227.867 229.589C228.345 228.875 228.827 228.154 229.312 227.426C230.293 225.972 231.297 224.489 232.316 222.979C234.367 219.967 236.513 216.863 238.728 213.694C240.896 210.485 243.131 207.215 245.417 203.918C250.013 197.351 254.686 190.55 259.426 183.953C271.648 166.836 273.882 166.883 275.742 168.212C277.601 169.541 278.386 171.641 266.158 188.765Z" fill="#EC86AD"/>
<path d="M254.916 187.837C250.497 193.797 245.923 199.84 241.424 205.534C239.171 208.397 236.928 211.213 234.723 213.946C232.565 216.706 230.46 219.394 228.398 221.975C227.365 223.26 226.349 224.524 225.355 225.762C224.854 226.38 224.358 226.989 223.868 227.593L223.502 228.043C223.48 228.066 223.422 228.143 223.43 228.127L223.342 228.24L223.167 228.47C222.933 228.775 222.7 229.079 222.47 229.381C221.54 230.582 220.635 231.754 219.757 232.891C218.893 234.027 218.056 235.128 217.245 236.192C215.618 238.315 214.014 240.283 212.574 242.031C211.062 243.75 209.665 245.251 208.432 246.522C209.228 244.922 210.19 243.127 211.268 241.15C212.292 239.116 213.455 236.947 214.718 234.549C215.36 233.351 216.024 232.116 216.708 230.845C217.422 229.592 218.154 228.307 218.907 226.989C219.097 226.659 219.289 226.329 219.482 225.994L219.627 225.743L219.698 225.62L219.795 225.466L220.108 224.971C220.526 224.311 220.947 223.642 221.373 222.969C222.238 221.621 223.12 220.242 224.015 218.843C225.823 216.047 227.708 213.15 229.674 210.211C231.676 207.315 233.746 204.358 235.859 201.379C240.117 195.404 244.414 189.399 248.785 183.512C250.211 181.632 251.421 179.897 252.529 178.409C253.634 176.917 254.619 175.639 255.495 174.551C257.252 172.371 258.584 170.948 259.628 170.048C261.718 168.249 262.649 168.551 263.499 169.143C264.349 169.736 264.957 170.507 263.986 173.083C263.498 174.371 262.615 176.111 261.172 178.506C260.45 179.703 259.589 181.064 258.564 182.615C257.53 184.166 256.372 185.916 254.916 187.837Z" fill="#EC86AD"/>
<path d="M242.212 187.101C239.985 190.229 237.732 193.361 235.426 196.484C234.274 198.04 233.119 199.596 231.97 201.146C230.785 202.677 229.603 204.202 228.431 205.718C226.119 208.763 223.617 211.65 221.236 214.488C220.065 215.922 218.786 217.255 217.556 218.588C216.322 219.906 215.101 221.21 213.902 222.489C213.32 223.138 212.655 223.714 212.038 224.314C211.41 224.906 210.79 225.491 210.175 226.07C208.945 227.216 207.739 228.34 206.562 229.436C204.217 231.51 201.974 233.526 199.648 235.248C197.412 237.047 195.182 238.453 193.2 239.766C192.708 240.101 192.201 240.387 191.705 240.663C191.212 240.938 190.733 241.206 190.266 241.466C189.333 241.979 188.455 242.449 187.635 242.872C188.294 242.214 189.008 241.519 189.77 240.791C190.153 240.428 190.548 240.056 190.952 239.674C191.36 239.296 191.778 238.91 192.179 238.478C193.807 236.778 195.686 235.009 197.505 232.95C199.392 230.993 201.305 228.681 203.406 226.261C204.413 225.061 205.441 223.835 206.492 222.581C207.021 221.958 207.553 221.329 208.091 220.695C208.624 220.051 209.198 219.444 209.704 218.752C210.748 217.404 211.809 216.033 212.885 214.641C213.962 213.251 215.087 211.875 216.128 210.385C218.248 207.439 220.491 204.508 222.623 201.385C223.711 199.848 224.807 198.295 225.906 196.741C226.995 195.171 228.089 193.591 229.185 192.012C231.406 188.854 233.632 185.692 235.843 182.552C238.742 178.493 241.129 175.428 243.006 173.179C244.922 170.985 246.367 169.556 247.491 168.661C249.737 166.873 250.695 167.23 251.555 167.883C252.414 168.537 253.014 169.365 251.891 172.012C251.332 173.335 250.343 175.11 248.742 177.544C247.209 180.007 245.093 183.072 242.212 187.101Z" fill="#EC86AD"/>
<path d="M232.934 155.543C223.966 147.184 215.503 138.029 207.9 130.323C206.003 128.391 204.129 126.589 202.389 124.816L202.061 124.485C202.016 124.44 201.933 124.359 201.919 124.34L201.751 124.18C201.526 123.967 201.302 123.759 201.081 123.551C200.638 123.133 200.203 122.721 199.773 122.314C198.918 121.492 198.084 120.716 197.279 119.971C195.67 118.488 194.184 117.031 192.869 115.692C192.198 115.046 191.614 114.353 191.071 113.708C190.528 113.061 190.027 112.457 189.574 111.89C190.188 112.299 190.836 112.743 191.517 113.218C192.196 113.697 192.896 114.212 193.697 114.698C195.282 115.729 196.999 116.851 198.838 118.047C199.774 118.657 200.736 119.299 201.695 119.983C202.18 120.324 202.672 120.669 203.168 121.02C203.417 121.196 203.666 121.375 203.918 121.553L204.106 121.69L204.314 121.851L204.687 122.137C206.67 123.687 208.786 125.301 210.898 127.06C219.373 134.08 228.346 142.829 237.137 151.022C238.548 152.379 239.806 153.483 240.891 154.519C241.979 155.544 242.906 156.454 243.695 157.265C245.363 158.849 246.445 160.036 247.115 160.95C248.452 162.78 248.142 163.526 247.6 164.184C247.057 164.841 246.386 165.286 244.337 164.319C243.313 163.833 241.943 162.999 240.074 161.654C239.15 160.936 238.102 160.081 236.909 159.073C235.727 158.058 234.351 156.908 232.934 155.543Z" fill="#EC86AD"/>
<path d="M224.781 147.395C223.203 144.404 221.672 141.348 220.07 138.367C219.285 136.868 218.5 135.37 217.718 133.876C216.911 132.405 216.108 130.936 215.31 129.477C212.151 123.621 208.839 118.077 205.652 112.947C204.894 111.637 204.025 110.441 203.235 109.224C202.436 108.011 201.654 106.826 200.891 105.668C200.149 104.5 199.362 103.371 198.623 102.276C197.887 101.177 197.175 100.107 196.483 99.0743C195.791 98.0474 195.165 97.0127 194.504 96.0953C193.855 95.1686 193.227 94.281 192.627 93.4279C191.444 91.7216 190.401 90.1594 189.519 88.7693C190.771 89.8181 192.184 91.0688 193.739 92.4965C194.517 93.2213 195.328 93.9789 196.173 94.7647C197.02 95.5662 197.804 96.4554 198.664 97.3523C199.509 98.265 200.382 99.2073 201.279 100.179C202.176 101.159 203.098 102.153 204.014 103.238C204.933 104.32 205.877 105.427 206.837 106.557C207.782 107.703 208.807 108.836 209.714 110.088C213.49 114.991 217.322 120.442 220.845 126.257C221.727 127.715 222.613 129.178 223.502 130.648C224.344 132.139 225.189 133.637 226.036 135.133C227.747 138.129 229.324 141.177 230.919 144.2C238.993 159.832 238.116 161.468 236.416 162.352C234.729 163.231 232.852 163.018 224.781 147.395Z" fill="#EC86AD"/>
<path d="M214.529 145.338C212.293 142.417 210.063 139.458 207.859 136.495C206.76 135.013 205.664 133.529 204.571 132.051C203.479 130.572 202.449 129.088 201.401 127.614C197.231 121.722 193.256 115.904 189.575 110.506C187.74 107.797 185.988 105.173 184.342 102.662C182.696 100.154 181.134 97.7342 179.719 95.4941C179.016 94.367 178.337 93.2775 177.684 92.2287C177.03 91.2002 176.397 90.214 175.793 89.2669C174.605 87.3728 173.561 85.6446 172.686 84.1121C173.974 85.3002 175.427 86.7059 177.019 88.3073C177.812 89.1057 178.648 89.9526 179.504 90.8448C180.334 91.759 181.197 92.7092 182.089 93.6907C183.873 95.6803 185.743 97.7984 187.71 100.084C189.675 102.363 191.726 104.778 193.831 107.299C198.069 112.338 202.444 117.825 206.901 123.498C209.122 126.32 211.368 129.178 213.619 132.041C215.862 134.9 218.09 137.779 220.286 140.651C220.981 141.589 221.683 142.451 222.335 143.267C222.98 144.089 223.586 144.859 224.153 145.582C225.275 147.038 226.225 148.317 227.025 149.446C228.624 151.7 229.622 153.353 230.197 154.589C231.347 157.06 230.807 157.867 230.015 158.517C229.222 159.165 228.323 159.536 226.135 157.914C225.04 157.104 223.624 155.796 221.733 153.777C220.787 152.767 219.726 151.581 218.527 150.189C217.932 149.488 217.299 148.74 216.623 147.944C215.952 147.148 215.241 146.296 214.529 145.338Z" fill="#EC86AD"/>
<path d="M209.687 149.64C202.087 139.297 195.254 128.142 189.268 118.484C187.795 116.046 186.317 113.754 184.96 111.532C183.606 109.312 182.291 107.199 181.106 105.209C178.722 101.234 176.776 97.7874 175.383 95.0464C177.524 97.2176 180.19 100.173 183.202 103.684C184.708 105.447 186.308 107.332 187.962 109.379C189.609 111.422 191.372 113.567 193.084 115.852C200.063 124.938 207.453 135.697 214.886 145.811C215.474 146.642 216.044 147.4 216.581 148.104C217.109 148.818 217.603 149.489 218.068 150.12C218.99 151.384 219.754 152.5 220.426 153.481C221.838 155.43 222.717 156.858 223.228 157.927C224.25 160.067 223.788 160.771 223.102 161.344C222.418 161.916 221.64 162.244 219.721 160.854C218.763 160.159 217.519 159.034 215.856 157.295C215.038 156.394 214.131 155.302 213.1 154.037C212.589 153.4 212.044 152.719 211.467 151.992C210.885 151.265 210.283 150.482 209.687 149.64Z" fill="#EC86AD"/>
<path d="M196.627 144.975C194.28 142.021 191.932 139.032 189.614 136.038C188.46 134.537 187.308 133.039 186.159 131.544C185.005 130.053 183.966 128.508 182.879 127.004C180.733 123.976 178.634 120.974 176.605 118.033C175.602 116.555 174.569 115.121 173.637 113.649C172.698 112.186 171.774 110.746 170.865 109.324C169.06 106.485 167.34 103.734 165.724 101.108C165.322 100.452 164.926 99.802 164.533 99.1617C164.337 98.8361 164.143 98.5136 163.947 98.1912C163.763 97.8718 163.579 97.5572 163.396 97.2425C162.67 95.9793 161.964 94.7661 161.299 93.5607C159.952 91.1719 158.802 88.8488 157.946 86.6714C157.039 84.5143 156.599 82.4182 156.354 80.6509C157.806 83.9633 160.422 87.6779 163.828 91.8638C164.683 92.9236 165.563 94.0225 166.471 95.1527C166.695 95.4376 166.925 95.7241 167.153 96.0153C167.383 96.2955 167.615 96.5772 167.847 96.8621C168.319 97.4429 168.798 98.0299 169.285 98.6232C171.219 101.007 173.232 103.529 175.3 106.156C176.33 107.474 177.378 108.814 178.441 110.174C179.489 111.547 180.623 112.886 181.727 114.271C183.952 117.031 186.21 119.869 188.479 122.757C189.625 124.189 190.728 125.681 191.91 127.096C193.081 128.524 194.257 129.956 195.434 131.389C197.777 134.263 200.11 137.159 202.404 140.048C203.131 140.991 203.87 141.853 204.56 142.672C205.239 143.495 205.878 144.27 206.478 144.993C207.664 146.454 208.668 147.738 209.515 148.873C211.208 151.139 212.268 152.805 212.888 154.054C214.125 156.554 213.594 157.39 212.797 158.074C212.003 158.756 211.096 159.157 208.815 157.556C207.675 156.753 206.191 155.452 204.206 153.436C203.214 152.426 202.098 151.241 200.836 149.846C200.21 149.145 199.543 148.395 198.831 147.6C198.122 146.798 197.375 145.944 196.627 144.975Z" fill="#EC86AD"/>
<path d="M190.651 144.846C188.84 141.976 187.037 139.072 185.257 136.16C184.371 134.706 183.487 133.252 182.605 131.8C181.751 130.332 180.899 128.867 180.051 127.411C176.68 121.58 173.471 115.855 170.55 110.484C169.09 107.798 167.7 105.203 166.399 102.722C165.106 100.22 163.982 97.8281 162.909 95.5896C161.829 93.3636 160.929 91.2253 160.139 89.2811C159.342 87.34 158.663 85.5836 158.108 84.0432C159.104 85.3441 160.206 86.864 161.4 88.5688C162.592 90.2766 163.86 92.1723 165.306 94.1917C168.146 98.3009 171.36 102.949 174.803 107.934C178.238 112.969 181.849 118.408 185.484 124.034C186.389 125.443 187.298 126.865 188.211 128.285C189.139 129.706 190.068 131.134 191.001 132.561C192.854 135.424 194.696 138.305 196.506 141.176C205.869 156.034 205.117 157.745 203.502 158.757C201.885 159.773 200.014 159.704 190.651 144.846Z" fill="#EC86AD"/>
<path d="M182.748 140.409C177.167 129.454 172.153 117.94 167.704 107.959C166.619 105.448 165.499 103.074 164.495 100.776C164.243 100.201 163.993 99.6361 163.748 99.0757L163.656 98.8675L163.644 98.8393C163.653 98.8581 163.614 98.7814 163.666 98.8722L163.659 98.8597L163.634 98.8081L163.584 98.7079L163.384 98.2993C163.252 98.0269 163.121 97.7576 162.991 97.4884C162.477 96.4192 161.981 95.3798 161.496 94.3717C159.591 90.3439 158.047 86.8484 156.977 84.1042C158.83 86.3944 161.098 89.4689 163.653 93.1194C164.29 94.0383 164.946 94.9869 165.621 95.9621C165.788 96.2079 165.957 96.4552 166.126 96.7057L166.383 97.0814L166.446 97.1769L166.479 97.2238L166.535 97.3193L166.655 97.5166C166.976 98.0426 167.303 98.5717 167.632 99.1086C168.933 101.272 170.342 103.539 171.679 105.943C177.158 115.517 182.773 126.777 188.278 137.581C190.068 141.061 191.381 143.713 192.319 145.815C193.306 147.91 193.886 149.417 194.177 150.521C194.761 152.724 194.199 153.309 193.449 153.727C192.699 154.145 191.907 154.317 190.34 152.659C189.556 151.831 188.579 150.545 187.32 148.605C186.093 146.631 184.568 143.951 182.748 140.409Z" fill="#EC86AD"/>
<path d="M174.61 137.89C168.775 125.656 162.542 113.099 157.393 101.94C156.105 99.1524 154.892 96.4459 153.754 93.8692C153.611 93.5483 153.471 93.2289 153.331 92.908C153.162 92.5323 153.054 92.2553 152.915 91.9266C152.655 91.2926 152.395 90.6695 152.142 90.0543C151.638 88.8286 151.148 87.6373 150.672 86.4852C149.711 84.2122 148.9 82.0019 148.195 80.0107C148.109 79.7618 148.025 79.516 147.937 79.2718C147.866 79.0229 147.798 78.7772 147.727 78.533C147.594 78.0493 147.463 77.5812 147.337 77.121C147.09 76.2068 146.871 75.3474 146.677 74.5537C147.107 75.2613 147.555 76.0252 148.023 76.8361C148.255 77.2431 148.493 77.6595 148.737 78.0884C148.857 78.3028 148.979 78.5205 149.103 78.7412C149.238 78.9588 149.377 79.1763 149.516 79.397C150.636 81.191 151.857 83.1431 153.162 85.236C153.832 86.2927 154.508 87.3963 155.186 88.539C155.526 89.1135 155.872 89.6927 156.221 90.2813C156.388 90.5646 156.581 90.9043 156.734 91.1439C156.914 91.4397 157.096 91.7387 157.279 92.0392C158.743 94.4406 160.252 96.9797 161.811 99.6236C168.041 110.192 174.96 122.48 180.882 134.903C181.861 136.893 182.634 138.727 183.329 140.321C184.012 141.922 184.589 143.323 185.04 144.546C185.903 146.986 186.378 148.729 186.58 149.987C186.983 152.506 186.289 153.093 185.409 153.475C184.53 153.854 183.625 153.957 182.069 151.938C181.289 150.926 180.345 149.386 179.163 147.083C178.556 145.948 177.874 144.649 177.124 143.125C176.36 141.601 175.579 139.864 174.61 137.89Z" fill="#EC86AD"/>
<path d="M167.529 136.146C165.998 133.367 164.474 130.557 162.971 127.744C162.224 126.339 161.478 124.931 160.734 123.53C159.973 122.147 159.214 120.767 158.461 119.398C155.459 113.906 152.597 108.521 149.994 103.457C148.691 100.928 147.452 98.4746 146.293 96.1328C146.141 95.8306 145.993 95.5285 145.842 95.2295C145.703 94.9384 145.565 94.6488 145.426 94.3623C145.154 93.7878 144.881 93.2211 144.617 92.6592C144.092 91.5446 143.585 90.4582 143.092 89.4031C142.103 87.3133 141.282 85.3049 140.554 83.4828C139.825 81.6638 139.202 80.0154 138.696 78.5706C139.617 79.7963 140.637 81.2223 141.739 82.8284C142.843 84.433 144.011 86.2175 145.341 88.1195C145.994 89.0807 146.666 90.0731 147.358 91.0938C148.042 92.1144 148.741 93.1648 149.462 94.2402C150.92 96.4177 152.436 98.7172 153.993 101.117C157.107 105.915 160.382 111.111 163.677 116.481C164.496 117.828 165.321 119.182 166.147 120.542C166.935 121.92 167.723 123.302 168.516 124.684C170.089 127.456 171.65 130.248 173.18 133.026C181.101 147.407 180.309 148.967 178.747 149.826C177.191 150.692 175.45 150.527 167.529 136.146Z" fill="#EC86AD"/>
<path d="M158.473 132.522C152.677 120.107 147.043 107.185 142.397 95.7775C140.064 90.0685 138.023 84.7524 136.234 80.0859C134.468 75.4132 133.053 71.3541 132.107 68.2014C133.977 70.944 136.234 74.5726 138.765 78.8915C141.312 83.1963 144.047 88.237 146.935 93.6658C152.702 104.553 158.998 117.17 164.795 129.581C172.293 145.634 171.327 147.251 169.58 148.065C167.835 148.877 165.972 148.575 158.473 132.522Z" fill="#EC86AD"/>
<path d="M151.54 127.893C145.792 115.987 139.54 103.712 134.864 92.5667C133.655 89.8038 132.63 87.0659 131.65 84.4736C130.662 81.8813 129.789 79.4189 128.998 77.1209C127.414 72.5171 126.157 68.5425 125.321 65.4368C127.062 68.1527 129.163 71.7688 131.503 76.0455C132.665 78.1964 133.898 80.4866 135.196 82.891C136.487 85.2986 137.788 87.8486 139.258 90.4519C144.948 100.928 151.8 112.812 157.662 124.95C158.146 125.918 158.575 126.863 158.968 127.757C159.359 128.651 159.724 129.49 160.068 130.276C160.738 131.854 161.31 133.231 161.747 134.432C162.556 136.83 162.996 138.538 163.174 139.773C163.533 142.238 162.845 142.804 161.98 143.16C161.113 143.519 160.23 143.607 158.736 141.608C157.99 140.609 157.09 139.09 155.962 136.824C155.38 135.715 154.713 134.455 153.987 132.976C153.628 132.232 153.245 131.443 152.841 130.6C152.443 129.757 152.022 128.854 151.54 127.893Z" fill="#EC86AD"/>
<path d="M146.822 128.233C144.549 122.959 142.373 117.533 140.181 112.311C139.1 109.689 138.046 107.097 137.033 104.553C135.985 102.04 134.958 99.5797 133.965 97.1956C133.481 96.0059 133.004 94.8334 132.538 93.6844C132.306 93.1115 132.08 92.5417 131.853 91.9781L131.688 91.5555L131.605 91.3457C131.612 91.3598 131.581 91.2972 131.619 91.3723L131.614 91.3582L131.601 91.3332L131.58 91.2815L131.534 91.1782C131.412 90.9042 131.291 90.6319 131.171 90.3626C130.695 89.2809 130.232 88.2227 129.779 87.1927C129.355 86.147 128.942 85.1311 128.54 84.1433C128.134 83.1696 127.796 82.2022 127.481 81.2708C127.173 80.3503 126.875 79.4628 126.591 78.6112C126.121 76.883 125.744 75.327 125.446 73.9807C126.144 75.1876 126.902 76.5824 127.721 78.1306C128.17 78.8961 128.638 79.6897 129.122 80.5194C129.599 81.3522 130.092 82.2225 130.648 83.1039C131.188 83.9977 131.745 84.9182 132.318 85.8652C132.907 86.8233 133.516 87.8048 134.137 88.8113C134.292 89.0665 134.447 89.3201 134.602 89.5752L134.662 89.6707L134.69 89.7193L134.706 89.7443L134.738 89.8085L134.848 90.0089L135.069 90.4065C135.36 90.945 135.656 91.4835 135.953 92.0313C136.545 93.1318 137.151 94.2542 137.763 95.3954C138.981 97.6887 140.249 100.068 141.496 102.527C142.703 105.002 143.92 107.543 145.141 110.126C147.614 115.285 149.924 120.637 152.204 125.928C158.046 139.618 157.188 140.953 155.699 141.589C154.212 142.224 152.659 141.921 146.822 128.233Z" fill="#EC86AD"/>
<path d="M136.932 123.798C134.782 118.178 132.73 112.416 130.701 106.835C128.679 101.248 126.774 95.7773 125.063 90.649C124.21 88.0833 123.402 85.6053 122.654 83.2431C122.467 82.6529 122.284 82.069 122.104 81.4914C122.013 81.2018 121.924 80.92 121.837 80.632L121.821 80.5804L121.813 80.5537L121.808 80.5397C121.815 80.5522 121.79 80.4927 121.819 80.5647L121.783 80.4582L121.708 80.2501L121.561 79.8337C121.178 78.7301 120.808 77.6546 120.445 76.6136C119.027 72.4606 117.901 68.8571 117.159 66.0613C118.721 68.5174 120.601 71.7719 122.701 75.6353C123.22 76.6074 123.759 77.6093 124.311 78.6408L124.52 79.0306L124.623 79.2247L124.676 79.3249L124.739 79.4643C124.867 79.7335 124.994 80.0043 125.124 80.2767C125.382 80.8246 125.642 81.3787 125.907 81.9376C126.959 84.187 128.047 86.5586 129.155 89.0304C131.376 93.9708 133.69 99.301 135.996 104.803C138.311 110.303 140.507 115.99 142.658 121.614C148.185 136.166 147.234 137.526 145.654 138.131C144.068 138.733 142.458 138.351 136.932 123.798Z" fill="#EC86AD"/>
<path d="M130.044 117.302C126.86 106.037 122.941 94.4343 120.348 83.979C119.697 81.3694 119.169 78.8179 118.644 76.4118L118.548 75.9594L118.501 75.7356L118.49 75.6808L118.47 75.5869L118.465 75.5572L118.448 75.4476C118.404 75.1486 118.359 74.8511 118.315 74.5569C118.23 73.9683 118.144 73.3875 118.061 72.8114C117.902 71.6703 117.75 70.5588 117.599 69.4802C117.294 67.3403 117.119 65.3147 116.969 63.4848C116.818 61.6548 116.715 60.0127 116.66 58.5835C117.147 59.9344 117.665 61.4936 118.21 63.2327C118.756 64.9719 119.304 66.8895 119.969 68.9574C120.287 69.9984 120.616 71.0707 120.951 72.1759C121.115 72.7316 121.283 73.2951 121.453 73.8649C121.538 74.1514 121.621 74.4394 121.707 74.729C121.801 74.992 121.895 75.2566 121.989 75.5227C122.793 77.8238 123.636 80.2314 124.506 82.7235C128.07 92.6967 132.583 104.065 135.871 115.669C136.004 116.137 136.134 116.591 136.264 117.029C136.373 117.482 136.481 117.918 136.586 118.346C136.782 119.197 136.968 119.997 137.14 120.75C137.471 122.251 137.749 123.56 137.937 124.692C138.222 126.926 138.306 128.494 138.247 129.601C138.126 131.818 137.43 132.185 136.613 132.348C135.791 132.51 135.007 132.431 134.053 130.426C133.576 129.423 133.058 127.94 132.471 125.766C132.144 124.706 131.766 123.508 131.376 122.107C131.184 121.406 130.982 120.658 130.764 119.863C130.66 119.462 130.55 119.05 130.439 118.626C130.307 118.199 130.177 117.756 130.044 117.302Z" fill="#EC86AD"/>
<path d="M122.024 114.118C117.353 102.54 112.384 90.5302 108.873 79.682C108.652 79.0057 108.421 78.3436 108.216 77.6752C108.018 77.0036 107.821 76.3383 107.626 75.6808C107.245 74.3675 106.873 73.0839 106.508 71.8253C106.328 71.1897 106.153 70.5948 105.982 69.9515C105.827 69.3394 105.677 68.7352 105.528 68.1403C105.221 66.9694 104.924 65.8282 104.634 64.7278C103.446 60.2805 102.746 56.2746 102.837 53.2393C103.678 56.1666 105.155 59.7169 107.057 63.8762C107.527 64.9125 108.012 66.0192 108.505 67.1666C108.737 67.7333 108.973 68.3109 109.211 68.8948C109.459 69.4631 109.709 70.0423 109.963 70.6277C110.47 71.8127 110.99 73.0244 111.52 74.261C111.783 74.8809 112.046 75.5102 112.314 76.1411C112.594 76.7719 112.879 77.4075 113.165 78.0477C117.672 88.3261 123.22 99.9806 127.963 111.73C128.749 113.609 129.356 115.353 129.904 116.86C130.44 118.377 130.892 119.701 131.238 120.852C131.877 123.15 132.204 124.783 132.31 125.951C132.522 128.288 131.849 128.785 131.016 129.077C130.181 129.372 129.345 129.407 128.041 127.453C127.39 126.475 126.62 125.002 125.676 122.81C125.185 121.735 124.634 120.505 124.034 119.063C123.445 117.613 122.78 115.976 122.024 114.118Z" fill="#EC86AD"/>
<path d="M114.048 112.934C109.934 103.016 105.871 92.6153 103.24 83.201C102.93 82.0238 102.626 80.8638 102.326 79.7258C102.18 79.1591 102.035 78.5956 101.892 78.0414C101.822 77.7518 101.75 77.4685 101.679 77.182C101.62 76.9081 101.563 76.6341 101.507 76.3649C101.053 74.1937 100.643 72.132 100.278 70.2019C100.191 69.7182 100.087 69.2502 100.023 68.7758C99.9621 68.3031 99.9026 67.8381 99.8447 67.381C99.7367 66.4794 99.6334 65.6074 99.5347 64.7699C99.3516 63.1138 99.217 61.6282 99.1309 60.3352C99.6052 61.5468 100.114 62.9462 100.649 64.4991C100.914 65.2834 101.186 66.1006 101.473 66.9475C101.612 67.3748 101.753 67.81 101.897 68.253C102.041 68.6991 102.226 69.1468 102.392 69.607C103.076 71.4479 103.788 73.425 104.519 75.518C104.611 75.7794 104.702 76.044 104.796 76.3085C104.893 76.5574 104.99 76.8095 105.09 77.0599C105.294 77.5875 105.502 78.1181 105.709 78.6519C106.12 79.7321 106.54 80.8278 106.967 81.944C110.455 90.862 114.979 100.884 119.107 110.833C120.444 114.047 121.38 116.575 122.03 118.516C122.651 120.457 122.978 121.843 123.107 122.84C123.36 124.831 122.8 125.277 122.097 125.553C121.394 125.83 120.682 125.888 119.505 124.258C118.916 123.443 118.213 122.206 117.336 120.367C116.436 118.546 115.381 116.142 114.048 112.934Z" fill="#EC86AD"/>
<path d="M104.77 103.603C101.19 92.2786 98.7936 80.3675 97.0513 69.9826C96.6083 67.3841 96.2201 64.881 95.86 62.4969C95.7724 61.9005 95.6847 61.3119 95.5986 60.7311C95.5188 60.1441 95.4389 59.568 95.3622 58.9967C95.2167 57.8696 95.0773 56.7722 94.9412 55.7093C94.4214 51.4686 94.0692 47.826 93.9189 45.0051C94.9145 47.6475 96.0557 51.1274 97.2783 55.2193C97.8794 57.2779 98.5165 59.471 99.1849 61.769C99.8518 64.0858 100.528 66.5356 101.223 69.0653C103.992 79.206 106.963 90.7993 110.445 101.798C110.708 102.698 110.985 103.521 111.245 104.293C111.498 105.069 111.735 105.797 111.955 106.481C112.392 107.854 112.723 109.05 113.032 110.102C113.707 112.217 114.07 113.723 114.208 114.806C114.487 116.974 113.879 117.458 113.115 117.763C112.352 118.067 111.574 118.131 110.295 116.361C109.654 115.476 108.887 114.13 107.932 112.129C107.472 111.107 107.003 109.877 106.467 108.466C106.207 107.756 105.929 106.998 105.634 106.193C105.339 105.381 105.036 104.52 104.77 103.603Z" fill="#EC86AD"/>
<path d="M95.8682 102.733C91.2033 92.4071 86.6793 81.6607 82.9552 72.1759C82.0238 69.8059 81.1425 67.5126 80.3222 65.3273C80.1187 64.781 79.9168 64.2425 79.7195 63.7071L79.6804 63.6085L79.6632 63.5584L79.6569 63.5474C79.6679 63.5662 79.6303 63.4864 79.6788 63.585L79.6679 63.56L79.5865 63.3643L79.4237 62.9745C79.3172 62.7177 79.2123 62.4595 79.1043 62.2059C78.6864 61.1883 78.2825 60.1975 77.888 59.2379C77.5061 58.283 77.1382 57.3578 76.7797 56.4656C76.4494 55.5701 76.1301 54.7045 75.8248 53.8795C75.2347 52.2296 74.8151 50.7017 74.4473 49.3931C75.9641 51.8179 77.8254 54.7937 79.9575 58.1984C80.4975 59.0845 81.0548 59.9971 81.6278 60.9379C81.7671 61.1774 81.9127 61.4138 82.0567 61.6533L82.2743 62.0149L82.3807 62.198L82.5075 62.4344C82.7768 62.9353 83.0491 63.4457 83.3246 63.9576C84.422 66.0176 85.56 68.1919 86.7216 70.4571C91.3771 79.516 96.4521 90.0105 101.119 100.334C107.152 113.689 106.336 115.024 104.89 115.683C103.437 116.347 101.903 116.084 95.8682 102.733Z" fill="#EC86AD"/>
<path d="M94.8525 97.5573C94.4189 94.9243 93.9994 92.2678 93.5986 89.6176C93.3998 88.2917 93.201 86.9674 93.0038 85.6462C92.7768 84.3297 92.5498 83.0178 92.3244 81.7123C91.883 79.1028 91.4619 76.523 91.0674 73.9965C90.8858 72.7301 90.6338 71.495 90.4131 70.2724C90.1923 69.0514 89.9763 67.8444 89.7618 66.6594C89.3423 64.2847 88.9557 61.9961 88.6034 59.8108C88.2184 57.6036 87.8724 55.542 87.5687 53.5962C87.2948 51.6457 86.9238 49.8877 86.6592 48.2581C86.3868 46.6317 86.1677 45.1603 86.0049 43.8704C86.5496 45.0491 87.1414 46.4219 87.7707 47.9639C88.389 49.5073 89.1106 51.2168 89.7039 53.0843C90.3269 54.944 90.986 56.9587 91.6419 59.0579C92.2774 61.1899 92.9318 63.441 93.5924 65.7812C93.9211 66.9553 94.253 68.1497 94.5911 69.3582C94.9214 70.5714 95.2767 71.8002 95.5538 73.0588C96.1408 75.5697 96.7263 78.151 97.3055 80.7653C97.5904 82.0755 97.8784 83.3935 98.1633 84.7147C98.4216 86.0438 98.6549 87.3869 98.8975 88.7269C99.375 91.4115 99.8367 94.1056 100.277 96.784C100.583 98.5185 100.732 100.037 100.892 101.386C101.041 102.734 101.147 103.905 101.214 104.924C101.354 106.962 101.349 108.385 101.233 109.385C101.008 111.383 100.36 111.683 99.6082 111.785C98.8584 111.889 98.1524 111.776 97.3963 109.913C97.019 108.982 96.6277 107.612 96.2144 105.613C96.0062 104.614 95.7918 103.457 95.5726 102.12C95.3425 100.788 95.1531 99.2511 94.8525 97.5573Z" fill="#EC86AD"/>
<path d="M86.4225 93.7769C83.0224 82.6141 80.5319 70.9315 78.6315 60.7298C78.1587 58.1735 77.7188 55.7158 77.3197 53.3708C77.2211 52.787 77.1256 52.2078 77.0285 51.6364C76.98 51.3515 76.9346 51.0697 76.8876 50.7864L76.8641 50.6721L76.8579 50.6189L76.8454 50.514L76.8172 50.3026L76.764 49.8816C76.6309 48.7686 76.4994 47.6885 76.3742 46.6381C75.8952 42.4553 75.5742 38.8502 75.4521 36.0779C76.4164 38.7046 77.5107 42.1344 78.6894 46.1825C78.979 47.2 79.278 48.2504 79.5848 49.3274L79.6991 49.7375L79.757 49.9442L79.7867 50.0444L79.8008 50.096L79.804 50.1101C79.8165 50.1696 79.7899 50.0412 79.793 50.0616L79.8024 50.0866C79.8869 50.3605 79.9762 50.6329 80.0607 50.91C80.2329 51.4642 80.4066 52.0246 80.5851 52.5897C81.2864 54.8658 82.008 57.264 82.7344 59.753C85.646 69.7105 88.7111 81.1363 92.0391 92.0628C92.5573 93.838 93.0739 95.3549 93.4668 96.7309C93.8753 98.1006 94.1853 99.2934 94.4718 100.342C95.0776 102.446 95.3906 103.939 95.4971 105.012C95.71 107.158 95.0964 107.618 94.334 107.895C93.5732 108.172 92.8077 108.213 91.593 106.43C90.9872 105.539 90.2702 104.192 89.3842 102.191C88.9537 101.177 88.5138 99.9649 88.0129 98.5733C87.5323 97.177 86.95 95.585 86.4225 93.7769Z" fill="#EC86AD"/>
<path d="M79.7041 88.4152C76.5874 77.7423 74.4491 66.534 73.0621 56.7283C72.7162 54.2769 72.425 51.9084 72.1558 49.6543C71.8897 47.4267 71.6533 45.2774 71.4545 43.2878C71.2353 41.2998 71.1445 39.4213 71.0584 37.7291C70.977 36.0322 70.9348 34.5075 70.9316 33.1863C71.3386 34.4496 71.7676 35.9038 72.2153 37.5271C72.6661 39.152 73.106 40.9429 73.6586 42.873C74.1908 44.8094 74.7356 46.871 75.2991 49.0845C75.8439 51.287 76.4137 53.5913 77.0038 55.9691C79.3488 65.529 82.0256 76.4289 85.0672 86.8466C85.5259 88.5482 86.0111 89.9899 86.3728 91.3002C86.7484 92.6026 87.0459 93.7422 87.2916 94.7362C87.8536 96.7415 88.1416 98.1645 88.2371 99.1867C88.425 101.231 87.8395 101.663 87.1116 101.921C86.3853 102.18 85.6558 102.213 84.5131 100.511C83.9417 99.6578 83.267 98.3742 82.4389 96.4629C82.0476 95.4814 81.6296 94.3308 81.1662 92.9987C80.7201 91.6634 80.1722 90.1434 79.7041 88.4152Z" fill="#EC86AD"/>
<path d="M73.5067 80.3596C71.5343 69.0809 70.6482 57.3921 70.2115 47.2342C70.0988 44.6904 70.0221 42.2437 69.9595 39.9144C69.8796 37.6117 69.8045 35.4154 69.734 33.3507C69.6573 31.2953 69.684 29.3605 69.7293 27.615C69.7716 25.8696 69.8358 24.3042 69.9297 22.947C70.2538 24.2745 70.5888 25.8023 70.93 27.5008C71.2681 29.2008 71.6063 31.0667 72.0289 33.0924C72.2277 34.1067 72.4297 35.1555 72.6379 36.2341C72.7396 36.7773 72.8398 37.3252 72.9462 37.8825L73.0214 38.302L73.0965 38.7575C73.1435 39.0424 73.1873 39.3258 73.2343 39.6154C73.599 41.9149 73.9559 44.3398 74.3222 46.8507C75.7734 56.8974 77.248 68.3671 79.1718 79.364C79.2438 79.8086 79.3159 80.2422 79.3832 80.6586C79.463 81.0735 79.5397 81.4742 79.6117 81.864C79.751 82.6435 79.881 83.3746 80.0062 84.0587C80.2441 85.4347 80.4101 86.6274 80.5603 87.6763C80.9126 89.7927 81.0503 91.2798 81.0331 92.3349C80.9987 94.4466 80.349 94.8255 79.5773 95.0102C78.804 95.1949 78.0557 95.1479 77.0758 93.2773C76.5858 92.3427 76.0379 90.9527 75.4039 88.9067C75.1065 87.8657 74.8153 86.6337 74.4913 85.2201C74.3363 84.5079 74.1704 83.7503 73.9951 82.9441C73.9121 82.5387 73.8244 82.1207 73.7352 81.6902C73.6601 81.2566 73.5849 80.8151 73.5067 80.3596Z" fill="#EC86AD"/>
<path d="M66.2022 73.3435C64.8748 63.5003 64.2799 53.3033 64.3378 44.4071C64.3723 42.1811 64.366 40.0428 64.4756 38.0062C64.5742 35.9712 64.6854 34.0442 64.8059 32.2487C65.0877 28.6576 65.4774 25.5957 65.8484 23.2585C66.2069 25.6082 66.4918 28.6686 66.8159 32.2315C67.1524 35.8569 67.5281 39.916 67.9289 44.2475C68.7538 53.0043 69.8621 63.0025 71.1645 72.6595C71.9801 78.8788 72.3339 82.2788 72.1539 84.1041C71.9911 85.934 71.4056 86.2236 70.7215 86.3348C70.039 86.4443 69.3909 86.3582 68.6583 84.6739C67.9414 82.9754 67.0475 79.7445 66.2022 73.3435Z" fill="#EC86AD"/>
<path d="M60.486 66.2712C59.5655 56.4953 58.6325 46.3437 58.2428 37.4397C58.1551 35.2137 58.0487 33.0707 58.0346 31.0231C58.0158 28.9771 58.0126 27.0392 58.0299 25.2327C58.1034 21.615 58.3257 18.5202 58.5621 16.1565C59.0552 18.4952 59.5107 21.5446 60.0445 25.0981C60.3294 26.8764 60.6175 28.7799 60.9024 30.7867C61.2029 32.8108 61.516 34.9209 61.8385 37.1C63.1112 45.8693 64.5638 55.9161 65.4953 65.8172C66.1167 72.2495 66.0118 75.6261 65.6988 77.4466C65.3732 79.2625 64.758 79.4988 64.0661 79.5474C63.3741 79.5959 62.7308 79.4503 62.15 77.6986C61.5567 75.9532 61.0934 72.5594 60.486 66.2712Z" fill="#EC86AD"/>
<path d="M54.9904 59.9048C53.785 51.3561 52.7065 42.4584 52.2525 34.6424C52.1539 32.6856 52.0287 30.8071 52.0067 29.0085C51.9864 27.2114 51.9817 25.5098 51.9942 23.9225C51.9911 23.132 52.0255 22.3649 52.0725 21.6292C52.1179 20.906 52.1633 20.2031 52.2071 19.5284C52.3042 18.1916 52.409 17.0003 52.5311 15.9656C52.73 16.9925 52.9319 18.1775 53.1323 19.4909C53.2278 20.1593 53.3264 20.8481 53.4297 21.5603C53.5221 22.282 53.6238 23.0318 53.76 23.8098C54.0136 25.3674 54.2656 27.033 54.5192 28.7878C54.7697 30.5442 55.1109 32.3866 55.399 34.2995C56.6215 41.9544 58.1462 50.6987 59.3579 59.3037C60.1531 64.8874 60.2486 67.8539 60.056 69.46C59.8588 71.0661 59.3328 71.3025 58.7286 71.3776C58.1243 71.4543 57.5561 71.3573 56.9644 69.8513C56.3632 68.3486 55.7747 65.415 54.9904 59.9048Z" fill="#FFCADE"/>
<path d="M49.0513 55.099C47.417 46.8478 46.6563 38.2397 46.7032 30.7179C46.7486 28.8347 46.7518 27.0267 46.8645 25.3079C47.0085 23.5891 47.1634 21.9626 47.32 20.452C47.3607 20.0763 47.3998 19.7038 47.439 19.3406C47.4859 18.979 47.5595 18.6236 47.6174 18.2761C47.7426 17.5905 47.8663 16.9299 47.9853 16.2912C48.2279 15.0342 48.4674 13.9134 48.6975 12.9475C48.7711 13.9478 48.8259 15.0937 48.865 16.3616C48.8791 17.0035 48.8948 17.6688 48.9104 18.3528C48.9198 18.6988 48.9136 19.051 48.9324 19.411C48.9574 19.7742 48.9824 20.1436 49.0075 20.5178C49.1061 22.0159 49.1938 23.6157 49.2705 25.3032C49.3816 26.9844 49.582 28.7565 49.7229 30.5895C50.4117 37.9141 51.5967 46.2686 53.1777 54.2568C53.4438 55.5389 53.6661 56.6754 53.8477 57.6819C53.9338 58.1813 54.0136 58.6509 54.0919 59.0939C54.1764 59.5354 54.2578 59.9502 54.333 60.34C54.6194 61.8835 54.7369 62.9714 54.7369 63.7463C54.7384 65.2913 54.2672 65.5762 53.7052 65.7202C53.1417 65.8642 52.5923 65.8392 51.8518 64.4836C51.1255 63.1154 50.1127 60.4934 49.0513 55.099Z" fill="#EC86AD"/>
<path d="M41.942 46.8195C40.0589 38.8031 38.9521 30.3045 39.1447 22.8517C39.2495 15.4004 40.7429 9.09806 42.36 5.53052C41.906 9.42993 41.499 15.6007 42.1142 22.7687C42.6496 29.9351 44.1383 38.0627 45.9729 45.874C46.2688 47.1357 46.5287 48.2503 46.7603 49.238C46.9701 50.2117 47.158 51.0633 47.3239 51.8257C47.4742 52.5692 47.5837 53.2048 47.6573 53.748C47.7418 54.2974 47.7888 54.7545 47.8045 55.1333C47.8624 56.6502 47.4115 56.9476 46.8636 57.112C46.3142 57.2748 45.7741 57.2701 44.9977 55.963C44.8036 55.639 44.5938 55.2304 44.3668 54.7232C44.1461 54.205 43.9098 53.5867 43.6483 52.8478C43.3822 52.1074 43.113 51.2496 42.8328 50.2508C42.5385 49.2568 42.241 48.1188 41.942 46.8195Z" fill="#EC86AD"/>
<path d="M44.4202 47.6445C43.5827 39.4888 42.501 31.009 42.1989 23.5045C41.8451 16.0109 42.3413 9.54895 43.2367 5.65894C43.5639 9.64288 44.1243 15.9217 45.2091 23.2258C46.2423 30.5347 47.7529 38.9002 48.6107 47.2156C48.7563 48.5556 48.8408 49.7484 48.905 50.8019C48.9755 51.8507 48.9927 52.779 48.9896 53.5805C49.0005 55.1913 48.8878 56.2792 48.7234 57.0306C48.401 58.5428 47.8797 58.7229 47.3005 58.7479C46.7182 58.7698 46.1875 58.6305 45.7445 57.1481C45.53 56.4045 45.3328 55.3244 45.1152 53.8122C45.0197 53.0279 44.9133 52.1513 44.7896 51.151C44.6816 50.1163 44.5579 48.9579 44.4202 47.6445Z" fill="#FFCADE"/>
<path d="M38.3573 40.7269C36.8968 33.6466 35.945 26.2345 35.7274 19.7271C35.7086 18.9162 35.6898 18.1194 35.6695 17.3336C35.6601 16.5509 35.6272 15.7901 35.6695 15.0434C35.7211 13.5516 35.7838 12.1396 35.8542 10.8278C35.8792 10.1719 35.9481 9.53946 36.0264 8.93521C36.1015 8.3388 36.1767 7.76117 36.2487 7.20232C36.3958 6.10498 36.5492 5.12349 36.7026 4.27661C36.8138 5.13915 36.9187 6.12532 37.0126 7.2211C37.058 7.77682 37.1034 8.35134 37.1488 8.94462C37.1879 9.54104 37.2302 10.1656 37.3178 10.8121C37.4681 12.1052 37.6121 13.489 37.7515 14.9463C37.8047 15.6758 37.9284 16.4194 38.027 17.1802C38.1272 17.9457 38.2305 18.7205 38.3354 19.5079C39.1885 25.8353 40.4909 33.0267 41.9279 39.9865C42.8437 44.4729 43.2476 46.9259 43.2084 48.2628C43.1787 49.5996 42.7654 49.8391 42.2755 49.9518C41.7855 50.063 41.3081 50.0332 40.696 48.8404C40.0917 47.6397 39.2996 45.3261 38.3573 40.7269Z" fill="#FFCADE"/>
<path d="M35.3326 38.9941C33.0753 31.4927 31.3002 23.6313 30.2138 16.6856C29.9602 14.9464 29.6784 13.2793 29.5094 11.6779C29.3309 10.078 29.1806 8.55959 29.0538 7.1429C28.83 4.30483 28.783 1.86596 28.7908 0C29.3544 1.79238 29.9289 4.1467 30.6192 6.88302C30.9808 8.25118 31.3534 9.71798 31.7307 11.2646C32.1032 12.8096 32.5681 14.4251 32.9908 16.1079C34.7472 22.8219 36.8949 30.4689 39.1147 37.8466C40.536 42.5976 41.2092 45.2056 41.3 46.6505C41.3986 48.0985 40.9759 48.3959 40.4578 48.5665C39.9396 48.7356 39.4215 48.7481 38.645 47.5239C37.8717 46.2904 36.7916 43.8687 35.3326 38.9941Z" fill="#FFCADE"/>
<path d="M34.2886 39.7894C30.7836 33.0769 27.1754 26.1625 23.9319 19.9479C20.7932 13.8021 18.1994 8.47197 16.8516 5.02026C19.1871 7.90843 22.6091 12.7235 26.3629 18.5421C27.3037 19.9948 28.2665 21.5086 29.2448 23.0646C29.7332 23.8457 30.2248 24.6347 30.7194 25.4284C31.1969 26.2455 31.6775 27.0689 32.158 27.8923C33.1145 29.5626 34.0757 31.2485 35.0399 32.9376C35.9839 34.6376 36.9842 36.3329 37.7982 38.0658C42.1985 46.9823 41.6757 47.9012 40.7051 48.3771C39.7377 48.853 38.6873 48.7074 34.2886 39.7894Z" fill="#EC86AD"/>
<path d="M32.9615 41.8603C29.1575 36.3595 25.3787 30.605 22.2839 25.4314C19.1687 20.2765 16.6484 15.7854 15.2803 12.8738C17.4781 15.2469 20.7028 19.2606 24.3095 24.0632C27.8896 28.8784 31.9612 34.4324 35.7667 39.9332C40.6851 47.0511 40.3517 47.9074 39.5784 48.4412C38.802 48.9719 37.8799 48.9782 32.9615 41.8603Z" fill="#FFCADE"/>
<path d="M31.3193 44.8738C19.7291 35.3405 9.02175 23.7534 4.66211 18.0835C10.548 22.177 22.3355 32.5932 33.7065 41.9418C37.3523 44.9474 39.3028 46.6364 40.1497 47.7291C41.0091 48.8186 40.8369 49.2819 40.5207 49.6968C40.2029 50.1116 39.8006 50.3981 38.5264 49.8533C37.2522 49.2929 35.0888 47.978 31.3193 44.8738Z" fill="#EC86AD"/>
<path d="M31.6395 48.5525C25.788 45.4812 19.4231 42.7464 13.8832 40.2919C11.1077 39.0693 8.53891 37.8921 6.31292 36.8214C4.09318 35.7381 2.22565 34.7331 0.818359 33.9128C2.4135 34.2713 4.44696 34.8396 6.81071 35.5315C9.18073 36.2156 11.8701 37.0437 14.7676 37.9845C20.5565 39.8833 27.1421 42.3066 33.2675 45.5234C35.2431 46.5879 36.7646 47.4175 37.7712 48.1909C38.8137 48.936 39.501 49.5074 39.9408 49.9613C40.819 50.8677 40.7048 51.3029 40.4559 51.7067C40.2038 52.1122 39.8688 52.4065 38.6619 52.0324C37.455 51.6911 35.3965 50.4732 31.6395 48.5525Z" fill="#EC86AD"/>
<path d="M28.6601 44.0001C24.7904 40.7425 20.5482 37.6524 16.7083 35.1619C15.7346 34.5577 14.8282 33.9174 13.9203 33.3899C13.0155 32.8545 12.1576 32.3395 11.3609 31.8495C9.75162 30.904 8.3412 30.1354 7.29395 29.4529C8.48521 29.7832 10.0459 30.2293 11.8179 30.9009C12.693 31.2547 13.6307 31.6445 14.6185 32.0624C15.6109 32.4788 16.5987 33.0158 17.6522 33.5339C21.8209 35.6738 26.3417 38.6199 30.3601 42.0012C32.9931 44.2021 34.0967 45.5546 34.6274 46.3623C35.1424 47.1763 34.989 47.4816 34.7401 47.7446C34.4896 48.0076 34.1938 48.1782 33.3516 47.7102C32.5078 47.2578 31.1459 46.0727 28.6601 44.0001Z" fill="#FFCADE"/>
<path d="M35.633 52.8152C30.0273 49.7329 23.9254 47.056 18.484 45.0069C17.8062 44.7533 17.1378 44.5044 16.4772 44.2587C15.8197 44.0082 15.181 43.7562 14.5455 43.5574C13.2775 43.1332 12.0753 42.7215 10.9545 42.3223C8.70185 41.5678 6.75449 40.9651 5.27832 40.3875C6.84685 40.4892 8.89909 40.6552 11.2722 41.0246C12.4541 41.2312 13.7205 41.4644 15.0589 41.7227C15.7289 41.8386 16.4036 42.017 17.0955 42.1908C17.7921 42.3693 18.4981 42.5493 19.2151 42.7309C24.9648 44.2618 31.3876 46.6819 37.2594 49.9098C41.1181 52.009 42.779 53.4648 43.6369 54.3445C44.4665 55.2399 44.3476 55.6595 44.0971 56.0446C43.8451 56.4312 43.5132 56.7114 42.3548 56.3216C41.1948 55.9553 39.2224 54.7547 35.633 52.8152Z" fill="#FFCADE"/>
<path d="M35.785 59.1863C28.5106 57.2656 21.0875 54.966 14.7414 52.5772C13.1572 51.9667 11.6262 51.4063 10.1954 50.7927C8.76154 50.1869 7.4106 49.6014 6.15828 49.0425C3.6599 47.8935 1.57323 46.7946 0 45.9102C1.77986 46.278 4.03873 46.8917 6.67643 47.5992C9.39553 48.3209 12.3964 49.1208 15.5757 49.9646C22.2193 51.6975 29.6001 53.6229 36.7634 55.492C46.1386 57.9543 46.5033 58.9108 46.2325 59.9377C45.9648 60.9536 45.1947 61.6612 35.785 59.1863Z" fill="#FFCADE"/>
<path d="M38.9721 63.2406C31.4065 61.42 23.8425 59.1768 17.1786 57.4533C16.3505 57.2357 15.5333 57.0259 14.7287 56.8178C13.9288 56.608 13.1461 56.3857 12.3775 56.2292C10.8418 55.8832 9.38443 55.5419 8.0241 55.2085C7.34472 55.0269 6.68569 54.9032 6.0517 54.7843C5.42554 54.6559 4.81973 54.5338 4.2327 54.4133C3.07431 54.1722 2.03332 53.9327 1.12695 53.7042C2.0521 53.6494 3.11814 53.6118 4.31098 53.5961C4.91679 53.5914 5.54451 53.5868 6.19102 53.5836C6.85006 53.5789 7.53413 53.5805 8.23856 53.6478C9.64899 53.748 11.1627 53.8717 12.7641 54.0172C13.5672 54.0752 14.3749 54.202 15.2077 54.3194C16.0421 54.4415 16.889 54.5651 17.7515 54.695C24.6596 55.7595 32.4318 57.6286 39.8659 59.4194C44.6341 60.5841 47.2248 61.2729 48.5132 61.9116C49.8109 62.5424 49.8578 63.0527 49.7498 63.5834C49.6402 64.1156 49.3961 64.5649 47.9575 64.6322C46.5142 64.6839 43.8968 64.4428 38.9721 63.2406Z" fill="#EC86AD"/>
<path d="M41.7816 67.4953C34.1628 65.7045 26.3687 63.848 19.5075 62.4501C18.6544 62.2779 17.8122 62.1072 16.9825 61.9382C16.1576 61.7675 15.3514 61.5875 14.5624 61.4638C12.9829 61.1852 11.4833 60.9097 10.0838 60.6373C9.38408 60.4886 8.70782 60.3916 8.05661 60.2867C7.41323 60.1787 6.79177 60.0738 6.19066 59.9736C5.00722 59.7638 3.93805 59.5572 3.00977 59.3569C3.94901 59.2676 5.03226 59.1956 6.24231 59.1361C6.85908 59.1095 7.49464 59.086 8.1521 59.0594C8.8174 59.0359 9.514 59.0093 10.231 59.0391C11.668 59.0719 13.2115 59.1251 14.8411 59.1956C15.6582 59.2159 16.4879 59.2958 17.3379 59.3725C18.191 59.4507 19.0614 59.5322 19.9427 59.6136C27.0183 60.3243 35.0332 61.802 42.6911 63.6022C52.5875 65.9424 52.9492 66.9756 52.7002 68.0416C52.4451 69.1265 51.6373 69.8262 41.7816 67.4953Z" fill="#FFCADE"/>
<path d="M42.1816 71.2679C34.2904 69.798 25.9531 68.782 18.6771 67.8178C15.036 67.3403 11.6516 66.8628 8.70079 66.3885C5.74688 65.9064 3.22816 65.4039 1.31055 64.9468C3.28452 64.8028 5.84081 64.7417 8.82759 64.7198C11.8159 64.6885 15.2301 64.7245 18.9197 64.8341C26.299 65.0689 34.7631 65.6481 42.9815 67.1759C48.3712 68.1528 50.9306 69.2078 52.2925 69.9169C53.6325 70.6511 53.6559 71.1928 53.5135 71.75C53.3695 72.3073 53.0861 72.7738 51.5552 72.7691C50.0352 72.7989 47.2221 72.1695 42.1816 71.2679Z" fill="#EC86AD"/>
<path d="M46.2747 75.4414C38.3804 74.1954 30.4845 72.2965 23.567 70.9456C16.6542 69.5477 10.6853 68.718 6.90332 68.2155C10.6571 67.5471 16.8452 67.3765 23.985 68.0872C31.1326 68.7525 39.1678 70.2474 46.9008 71.4669C48.1453 71.6657 49.2474 71.8426 50.2226 72.0007C51.1713 72.1666 52.0025 72.3137 52.746 72.4421C54.1753 72.727 55.1975 72.965 55.8972 73.2076C57.2904 73.6991 57.3969 74.2157 57.3452 74.7698C57.2967 75.3224 57.0994 75.8093 55.6405 76.0425C54.911 76.1631 53.8731 76.2194 52.3328 76.1286C51.5673 76.0911 50.6813 76.03 49.6857 75.9063C48.6823 75.7936 47.5458 75.6528 46.2747 75.4414Z" fill="#FFCADE"/>
<path d="M47.6022 79.743C39.7924 78.5564 31.9905 76.703 25.1528 75.4444C18.3199 74.1232 12.4199 73.4845 8.6582 73.1793C12.3291 72.3277 18.4686 71.9724 25.5363 72.6157C32.6119 73.1981 40.5579 74.6554 48.1971 75.8123C49.4275 76.0017 50.5123 76.1707 51.4797 76.3163C52.4158 76.4744 53.2345 76.6106 53.9687 76.7343C55.3776 77.002 56.3935 77.2242 57.087 77.4559C58.4677 77.9271 58.5804 78.4327 58.5381 78.9806C58.4958 79.5285 58.3064 80.0107 56.8678 80.258C56.1509 80.3848 55.1255 80.4568 53.6008 80.3785C52.84 80.3457 51.9634 80.294 50.9772 80.1813C49.9848 80.0733 48.8592 79.9465 47.6022 79.743Z" fill="#FFCADE"/>
<path d="M51.5046 84.7648C42.1075 84.0979 32.4365 83.5219 23.9786 83.2354C21.8653 83.1884 19.8225 83.0726 17.8829 83.046C15.9434 83.0303 14.1009 82.999 12.379 82.9521C11.9485 82.9395 11.5258 82.9254 11.1095 82.9145C10.6962 82.9176 10.2892 82.9176 9.89001 82.9223C9.10104 82.916 8.33869 82.9145 7.60295 82.9098C6.1487 82.8894 4.83533 82.8519 3.68945 82.7893C4.79149 82.5028 6.07043 82.2069 7.50433 81.9016C8.22911 81.7529 8.98207 81.5996 9.76321 81.4399C10.1608 81.3647 10.5647 81.2833 10.9733 81.2082C11.3897 81.1456 11.8123 81.083 12.2397 81.0203C13.9585 80.7761 15.8088 80.5304 17.7624 80.2909C19.7176 80.0623 21.7792 79.9387 23.9191 79.7727C32.4897 79.2029 42.3313 79.2765 51.8521 79.9527C58.026 80.3879 61.2132 80.9906 62.8882 81.5713C64.5585 82.1599 64.6868 82.7783 64.6273 83.4404C64.5663 84.1042 64.3315 84.6881 62.5829 84.9699C60.8406 85.2595 57.5611 85.1906 51.5046 84.7648Z" fill="#EC86AD"/>
<path d="M55.6733 89.2357C47.8635 88.7347 39.6968 88.4154 32.5758 87.7861C30.7928 87.6186 29.0803 87.4778 27.4491 87.2711C25.818 87.0645 24.2761 86.8547 22.8406 86.6449C19.9712 86.1878 17.5386 85.6384 15.6914 85.1813C17.609 85.0561 20.0777 85.0608 22.9596 85.0279C25.9213 84.9872 29.2024 84.9371 32.6854 84.8886C39.7923 84.8025 47.9465 84.6944 55.9629 85.2079C61.1929 85.5194 63.8149 86.1331 65.2144 86.6262C66.6029 87.1427 66.7 87.6609 66.642 88.2151C66.581 88.7692 66.3743 89.2545 64.9091 89.4643C63.4471 89.6975 60.6841 89.53 55.6733 89.2357Z" fill="#EC86AD"/>
<path d="M57.0823 94.1524C47.5287 94.5281 37.6244 95.0525 28.9599 95.3061C24.6253 95.4407 20.5929 95.4892 17.0707 95.4657C13.5454 95.4313 10.5258 95.2967 8.20898 95.1041C10.4804 94.5844 13.4499 94.06 16.922 93.5011C20.3956 92.9345 24.3749 92.3631 28.6766 91.7949C37.2832 90.6725 47.1796 89.6299 56.907 89.2464C63.2343 88.9771 66.5045 89.2996 68.264 89.7082C70.0172 90.1339 70.2082 90.7445 70.216 91.4239C70.2239 92.1017 70.0423 92.7169 68.3 93.1818C66.5702 93.6593 63.2249 93.8894 57.0823 94.1524Z" fill="#EC86AD"/>
<path d="M61.0008 96.9985C51.3814 96.8529 41.571 96.5883 33.0271 96.9437C30.906 97.0627 28.849 97.1816 26.8798 97.2943C24.9355 97.4509 23.0273 97.5965 21.3163 97.7687C19.5756 97.8923 17.993 98.1428 16.5215 98.2884C15.0704 98.5028 13.768 98.7314 12.6064 98.8785C13.6537 98.3932 14.8747 97.8313 16.2726 97.2897C17.6846 96.82 19.2469 96.2518 20.9704 95.8291C22.7017 95.3564 24.5082 94.9431 26.4821 94.5189C28.4545 94.162 30.535 93.7628 32.7046 93.4403C41.3957 92.1974 51.4331 91.9532 61.0697 92.0988C64.1864 92.1395 66.5501 92.2443 68.3676 92.393C70.1897 92.5292 71.4483 92.7187 72.3186 92.9457C74.0593 93.4028 74.2409 94.0164 74.2362 94.6927C74.2315 95.3705 74.0406 95.981 72.2951 96.413C71.4216 96.6275 70.1599 96.7981 68.3378 96.9108C66.5141 97.0079 64.1112 97.0392 61.0008 96.9985Z" fill="#EC86AD"/>
<path d="M66.7737 105.182C64.1517 105.339 61.5093 105.478 58.8731 105.6C56.2511 105.721 53.6322 105.84 51.0415 105.959C48.4648 106.071 45.921 106.168 43.432 106.248C42.1844 106.27 40.9665 106.361 39.7628 106.435C38.559 106.505 37.3724 106.571 36.2046 106.64C33.8706 106.766 31.6148 106.87 29.4671 106.954L29.2667 106.961L29.1666 106.965L29.1399 106.967C29.0836 106.975 29.2026 106.957 29.1853 106.961H29.1728L29.1227 106.967L28.7235 107.007C28.459 107.036 28.196 107.064 27.9346 107.092C27.4133 107.144 26.8983 107.195 26.3895 107.247C25.3814 107.35 24.3999 107.45 23.4482 107.548C21.5665 107.759 19.7569 107.858 18.1399 107.936C17.7376 107.966 17.3384 107.964 16.9502 107.945C16.5667 107.933 16.1925 107.917 15.8247 107.904C15.0983 107.876 14.4221 107.84 13.7959 107.798C14.4158 107.646 15.0764 107.494 15.7761 107.338C16.1283 107.263 16.4884 107.184 16.8563 107.105C17.2257 107.034 17.603 106.946 17.9896 106.831C19.5394 106.4 21.2237 105.976 23.0787 105.441C24.0023 105.185 24.9635 104.921 25.9528 104.677C26.449 104.555 26.95 104.428 27.4603 104.301C27.7154 104.238 27.9722 104.176 28.232 104.112L28.6218 104.016L29.0758 103.935C31.2141 103.567 33.4651 103.199 35.807 102.836C36.9826 102.656 38.1786 102.476 39.3855 102.291C40.5987 102.109 41.8306 101.918 43.0783 101.803C45.5704 101.538 48.1251 101.278 50.7143 101.034C52.012 100.918 53.3144 100.799 54.6231 100.679C55.9255 100.58 57.2295 100.481 58.5366 100.381C61.1508 100.195 63.7744 100.021 66.3792 99.8646C79.8824 98.9003 80.7872 100.001 80.8968 101.477C81.0032 102.937 80.2956 104.215 66.7737 105.182Z" fill="#FFCADE"/>
<path d="M70.1254 108.29C67.4439 108.645 64.742 108.982 62.0433 109.302C60.6955 109.459 59.3476 109.619 58.0045 109.775C56.6646 109.949 55.3277 110.121 53.9987 110.295C51.3422 110.631 48.7155 110.946 46.1482 111.239C43.5825 111.536 41.0904 111.904 38.6703 112.194C36.247 112.494 33.9428 112.762 31.6792 113.012C29.4501 113.26 27.3305 113.46 25.4035 113.725C23.464 113.953 21.6246 114.202 19.9653 114.381C18.2982 114.562 16.7954 114.687 15.4883 114.772C16.714 114.295 18.1291 113.79 19.7102 113.249C21.3006 112.704 23.0319 112.115 24.9636 111.549C26.8953 110.941 28.9538 110.433 31.1298 109.896C33.2697 109.371 35.599 108.823 37.9831 108.279C40.3766 107.745 42.853 107.158 45.4093 106.665C47.9656 106.179 50.5861 105.699 53.2457 105.228C54.5779 104.998 55.9163 104.764 57.2578 104.531C58.6057 104.315 59.9628 104.121 61.32 103.922C64.036 103.529 66.7614 103.152 69.4695 102.795C83.4485 101.128 84.4191 102.297 84.5975 103.803C84.7807 105.331 84.0716 106.627 70.1254 108.29Z" fill="#EC86AD"/>
<path d="M75.6115 114.244C72.7828 114.604 69.9323 114.947 67.0879 115.273C65.665 115.445 64.2405 115.572 62.8269 115.769C61.4165 115.957 60.0076 116.146 58.6097 116.331C55.8108 116.697 53.0447 117.042 50.3366 117.363C47.6504 117.752 45.0205 118.133 42.4751 118.504C39.9329 118.848 37.4737 119.182 35.124 119.499C32.7822 119.831 30.5562 120.129 28.4773 120.385C24.3009 120.866 20.6879 121.085 17.9375 121.181C20.5627 120.248 23.9925 119.257 28.0046 118.087C30.013 117.483 32.1701 116.865 34.4509 116.226C36.7129 115.601 39.1628 115.008 41.6768 114.385C44.1986 113.776 46.816 113.128 49.51 112.541C52.2135 112.017 54.9842 111.495 57.7957 110.987C59.2046 110.735 60.6213 110.48 62.0411 110.227C63.464 109.975 64.9026 109.802 66.3397 109.589C69.2169 109.186 72.1035 108.8 74.9728 108.434C76.831 108.182 78.4574 108.056 79.9007 107.937C81.3425 107.825 82.5948 107.751 83.6827 107.709C85.8586 107.627 87.3771 107.681 88.4384 107.836C90.5611 108.142 90.8585 108.847 90.9462 109.648C91.0307 110.451 90.8867 111.201 88.8752 111.946C87.8702 112.317 86.3971 112.688 84.2525 113.064C83.1771 113.252 81.9373 113.44 80.505 113.631C79.0664 113.811 77.4493 114.016 75.6115 114.244Z" fill="#EC86AD"/>
<path d="M80.1803 119.401C68.9501 121.538 57.4084 123.181 47.404 124.922C44.915 125.371 42.5089 125.803 40.2078 126.218L39.8212 126.284L39.3954 126.376C39.1136 126.437 38.8318 126.497 38.5532 126.556C37.9959 126.675 37.4464 126.793 36.9017 126.91C35.82 127.142 34.7555 127.344 33.7302 127.538C29.6429 128.341 26.0676 128.779 23.3359 128.909C25.9157 127.953 29.2328 126.769 33.104 125.299C34.0808 124.939 35.0843 124.567 36.1174 124.185C36.6371 123.992 37.1662 123.798 37.7 123.601C37.9693 123.502 38.237 123.405 38.5109 123.305L38.9195 123.158L39.3828 123.011C41.6355 122.314 44.0102 121.567 46.4898 120.868C56.4207 118.09 67.9702 115.829 79.0923 113.714C82.6865 113.026 85.4056 112.538 87.533 112.263C89.6651 111.939 91.1647 111.821 92.2261 111.854C94.3503 111.918 94.7244 112.576 94.8982 113.357C95.0735 114.136 95.0172 114.891 93.1199 115.849C92.1713 116.329 90.7655 116.859 88.6945 117.469C86.6031 118.037 83.812 118.707 80.1803 119.401Z" fill="#EC86AD"/>
<path d="M83.6626 122.042C80.8793 122.669 78.0694 123.283 75.2642 123.879C73.8616 124.175 72.4621 124.479 71.0627 124.751C69.6601 125.011 68.2622 125.266 66.8721 125.522C64.0919 126.022 61.3447 126.501 58.66 126.951C55.9722 127.383 53.3283 127.707 50.786 128.047C48.2391 128.375 45.7908 128.674 43.449 128.937C42.2859 129.05 41.151 129.161 40.0443 129.268C39.487 129.31 38.9548 129.377 38.435 129.451C37.9138 129.515 37.3987 129.582 36.8931 129.645C34.88 129.894 32.9217 130.121 31.1872 130.29C29.4262 130.42 27.8404 130.459 26.4785 130.481C27.7872 130.041 29.29 129.604 30.9493 129.1C32.618 128.547 34.4135 127.976 36.4454 127.367C37.452 127.076 38.5117 126.719 39.5856 126.473C40.6657 126.213 41.7756 125.947 42.9152 125.673C45.1788 125.113 47.5707 124.534 50.0487 123.959C52.5393 123.388 55.1065 122.798 57.7333 122.197C60.3585 121.552 63.0494 120.911 65.7763 120.277C67.1413 119.966 68.5142 119.651 69.8917 119.335C71.2693 119.002 72.6484 118.67 74.0307 118.336C76.7983 117.674 79.5737 117.029 82.3382 116.405C96.6397 113.027 97.7966 114.057 98.1676 115.619C98.5292 117.169 97.9891 118.656 83.6626 122.042Z" fill="#FFCADE"/>
<path d="M88.848 124.374C78.125 126.42 67.0686 128.881 57.2629 130.578C56.0372 130.783 54.8319 130.985 53.65 131.18C53.0614 131.276 52.4775 131.368 51.8999 131.462C51.3442 131.562 50.7931 131.661 50.25 131.758C48.0333 132.154 45.9185 132.533 43.9257 132.888C41.9518 133.236 40.067 133.489 38.3874 133.715C36.6764 133.857 35.147 133.953 33.8242 134.001C35.0828 133.552 36.5277 133.07 38.1291 132.569C39.7226 131.974 41.4618 131.387 43.3653 130.706C45.2673 130.023 47.318 129.318 49.4845 128.643C49.7569 128.555 50.0277 128.471 50.3032 128.383L50.7149 128.251L50.9231 128.187L51.0248 128.156L51.1782 128.114C51.7371 127.954 52.3022 127.793 52.872 127.63C54.0179 127.308 55.1872 126.982 56.3738 126.65C65.8867 123.998 76.8524 120.952 87.7992 118.861C89.5556 118.501 91.1507 118.264 92.5518 118.065C93.9544 117.867 95.1707 117.716 96.2289 117.61C98.3203 117.46 99.7745 117.478 100.797 117.596C102.843 117.832 103.146 118.497 103.251 119.265C103.355 120.033 103.236 120.756 101.326 121.527C100.372 121.915 98.9636 122.305 96.9224 122.733C95.9221 122.975 94.7684 123.227 93.4331 123.49C92.0978 123.756 90.5856 124.017 88.848 124.374Z" fill="#EC86AD"/>
<path d="M92.0593 127.442C88.5371 128.08 84.979 128.695 81.4396 129.279C77.9002 129.859 74.4203 130.464 70.9921 130.999C69.2811 131.264 67.5905 131.525 65.9218 131.782C64.2672 132.067 62.6392 132.344 61.0424 132.618C57.8506 133.153 54.7871 133.637 51.9115 134.062L51.7862 134.089C50.9707 134.183 50.1692 134.279 49.3833 134.372C48.5959 134.468 47.8226 134.531 47.0712 134.671C45.5669 134.931 44.1236 135.108 42.7727 135.371C40.063 135.849 37.6757 136.256 35.708 136.517C37.5067 135.67 39.7186 134.711 42.314 133.71C43.5992 133.184 45.0221 132.746 46.5046 132.237C47.2419 131.97 48.0293 131.779 48.8308 131.563C49.6369 131.35 50.4588 131.135 51.2963 130.916C51.2571 130.924 51.2149 130.933 51.1726 130.941C53.9809 130.13 56.9943 129.296 60.1533 128.451C61.739 128.036 63.3545 127.613 64.9951 127.183C66.6497 126.807 68.3278 126.425 70.0247 126.04C73.4248 125.288 76.9234 124.507 80.4331 123.814C83.9411 123.12 87.482 122.447 90.9932 121.812C105.314 119.136 106.408 120.224 106.704 121.783C106.998 123.332 106.386 124.766 92.0593 127.442Z" fill="#EC86AD"/>
<path d="M99.3606 132.358C87.7751 135.723 75.8499 139.188 65.3132 142.248C62.7068 142.976 60.1865 143.679 57.7774 144.35C56.5814 144.715 55.4105 145.073 54.274 145.422C53.1359 145.764 52.0762 146.139 51.0227 146.471C48.9485 147.151 46.9104 147.736 45.1133 148.246C43.2692 148.693 41.6005 149.01 40.165 149.272C41.4721 148.578 42.9828 147.855 44.6452 147.032C46.2983 146.13 48.0875 145.219 50.0897 144.164C51.0837 143.654 52.12 143.09 53.1939 142.588C54.274 142.083 55.3823 141.567 56.5188 141.038L56.7317 140.939L56.8397 140.891L56.8663 140.878L56.9461 140.845L57.0025 140.822L57.4424 140.642C57.7367 140.521 58.0341 140.399 58.3284 140.277C58.9264 140.034 59.529 139.785 60.1395 139.538C61.3621 139.047 62.6129 138.544 63.8824 138.034C66.4356 137.027 69.0717 135.977 71.8049 134.966C74.5412 133.962 77.3527 132.954 80.2048 131.948C81.6325 131.451 83.0695 130.949 84.5113 130.448C85.9608 129.955 87.4464 129.512 88.921 129.047C91.8733 128.131 94.846 127.231 97.7999 126.356C99.7097 125.76 101.4 125.392 102.895 125.049C104.393 124.711 105.696 124.445 106.834 124.233C109.105 123.822 110.705 123.648 111.843 123.651C114.118 123.651 114.536 124.344 114.745 125.174C114.955 126.004 114.914 126.815 112.914 127.899C111.914 128.443 110.423 129.056 108.229 129.775C107.131 130.132 105.857 130.52 104.381 130.936C102.909 131.362 101.211 131.777 99.3606 132.358Z" fill="#EC86AD"/>
<path d="M105.552 134.23C103.4 134.796 101.161 135.221 98.9524 135.675C96.7358 136.124 94.5255 136.556 92.3402 136.969C91.2491 137.173 90.1643 137.386 89.0857 137.569C88.0072 137.727 86.9364 137.885 85.8766 138.043C83.7571 138.35 81.6908 138.635 79.6949 138.896C77.6959 139.144 75.7783 139.43 73.9373 139.577C72.0964 139.735 70.351 139.868 68.7214 139.976C65.4638 140.192 62.6727 140.304 60.5234 140.297C62.5835 139.649 65.2838 138.932 68.4444 138.175C70.0254 137.796 71.7223 137.408 73.5131 137.015C75.3071 136.631 77.1746 136.132 79.1251 135.687C81.0724 135.227 83.0934 134.767 85.1628 134.308C86.2007 134.081 87.2479 133.856 88.3046 133.622C89.355 133.369 90.4147 133.112 91.4792 132.854C93.6097 132.34 95.7715 131.832 97.9412 131.335C100.111 130.83 102.288 130.393 104.456 129.82C115.662 127.035 116.577 127.855 116.881 129.073C117.182 130.29 116.757 131.443 105.552 134.23Z" fill="#FFCADE"/>
<path d="M107.122 138.413C101.346 140.354 95.4361 142.187 89.7177 144.082C86.8499 144.995 84.0165 145.898 81.2411 146.783C78.4891 147.705 75.7951 148.588 73.1855 149.422C71.8816 149.835 70.5995 150.239 69.3409 150.638C69.0263 150.735 68.7148 150.834 68.4017 150.93L68.2858 150.966L68.2717 150.97C68.2608 150.975 68.3265 150.947 68.2921 150.959L68.2624 150.972L68.2044 150.992L67.9728 151.074L67.5141 151.233C66.9067 151.441 66.3025 151.651 65.7045 151.855C63.3047 152.65 61.0866 153.458 58.9858 154.173C56.8788 154.892 54.897 155.544 53.0968 156.095C51.2731 156.612 49.6325 157.041 48.2002 157.379C49.4697 156.62 50.9412 155.785 52.5864 154.893C54.2207 153.959 56.0162 152.955 57.9824 151.886C59.9532 150.815 62.0837 149.662 64.3442 148.566C64.9108 148.286 65.4838 148.007 66.0614 147.719L66.4982 147.506L66.7173 147.4L66.974 147.282C67.2746 147.149 67.5751 147.016 67.8773 146.881C69.092 146.346 70.3334 145.804 71.5935 145.249C74.1232 144.147 76.7547 143.023 79.4597 141.891C82.1741 140.794 84.9746 139.732 87.8111 138.649C93.4763 136.454 99.3669 134.455 105.184 132.5C120.23 127.58 121.561 128.645 122.092 130.271C122.632 131.91 122.142 133.502 107.122 138.413Z" fill="#EC86AD"/>
<path d="M117.388 138.441C113.044 139.713 108.666 140.92 104.282 142.096C102.102 142.677 99.9447 143.24 97.8361 143.777C95.7182 144.297 93.619 144.727 91.609 145.161C89.5896 145.588 87.6626 145.988 85.792 146.345C83.9589 146.639 82.2072 146.922 80.551 147.19C78.9277 147.461 77.3654 147.648 75.9753 147.818C74.568 147.941 73.2985 147.991 72.209 148.027C73.2484 147.661 74.4491 147.29 75.7718 146.866C77.1228 146.406 78.577 145.908 80.1205 145.382C81.7016 144.835 83.4032 144.305 85.2002 143.763C86.9848 143.179 88.8461 142.572 90.7668 141.944C92.7157 141.331 94.7241 140.695 96.7732 140.048C98.8302 139.36 100.937 138.668 103.076 137.982C107.33 136.611 111.825 135.244 116.222 133.957C117.645 133.524 118.908 133.244 120.026 132.981C121.143 132.722 122.117 132.519 122.966 132.359C124.661 132.045 125.858 131.91 126.71 131.905C128.408 131.902 128.723 132.417 128.881 133.039C129.039 133.66 129.013 134.263 127.521 135.083C126.773 135.493 125.661 135.953 124.022 136.5C123.203 136.771 122.253 137.062 121.15 137.381C120.049 137.699 118.778 138.013 117.388 138.441Z" fill="#EC86AD"/>
<path d="M115.991 144.347C104.76 148.282 93.3525 152.997 83.3199 157.085C82.0676 157.593 80.8356 158.094 79.6271 158.586C79.0229 158.827 78.4233 159.066 77.8332 159.304C77.5357 159.422 77.243 159.538 76.9503 159.653C76.6403 159.771 76.3304 159.885 76.0236 160.002C74.8558 160.427 73.7177 160.84 72.6079 161.244C71.5309 161.663 70.4836 162.072 69.4661 162.47C67.442 163.255 65.4634 163.955 63.7164 164.562C61.9115 165.093 60.285 165.524 58.8809 165.865C60.1316 165.106 61.5796 164.282 63.1841 163.387C64.7683 162.401 66.4871 161.389 68.4063 160.242C69.3737 159.674 70.3709 159.09 71.3962 158.49C72.4388 157.936 73.5111 157.368 74.6069 156.786C76.7953 155.602 79.0839 154.365 81.4539 153.088C91.067 147.996 102.394 142.601 113.966 138.547C115.811 137.855 117.525 137.368 119.02 136.932C120.52 136.501 121.827 136.149 122.962 135.872C125.213 135.415 126.794 135.232 127.923 135.211C130.177 135.18 130.603 135.861 130.824 136.681C131.043 137.5 131.014 138.303 129.048 139.41C128.068 139.964 126.592 140.585 124.437 141.338C123.396 141.751 122.19 142.198 120.791 142.684C119.395 143.176 117.804 143.668 115.991 144.347Z" fill="#EC86AD"/>
<path d="M121.568 147.381C109.696 152.291 97.5324 157.106 87.3635 162.219C86.7108 162.512 86.0987 162.855 85.4898 163.188C84.8761 163.518 84.2703 163.844 83.6676 164.17C82.4607 164.81 81.2788 165.439 80.1236 166.053C77.8036 167.35 75.5589 168.525 73.6585 169.749C69.7309 172.127 66.3747 174.41 63.7119 175.977C65.7892 173.664 68.5161 170.744 72.14 167.606C73.9418 165.97 75.9612 164.5 78.076 162.922C79.1781 162.149 80.3067 161.357 81.4589 160.549C82.0396 160.146 82.6282 159.74 83.2199 159.331C83.8132 158.919 84.4112 158.5 85.0436 158.133C94.9651 151.826 107.185 146.246 119.057 141.337C122.895 139.74 125.83 138.616 128.131 137.833C130.431 137.024 132.07 136.578 133.256 136.392C135.63 136.014 136.181 136.667 136.537 137.495C136.896 138.323 136.993 139.172 135.089 140.637C134.138 141.37 132.688 142.254 130.522 143.369C128.338 144.463 125.403 145.787 121.568 147.381Z" fill="#FFCADE"/>
<path d="M132.477 152.589C127.585 155.871 122.35 158.644 117.172 161.062C111.989 163.489 106.862 165.577 102.077 167.444C99.6864 168.36 97.3759 169.248 95.1655 170.093C92.9599 170.91 90.8622 171.674 88.8554 172.322C86.872 173.003 84.981 173.501 83.2842 173.977C81.5669 174.403 80.0125 174.722 78.6631 174.98C79.8778 174.321 81.2898 173.62 82.8521 172.836C84.3956 172.004 86.1222 171.17 87.9396 170.178C89.79 169.195 91.753 168.154 93.813 167.061C95.8668 165.96 98.0866 164.804 100.366 163.641C104.935 161.305 109.84 158.866 114.767 156.252C119.698 153.642 124.65 150.845 129.244 147.758C132.24 145.789 134.39 144.144 136.093 142.948C136.919 142.34 137.593 141.83 138.212 141.424C138.518 141.215 138.804 141.057 139.072 140.87C139.338 140.684 139.585 140.523 139.814 140.385C141.641 139.285 142.312 139.638 142.885 140.203C143.457 140.765 143.818 141.434 142.74 143.273C142.605 143.503 142.445 143.752 142.262 144.023C142.082 144.289 141.825 144.577 141.562 144.892C141.024 145.507 140.363 146.252 139.543 147.043C137.903 148.572 135.656 150.497 132.477 152.589Z" fill="#EC86AD"/>
<path d="M134.483 155.076C123.289 161.701 111.851 168.531 102.26 175.109C97.4977 178.385 92.8891 181.475 89.2324 184.302C87.3602 185.732 85.6132 187.068 84.0039 188.297C82.4088 189.52 80.9545 190.598 79.6631 191.503C80.6195 190.249 81.7529 188.836 83.0396 187.288C84.353 185.755 85.7995 184.074 87.4509 182.314C90.7946 178.7 94.8302 175.16 99.3856 171.297C108.47 163.623 119.795 156.041 131.094 149.352C138.411 145.03 142.497 143.145 144.842 142.487C147.194 141.828 147.828 142.423 148.287 143.22C148.746 144.017 148.941 144.862 147.188 146.564C145.435 148.27 141.725 150.801 134.483 155.076Z" fill="#EC86AD"/>
<path d="M140.773 155.799C129.693 161.346 118.233 167.272 107.822 171.702C106.535 172.278 105.239 172.789 103.975 173.29C102.712 173.786 101.474 174.273 100.265 174.75C99.071 175.206 97.9063 175.652 96.7698 176.087C95.6475 176.524 94.5564 176.953 93.4966 177.363C89.2403 179.036 85.3706 180.171 82.3682 180.448C85.1514 179.265 88.4967 177.413 92.382 175.066C93.3541 174.487 94.3842 173.884 95.4565 173.266C96.5303 172.673 97.6324 172.064 98.7626 171.438C99.8897 170.826 101.042 170.201 102.219 169.564C103.398 168.933 104.606 168.296 105.821 167.601C115.597 162.227 126.671 155.752 137.935 150.109C139.732 149.179 141.417 148.444 142.866 147.781C144.327 147.13 145.604 146.579 146.717 146.147C148.945 145.336 150.533 144.887 151.684 144.693C153.984 144.303 154.525 144.934 154.881 145.735C155.236 146.538 155.336 147.363 153.5 148.804C152.583 149.527 151.18 150.402 149.084 151.506C148.06 152.075 146.886 152.717 145.507 153.425C144.133 154.145 142.566 154.871 140.773 155.799Z" fill="#EC86AD"/>
<path d="M145.431 158.372C135.048 164.334 124.251 170.538 114.38 175.198C113.161 175.802 111.932 176.339 110.729 176.868C109.53 177.391 108.355 177.903 107.206 178.402C106.057 178.905 104.937 179.354 103.832 179.778C103.256 179.979 102.69 180.178 102.128 180.372C101.583 180.545 101.043 180.718 100.512 180.885C98.416 181.549 96.4765 182.089 94.7812 182.74C94.346 182.883 93.9343 183.05 93.5414 183.222C93.1422 183.387 92.7509 183.549 92.3705 183.708C91.6379 184.064 90.9397 184.404 90.2822 184.724C90.8113 184.234 91.3843 183.692 92.0276 183.149C92.3658 182.897 92.7133 182.637 93.0686 182.371C93.424 182.098 93.8012 181.835 94.2035 181.591C95.7799 180.539 97.6365 179.613 99.587 178.611C100.074 178.362 100.565 178.111 101.065 177.856C101.548 177.599 102.037 177.341 102.533 177.077C103.546 176.505 104.598 175.902 105.648 175.267C106.71 174.639 107.799 173.996 108.907 173.343C110.02 172.692 111.163 172.041 112.303 171.322C121.51 165.785 131.883 159.089 142.383 153.057C145.79 151.113 148.498 149.724 150.575 148.743C152.66 147.819 154.158 147.284 155.254 147.021C157.439 146.493 158.003 147.062 158.397 147.811C158.792 148.56 158.942 149.345 157.272 150.855C156.438 151.607 155.148 152.54 153.203 153.741C151.305 154.979 148.787 156.454 145.431 158.372Z" fill="#EC86AD"/>
<path d="M150.115 162.872C138.87 170.591 127.12 178.221 116.682 184.642C114.072 186.248 111.547 187.777 109.129 189.214L108.676 189.484L108.452 189.615L108.424 189.632C108.515 189.565 108.441 189.618 108.459 189.606L108.443 189.615L108.39 189.65L108.28 189.72C107.991 189.911 107.702 190.097 107.416 190.285C106.843 190.658 106.278 191.026 105.721 191.387C104.611 192.11 103.509 192.802 102.443 193.465C98.1551 196.105 94.1586 197.927 90.9668 198.732C93.7689 196.993 97.1032 194.459 100.796 191.217C101.726 190.396 102.687 189.549 103.675 188.678C104.174 188.238 104.683 187.795 105.196 187.342C105.455 187.117 105.716 186.891 105.976 186.664L106.074 186.578L106.121 186.536L106.222 186.458L106.427 186.295L106.838 185.971C109.046 184.233 111.38 182.424 113.817 180.564C123.563 173.125 134.934 164.871 146.171 157.163C160.708 147.183 162.46 147.868 163.551 149.441C164.639 151.022 164.653 152.896 150.115 162.872Z" fill="#FFCADE"/>
<path d="M160.577 160.114C153.219 164.998 145.447 169.902 138.267 173.517C136.479 174.431 134.704 175.215 133.037 175.992C131.387 176.734 129.814 177.448 128.29 178.05C126.792 178.683 125.352 179.17 124.051 179.6C122.741 180.01 121.534 180.281 120.501 180.525C121.421 179.973 122.5 179.414 123.671 178.736C124.831 178.036 126.116 177.304 127.469 176.439C130.255 174.702 133.359 172.767 136.667 170.707C143.317 166.476 150.704 161.264 158.088 156.36C160.48 154.777 162.374 153.622 163.841 152.796C165.314 151.994 166.381 151.512 167.166 151.255C168.737 150.739 169.182 151.122 169.515 151.648C169.847 152.173 170.007 152.739 168.872 153.943C168.305 154.546 167.416 155.307 166.064 156.301C164.734 157.309 162.961 158.538 160.577 160.114Z" fill="#EC86AD"/>
<path d="M160.357 167.156C155.087 170.993 149.63 174.786 144.385 178.476C141.75 180.317 139.138 182.117 136.573 183.861C134.014 185.611 131.575 187.38 129.169 189.03C127.968 189.856 126.788 190.67 125.633 191.465C124.488 192.239 123.365 192.996 122.269 193.737C120.118 195.343 118.063 196.849 116.131 198.236C112.269 201.007 108.9 203.308 106.234 204.958C108.288 202.566 111.07 199.587 114.412 196.204C116.084 194.513 117.893 192.718 119.82 190.842C120.851 189.944 121.904 189.023 122.983 188.081C124.056 187.159 125.151 186.22 126.264 185.26C128.508 183.363 130.819 181.361 133.255 179.417C135.692 177.479 138.203 175.508 140.758 173.528C145.864 169.539 151.16 165.65 156.426 161.815C170.01 151.848 171.696 152.427 172.787 153.905C173.867 155.378 173.95 157.183 160.357 167.156Z" fill="#EC86AD"/>
<path d="M168.288 169.221C162.686 172.35 157.023 175.541 151.296 178.341C148.451 179.761 145.641 181.162 142.877 182.488C140.065 183.732 137.314 184.928 134.654 186.062C132.026 187.169 129.487 188.239 127.06 189.258C124.634 190.292 122.323 191.25 120.158 192.118C115.863 193.9 112.178 195.406 109.249 196.414C111.713 194.581 115.014 192.283 118.976 189.789C120.963 188.568 123.108 187.28 125.377 185.941C125.661 185.774 125.947 185.605 126.234 185.439L126.667 185.184L126.883 185.057L126.991 184.994L127.115 184.93L127.17 184.897C127.757 184.567 128.348 184.233 128.948 183.897C130.15 183.228 131.378 182.546 132.627 181.851C135.127 180.473 137.727 179.064 140.394 177.64C143.03 176.131 145.726 174.589 148.45 173.03C153.949 169.996 159.505 166.67 165.065 163.564C179.413 155.371 180.991 156.113 181.884 157.681C182.776 159.237 182.665 161.011 168.288 169.221Z" fill="#EC86AD"/>
<path d="M175.688 170.062C166.015 177.722 156.511 186.342 148.021 193.751C145.901 195.6 143.835 197.38 141.861 199.052C141.368 199.468 140.879 199.878 140.397 200.287C139.906 200.688 139.42 201.085 138.941 201.477C137.991 202.24 137.069 202.981 136.172 203.699C132.589 206.548 129.455 208.909 126.963 210.623C128.823 208.234 131.365 205.244 134.419 201.832C135.962 200.132 137.606 198.322 139.331 196.423C141.07 194.509 142.905 192.518 144.838 190.455C152.552 182.227 161.729 172.977 171.733 165.053C172.136 164.73 172.516 164.413 172.906 164.115C173.303 163.824 173.69 163.544 174.064 163.27C174.817 162.733 175.525 162.229 176.188 161.756C177.522 160.826 178.69 160.023 179.72 159.388C181.786 158.217 183.288 157.506 184.393 157.122C186.606 156.354 187.248 156.888 187.73 157.623C188.217 158.358 188.453 159.157 186.875 160.894C186.086 161.759 184.845 162.86 182.954 164.3C182.052 165.045 181.038 165.897 179.83 166.84C179.222 167.31 178.577 167.806 177.89 168.339C177.541 168.602 177.182 168.872 176.815 169.151C176.451 169.444 176.074 169.749 175.688 170.062Z" fill="#EC86AD"/>
<path d="M181.342 171.378C178.562 173.189 175.751 174.999 172.933 176.784C171.524 177.671 170.122 178.567 168.707 179.435C167.282 180.301 165.864 181.161 164.455 182.014C161.634 183.712 158.838 185.373 156.099 186.978C153.344 188.563 150.595 190.025 147.962 191.453C146.641 192.157 145.343 192.851 144.072 193.529C142.818 194.188 141.588 194.831 140.385 195.46C137.978 196.757 135.68 197.967 133.499 199.056C132.418 199.609 131.366 200.13 130.32 200.581C129.291 201.029 128.299 201.464 127.35 201.879C125.42 202.617 123.65 203.167 122.133 203.643C123.456 202.718 125.001 201.747 126.682 200.628C127.513 200.036 128.379 199.421 129.28 198.776C130.195 198.155 131.124 197.459 132.095 196.738C134.06 195.305 136.151 193.781 138.35 192.179C139.488 191.39 140.655 190.583 141.844 189.759C143.028 188.953 144.233 188.133 145.46 187.298C147.935 185.642 150.49 183.933 153.106 182.18C155.706 180.387 158.377 178.567 161.092 176.741C163.818 174.916 166.573 173.067 169.337 171.217C172.108 169.359 174.895 167.516 177.676 165.704C192.075 156.346 193.761 157.061 194.777 158.625C195.785 160.198 195.744 162.02 181.342 171.378Z" fill="#EC86AD"/>
<path d="M192.323 175.22C182.231 183.853 171.72 192.757 162.352 200.348C157.662 204.139 153.27 207.588 149.369 210.542C147.437 212.029 145.541 213.327 143.84 214.497C142.13 215.667 140.579 216.684 139.211 217.534C140.264 216.302 141.504 214.92 142.905 213.414C144.333 211.902 145.883 210.258 147.544 208.499C150.894 204.934 154.807 200.933 159.087 196.697C167.637 188.218 177.699 178.75 187.978 169.96C189.62 168.514 191.129 167.359 192.458 166.31C193.789 165.277 194.963 164.398 195.996 163.663C198.065 162.187 199.579 161.265 200.712 160.734C202.978 159.671 203.72 160.167 204.316 160.893C204.912 161.623 205.254 162.445 203.77 164.463C203.029 165.472 201.832 166.778 199.983 168.522C199.058 169.394 197.97 170.375 196.696 171.48C195.431 172.593 193.933 173.8 192.323 175.22Z" fill="#EC86AD"/>
<path d="M187.081 173.576C177.573 181.546 167.955 190.087 159.27 197.294C157.096 199.089 154.979 200.805 152.96 202.419C150.973 204.03 149.081 205.564 147.302 207.007C145.537 208.439 143.818 209.731 142.27 210.883C140.692 212.012 139.227 212.96 137.957 213.766C138.932 212.603 140.094 211.324 141.371 209.892C142.627 208.427 144.032 206.871 145.549 205.143C147.077 203.413 148.707 201.641 150.515 199.717C152.304 197.856 154.198 195.921 156.174 193.92C164.068 185.907 173.288 176.818 182.99 168.683C184.528 167.349 185.998 166.244 187.267 165.264C188.546 164.29 189.67 163.467 190.656 162.777C192.647 161.479 194.099 160.676 195.179 160.223C197.336 159.322 198.01 159.81 198.538 160.515C199.067 161.217 199.354 161.999 197.89 163.827C197.157 164.74 195.988 165.912 194.192 167.47C193.333 168.263 192.328 169.156 191.146 170.161C189.969 171.178 188.604 172.255 187.081 173.576Z" fill="#FFCADE"/>
<path d="M201.606 177.529C198.962 179.711 196.284 181.887 193.601 184.044C192.262 185.126 190.903 186.184 189.581 187.27C188.26 188.358 186.943 189.443 185.634 190.519C183.009 192.665 180.406 194.769 177.846 196.81C175.314 198.875 172.895 200.952 170.508 202.901C169.317 203.876 168.147 204.833 166.998 205.773C166.422 206.238 165.852 206.699 165.289 207.154C165.004 207.381 164.725 207.608 164.444 207.834L164.235 208.001L164.184 208.042C164.285 207.942 164.206 208.018 164.224 208.001L164.212 208.012L164.188 208.034L164.087 208.125L163.689 208.483C161.574 210.374 159.552 212.152 157.647 213.79C157.171 214.198 156.701 214.599 156.241 214.994C155.79 215.391 155.347 215.783 154.912 216.165C154.041 216.919 153.202 217.644 152.399 218.337C150.789 219.709 149.317 220.917 148.007 221.943C148.943 220.573 150.062 219.025 151.336 217.323C151.985 216.473 152.662 215.582 153.365 214.659C153.725 214.197 154.092 213.726 154.466 213.25C154.852 212.78 155.244 212.303 155.641 211.821C157.244 209.883 158.983 207.826 160.834 205.675L161.183 205.271L161.27 205.169L161.294 205.141L161.303 205.13C161.332 205.102 161.258 205.174 161.369 205.064L161.416 205.016L161.604 204.822C161.853 204.563 162.106 204.302 162.358 204.042C162.869 203.518 163.385 202.989 163.903 202.452C164.954 201.386 166.025 200.299 167.116 199.193C169.315 196.993 171.575 194.684 173.971 192.414C176.389 190.173 178.881 187.892 181.419 185.595C182.693 184.45 183.973 183.299 185.257 182.144C186.553 180.998 187.887 179.888 189.21 178.762C191.862 176.518 194.537 174.284 197.204 172.081C211.083 160.886 212.91 161.482 214.118 162.979C215.341 164.489 215.454 166.355 201.606 177.529Z" fill="#EC86AD"/>
<path d="M206.61 181.026C196.012 190.878 185.453 201.58 175.915 210.684C173.542 212.963 171.211 215.139 168.984 217.187C168.427 217.697 167.876 218.201 167.332 218.7C167.066 218.94 166.803 219.179 166.542 219.416C166.276 219.663 166.013 219.907 165.751 220.151C164.713 221.125 163.665 222.052 162.716 222.966C160.801 224.783 159.014 226.482 157.376 228.038C155.726 229.578 154.185 230.918 152.84 232.052C153.785 230.552 154.922 228.883 156.19 227.017C156.835 226.084 157.511 225.109 158.212 224.098C158.953 223.082 159.721 222.028 160.517 220.934C161.323 219.842 162.196 218.783 163.085 217.659C163.311 217.379 163.533 217.1 163.762 216.819C163.998 216.531 164.238 216.243 164.479 215.951C164.948 215.389 165.424 214.815 165.908 214.234C167.861 211.927 169.911 209.507 172.032 207.001C180.599 196.999 190.671 185.667 201.546 175.55C201.982 175.14 202.407 174.741 202.818 174.356C203.236 173.972 203.668 173.611 204.075 173.258C204.896 172.562 205.669 171.909 206.392 171.295C207.85 170.081 209.13 169.054 210.257 168.193C212.541 166.602 214.214 165.625 215.461 165.062C217.954 163.936 218.756 164.489 219.398 165.295C220.038 166.101 220.396 167.009 218.74 169.191C217.915 170.283 216.578 171.69 214.537 173.568C213.584 174.536 212.461 175.624 211.146 176.846C210.483 177.454 209.778 178.099 209.025 178.787C208.648 179.132 208.25 179.473 207.853 179.847C207.447 180.231 207.036 180.622 206.61 181.026Z" fill="#EC86AD"/>
<path d="M216.864 182.918C206.24 192.322 195.378 201.996 186.247 210.82C185.076 211.897 183.991 213.01 182.908 214.087C181.823 215.159 180.761 216.207 179.724 217.232C179.462 217.487 179.204 217.738 178.946 217.991L178.751 218.179L178.726 218.202L178.714 218.217C178.828 218.076 178.739 218.184 178.762 218.157L178.719 218.207L178.628 218.307L178.269 218.707C177.79 219.239 177.319 219.762 176.854 220.278C176.388 220.79 175.926 221.294 175.474 221.794C175.043 222.294 174.616 222.789 174.196 223.276C172.538 225.208 170.896 227.028 169.394 228.641C169.206 228.841 169.021 229.038 168.838 229.237C168.642 229.422 168.45 229.606 168.257 229.79C167.875 230.146 167.503 230.494 167.139 230.834C166.413 231.505 165.727 232.124 165.084 232.687C165.533 231.945 166.019 231.162 166.543 230.337C166.808 229.926 167.077 229.505 167.355 229.071C167.495 228.855 167.636 228.637 167.78 228.415C167.913 228.187 168.049 227.952 168.185 227.715C169.286 225.828 170.513 223.789 171.878 221.513C172.222 220.951 172.573 220.377 172.927 219.794C173.299 219.234 173.678 218.663 174.062 218.085C174.448 217.507 174.841 216.922 175.237 216.329L175.538 215.881L175.614 215.771L175.652 215.714L175.751 215.588L175.918 215.372C176.144 215.086 176.369 214.798 176.598 214.505C177.516 213.342 178.457 212.149 179.421 210.934C180.39 209.72 181.374 208.469 182.444 207.26C190.796 197.386 201.34 186.971 212.054 177.49C215.516 174.417 218.265 172.183 220.416 170.539C222.576 168.916 224.162 167.897 225.353 167.303C227.736 166.112 228.537 166.618 229.192 167.377C229.846 168.135 230.231 169 228.708 171.184C227.946 172.275 226.708 173.695 224.787 175.595C222.89 177.505 220.297 179.874 216.864 182.918Z" fill="#EC86AD"/>
<path d="M228.708 179.052C220.2 187.408 211.074 195.943 202.116 202.206C200.98 202.962 199.864 203.701 198.77 204.429C198.223 204.786 197.68 205.142 197.145 205.495C196.879 205.668 196.611 205.844 196.348 206.013L196.096 206.177L195.892 206.291L195.489 206.515C194.412 207.109 193.361 207.686 192.336 208.25C191.306 208.802 190.284 209.316 189.305 209.812C187.331 210.8 185.575 211.717 183.912 212.522C182.302 213.373 180.847 214.148 179.545 214.784C180.581 213.796 181.801 212.663 183.211 211.453C184.647 210.31 186.265 209.018 188.006 207.746C188.881 207.099 189.784 206.434 190.714 205.751C191.649 205.052 192.611 204.333 193.594 203.596L193.967 203.319L194.153 203.181C194.169 203.17 194.059 203.242 194.111 203.209L194.122 203.2L194.144 203.179L194.188 203.14L194.275 203.067C194.512 202.866 194.748 202.668 194.986 202.464C195.463 202.063 195.944 201.656 196.431 201.248C197.409 200.432 198.41 199.602 199.424 198.759C207.454 191.847 215.904 183.091 224.448 174.702C227.211 171.99 229.445 169.968 231.18 168.493C232.936 167.063 234.231 166.156 235.209 165.616C237.166 164.539 237.853 164.938 238.426 165.554C239 166.167 239.348 166.883 238.144 168.761C237.541 169.703 236.552 170.935 235.004 172.592C233.503 174.276 231.465 176.348 228.708 179.052Z" fill="#EC86AD"/>
<path d="M228.78 186.045C218.549 196.81 208.917 208.895 200.999 219.784C199.011 222.503 197.155 225.167 195.411 227.717C195.203 228.019 194.996 228.317 194.791 228.613C194.584 228.94 194.381 229.264 194.177 229.585C193.769 230.227 193.368 230.857 192.97 231.484C192.579 232.105 192.17 232.714 191.804 233.318C191.439 233.924 191.081 234.516 190.73 235.1C189.321 237.42 187.952 239.628 186.69 241.593C185.405 243.551 184.137 245.251 183.049 246.705C183.653 244.968 184.431 243.036 185.247 240.863C186.045 238.67 186.945 236.297 187.983 233.678C188.243 233.025 188.509 232.362 188.778 231.689C189.052 231.015 189.357 230.363 189.655 229.685C189.957 229.01 190.264 228.328 190.577 227.633C190.733 227.285 190.891 226.938 191.05 226.585C191.236 226.221 191.422 225.853 191.608 225.482C193.036 222.664 194.612 219.737 196.356 216.766C203.304 204.865 212.53 191.952 223.187 180.733C226.614 177.092 229.505 174.537 231.791 172.681C232.943 171.754 234.004 171.022 234.89 170.424C235.338 170.128 235.75 169.86 236.132 169.639C236.509 169.436 236.858 169.262 237.179 169.115C239.752 167.933 240.587 168.5 241.254 169.331C241.922 170.159 242.299 171.097 240.601 173.362C240.388 173.644 240.144 173.949 239.862 174.278C239.594 174.605 239.312 174.959 238.985 175.336C238.334 176.098 237.536 176.922 236.578 177.933C234.666 179.976 232.072 182.543 228.78 186.045Z" fill="#EC86AD"/>
<path d="M234.741 185.61C224.114 196.336 212.924 207.278 202.508 216.171C199.939 218.424 197.355 220.487 194.906 222.445C194.291 222.933 193.687 223.416 193.087 223.891C192.788 224.126 192.493 224.361 192.198 224.594L191.978 224.767L191.888 224.84L191.862 224.859L191.805 224.898L191.69 224.979L191.236 225.299C190.026 226.136 188.848 226.952 187.71 227.739C186.569 228.511 185.469 229.255 184.409 229.973C183.368 230.688 182.366 231.377 181.411 232.036C180.934 232.367 180.455 232.67 180.01 232.994C179.57 233.317 179.14 233.633 178.723 233.94C177.883 234.552 177.086 235.119 176.333 235.641C176.887 234.923 177.498 234.154 178.16 233.339C178.493 232.932 178.839 232.512 179.191 232.082C179.551 231.657 179.949 231.25 180.345 230.818C181.147 229.965 181.99 229.056 182.895 228.142C183.811 227.245 184.763 226.313 185.749 225.347C186.749 224.389 187.781 223.4 188.845 222.379L189.249 221.997L189.349 221.902L189.401 221.855L189.426 221.83C189.313 221.927 189.403 221.849 189.381 221.866L189.393 221.852L189.584 221.65C189.841 221.381 190.101 221.108 190.362 220.834C190.885 220.288 191.416 219.735 191.953 219.175C194.102 216.936 196.397 214.627 198.709 212.148C208.068 202.372 218.591 190.962 229.273 180.178C232.745 176.695 235.502 174.101 237.678 172.221C239.866 170.364 241.487 169.185 242.711 168.479C245.161 167.072 246.042 167.556 246.784 168.318C247.524 169.081 247.986 169.978 246.507 172.387C245.766 173.594 244.542 175.178 242.625 177.311C240.73 179.465 238.185 182.158 234.741 185.61Z" fill="#EC86AD"/>
<path d="M247.468 184.99C237.986 194.277 227.169 202.251 217.941 209.292C215.626 211.049 213.401 212.741 211.304 214.372C210.786 214.77 210.279 215.166 209.774 215.554C209.269 215.963 208.769 216.365 208.278 216.764C207.296 217.551 206.345 218.32 205.423 219.061C204.51 219.799 203.629 220.512 202.776 221.196C201.94 221.884 201.133 222.548 200.362 223.185C198.825 224.447 197.486 225.629 196.251 226.606C197.126 225.314 198.133 223.808 199.366 222.221C199.997 221.432 200.659 220.61 201.345 219.752C202.046 218.898 202.812 218.043 203.596 217.141C204.382 216.238 205.21 215.333 206.069 214.403C206.5 213.939 206.936 213.467 207.379 212.991L207.545 212.815L207.746 212.611L208.095 212.257C208.33 212.022 208.564 211.783 208.802 211.545C210.698 209.624 212.742 207.663 214.887 205.667C223.458 197.654 233.764 189.18 242.842 180.273C244.334 178.848 245.57 177.54 246.727 176.43C247.839 175.292 248.808 174.309 249.678 173.482C251.314 171.798 252.569 170.738 253.521 169.952C255.437 168.465 256.243 168.774 256.963 169.334C257.684 169.893 258.181 170.599 257.212 172.82C256.765 173.927 255.783 175.43 254.252 177.501C253.466 178.485 252.543 179.612 251.433 180.873C250.29 182.095 249.016 183.512 247.468 184.99Z" fill="#EC86AD"/>
</svg>
