<svg width="218" height="312" viewBox="0 0 218 312" fill="none" xmlns="http://www.w3.org/2000/svg">
<path d="M3.33977 258.633C3.33977 258.633 4.39775 258.304 6.37724 257.684C8.30002 257.043 11.162 256.11 14.7333 254.711C18.3014 253.324 22.6136 251.557 27.4274 249.227C32.2424 246.912 37.5853 244.102 43.2295 240.714C48.8509 237.295 54.7715 233.292 60.7456 228.685C62.2185 227.507 63.7609 226.371 65.2352 225.116C66.7136 223.868 68.2107 222.601 69.7207 221.32C72.6533 218.655 75.6671 215.947 78.5486 213C79.2773 212.275 80.0085 211.544 80.7461 210.811C81.4529 210.049 82.1614 209.286 82.8731 208.518C84.2802 206.971 85.7733 205.479 87.1141 203.835C88.4886 202.221 89.8722 200.595 91.2604 198.961C92.5791 197.27 93.9041 195.571 95.2339 193.863L96.2337 192.583L97.1803 191.258L99.0725 188.596L100.969 185.927C101.601 185.033 102.167 184.096 102.77 183.183C103.949 181.335 105.169 179.508 106.321 177.635L109.647 171.933C113.937 164.247 117.878 156.346 121.108 148.288C124.498 140.296 127.138 132.152 129.535 124.236C130.68 120.261 131.639 116.303 132.666 112.453C133.51 108.557 134.335 104.747 135.138 101.038C135.816 97.2999 136.41 93.6541 137.021 90.1347C137.356 88.3783 137.532 86.6275 137.762 84.9185C137.982 83.2079 138.197 81.5297 138.408 79.8838C138.62 78.2312 138.829 76.609 139.034 75.0274C139.263 73.4456 139.145 71.0078 139.461 69.4882C139.732 67.9704 139.115 64.1388 139.44 62.7396C139.741 61.3247 142.227 59.1529 141.566 70.68C141.267 72.1297 141.122 73.7012 140.901 75.2717C140.713 76.8473 140.521 78.461 140.322 80.106C140.129 81.7634 139.929 83.4535 139.727 85.1768C139.513 86.8993 139.354 88.6629 139.038 90.4355C138.459 93.9878 137.901 97.6662 137.255 101.436C136.484 105.184 135.694 109.034 134.884 112.971C133.887 116.864 132.963 120.866 131.849 124.893C129.513 132.913 126.932 141.168 123.585 149.296C120.403 157.484 116.495 165.534 112.225 173.374L108.909 179.197C107.759 181.109 106.543 182.979 105.363 184.867C104.76 185.803 104.193 186.762 103.563 187.676L101.664 190.409L99.769 193.133L98.8208 194.49L97.8184 195.806C96.4839 197.557 95.1529 199.299 93.8294 201.033C92.4339 202.71 91.0444 204.379 89.6622 206.037C88.312 207.725 86.8099 209.261 85.3939 210.851C84.6779 211.639 83.9635 212.424 83.253 213.206C82.5095 213.961 81.7716 214.712 81.0359 215.461C78.1341 218.494 75.0942 221.288 72.1303 224.035C70.6022 225.357 69.0901 226.664 67.5961 227.954C66.1044 229.249 64.5469 230.426 63.0571 231.643C57.0092 236.408 51.0122 240.554 45.3056 244.107C39.5772 247.63 34.1451 250.559 29.2463 252.98C24.3509 255.413 19.9528 257.266 16.3064 258.731C12.6639 260.2 9.73278 261.192 7.72126 261.884C5.73949 262.527 0.000133496 266.672 0.000133496 266.672L3.33977 258.633Z" fill="#EC86AD"/>
<path d="M34.7136 246.407C34.7136 246.407 34.3884 248.284 31.6879 240.964C31.0139 239.133 30.2544 236.901 29.4957 234.583C28.7341 232.318 27.9286 229.925 27.1925 227.734C25.8041 223.474 24.6738 219.999 24.6738 219.999C24.6738 219.999 26.2052 223.322 28.0828 227.394C29.0153 229.475 30.0849 231.77 31.0085 234.028C31.9366 236.282 32.807 238.475 33.482 240.304C36.1821 247.625 34.7136 246.407 34.7136 246.407Z" fill="#EC86AD"/>
<path d="M37.0914 245.429C37.0914 245.429 36.3247 247.323 35.1618 239.049C33.9993 230.774 32.8809 215.463 32.8809 215.463C32.8809 215.463 36.025 230.487 37.1868 238.76C38.3493 247.035 37.0914 245.429 37.0914 245.429Z" fill="#FFCADE"/>
<path d="M40.1396 242.974C40.1396 242.974 39.8869 243.523 39.5191 242.839C39.3258 242.508 39.1533 241.826 38.8776 240.692C38.7116 240.141 38.5814 239.478 38.3591 238.655C38.1153 237.829 37.885 236.846 37.4967 235.709C36.7812 233.421 35.7298 230.683 34.5315 227.855C33.3384 225.025 32.044 222.09 31.0126 219.373C29.9812 216.656 29.2137 214.162 28.858 212.327C28.6341 211.424 28.5609 210.669 28.4765 210.163C28.4031 209.654 28.3604 209.373 28.3604 209.373C28.3604 209.373 28.4371 209.644 28.5788 210.141C28.7267 210.634 28.8885 211.361 29.2213 212.227C29.7888 213.983 30.8257 216.327 32.1193 218.884C33.4084 221.445 34.9675 224.224 36.381 226.994C37.8007 229.759 39.0414 232.549 39.8037 234.979C40.5894 237.389 40.8176 239.205 40.9073 240.469C40.9649 241.7 40.8272 242.355 40.726 242.729C40.4874 243.468 40.1396 242.974 40.1396 242.974Z" fill="#EC86AD"/>
<path d="M42.9411 241.078C42.9411 241.078 42.6747 241.728 42.2132 240.952C41.6998 240.2 41.2836 237.884 39.8751 232.558C39.0273 229.33 37.7289 225.33 36.3995 221.312C35.0366 217.303 33.7338 213.241 32.8281 209.969C32.8339 209.983 32.8392 209.998 32.8436 210.008C31.8958 207.5 31.3909 205.302 31.2011 203.765C31.1349 202.992 31.1579 202.382 31.1369 201.972C31.13 201.563 31.126 201.344 31.126 201.344C31.126 201.344 31.1589 201.562 31.2186 201.967C31.2879 202.373 31.339 202.972 31.4964 203.716C31.8682 205.201 32.5906 207.243 33.7772 209.61L33.7908 209.647C35.0702 212.764 36.7737 216.619 38.4684 220.524C40.1333 224.443 41.7011 228.455 42.5904 231.823C44.1052 237.618 43.7794 239.899 43.6048 240.765C43.373 241.632 42.9411 241.078 42.9411 241.078Z" fill="#EC86AD"/>
<path d="M45.9546 238.998C45.9546 238.998 45.7539 239.753 45.1334 238.963C44.8208 238.568 44.4056 237.787 43.8584 236.335C43.583 235.609 43.2763 234.713 42.932 233.615C42.765 233.06 42.5837 232.46 42.3871 231.809C42.2075 231.149 41.9939 230.441 41.7303 229.7C40.7117 226.694 39.672 223.064 38.4671 219.227C37.888 217.32 37.3015 215.371 36.7183 213.448C36.1586 211.524 35.6682 209.601 35.1786 207.792C34.7042 205.995 34.2552 204.286 33.8466 202.734C33.4243 201.21 33.0119 199.808 32.7924 198.616C32.5563 197.422 32.4865 196.443 32.4735 195.774C32.4838 195.108 32.4883 194.737 32.4883 194.737C32.4883 194.737 32.5308 195.104 32.6081 195.765C32.7048 196.423 32.8947 197.365 33.2663 198.494C33.6242 199.629 34.1799 200.929 34.7883 202.429C35.3666 203.93 36.0025 205.581 36.6743 207.326C37.3383 209.069 38.0385 210.901 38.7445 212.755C39.4835 214.622 40.2286 216.513 40.9635 218.366C42.4298 222.065 43.7165 225.809 44.7474 228.865C45.0158 229.63 45.2193 230.344 45.3767 231.007C45.538 231.668 45.6875 232.277 45.8256 232.84C46.0871 233.96 46.275 234.886 46.4081 235.651C46.6711 237.18 46.7089 238.062 46.6431 238.56C46.5117 239.551 45.9546 238.998 45.9546 238.998Z" fill="#FFCADE"/>
<path d="M49.3382 236.792C49.3382 236.792 49.2116 237.511 48.5707 236.828C47.9131 236.143 46.832 234.015 44.52 228.578C43.3675 225.827 41.977 222.482 40.7023 218.931C40.0278 217.175 39.4738 215.322 38.8828 213.531C38.6084 212.626 38.3838 211.707 38.1414 210.818C37.9032 209.922 37.6525 209.053 37.5136 208.172C37.3536 207.3 37.1943 206.451 37.0406 205.634C36.8825 204.808 36.8275 204.035 36.7212 203.287C36.6147 202.551 36.6534 201.796 36.6155 201.126C36.578 200.447 36.6224 199.83 36.652 199.263C36.6859 198.133 36.793 197.23 36.8661 196.608C36.9357 195.988 36.9727 195.646 36.9727 195.646C36.9727 195.646 36.979 195.99 36.9914 196.615C36.9996 197.239 37.0065 198.141 37.1079 199.257C37.1479 199.813 37.1794 200.425 37.2925 201.068C37.4084 201.714 37.4402 202.389 37.6343 203.12C37.8207 203.842 37.9718 204.633 38.2106 205.397C38.4425 206.172 38.6822 206.976 38.9307 207.801C39.1515 208.628 39.4841 209.455 39.7993 210.301C40.1242 211.145 40.4242 212.007 40.7729 212.866C41.5165 214.57 42.1996 216.315 42.9964 218.003C44.5038 221.397 46.0586 224.666 47.2196 227.435C49.593 233.025 49.9782 235.396 49.9451 236.323C49.9008 237.258 49.3382 236.792 49.3382 236.792Z" fill="#EC86AD"/>
<path d="M52.1751 235.482C52.1751 235.482 51.9449 236.261 51.3216 235.421C50.6618 234.598 49.8416 232.03 47.7639 225.904C45.6708 219.675 42.3396 210.776 40.4873 203.13C40.1048 201.189 39.6852 199.404 39.4423 197.706C39.2562 196.046 39.0501 194.57 38.938 193.316C38.8887 192.688 38.8458 192.125 38.8076 191.628C38.8054 191.129 38.8064 190.7 38.8067 190.351C38.8107 189.658 38.8105 189.274 38.8105 189.274C38.8105 189.274 38.8601 189.655 38.945 190.343C38.9885 190.686 39.0424 191.105 39.1058 191.593C39.205 192.076 39.3184 192.627 39.4431 193.237C39.7024 194.454 40.0838 195.904 40.4587 197.529C40.8689 199.094 41.4898 200.845 42.0522 202.671C44.6389 209.935 48.6912 218.448 50.8496 224.849C53.0461 231.357 53.0344 234.021 52.9096 235.042C52.7367 236.07 52.1751 235.482 52.1751 235.482Z" fill="#EC86AD"/>
<path d="M54.3773 232.976C54.3773 232.976 54.2266 233.712 53.5846 232.986C52.9355 232.266 51.8413 230.057 49.8401 224.235C48.7881 221.343 47.5736 217.879 46.4186 214.169C45.8515 212.33 45.2721 210.447 44.6975 208.589C44.3997 207.671 44.1631 206.736 43.9502 205.809C43.7289 204.888 43.5118 203.982 43.2995 203.099C42.8884 201.346 42.4977 199.679 42.1444 198.166C41.8458 196.652 41.5627 195.3 41.3615 194.157C41.0992 191.852 40.9385 190.432 40.9385 190.432C40.9385 190.432 41.2749 191.807 41.8217 194.042C42.176 195.147 42.5987 196.463 43.0692 197.931C43.584 199.385 44.1515 200.987 44.7479 202.676C45.044 203.52 45.3484 204.386 45.6556 205.266C45.9526 206.15 46.273 207.04 46.6549 207.929C47.3716 209.717 48.102 211.528 48.8165 213.304C50.217 216.868 51.6468 220.369 52.7031 223.278C54.7119 229.12 55.0811 231.552 55.0174 232.509C54.9426 233.477 54.3773 232.976 54.3773 232.976Z" fill="#EC86AD"/>
<path d="M56.7425 231.254C56.7425 231.254 56.425 232.143 55.7559 231.131C55.4218 230.624 55.0006 229.643 54.4841 227.837C54.3501 227.391 54.2398 226.872 54.0654 226.335C53.8971 225.794 53.7167 225.206 53.5174 224.565C53.1103 223.267 52.7675 221.746 52.1716 219.915C51.0957 216.255 49.7266 211.832 48.2742 207.217C47.5729 204.908 46.8537 202.551 46.1473 200.23C45.4946 197.885 44.8163 195.596 44.2849 193.384C44.0262 192.277 43.7719 191.203 43.5298 190.161C43.2814 189.139 43.0427 188.156 42.8179 187.22C42.579 186.286 42.3913 185.371 42.2095 184.529C42.1212 184.106 42.0213 183.702 41.9559 183.308C41.9015 182.911 41.848 182.525 41.7999 182.162C41.7193 181.432 41.5771 180.787 41.5775 180.205C41.5707 179.627 41.5655 179.129 41.5606 178.722C41.5531 177.916 41.5518 177.472 41.5518 177.472C41.5518 177.472 41.6121 177.914 41.7248 178.712C41.778 179.109 41.8461 179.596 41.9247 180.162C41.9955 180.726 42.2171 181.35 42.3808 182.047C42.4708 182.394 42.5656 182.758 42.6658 183.137C42.7766 183.514 42.9235 183.9 43.0577 184.304C43.337 185.108 43.6182 185.965 43.9662 186.874C44.2993 187.789 44.6506 188.753 45.0155 189.755C45.3643 190.747 45.7266 191.775 46.099 192.832C46.8446 194.943 47.7432 197.141 48.5979 199.387C49.4938 201.64 50.401 203.921 51.2897 206.157C53.0765 210.651 54.6993 215.083 55.8055 218.847C56.4056 220.693 56.7379 222.391 57.0537 223.782C57.1941 224.477 57.3263 225.114 57.4416 225.702C57.549 226.281 57.5759 226.792 57.6279 227.262C57.7935 229.131 57.7481 230.198 57.6176 230.79C57.3567 231.972 56.7425 231.254 56.7425 231.254Z" fill="#EC86AD"/>
<path d="M59.7686 228.636C59.7686 228.636 59.4886 229.559 58.7573 228.561C57.9879 227.573 56.9825 224.555 54.6737 217.187C52.3613 209.723 48.7991 199.062 46.7058 189.991C46.2337 187.73 45.7879 185.583 45.3832 183.638C45.1881 182.666 44.9999 181.745 44.825 180.886C44.6603 180.022 44.4857 179.225 44.4093 178.474C44.3144 177.734 44.2287 177.065 44.1514 176.479C44.1433 175.886 44.1355 175.376 44.1282 174.961C44.1164 174.138 44.1113 173.686 44.1113 173.686C44.1113 173.686 44.1759 174.135 44.2956 174.948C44.3507 175.354 44.4232 175.851 44.5045 176.428C44.6504 176.992 44.8159 177.639 45.0003 178.352C45.1612 179.066 45.4318 179.836 45.6983 180.665C45.9685 181.496 46.2606 182.386 46.5672 183.324C47.1782 185.202 47.8539 187.275 48.5646 189.459C51.5446 198.122 55.9948 208.392 58.3652 216.026C60.777 223.748 60.8086 226.907 60.6416 228.117C60.4317 229.339 59.7686 228.636 59.7686 228.636Z" fill="#EC86AD"/>
<path d="M63.3425 226.429C63.3425 226.429 62.8038 227.429 62.191 226.102C61.8683 225.464 61.6379 224.098 61.1189 222.122C60.9376 221.131 60.5234 219.826 60.1664 218.283C59.9408 217.507 59.6986 216.664 59.4296 215.745C59.1381 214.826 58.8222 213.83 58.478 212.756C57.0722 208.449 55.0064 203.266 52.8848 197.837C50.759 192.414 48.6012 186.719 47.1079 181.413C46.7249 180.09 46.3733 178.799 46.0948 177.534C45.7879 176.276 45.5274 175.065 45.297 173.928C45.049 172.792 44.8489 171.692 44.6762 170.662C44.5854 170.151 44.5 169.654 44.4174 169.179C44.3449 168.704 44.311 168.238 44.2617 167.8C44.1766 166.919 44.0666 166.131 44.0314 165.436C44.0298 164.739 44.0271 164.14 44.0261 163.649C44.0255 162.679 44.0244 162.142 44.0244 162.142C44.0244 162.142 44.0943 162.674 44.2209 163.638C44.2837 164.117 44.3593 164.705 44.4491 165.388C44.568 166.065 44.7731 166.828 44.9617 167.675C45.0625 168.098 45.1508 168.541 45.2787 168.999C45.4146 169.455 45.5569 169.93 45.7045 170.42C45.9928 171.403 46.315 172.447 46.6931 173.56C47.053 174.676 47.4461 175.829 47.8782 177.013C48.2805 178.207 48.7601 179.428 49.2679 180.677C53.2496 190.672 59.8387 202.158 62.8118 211.317C63.1655 212.466 63.5097 213.518 63.7733 214.517C64.0073 215.523 64.2258 216.446 64.4254 217.297C64.5771 218.161 64.6837 218.957 64.7829 219.677C64.8953 220.384 64.9335 221.065 64.9454 221.684C65.0805 224.174 64.7152 225.337 64.4755 226.04C63.9436 227.397 63.3425 226.429 63.3425 226.429Z" fill="#EC86AD"/>
<path d="M69.277 221.194C69.277 221.194 69.1553 222.468 67.942 221.364C67.3352 220.811 66.4553 219.663 65.1789 217.466C64.5149 216.392 63.8515 214.951 63.0831 213.174C62.3338 211.4 61.3752 209.288 60.5649 206.777C56.9873 196.763 53.7444 182.122 51.8883 169.993C51.4508 166.963 51.0388 164.095 50.6634 161.492C50.2774 158.905 49.9512 156.546 49.8403 154.563C49.758 153.576 49.7734 152.672 49.7593 151.893C49.7978 151.107 49.8005 150.434 49.8557 149.885C49.9754 148.8 50.043 148.199 50.043 148.199C50.043 148.199 50.0542 148.802 50.0755 149.89C50.0925 150.433 50.172 151.099 50.2327 151.868C50.344 152.635 50.4366 153.508 50.6357 154.462C50.9823 156.382 51.5726 158.629 52.2534 161.168C52.9104 163.707 53.6347 166.509 54.3984 169.463C57.4964 181.265 61.9272 195.346 65.4016 205.07C66.2018 207.55 67.02 209.52 67.6093 211.268C68.2087 213.002 68.6497 214.449 69.1092 215.649C69.948 218.051 70.2463 219.467 70.2704 220.288C70.3226 221.931 69.277 221.194 69.277 221.194Z" fill="#EC86AD"/>
<path d="M73.7792 217.789C73.7792 217.789 73.5171 218.964 72.5132 217.788C72.012 217.202 71.3221 216.027 70.3885 213.822C69.9368 212.705 69.3172 211.44 68.6778 209.826C68.3387 209.029 68.0229 208.145 67.6121 207.198C67.2047 206.249 66.7667 205.221 66.289 204.112C66.0584 203.553 65.8212 202.978 65.5785 202.393C65.331 201.808 65.0415 201.23 64.7696 200.628C64.2218 199.425 63.6566 198.177 63.0701 196.89C61.8332 194.302 60.5219 191.568 59.2372 188.76C57.9994 185.903 56.7129 183.015 55.5493 180.14C54.4252 177.248 53.2601 174.436 52.2933 171.707C50.3847 166.25 48.5528 161.438 47.8094 157.729C47.6006 156.816 47.5189 155.969 47.4107 155.24C47.3612 154.5 47.308 153.867 47.2968 153.352C47.3145 152.322 47.3232 151.754 47.3232 151.754C47.3232 151.754 47.3862 152.317 47.5024 153.336C47.5802 153.841 47.7113 154.456 47.8499 155.166C48.0459 155.867 48.2271 156.672 48.54 157.535C49.6784 160.994 52.0688 165.58 54.5139 170.761C55.7476 173.346 57.1788 176.012 58.5442 178.757C59.9523 181.481 61.4514 184.205 62.8646 186.912C64.3518 189.62 65.8077 192.277 67.1882 194.798C67.843 196.11 68.4836 197.386 69.0963 198.615C69.3957 199.236 69.7075 199.833 69.9742 200.437C70.2323 201.044 70.4829 201.638 70.7279 202.215C71.2034 203.379 71.642 204.451 72.0513 205.444C72.4438 206.444 72.73 207.401 73.0205 208.263C73.5643 209.99 74.0437 211.43 74.2679 212.593C74.7743 214.935 74.8868 216.29 74.8146 217.061C74.671 218.601 73.7792 217.789 73.7792 217.789Z" fill="#FFCADE"/>
<path d="M76.6062 214.615C76.6062 214.615 76.2565 215.781 75.3273 214.52C74.8634 213.891 74.2562 212.655 73.4748 210.365C73.2832 209.783 73.0766 209.147 72.8493 208.445C72.5835 207.773 72.3006 207.033 72.0051 206.219C71.7163 205.399 71.4042 204.51 71.0615 203.542C70.8989 203.057 70.731 202.55 70.5564 202.025C70.3487 201.494 70.1364 200.942 69.9166 200.37C68.2137 195.766 66.0425 190.221 63.7284 184.413C62.5788 181.528 61.4616 178.523 60.3613 175.597C59.8282 174.121 59.3401 172.632 58.8434 171.183C58.3604 169.727 57.8422 168.32 57.4757 166.886C56.701 164.061 55.8717 161.365 55.3997 158.921C55.111 157.713 54.9322 156.518 54.7374 155.419C54.535 154.321 54.3885 153.3 54.2708 152.366C54.0039 150.509 53.844 149.006 53.7347 147.97C53.6237 146.935 53.5625 146.365 53.5625 146.365C53.5625 146.365 53.6979 146.924 53.9419 147.936C54.1809 148.946 54.5296 150.414 55.0187 152.217C55.2493 153.122 55.5168 154.111 55.8397 155.156C56.1594 156.206 56.4594 157.326 56.8893 158.504C57.6442 160.899 58.7262 163.371 59.7776 166.07C60.276 167.416 60.9315 168.758 61.5466 170.136C62.1701 171.507 62.8052 172.906 63.4423 174.314C64.7938 177.122 66.1641 179.971 67.5088 182.767C70.2324 188.367 72.7459 193.927 74.5007 198.683C74.7239 199.275 74.94 199.845 75.1449 200.394C75.3217 200.967 75.4929 201.515 75.6536 202.043C75.9628 203.102 76.246 204.073 76.5094 204.966C76.7593 205.862 76.9755 206.675 77.1655 207.42C77.3038 208.155 77.3995 208.816 77.4849 209.414C77.8212 211.811 77.8351 213.189 77.7048 213.96C77.4455 215.501 76.6062 214.615 76.6062 214.615Z" fill="#EC86AD"/>
<path d="M80.2836 210.813C80.2836 210.813 80.1046 212.102 78.9265 210.929C78.336 210.343 77.4944 209.142 76.3019 206.857C75.6836 205.733 75.0533 204.27 74.3322 202.464C73.6094 200.673 72.7813 198.477 71.8868 196.03C70.9856 193.558 70.065 190.778 68.9119 188.01C67.784 185.131 66.5939 182.096 65.3837 179.001C65.085 178.227 64.7847 177.449 64.4823 176.666L63.6801 174.234C63.1543 172.613 62.6265 170.991 62.1041 169.383C61.6044 167.772 61.2183 166.154 60.7846 164.576C60.3834 162.992 59.9185 161.453 59.6004 159.923C58.967 156.854 58.3014 153.98 57.8434 151.343C57.3863 148.717 57.0331 146.33 56.884 144.322C56.7839 143.32 56.7878 142.405 56.7515 141.614C56.7702 140.817 56.7739 140.135 56.8066 139.578C56.9024 138.474 56.9551 137.865 56.9551 137.865C56.9551 137.865 56.981 138.473 57.0291 139.58C57.0686 140.13 57.1523 140.804 57.2308 141.581C57.3653 142.358 57.469 143.242 57.6874 144.208C58.0757 146.149 58.6953 148.428 59.4468 150.972C60.1963 153.507 61.1689 156.271 62.1006 159.204C62.5684 160.668 63.182 162.131 63.7263 163.642C64.3007 165.139 64.8326 166.688 65.4574 168.2C66.0981 169.705 66.7415 171.221 67.3858 172.734L68.3388 175.005C68.6976 175.76 69.0578 176.513 69.4124 177.261C70.1234 178.764 70.8263 180.256 71.5163 181.719C71.8488 182.442 72.1778 183.159 72.5044 183.867C72.8373 184.61 73.1684 185.346 73.4962 186.069C74.8565 188.971 75.8579 191.742 76.7764 194.259C77.7065 196.805 78.3936 198.857 78.9681 200.663C79.5198 202.459 79.9738 203.944 80.3544 205.184C81.0983 207.656 81.3386 209.107 81.3263 209.941C81.3075 211.604 80.2836 210.813 80.2836 210.813Z" fill="#EC86AD"/>
<path d="M83.7064 207.453C83.7064 207.453 83.5051 208.826 82.2565 207.563C81.6324 206.933 80.7475 205.643 79.4919 203.196C78.8461 201.99 78.1936 200.412 77.418 198.494C76.6423 196.567 75.776 194.279 74.8393 191.638C74.377 190.307 73.8852 188.905 73.3768 187.449C72.8553 186.015 72.3146 184.527 71.7587 182.995C70.6681 179.911 69.4169 176.608 68.1528 173.386C65.5709 166.851 62.7848 159.944 61.0015 153.465C59.1801 146.968 58.4307 141.029 58.3526 136.718C58.3439 135.647 58.3367 134.682 58.3314 133.835C58.3911 132.99 58.4439 132.264 58.4865 131.668C58.5717 130.492 58.6182 129.841 58.6182 129.841C58.6182 129.841 58.6574 130.491 58.7251 131.672C58.7589 132.261 58.7954 132.981 58.8419 133.817C58.9514 134.648 59.0773 135.597 59.2155 136.646C59.8002 140.802 61.2251 146.545 63.6322 152.584C66.0143 158.664 69.3439 165.093 72.4474 171.526C74.0185 174.8 75.4325 177.936 76.6911 181.03C77.3231 182.588 77.9357 184.103 78.5271 185.561C79.0874 187.022 79.5843 188.429 80.0639 189.769C81.0195 192.469 81.778 194.711 82.3833 196.621C82.9981 198.538 83.4234 200.13 83.8341 201.451C84.6061 204.096 84.8463 205.642 84.8302 206.531C84.7913 208.311 83.7064 207.453 83.7064 207.453Z" fill="#EC86AD"/>
<path d="M88.5718 201.858C88.5718 201.858 88.422 203.216 87.1448 202.017C86.5039 201.415 85.5834 200.174 84.2575 197.803C83.5754 196.637 82.8871 195.084 82.0419 193.227C81.6344 192.285 81.1908 191.261 80.7105 190.148C80.2664 189.036 79.7853 187.833 79.2669 186.533C78.2691 183.933 77.1701 181.06 76.008 178.019C75.8657 177.639 75.7244 177.256 75.5782 176.872C75.4323 176.462 75.2837 176.048 75.1356 175.633C74.8558 174.844 74.5734 174.046 74.2892 173.24C73.7281 171.629 73.1563 169.989 72.5799 168.335C70.3691 161.627 68.2336 154.664 66.6628 148.275C65.8736 145.078 65.1281 142.064 64.5368 139.327C64.1937 137.979 64.0558 136.595 63.843 135.361C63.7575 134.738 63.63 134.145 63.5909 133.562C63.5512 132.981 63.5112 132.425 63.4773 131.892C63.4236 130.835 63.2967 129.888 63.3307 129.046C63.3557 128.209 63.3788 127.49 63.3979 126.903C63.4353 125.736 63.457 125.094 63.457 125.094C63.457 125.094 63.5193 125.736 63.6353 126.9C63.6875 127.475 63.7554 128.187 63.8369 129.01C63.9048 129.832 64.1492 130.755 64.3271 131.783C64.4247 132.291 64.5271 132.83 64.6347 133.388C64.7392 133.946 64.9329 134.509 65.0868 135.1C65.4407 136.28 65.7001 137.528 66.2065 138.855C67.1098 141.516 68.1799 144.412 69.283 147.469C71.4885 153.588 74.246 160.249 76.8987 166.672C78.2579 169.884 79.5956 173.035 80.8617 176.023C82.158 179.049 83.3671 181.931 84.3705 184.534C84.8696 185.844 85.3303 187.052 85.7573 188.17C86.1664 189.273 86.5416 190.284 86.8903 191.217C87.5757 193.086 88.031 194.638 88.4883 195.928C89.3446 198.512 89.6407 200.033 89.6514 200.908C89.6754 202.663 88.5718 201.858 88.5718 201.858Z" fill="#EC86AD"/>
<path d="M92.927 196.406C92.927 196.406 92.6202 197.709 91.5184 196.389C90.9574 195.736 90.2359 194.389 89.1865 191.964C88.6278 190.788 87.9941 189.34 87.278 187.56C86.9451 186.67 86.5003 185.704 86.0347 184.65C85.5829 183.589 85.0933 182.442 84.5649 181.202C84.3078 180.578 84.0425 179.939 83.7727 179.283C83.4738 178.64 83.1686 177.984 82.8556 177.312C82.2426 175.968 81.6064 174.571 80.9499 173.134C79.6398 170.209 78.2588 167.13 76.8541 163.992C76.1625 162.413 75.5344 160.757 74.8786 159.138C74.2447 157.504 73.5492 155.892 72.9948 154.254C71.845 150.992 70.661 147.812 69.7335 144.725C67.7137 138.628 66.2894 132.995 65.6612 128.888C65.2673 126.849 65.2144 125.169 65.1262 124.028C65.0461 122.884 65.0029 122.259 65.0029 122.259C65.0029 122.259 65.1294 122.875 65.3534 124C65.5871 125.119 65.8471 126.75 66.4808 128.705C67.586 132.642 69.6121 137.948 72.2474 143.773C73.4767 146.715 74.9587 149.734 76.3789 152.83C77.0743 154.389 77.8859 155.893 78.6356 157.431C79.4089 158.959 80.1279 160.488 80.9266 162.003C81.7298 163.521 82.5264 165.023 83.3092 166.5C83.6925 167.23 84.0697 167.951 84.4435 168.665C84.8207 169.407 85.1947 170.14 85.5633 170.864C86.2913 172.314 86.9979 173.726 87.6804 175.089C88.0151 175.774 88.3433 176.443 88.664 177.1C88.9505 177.774 89.2276 178.433 89.4976 179.077C90.0266 180.37 90.5141 181.564 90.9653 182.668C91.4077 183.773 91.8081 184.789 92.0994 185.772C92.7175 187.709 93.181 189.312 93.5163 190.629C94.1002 193.251 94.1697 194.756 94.0901 195.612C93.9052 197.321 92.927 196.406 92.927 196.406Z" fill="#EC86AD"/>
<path d="M98.5972 189.635C98.5972 189.635 98.5874 191.006 97.1923 189.937C96.4999 189.378 95.4266 188.339 93.9493 185.865C92.4584 183.441 90.6935 179.862 88.6444 174.598C87.6525 171.991 86.5584 169.113 85.3995 166.067C84.2278 163.025 82.9886 159.819 81.7272 156.552C79.2323 150.002 76.685 143.155 74.9304 136.767C74.5007 135.173 74.086 133.618 73.686 132.123C73.5863 131.75 73.4881 131.38 73.3905 131.013C73.302 130.655 73.2125 130.299 73.1246 129.949C72.9476 129.233 72.7756 128.535 72.6073 127.853C71.9344 125.125 71.3695 122.643 71.0673 120.539C70.7585 118.433 70.6747 116.721 70.682 115.547C70.728 114.376 70.752 113.732 70.752 113.732C70.752 113.732 70.8117 114.373 70.9158 115.535C71.0578 116.691 71.3539 118.352 71.9051 120.361C72.453 122.374 73.289 124.719 74.2676 127.345C74.5116 128.005 74.7622 128.68 75.0186 129.369C75.1497 129.72 75.2804 130.073 75.4146 130.434C75.5507 130.78 75.6877 131.131 75.8257 131.486C76.3744 132.906 76.9427 134.379 77.5283 135.889C79.889 141.917 83.0278 148.407 85.9959 154.753C87.4763 157.942 88.9357 161.032 90.2596 164.07C91.5943 167.117 92.7302 169.994 93.7551 172.593C95.7301 177.691 97.1054 181.243 98.0894 183.782C98.9528 186.196 99.5017 187.714 99.5795 188.578C99.7787 190.328 98.5972 189.635 98.5972 189.635Z" fill="#EC86AD"/>
<path d="M102.193 184.838C102.193 184.838 101.897 186.227 100.699 184.851C100.399 184.507 100.045 183.991 99.6227 183.233C99.4166 182.846 99.1892 182.416 98.9334 181.934C98.6661 181.462 98.3791 180.93 98.0752 180.327C96.8305 177.804 95.084 174.267 92.5795 169.188C91.3194 166.598 89.906 163.704 88.4832 160.591C88.121 159.822 87.783 159.008 87.4251 158.204C87.2501 157.8 87.0719 157.392 86.8937 156.985L86.629 156.37L86.4795 156.004L86.3588 155.693C85.7258 154.043 85.0778 152.359 84.4303 150.659C84.1093 149.806 83.7767 148.965 83.4677 148.092L82.5667 145.461C81.9755 143.703 81.3803 141.948 80.7943 140.205C80.2718 138.45 79.7544 136.706 79.2438 134.995C78.9928 134.138 78.7424 133.29 78.4953 132.451C78.2613 131.608 78.0609 130.762 77.8467 129.937C76.0285 123.361 75.0211 117.273 74.6443 112.902C74.5587 111.807 74.4326 110.827 74.4114 109.96C74.3865 109.092 74.3669 108.348 74.3494 107.74C74.3194 106.528 74.3018 105.86 74.3018 105.86C74.3018 105.86 74.4068 106.519 74.5929 107.717C74.6849 108.317 74.7992 109.048 74.9328 109.901C75.0578 110.75 75.3057 111.706 75.5228 112.768C76.4244 117.018 78.0825 122.779 80.5582 129.074C80.8525 129.866 81.149 130.664 81.4489 131.474C81.774 132.274 82.1052 133.084 82.4373 133.899C83.0982 135.53 83.7686 137.19 84.4462 138.861C85.1683 140.509 85.8959 142.168 86.6223 143.827L87.7039 146.314C88.0891 147.141 88.4712 147.966 88.8532 148.791C89.6186 150.442 90.3756 152.077 91.1186 153.684L91.2582 153.986L91.3282 154.137L91.3443 154.175L91.3528 154.192C91.3776 154.251 91.328 154.134 91.3367 154.154L91.3754 154.224L91.6657 154.804C91.8618 155.192 92.054 155.575 92.2445 155.959C92.6354 156.723 92.9922 157.477 93.3899 158.224C94.9247 161.215 96.408 164.052 97.6925 166.687C100.268 171.966 101.795 175.788 102.58 178.664C102.783 179.372 102.949 180.005 103.084 180.568C103.215 181.13 103.265 181.61 103.326 182.04C103.429 182.898 103.446 183.525 103.405 183.978C103.25 185.789 102.193 184.838 102.193 184.838Z" fill="#EC86AD"/>
<path d="M106.554 178.537C106.554 178.537 106.404 179.959 105.057 178.705C103.682 177.472 101.296 173.422 96.0828 163.136C93.452 157.934 90.3355 151.508 87.4273 144.753C85.9737 141.395 84.4979 137.976 83.0401 134.611C82.2963 132.942 81.6553 131.206 80.9889 129.536C80.3409 127.852 79.6697 126.218 79.0874 124.594C78.566 122.941 78.058 121.336 77.5679 119.786C77.3237 119.013 77.0885 118.258 76.8538 117.515C76.7441 117.135 76.616 116.801 76.5208 116.396C76.4301 116.032 76.3455 115.671 76.256 115.316C75.5601 112.447 75.053 109.832 74.7866 107.629C74.6273 106.53 74.5825 105.524 74.5144 104.654C74.4898 103.774 74.4753 103.021 74.4806 102.409C74.5419 101.186 74.5771 100.514 74.5771 100.514C74.5771 100.514 74.6307 101.181 74.725 102.398C74.8021 103.004 74.9081 103.741 75.0388 104.594C75.2164 105.443 75.381 106.409 75.6662 107.463C76.1935 109.58 76.9865 112.053 77.9934 114.789C78.1234 115.132 78.2501 115.48 78.379 115.834C78.4902 116.15 78.6707 116.513 78.819 116.857C79.1246 117.554 79.4409 118.267 79.7613 118.995C80.3983 120.446 81.059 121.95 81.7385 123.496C82.4724 125.02 83.2995 126.563 84.094 128.141C84.9095 129.716 85.6825 131.323 86.5811 132.932C88.3289 136.152 90.097 139.427 91.7989 142.673C95.1676 149.147 98.5482 155.298 101.203 160.55C106.576 171.168 107.608 175.722 107.68 177.543C107.713 179.377 106.554 178.537 106.554 178.537Z" fill="#EC86AD"/>
<path d="M108.879 174.757C108.879 174.757 108.283 180.412 98.7102 159.103C97.5144 156.438 96.2336 153.479 94.9087 150.342C94.5806 149.555 94.246 148.761 93.9079 147.954L93.6355 147.294L93.4026 146.677C93.2469 146.263 93.0912 145.85 92.9312 145.433C92.3118 143.766 91.6762 142.068 91.0391 140.358C89.7821 136.925 88.4818 133.451 87.29 129.99C86.1434 126.509 85.0161 123.086 83.9476 119.834C82.892 116.589 81.8976 113.516 80.9914 110.732C80.0813 107.943 79.3608 105.371 78.9685 103.184C78.6071 100.983 78.5389 99.1933 78.6083 97.9679C78.7223 96.7519 78.7852 96.0852 78.7852 96.0852C78.7852 96.0852 78.8104 96.7519 78.856 97.9669C78.9384 99.1754 79.2336 100.906 79.8355 102.979C80.4777 105.047 81.4658 107.431 82.6805 110.081C83.8822 112.746 85.2096 115.687 86.6092 118.792C87.985 121.902 89.4343 125.175 90.9032 128.502C92.4279 131.824 93.9758 135.198 95.495 138.51C96.2497 140.176 96.9926 141.826 97.7271 143.446C97.9093 143.851 98.0884 144.256 98.2701 144.662L98.5378 145.263L98.7976 145.802C99.1743 146.591 99.5502 147.368 99.917 148.135C101.384 151.213 102.748 154.135 103.945 156.799C113.519 178.11 108.879 174.757 108.879 174.757Z" fill="#EC86AD"/>
<path d="M112.152 169.499C112.152 169.499 111.563 174.792 102.868 154.868C100.675 149.884 98.2742 143.798 95.6433 137.528C94.3454 134.394 93.1198 131.101 91.8976 127.917C91.3567 126.284 90.8215 124.666 90.2927 123.074C89.7743 121.481 89.2238 119.936 88.8729 118.357C88.4807 116.804 88.0987 115.288 87.7319 113.83C87.5537 113.099 87.3776 112.38 87.2042 111.679C87.0778 110.974 86.9533 110.286 86.8314 109.616C86.3537 106.939 85.9231 104.54 85.5668 102.527C84.8657 98.5053 84.4336 96.043 84.4336 96.043C84.4336 96.043 85.1706 98.4293 86.3706 102.324C86.966 104.28 87.673 106.61 88.4633 109.209C88.6606 109.862 88.8613 110.527 89.067 111.211C89.3081 111.871 89.5587 112.546 89.8134 113.236C90.3248 114.617 90.8514 116.049 91.397 117.518C91.8934 119 92.5896 120.466 93.2494 121.966C93.9097 123.465 94.5821 124.989 95.2585 126.525C96.7567 129.561 98.206 132.637 99.7331 135.679C102.814 141.734 105.54 147.738 107.724 152.702C116.42 172.623 112.152 169.499 112.152 169.499Z" fill="#EC86AD"/>
<path d="M115.086 163.097C115.086 163.097 114.81 164.401 113.683 163.113C113.4 162.792 113.064 162.305 112.665 161.6C112.281 160.871 111.782 159.994 111.202 158.87C110.029 156.494 108.39 153.169 106.037 148.402C104.848 145.972 103.522 143.26 102.164 140.357C101.498 138.879 100.8 137.425 100.136 135.813C99.4996 134.276 98.8524 132.713 98.1982 131.136C96.9197 127.972 95.6181 124.755 94.3335 121.581C93.2214 118.324 92.1234 115.117 91.0826 112.071C90.5716 110.554 90.0743 109.075 89.5936 107.649C89.4752 107.294 89.3559 106.942 89.2397 106.592L89.0533 106.033L88.919 105.509C88.7419 104.814 88.5665 104.132 88.3981 103.472C88.0628 102.147 87.7412 100.89 87.4446 99.7162C87.2963 99.1291 87.1526 98.5624 87.0161 98.0199C86.9106 97.4643 86.8081 96.9327 86.7117 96.4248C85.9541 92.3845 85.4893 89.9119 85.4893 89.9119C85.4893 89.9119 86.2591 92.2944 87.5134 96.1883C87.6689 96.6731 87.8296 97.1799 87.9999 97.709C88.1988 98.2341 88.4094 98.7795 88.6255 99.3427C89.0595 100.476 89.523 101.687 90.0133 102.962C90.2557 103.601 90.5051 104.255 90.7597 104.927L90.9528 105.432C90.9998 105.516 91.0975 105.739 91.1673 105.886C91.3212 106.22 91.4776 106.554 91.6318 106.891C92.2548 108.242 92.9044 109.644 93.569 111.086C94.8807 113.964 96.2609 116.996 97.6667 120.075C99.2077 123.128 100.772 126.226 102.31 129.271C103.068 130.803 103.82 132.321 104.559 133.81C105.251 135.238 106.047 136.696 106.754 138.092C108.225 140.898 109.627 143.568 110.837 146.043C113.268 151.001 114.687 154.604 115.431 157.29C115.818 158.623 116.059 159.662 116.138 160.458C116.237 161.265 116.256 161.852 116.222 162.279C116.083 163.983 115.086 163.097 115.086 163.097Z" fill="#EC86AD"/>
<path d="M119.407 153.844C119.407 153.844 119.328 155.113 118.09 154.052C116.836 153.007 114.487 149.565 109.793 140.314C108.608 138.014 107.334 135.454 106.009 132.738C105.681 132.058 105.348 131.37 105.009 130.674C104.671 129.947 104.328 129.215 103.982 128.475C103.321 127.036 102.648 125.567 101.969 124.089C101.279 122.627 100.693 121.036 100.054 119.509C99.4353 117.967 98.7961 116.43 98.2115 114.895C97.1158 111.806 95.9636 108.8 95.0361 105.889C94.5734 104.436 94.1208 103.021 93.6865 101.657C93.4709 100.976 93.258 100.306 93.0514 99.6554C92.8632 98.9912 92.6774 98.3421 92.4996 97.7119C92.1346 96.4676 91.8244 95.2567 91.5593 94.1209C91.275 92.9901 91.0243 91.9453 90.8774 90.9638C90.7121 89.9961 90.5603 89.122 90.4282 88.3539C90.3727 87.5755 90.3225 86.9072 90.283 86.364C90.2066 85.2816 90.1641 84.686 90.1641 84.686C90.1641 84.686 90.284 85.273 90.5019 86.3358C90.6082 86.8647 90.7397 87.5146 90.89 88.2659C91.1135 89.0012 91.3667 89.8424 91.6496 90.7722C91.9041 91.702 92.2805 92.6994 92.6866 93.7713C93.0765 94.8409 93.5142 95.9824 94.0256 97.1877C94.27 97.7866 94.522 98.3984 94.7806 99.0257C95.0585 99.6508 95.3403 100.287 95.6301 100.936C96.2034 102.234 96.8005 103.579 97.4114 104.964C98.6255 107.732 100.056 110.583 101.409 113.515C102.136 114.95 102.867 116.399 103.598 117.847C104.351 119.289 105.008 120.741 105.816 122.163C107.362 125.009 108.88 127.803 110.318 130.451C111.779 133.13 113.138 135.682 114.338 138.006C119.063 147.316 120.251 151.284 120.371 152.913C120.466 154.541 119.407 153.844 119.407 153.844Z" fill="#EC86AD"/>
<path d="M122.709 146.73C122.709 146.73 122.43 147.959 121.385 146.72C120.846 146.135 120.198 144.773 119.095 142.707C118.052 140.603 116.47 137.437 114.103 132.953C112.898 130.695 111.567 128.204 110.16 125.565C109.806 124.901 109.446 124.222 109.083 123.54C108.9 123.189 108.713 122.831 108.526 122.477C108.351 122.128 108.176 121.776 107.998 121.424C107.297 120.017 106.582 118.585 105.86 117.14C104.433 114.245 102.983 111.301 101.589 108.382C100.294 105.407 99.0171 102.475 97.8046 99.6889C95.3509 94.1672 93.3719 89.0785 92.4933 85.2466C92.2601 84.2957 92.112 83.423 91.984 82.6623C91.8984 81.8916 91.7902 81.2368 91.7656 80.6954C91.7178 79.616 91.6914 79.0227 91.6914 79.0227C91.6914 79.0227 91.794 79.6069 91.9796 80.6652C92.073 81.1946 92.2632 81.8256 92.441 82.5652C92.6591 83.2927 92.9097 84.1228 93.2492 85.0215C94.556 88.6339 97.0656 93.3582 100.068 98.5668C101.53 101.189 103.069 103.946 104.629 106.744C106.284 109.523 107.963 112.343 109.612 115.114C110.43 116.509 111.239 117.889 112.036 119.247C112.428 119.914 112.816 120.576 113.202 121.23C113.598 121.892 113.988 122.546 114.373 123.19C115.914 125.787 117.353 128.275 118.573 130.598C121.027 135.249 122.388 138.669 123.097 141.234C123.872 143.799 123.848 145.161 123.802 145.983C123.638 147.589 122.709 146.73 122.709 146.73Z" fill="#EC86AD"/>
<path d="M125.899 138.287C125.899 138.287 125.832 139.442 124.697 138.482C124.13 138.002 123.295 136.995 122.067 135.051C121.453 134.079 120.74 132.873 119.915 131.384C119.1 129.882 118.15 128.123 117.027 126.048C115.919 123.969 114.724 121.657 113.485 119.204C112.233 116.728 110.973 114.113 109.686 111.445C107.121 106.119 104.473 100.571 102.374 95.4159C101.31 92.8407 100.331 90.4123 99.4854 88.2008C98.6306 85.9901 97.8552 84.016 97.2537 82.3366C96.0327 78.9976 95.2871 76.9531 95.2871 76.9531C95.2871 76.9531 96.2858 78.888 97.9166 82.0427C98.7149 83.6253 99.7221 85.4967 100.824 87.5983C101.92 89.7015 103.16 92.0054 104.467 94.4169C107.058 99.2565 110.194 104.489 113.15 109.628C114.613 112.205 116.047 114.735 117.409 117.13C118.771 119.547 120.039 121.846 121.157 123.944C122.293 126.038 123.176 127.844 123.879 129.395C124.592 130.943 125.142 132.227 125.562 133.299C126.4 135.437 126.719 136.705 126.769 137.443C126.868 138.921 125.899 138.287 125.899 138.287Z" fill="#EC86AD"/>
<path d="M127.511 133.704C127.511 133.704 127.445 134.874 126.299 133.904C125.727 133.42 124.885 132.403 123.646 130.433C123.014 129.461 122.321 128.211 121.536 126.649C120.749 125.101 119.825 123.217 118.833 121.054C117.821 118.899 116.805 116.427 115.627 113.954C115.057 112.7 114.469 111.409 113.87 110.096C113.244 108.781 112.602 107.437 111.959 106.087C110.651 103.404 109.431 100.555 108.224 97.7871C107.593 96.414 107.096 94.9887 106.562 93.6108C106.043 92.2317 105.531 90.8768 105.034 89.5538C104.218 86.8356 103.428 84.2731 102.785 81.9602C102.177 79.6286 101.757 77.4698 101.549 75.6648C101.313 73.8602 101.349 72.3909 101.372 71.3898C101.464 70.3908 101.515 69.8416 101.515 69.8416C101.515 69.8416 101.535 70.391 101.571 71.385C101.678 72.3787 101.824 73.8103 102.268 75.5402C102.688 77.2756 103.338 79.2828 104.198 81.5114C105.102 83.7318 106.149 86.131 107.211 88.6781C107.829 89.921 108.465 91.1967 109.111 92.4917C109.765 93.7844 110.373 95.1155 111.116 96.4069C112.555 99.0141 113.955 101.661 115.475 104.265C116.209 105.57 116.936 106.868 117.654 108.139C118.341 109.455 119.014 110.745 119.671 112C121.007 114.518 122.071 116.915 123.1 119.099C124.105 121.295 124.906 123.092 125.568 124.676C126.203 126.248 126.73 127.547 127.173 128.641C128.018 130.808 128.339 132.094 128.389 132.845C128.49 134.343 127.511 133.704 127.511 133.704Z" fill="#EC86AD"/>
<path d="M128.649 126.185C128.649 126.185 128.57 127.271 127.521 126.355C127.011 125.877 126.196 124.982 125.139 123.045C124.624 122.064 124.012 120.835 123.342 119.326C122.72 117.836 122 116.064 121.228 113.961C118.183 105.55 114.534 93.5183 111.181 83.6928C110.355 81.2308 109.572 78.8984 108.861 76.7826C108.145 74.6902 107.458 72.7918 106.99 71.1762C106.509 69.561 106.225 68.2315 106.073 67.3131C105.95 66.3869 105.885 65.8801 105.885 65.8801C105.885 65.8801 106.015 66.3734 106.254 67.2713C106.523 68.1585 106.967 69.4231 107.632 70.9448C108.283 72.4724 109.175 74.242 110.142 76.2704C111.08 78.2959 112.116 80.5328 113.207 82.8901C117.589 92.3503 122.307 104.129 125.323 112.466C126.088 114.546 126.726 116.298 127.227 117.809C127.754 119.272 128.166 120.465 128.466 121.475C129.108 123.494 129.468 124.701 129.48 125.394C129.55 126.792 128.649 126.185 128.649 126.185Z" fill="#EC86AD"/>
<path d="M131.29 120.206C131.29 120.206 131.178 121.235 130.206 120.322C129.222 119.418 127.458 116.512 123.854 108.888C120.264 101.217 115.353 90.0626 112.726 80.3667C111.375 75.5315 110.51 71.1723 110.036 67.9938C109.923 67.2005 109.803 66.4899 109.737 65.8578C109.679 65.225 109.631 64.6855 109.592 64.2405C109.513 63.3546 109.473 62.8694 109.473 62.8694C109.473 62.8694 109.578 63.3452 109.77 64.2114C109.864 64.6431 109.978 65.175 110.113 65.788C110.255 66.3997 110.464 67.092 110.67 67.8588C111.519 70.9156 112.887 75.1351 114.699 79.7032C118.251 88.8812 124.008 99.3963 127.618 107.112C131.278 114.863 132.077 118.157 132.11 119.485C132.13 120.816 131.29 120.206 131.29 120.206Z" fill="#EC86AD"/>
<path d="M132.642 111.737C132.642 111.737 132.564 112.703 131.633 111.877C130.72 111.037 128.882 108.463 125.55 101.236C124.769 99.3877 123.933 97.3351 123.072 95.1574C122.219 92.9814 121.286 90.7007 120.555 88.3085C119.795 85.9371 119.022 83.5188 118.255 81.136C118.067 80.5432 117.881 79.9509 117.697 79.3608C117.518 78.771 117.385 78.1691 117.23 77.5778C116.933 76.4008 116.642 75.2387 116.358 74.1079C115.802 71.853 115.275 69.7147 114.797 67.777C114.429 65.7797 114.186 64.046 113.942 62.5661C113.485 59.6204 113.204 57.8147 113.204 57.8147C113.204 57.8147 113.711 59.5697 114.533 62.4264C114.949 63.8476 115.416 65.5951 115.982 67.4547C116.665 69.3179 117.42 71.3717 118.214 73.5365C118.607 74.6189 119.011 75.7312 119.418 76.8603C119.63 77.4233 119.814 78.0022 120.049 78.5657C120.285 79.1286 120.523 79.6978 120.764 80.2668C121.712 82.5504 122.674 84.8672 123.618 87.1364C124.505 89.4385 125.563 91.6146 126.495 93.7044C127.435 95.796 128.304 97.7796 129.066 99.5892C132.38 106.774 133.354 109.797 133.387 111.044C133.439 112.284 132.642 111.737 132.642 111.737Z" fill="#EC86AD"/>
<path d="M134.494 105.748C134.494 105.748 134.012 109.532 127.955 95.1806C127.214 93.3711 126.427 91.3654 125.612 89.2344C124.79 87.1079 123.957 84.8576 123.183 82.5375C122.407 80.2306 121.615 77.8776 120.833 75.557C120.077 73.2367 119.44 70.9108 118.791 68.7261C118.171 66.5279 117.523 64.4886 117.062 62.5673C116.828 61.6259 116.608 60.727 116.456 59.86C116.298 58.9993 116.113 58.2124 116.041 57.4773C115.949 56.748 115.866 56.0894 115.793 55.5111C115.764 54.931 115.742 54.432 115.725 54.023C115.693 53.2113 115.675 52.7634 115.675 52.7634C115.675 52.7634 115.751 53.2049 115.887 54.007C115.955 54.4042 116.04 54.8917 116.141 55.4583C116.283 56.0157 116.443 56.6533 116.624 57.3584C116.78 58.0624 117.057 58.8136 117.308 59.6254C117.549 60.4374 117.874 61.3017 118.215 62.2168C118.876 64.0209 119.753 66.0022 120.592 68.1024C121.462 70.1972 122.313 72.4236 123.276 74.6522C124.24 76.8831 125.219 79.1495 126.18 81.3718C127.111 83.6089 128.079 85.7874 128.989 87.8613C129.894 89.9343 130.731 91.9047 131.464 93.6983C137.518 108.038 134.494 105.748 134.494 105.748Z" fill="#EC86AD"/>
<path d="M135.69 100.573C135.69 100.573 135.658 101.506 134.727 100.755C133.845 99.9755 131.792 97.7104 128.748 90.4386C125.748 83.2684 122.991 72.6872 121.224 63.9338C120.794 61.7339 120.364 59.6847 120.042 57.7682C119.761 55.8827 119.507 54.1872 119.294 52.764C118.88 49.9283 118.628 48.1895 118.628 48.1895C118.628 48.1895 119.097 49.8795 119.865 52.6364C120.243 54.0222 120.696 55.6745 121.199 57.5115C121.722 59.3201 122.385 61.3423 123.035 63.4648C125.699 71.9551 129.303 82.0862 132.205 89.0153C135.049 95.8426 136.316 98.6629 136.377 99.8713C136.482 101.065 135.69 100.573 135.69 100.573Z" fill="#FFCADE"/>
<path d="M136.324 94.2859C136.324 94.2859 136.14 95.1368 135.405 94.2906C134.662 93.445 133.403 90.8807 131.165 84.0934C129.914 80.7704 128.53 76.7474 127.101 72.5074C125.697 68.2464 124.144 63.8922 123.095 59.8109C122.541 57.7942 122.015 55.881 121.537 54.1462C121.42 53.7151 121.308 53.2919 121.197 52.8834C121.104 52.4651 121.015 52.0613 120.93 51.6702C120.764 50.8954 120.608 50.1759 120.468 49.5184C120.31 48.8664 120.254 48.2441 120.163 47.7199C120.06 47.1937 120.054 46.7294 120.047 46.3515C120.029 45.608 120.018 45.1956 120.018 45.1956C120.018 45.1956 120.081 45.602 120.198 46.3383C120.251 46.7023 120.312 47.1492 120.48 47.6572C120.635 48.1645 120.758 48.7441 120.995 49.3772C121.214 50.0112 121.455 50.7067 121.715 51.4552C121.842 51.8275 121.975 52.2112 122.112 52.6075C122.269 53.0005 122.43 53.4063 122.597 53.8221C123.258 55.4814 123.987 57.3143 124.753 59.2448C126.196 63.1312 128.158 67.3331 129.863 71.4504C131.598 75.5748 133.235 79.6473 134.5 83.0212C136.744 89.8198 137.164 92.6438 137.076 93.7565C136.974 94.8722 136.324 94.2859 136.324 94.2859Z" fill="#EC86AD"/>
<path d="M137.542 88.6436C137.542 88.6436 137.384 89.4326 136.695 88.6614C135.986 87.9024 134.866 85.5007 132.494 79.4562C130.119 73.3581 126.723 64.5501 124.967 56.9578C124.768 56.0093 124.575 55.08 124.388 54.1874C124.197 53.3105 124.016 52.4287 123.917 51.6117C123.699 49.976 123.445 48.5206 123.338 47.2768C123.124 44.807 122.989 43.2876 122.989 43.2876C122.989 43.2876 123.31 44.7672 123.834 47.1754C124.084 48.3793 124.513 49.8029 124.918 51.4042C125.111 52.2111 125.373 53.006 125.661 53.8656C125.939 54.7179 126.225 55.5995 126.52 56.5071C129.007 63.7291 133.088 72.0901 135.501 78.2732C137.946 84.5122 138.279 87.1179 138.226 88.1422C138.148 89.1737 137.542 88.6436 137.542 88.6436Z" fill="#FFCADE"/>
<path d="M138.021 84.0534C138.021 84.0534 137.689 84.8647 137.112 83.8988C136.968 83.6585 136.807 83.3037 136.634 82.799C136.458 82.2508 136.259 81.6164 136.019 80.8516C135.582 79.2655 134.896 76.8939 133.881 73.5271C132.859 70.149 131.481 66.0616 130.179 61.7263C128.889 57.3959 127.717 52.8035 127.253 48.5605C127.138 47.4995 127.017 46.4715 126.992 45.4695C126.968 44.9694 126.944 44.4811 126.922 44.0045C126.922 43.5285 126.925 43.0606 126.927 42.604C126.928 41.7075 126.951 40.85 126.99 40.0469C127.014 39.2438 127.046 38.5021 127.128 37.822C127.197 37.1477 127.247 36.5382 127.314 36.0054C127.414 35.4788 127.498 35.025 127.566 34.6535C127.706 33.9197 127.782 33.5127 127.782 33.5127C127.782 33.5127 127.758 33.925 127.715 34.6752C127.695 35.0464 127.667 35.5028 127.638 36.0325C127.636 36.566 127.663 37.1723 127.676 37.8383C127.801 40.5092 128.076 44.2554 128.985 48.2628C130.739 56.336 135.149 65.4765 137.244 72.4976C138.298 76.0038 138.796 78.5098 138.941 80.3448C138.986 80.7976 139.018 81.1971 139.038 81.5533C139.038 81.9003 139.028 82.2033 139.016 82.471C138.983 83.0022 138.925 83.3865 138.853 83.6572C138.561 84.7474 138.021 84.0534 138.021 84.0534Z" fill="#EC86AD"/>
<path d="M139.084 78.5735C139.084 78.5735 138.776 79.3061 138.265 78.4236C138.136 78.2051 137.995 77.8841 137.843 77.4233C137.698 76.9626 137.532 76.364 137.3 75.6594C136.903 74.2415 136.286 72.1157 135.274 69.1235C134.251 66.1275 132.801 62.5355 131.252 58.7799C129.706 55.0325 128.119 51.0913 126.996 47.4151C126.422 45.5833 125.981 43.8165 125.658 42.204C125.335 40.6003 125.041 39.1854 124.859 37.9565C124.679 36.7274 124.7 35.7224 124.775 35.0452C124.876 34.3683 124.959 34.0051 124.959 34.0051C124.959 34.0051 124.926 34.3827 124.913 35.0537C124.924 35.7274 125.028 36.6935 125.347 37.8564C125.664 39.0134 126.134 40.4108 126.632 41.9506C127.127 43.4819 127.743 45.1483 128.489 46.8734C129.957 50.3304 131.869 54.0278 133.696 57.6711C135.521 61.3075 137.202 64.9288 138.282 68.0846C139.351 71.2544 139.811 73.5488 139.948 75.2242C140.049 76.0593 140.041 76.6743 140 77.1506C139.967 77.6334 139.912 77.9778 139.841 78.2265C139.567 79.2046 139.084 78.5735 139.084 78.5735Z" fill="#FFCADE"/>
<path d="M139.46 69.4906C139.46 69.4906 139.289 70.1736 138.718 69.4728C138.101 68.7945 137.351 66.5552 135.19 61.4541C134.044 58.8433 132.655 55.681 131.2 52.3638C130.462 50.7161 129.807 48.967 129.14 47.2781C128.809 46.4313 128.559 45.5503 128.272 44.7083C128.018 43.8513 127.682 43.0476 127.517 42.1981C126.698 38.8563 126.15 35.925 125.972 33.7232C125.886 32.6297 125.952 31.744 126.028 31.1436C126.131 30.5517 126.188 30.2261 126.188 30.2261C126.188 30.2261 126.176 30.5552 126.149 31.1557C126.15 31.7516 126.194 32.6191 126.409 33.6679C126.835 35.754 127.743 38.6653 128.86 41.7662C129.1 42.5552 129.515 43.3211 129.842 44.1221C130.202 44.9127 130.521 45.732 130.919 46.532C131.727 48.1285 132.498 49.7595 133.354 51.3498C135.01 54.5261 136.635 57.65 137.787 60.3447C140.115 65.8866 140.126 68.1959 140.075 69.0822C139.968 69.9771 139.46 69.4906 139.46 69.4906Z" fill="#FFCADE"/>
<path d="M139.913 65.5705C139.913 65.5705 139.727 66.2033 139.222 65.5237C138.971 65.185 138.638 64.5164 138.212 63.2787C137.991 62.665 137.777 61.8839 137.481 60.9741C137.162 60.0797 136.809 59.0207 136.417 57.7667C134.809 52.7281 132.105 45.5709 130.158 39.5484C129.645 38.0582 129.262 36.6019 128.881 35.3015C128.696 34.6529 128.521 34.0367 128.356 33.4569C128.222 32.8728 128.099 32.3299 127.986 31.8311C127.546 29.8589 127.274 28.645 127.274 28.645C127.274 28.645 127.696 29.8156 128.38 31.713C128.552 32.1888 128.738 32.7114 128.937 33.2707C129.167 33.821 129.413 34.412 129.672 35.031C130.197 36.2743 130.728 37.6524 131.393 39.079C133.937 44.8146 137.256 51.7172 138.935 56.9648C139.348 58.2856 139.677 59.4128 139.938 60.3693C140.17 61.3227 140.278 62.1081 140.379 62.7545C140.565 64.0499 140.576 64.7976 140.506 65.2129C140.367 66.0466 139.913 65.5705 139.913 65.5705Z" fill="#FFCADE"/>
<path d="M139.439 62.7422C139.439 62.7422 139.186 63.3622 138.744 62.6237C138.524 62.2552 138.255 61.5455 137.949 60.248C137.789 59.6039 137.647 58.7963 137.445 57.8393C137.239 56.8879 137.014 55.7625 136.776 54.4329C135.789 49.0965 134.247 41.5012 132.841 35.2525C131.476 29.0472 130.381 24.0691 130.381 24.0691C130.381 24.0691 132.095 28.8065 134.137 34.8941C136.191 40.9736 138.407 48.4787 139.419 53.946C139.664 55.3182 139.851 56.4876 139.992 57.4767C140.123 58.4678 140.158 59.2733 140.195 59.9391C140.252 61.2696 140.188 62.0269 140.076 62.4433C139.851 63.2679 139.439 62.7422 139.439 62.7422Z" fill="#EC86AD"/>
<path d="M140.233 57.8735C140.233 57.8735 139.866 58.4033 139.606 57.6164C139.478 57.2193 139.375 56.4998 139.362 55.2171C139.344 54.5788 139.396 53.787 139.388 52.8528C139.372 51.9228 139.376 50.8286 139.402 49.5416C139.409 46.9595 139.39 43.7941 139.209 40.5334C139.057 37.2675 138.765 33.8857 138.425 30.8324C138.287 29.3002 138.07 27.8625 137.906 26.553C137.745 25.2444 137.583 24.0719 137.422 23.095C137.128 21.1402 136.947 19.936 136.947 19.936C136.947 19.936 137.278 21.1068 137.818 23.0117C138.097 23.9667 138.398 25.1115 138.708 26.4004C139.026 27.6869 139.401 29.1043 139.702 30.6227C140.364 33.6484 140.985 37.0363 141.382 40.3445C141.81 43.6562 141.993 46.8765 141.988 49.5744C141.959 50.9284 141.913 52.0751 141.856 53.047C141.79 54.0125 141.64 54.7661 141.536 55.4019C141.307 56.6655 141.087 57.3584 140.896 57.7245C140.508 58.4563 140.233 57.8735 140.233 57.8735Z" fill="#FFCADE"/>
<path d="M140.221 59.0141C140.221 59.0141 139.975 59.4566 139.711 58.8623C139.577 58.5638 139.439 58.0067 139.325 57.0029C139.264 56.5035 139.229 55.8825 139.164 55.1444C139.087 54.4127 139.011 53.5508 138.944 52.5332C138.641 48.4534 137.968 42.6366 137.105 37.8716C136.685 35.4893 136.28 33.3565 135.954 31.8324C135.642 30.3124 135.448 29.3701 135.448 29.3701C135.448 29.3701 135.761 30.2792 136.262 31.7503C136.772 33.2266 137.425 35.3021 138.096 37.6447C139.465 42.3253 140.662 48.1656 140.973 52.3838C141.048 53.4432 141.09 54.3427 141.114 55.1012C141.122 55.8604 141.078 56.4665 141.043 56.9725C140.966 57.9791 140.85 58.5431 140.728 58.8437C140.485 59.4475 140.221 59.0141 140.221 59.0141Z" fill="#FFCADE"/>
<path d="M140.605 61.76C140.605 61.76 140.094 62.3497 139.883 61.3721C139.778 60.878 139.75 59.9981 139.897 58.453C139.971 57.6813 140.088 56.7454 140.264 55.6084C140.423 54.4715 140.715 53.13 140.898 51.5738C141.297 48.4434 142.047 44.72 142.495 40.7638C142.744 38.7937 143.055 36.7944 143.288 34.8179C143.503 32.8457 143.717 30.8968 143.923 29.0443C144.655 21.6729 145.24 15.791 145.24 15.791C145.24 15.791 145.279 17.262 145.345 19.6561C145.373 20.8584 145.407 22.2901 145.444 23.8883C145.487 25.479 145.514 27.259 145.485 29.1274C145.464 31.0047 145.443 32.9789 145.421 34.9763C145.37 36.9837 145.228 39.0185 145.123 41.0238C144.966 45.0335 144.391 48.9255 143.979 52.1315C143.786 53.7477 143.449 55.0501 143.205 56.1767C142.948 57.2965 142.708 58.2128 142.492 58.9569C142.055 60.4448 141.701 61.2544 141.422 61.6689C140.862 62.4961 140.605 61.76 140.605 61.76Z" fill="#FFCADE"/>
<path d="M140.326 63.9227C140.326 63.9227 139.956 64.1346 140.024 63.5934C140.088 63.0637 140.6 61.7241 142.468 58.7683C144.322 55.8142 147.122 51.7794 148.597 48.0356C149.341 46.1759 149.806 44.425 149.953 43.13C150.077 42.488 150.064 41.961 150.101 41.5997C150.125 41.237 150.14 41.0342 150.14 41.0342C150.14 41.0342 150.153 41.2366 150.175 41.5996C150.185 41.9602 150.265 42.4912 150.22 43.1511C150.233 44.4752 149.973 46.3185 149.407 48.3116C148.291 52.3322 145.767 56.731 143.92 59.6751C142.055 62.6248 141.213 63.6835 140.766 64.0234C140.326 64.3532 140.326 63.9227 140.326 63.9227Z" fill="#FFCADE"/>
<path d="M139.052 78.6599C139.052 78.6599 138.541 78.9257 138.663 78.1975C138.708 77.8349 138.968 77.2192 139.425 76.2027C139.853 75.2003 140.566 73.7854 141.424 71.6487C142.298 69.5272 143.235 66.8993 144.045 64.1042C144.86 61.3122 145.569 58.3679 146.154 55.692C146.741 53.0142 147.218 50.6047 147.568 48.8684C147.917 47.1433 148.136 46.0762 148.136 46.0762C148.136 46.0762 148.057 47.1628 147.924 48.9196C147.789 50.683 147.599 53.1356 147.294 55.8789C146.988 58.6222 146.558 61.6617 145.933 64.5786C145.316 67.5001 144.478 70.2915 143.558 72.5254C142.657 74.7626 141.759 76.2249 141.088 77.2119C140.414 78.1708 139.934 78.5925 139.637 78.8151C139.03 79.2352 139.052 78.6599 139.052 78.6599Z" fill="#EC86AD"/>
<path d="M137.493 98.2121C137.493 98.2121 136.782 98.6973 136.836 97.5933C136.826 96.4753 137.981 93.8346 140.101 87.4408C140.588 85.7839 141.245 83.9998 141.749 82.0346C142.024 81.0582 142.309 80.059 142.598 79.0376C142.866 78.0086 143.138 76.9614 143.413 75.9028C144.479 71.6674 145.589 67.2606 146.595 63.2612C147.651 59.2702 148.643 55.7568 149.266 53.1902C149.844 50.6207 150.197 49.0437 150.197 49.0437C150.197 49.0437 150.045 50.6607 149.797 53.2918C149.491 55.9198 148.91 59.5651 148.282 63.6063C147.672 67.6649 147.051 72.1678 146.25 76.5273C146.047 77.6163 145.86 78.6979 145.642 79.758C145.403 80.8184 145.167 81.8586 144.937 82.8728C144.512 84.9055 143.884 86.7938 143.376 88.5091C143.243 88.9355 143.114 89.3485 142.989 89.7441C142.834 90.1391 142.685 90.5166 142.541 90.8835C142.245 91.6039 141.971 92.2638 141.719 92.8771C141.459 93.4711 141.219 94.0166 140.998 94.5216C140.753 94.9912 140.506 95.3931 140.288 95.76C139.405 97.2241 138.799 97.9818 138.386 98.3467C137.557 99.0709 137.493 98.2121 137.493 98.2121Z" fill="#EC86AD"/>
<path d="M137.736 90.723C137.736 90.723 137.144 91.0893 137.225 90.1982C137.265 89.7498 137.472 88.9905 138.007 87.7128C138.314 87.075 138.548 86.3023 138.868 85.3884C139.191 84.4684 139.633 83.4289 140.003 82.0734C140.213 81.4103 140.434 80.7137 140.664 79.9893C140.857 79.25 141.061 78.4809 141.268 77.6891C141.718 76.1173 142.069 74.4086 142.488 72.6915C143.28 69.228 144.025 65.6079 144.926 62.3644C146.814 56.0218 148.326 50.9404 148.326 50.9404C148.326 50.9404 148.118 52.242 147.779 54.3506C147.484 56.4841 146.802 59.3924 146.292 62.6613C145.746 65.9183 145.346 69.584 144.807 73.1295C144.508 74.902 144.261 76.6514 143.872 78.3063C143.688 79.1342 143.521 79.9411 143.329 80.7146C143.099 81.4846 142.877 82.2209 142.667 82.9219C142.285 84.3226 141.744 85.5026 141.305 86.488C140.868 87.4799 140.491 88.28 140.086 88.8271C139.321 89.9836 138.805 90.5798 138.458 90.8607C137.76 91.4176 137.736 90.723 137.736 90.723Z" fill="#FFCADE"/>
<path d="M142.033 47.2014C142.033 47.2014 141.704 47.6755 141.474 46.9703C141.361 46.6175 141.271 45.9714 141.259 44.827C141.266 44.2132 141.276 43.5248 141.286 42.7163C141.273 41.8854 141.277 40.9064 141.308 39.7563C141.375 35.1222 141.168 28.4703 140.81 22.9782C140.469 17.5468 140.191 13.1575 140.191 13.1575C140.191 13.1575 141.036 17.4078 141.958 22.8486C142.891 28.2898 143.687 34.9848 143.617 39.7924C143.588 41.0028 143.544 42.0256 143.489 42.8916C143.431 43.7548 143.294 44.4286 143.203 44.9971C142.998 46.1252 142.8 46.7448 142.627 47.0727C142.279 47.7227 142.033 47.2014 142.033 47.2014Z" fill="#EC86AD"/>
<path d="M139.706 80.7049C139.706 80.7049 139.171 80.9436 139.34 80.2075C139.409 79.8418 139.716 79.2306 140.243 78.2256C140.734 77.2341 141.546 75.842 142.521 73.7172C143.511 71.6071 144.567 68.9719 145.458 66.1496C146.359 63.3366 147.11 60.3482 147.702 57.6214C148.295 54.8934 148.751 52.4325 149.059 50.6568C149.369 48.8876 149.561 47.7937 149.561 47.7937C149.561 47.7937 149.508 48.9024 149.425 50.699C149.332 52.5022 149.17 55.0075 148.862 57.8108C148.553 60.6135 148.084 63.7141 147.368 66.6826C146.668 69.6504 145.7 72.4759 144.651 74.7102C143.623 76.9528 142.614 78.3904 141.87 79.3608C141.122 80.2925 140.607 80.6887 140.29 80.8962C139.647 81.2879 139.706 80.7049 139.706 80.7049Z" fill="#EC86AD"/>
<path d="M35.2092 251.9C35.2092 251.9 35.0268 251.095 35.9935 251.528C36.4795 251.718 37.2454 252.338 38.4857 253.255C39.6963 254.214 41.5114 255.646 44.1782 257.575C46.8551 259.503 50.2053 261.724 53.802 263.863C57.3968 266 61.2127 268.077 64.708 269.883C68.215 271.662 71.3502 273.282 73.7081 274.127C74.3025 274.334 74.8413 274.52 75.3132 274.682C75.7969 274.808 76.2143 274.911 76.5543 274.998C77.2373 275.168 77.6154 275.267 77.6154 275.267C77.6154 275.267 77.2291 275.221 76.5294 275.137C76.1764 275.093 75.7453 275.041 75.2421 274.982C74.7475 274.876 74.1843 274.754 73.5598 274.622C71.042 274.053 67.7273 272.804 64.0282 271.392C60.3347 269.954 56.286 268.225 52.4618 266.315C48.6376 264.406 45.0521 262.289 42.2443 260.262C39.4307 258.229 37.6684 256.57 36.534 255.257C35.3633 253.964 34.9873 253.155 34.7804 252.657C34.4199 251.659 35.2092 251.9 35.2092 251.9Z" fill="#EC86AD"/>
<path d="M37.3574 249.493C37.3574 249.493 36.9896 248.714 38.0744 248.938C38.6161 249.05 39.5233 249.412 41.0186 250.249C41.7615 250.701 42.6738 251.142 43.757 251.715C44.8547 252.277 46.0546 253.03 47.6336 253.791C53.7549 257.051 62.8096 261.182 70.3661 264.474C74.151 266.108 77.4823 267.696 79.9122 268.729C82.3571 269.735 83.8611 270.35 83.8611 270.35C83.8611 270.35 82.2885 269.926 79.7301 269.236C77.1706 268.504 73.6896 267.318 69.7537 266.087C61.8975 263.605 52.3826 260.231 46.028 256.848C44.4256 256.075 43.1078 255.195 41.9948 254.509C40.8816 253.805 39.9813 253.212 39.3555 252.642C38.0447 251.541 37.3856 250.822 37.0896 250.354C36.4974 249.423 37.3574 249.493 37.3574 249.493Z" fill="#EC86AD"/>
<path d="M39.7355 247.627C39.7355 247.627 39.2246 246.847 40.4211 246.925C41.6155 246.99 44.5026 247.989 51.3333 251.263C58.1818 254.538 67.8207 259.292 76.0665 262.532C80.195 264.071 83.9483 265.458 86.6887 266.176C87.3715 266.365 88.0033 266.472 88.5553 266.586C89.1101 266.662 89.593 266.734 89.9847 266.774C90.7775 266.816 91.216 266.843 91.216 266.843C91.216 266.843 90.7781 266.875 89.9815 266.933C89.5848 266.948 89.0919 266.937 88.5185 266.931C87.9507 266.884 87.2934 266.858 86.5794 266.75C83.6993 266.361 79.8413 265.43 75.4776 264.305C66.8235 261.916 56.6459 257.948 49.7302 254.638C42.7998 251.315 40.3622 249.495 39.581 248.595C38.8074 247.681 39.7355 247.627 39.7355 247.627Z" fill="#EC86AD"/>
<path d="M43.2608 245.974C43.2608 245.974 42.7428 245.179 43.9591 245.261C45.1858 245.309 48.0931 246.448 55.083 249.423C62.1404 252.427 72.3104 256.463 80.8563 259.434C82.9977 260.175 84.998 260.895 86.8459 261.507C88.6916 262.113 90.3293 262.736 91.7246 263.109C94.5107 263.939 96.2213 264.447 96.2213 264.447C96.2213 264.447 94.4562 264.159 91.5793 263.685C90.121 263.477 88.4382 263.058 86.5312 262.667C84.634 262.273 82.5266 261.772 80.3187 261.257C71.4706 259.19 60.8391 256.005 53.6055 252.926C46.3077 249.813 43.9026 247.853 43.1027 246.957C42.3167 246.028 43.2608 245.974 43.2608 245.974Z" fill="#FFCADE"/>
<path d="M46.32 244.232C46.32 244.232 45.7938 243.402 47.0568 243.505C47.6871 243.556 48.766 243.84 50.5822 244.58C51.488 244.991 52.5843 245.352 53.8927 245.857C55.2135 246.349 56.6899 247.033 58.5862 247.68C65.9879 250.525 76.8174 253.975 85.9192 256.337C87.0551 256.631 88.1615 256.919 89.2314 257.194C89.4964 257.262 89.761 257.332 90.0232 257.401C90.2885 257.472 90.5551 257.544 90.8179 257.615C91.3261 257.757 91.8244 257.896 92.3103 258.034C94.2466 258.56 95.9873 258.994 97.4718 259.196C98.9518 259.417 100.167 259.458 101.005 259.441C101.844 259.401 102.308 259.376 102.308 259.376C102.308 259.376 101.849 259.46 101.018 259.614C100.183 259.736 98.9524 259.852 97.4166 259.812C95.8788 259.792 94.0564 259.564 92.0466 259.255C91.5454 259.176 91.0319 259.093 90.5104 259.012C90.2541 258.971 89.993 258.931 89.7337 258.89C89.4644 258.85 89.1928 258.811 88.9171 258.772C87.8202 258.61 86.6805 258.444 85.5119 258.273C76.1614 256.87 64.8666 254.326 57.1841 251.377C55.2553 250.716 53.6385 249.911 52.2816 249.28C50.9235 248.634 49.816 248.089 49.0242 247.53C47.381 246.463 46.5322 245.739 46.1313 245.253C45.3331 244.276 46.32 244.232 46.32 244.232Z" fill="#EC86AD"/>
<path d="M50.1935 241.976C50.1935 241.976 49.4921 241.157 50.8704 241.07C51.5597 241.024 52.77 241.162 54.8441 241.675C55.8812 241.933 57.1374 242.282 58.6514 242.749C60.1662 243.204 61.9461 243.699 64.0269 244.36C66.1007 245.032 68.3929 245.772 70.8177 246.557C73.2675 247.279 75.841 248.062 78.4578 248.874C79.7649 249.284 81.0818 249.697 82.4034 250.109C83.7198 250.538 85.0661 250.847 86.3836 251.223C89.0261 251.951 91.6299 252.669 94.1039 253.353C96.5793 254.047 98.9253 254.706 101.053 255.302C103.178 255.882 105.071 256.481 106.669 256.841C107.468 257.03 108.189 257.241 108.828 257.357C109.469 257.468 110.021 257.564 110.473 257.642C111.378 257.801 111.877 257.891 111.877 257.891C111.877 257.891 111.373 257.866 110.453 257.828C109.993 257.806 109.427 257.779 108.771 257.75C108.112 257.714 107.374 257.596 106.545 257.503C104.883 257.336 102.946 256.968 100.765 256.635C98.5866 256.275 96.1843 255.879 93.653 255.46C91.1032 255.024 88.4228 254.56 85.702 254.093C84.342 253.836 82.9559 253.643 81.5969 253.324C80.2361 253.012 78.8741 252.7 77.5283 252.39C74.8304 251.768 72.1774 251.137 69.6651 250.52C67.1629 249.86 64.8179 249.11 62.6955 248.46C60.5793 247.784 58.7742 247.211 57.291 246.643C55.8153 246.063 54.6166 245.554 53.6446 245.106C51.7014 244.213 50.6712 243.564 50.1611 243.103C49.1376 242.177 50.1935 241.976 50.1935 241.976Z" fill="#EC86AD"/>
<path d="M53.3394 239.3C53.3394 239.3 52.5905 238.398 54.0966 238.325C54.8509 238.287 56.1656 238.459 58.4235 239.052C59.5513 239.349 60.9141 239.751 62.5613 240.286C63.3818 240.563 64.2729 240.866 65.2453 241.193C65.7316 241.357 66.2319 241.551 66.7579 241.716C67.2841 241.87 67.8301 242.035 68.3977 242.203C70.6634 242.885 73.157 243.675 75.7834 244.534C77.0956 244.97 78.4441 245.414 79.8176 245.87C81.2173 246.261 82.6388 246.659 84.0742 247.06C86.9393 247.888 89.8563 248.727 92.7299 249.558C95.6319 250.256 98.4871 250.946 101.204 251.597C103.93 252.262 106.514 252.889 108.855 253.461C111.183 254.025 113.269 254.466 115.042 254.693C116.812 254.909 118.258 254.954 119.257 254.922C120.257 254.87 120.807 254.839 120.807 254.839C120.807 254.839 120.263 254.94 119.276 255.125C118.282 255.286 116.82 255.425 114.992 255.427C113.169 255.419 110.989 255.226 108.591 254.926C106.202 254.616 103.57 254.275 100.792 253.913C97.9986 253.534 95.0431 253.163 92.0514 252.702C89.0784 252.107 86.0638 251.502 83.0994 250.91C81.6146 250.6 80.1441 250.292 78.6984 249.99C77.2657 249.6 75.8579 249.218 74.4887 248.846C71.7492 248.088 69.1591 247.343 66.8265 246.637C66.2408 246.457 65.6814 246.287 65.1418 246.12C64.6095 245.943 64.1202 245.74 63.6373 245.559C62.6857 245.181 61.8099 244.833 61.0042 244.512C59.4028 243.856 58.1025 243.282 57.0521 242.779C54.9472 241.772 53.8341 241.047 53.2854 240.533C52.1845 239.504 53.3394 239.3 53.3394 239.3Z" fill="#FFCADE"/>
<path d="M57.1658 235.799C57.1658 235.799 56.3796 234.933 57.8734 234.795C59.3699 234.647 63.1427 235.299 72.2454 238.092C81.3568 240.852 94.1572 245.061 105.051 247.171C106.41 247.441 107.733 247.702 109.012 247.956C110.3 248.19 111.539 248.416 112.72 248.632C115.069 249.061 117.169 249.368 118.945 249.53C120.716 249.658 122.16 249.661 123.151 249.594C124.144 249.514 124.691 249.471 124.691 249.471C124.691 249.471 124.153 249.586 123.174 249.794C122.19 249.988 120.742 250.172 118.928 250.262C117.115 250.318 114.941 250.263 112.543 250.104C111.347 250.024 110.091 249.938 108.783 249.848C107.469 249.73 106.106 249.611 104.703 249.488C93.4525 248.512 80.0749 245.361 70.8841 242.576C61.6862 239.755 58.3033 237.995 57.1593 237.027C56.0239 236.047 57.1658 235.799 57.1658 235.799Z" fill="#EC86AD"/>
<path d="M60.3647 233.318C60.3647 233.318 59.743 232.337 61.2296 232.456C61.963 232.495 63.2732 232.935 65.323 233.543C66.3227 233.901 67.6704 234.256 69.2238 234.787C70.824 235.245 72.6911 235.83 74.936 236.43C79.4146 237.654 84.9242 238.962 90.7103 240.077C96.488 241.205 102.521 242.205 107.996 243.021C109.364 243.222 110.697 243.417 111.981 243.604C112.617 243.691 113.276 243.799 113.852 243.865C114.473 243.934 115.079 244.002 115.671 244.068C118.033 244.31 120.152 244.616 121.923 244.729C125.469 245.027 127.642 245.21 127.642 245.21C127.642 245.21 125.454 245.303 121.884 245.458C120.091 245.561 117.966 245.508 115.583 245.539C114.989 245.539 114.379 245.54 113.756 245.542C113.086 245.539 112.479 245.508 111.818 245.491C110.513 245.442 109.162 245.391 107.773 245.337C102.214 245.098 96.0516 244.668 90.0983 243.954C84.1434 243.254 78.4021 242.197 73.7131 240.917C71.3675 240.292 69.4067 239.6 67.7593 238.988C66.1223 238.294 64.8053 237.761 63.7294 237.131C61.5385 235.974 60.648 235.085 60.1512 234.516C59.205 233.367 60.3647 233.318 60.3647 233.318Z" fill="#EC86AD"/>
<path d="M63.7461 230.639C63.7461 230.639 62.9015 229.798 64.4156 229.581C65.9371 229.325 69.8115 229.916 79.1997 231.899C88.6574 233.899 102.15 236.55 113.398 238.178C116.204 238.542 118.888 238.967 121.277 239.23C123.704 239.499 125.883 239.737 127.707 239.94C131.346 240.356 133.578 240.611 133.578 240.611C133.578 240.611 131.334 240.64 127.672 240.686C125.838 240.701 123.649 240.721 121.208 240.741C118.724 240.753 116.047 240.629 113.176 240.558C101.744 240.113 87.8717 238.616 78.2284 236.579C68.5114 234.523 65.0298 232.793 63.8083 231.89C62.5971 230.954 63.7461 230.639 63.7461 230.639Z" fill="#EC86AD"/>
<path d="M66.7899 228.308C66.7899 228.308 65.8929 227.484 67.4294 227.202C68.9625 226.906 72.9369 227.19 82.6552 229.277C92.3746 231.34 106.023 234.684 117.458 236.431C120.325 236.831 123.012 237.274 125.502 237.555C127.982 237.874 130.17 238.154 132.02 238.184C132.943 238.217 133.778 238.18 134.511 238.145C135.236 238.057 135.874 238.026 136.378 237.924C137.392 237.71 137.953 237.594 137.953 237.594C137.953 237.594 137.411 237.783 136.428 238.129C135.932 238.297 135.299 238.411 134.569 238.593C133.837 238.719 132.989 238.864 132.046 238.946C130.158 239.148 127.886 239.128 125.402 239.097C122.913 239.104 120.13 238.96 117.206 238.857C105.493 238.309 91.4086 236.123 81.641 234.049C71.8709 231.949 68.1822 230.483 66.9046 229.581C65.631 228.676 66.7899 228.308 66.7899 228.308Z" fill="#EC86AD"/>
<path d="M70.6168 225.141C70.6168 225.141 69.6845 224.363 71.2033 224.008C71.9623 223.828 73.3342 223.756 75.7438 223.941C76.9583 224.065 78.3903 224.123 80.1301 224.266C81.8722 224.408 83.9011 224.652 86.3609 224.807C87.5833 224.912 88.8681 225.021 90.2072 225.137C91.5468 225.222 92.9398 225.309 94.371 225.401C97.2305 225.629 100.262 225.712 103.345 225.874C109.512 226.086 115.916 226.234 121.713 226.236C124.614 226.277 127.328 226.207 129.835 226.196C131.08 226.186 132.261 226.176 133.365 226.169C134.459 226.119 135.478 226.074 136.407 226.032C140.135 225.878 142.418 225.783 142.418 225.783C142.418 225.783 140.161 226.165 136.477 226.79C135.551 226.945 134.536 227.113 133.443 227.297C132.349 227.434 131.176 227.58 129.941 227.734C127.485 228.028 124.727 228.408 121.829 228.668C116.039 229.277 109.595 229.739 103.335 229.986C100.2 230.049 97.1167 230.156 94.1802 230.059C92.7133 230.024 91.2874 230.005 89.9112 229.943C88.5368 229.844 87.2141 229.749 85.9581 229.66C83.4483 229.501 81.2964 229.168 79.4855 228.883C77.6736 228.594 76.1903 228.333 75.0445 227.989C72.7135 227.355 71.4442 226.828 70.7888 226.405C69.4763 225.562 70.6168 225.141 70.6168 225.141Z" fill="#EC86AD"/>
<path d="M73.6487 222.464C73.6487 222.464 72.7902 221.626 74.3129 221.392C74.6943 221.334 75.2218 221.313 75.9534 221.352C76.6911 221.415 77.595 221.45 78.7215 221.546C80.9645 221.77 84.3118 222.107 89.1015 222.427C93.9054 222.746 99.767 222.955 105.887 223.02C112.001 223.106 118.361 223.107 124.124 223.298C129.901 223.467 135.013 224.006 138.685 224.346C142.358 224.741 144.609 224.982 144.609 224.982C144.609 224.982 142.353 225.027 138.669 225.099C134.981 225.21 129.855 225.273 124.17 225.704C118.47 226.111 112.146 226.712 105.981 227.081C99.8175 227.466 93.7941 227.563 88.7874 227.228C83.7699 226.893 80.3188 226.242 77.9062 225.526C76.6982 225.181 75.7821 224.87 75.1431 224.541C74.4812 224.23 74.0271 223.957 73.7206 223.727C72.4919 222.792 73.6487 222.464 73.6487 222.464Z" fill="#EC86AD"/>
<path d="M76.8543 219.099C76.8543 219.099 75.9442 218.399 77.3665 218.005C78.0768 217.809 79.3672 217.685 81.6508 217.767C82.2163 217.778 82.86 217.841 83.5455 217.843C84.2271 217.841 84.9757 217.849 85.7963 217.869C86.6168 217.896 87.508 217.927 88.4799 217.962C88.9642 217.984 89.4693 218.008 89.9956 218.031C90.5308 218.032 91.0869 218.035 91.6666 218.038C93.9803 218.038 96.5285 218.182 99.2419 218.1C100.596 218.09 101.989 218.081 103.406 218.072C104.824 218.048 106.266 217.975 107.723 217.934C113.55 217.781 119.583 217.354 125.041 216.955C130.482 216.468 135.391 216.104 138.892 215.748C142.391 215.338 144.536 215.087 144.536 215.087C144.536 215.087 142.434 215.609 139.007 216.457C135.551 217.244 130.755 218.171 125.343 219.236C119.924 220.207 113.894 221.217 107.993 221.805C106.519 221.956 105.058 222.127 103.614 222.24C102.167 222.33 100.745 222.416 99.3614 222.5C96.5968 222.709 93.9534 222.639 91.5687 222.639C90.9716 222.632 90.3973 222.622 89.8444 222.615C89.2892 222.593 88.747 222.542 88.2307 222.505C87.2022 222.412 86.2548 222.33 85.3823 222.252C84.515 222.165 83.7267 222.076 83.0148 221.988C82.3029 221.892 81.7006 221.733 81.1405 221.614C78.9167 221.106 77.6975 220.659 77.0642 220.284C75.7935 219.541 76.8543 219.099 76.8543 219.099Z" fill="#EC86AD"/>
<path d="M80.169 216.039C80.169 216.039 78.3394 213.941 95.7948 213.719C104.491 213.52 116.83 213.752 126.989 213.391C129.522 213.331 131.927 213.271 134.106 213.218C136.292 213.069 138.26 213.035 139.869 212.878C141.491 212.752 142.763 212.443 143.645 212.228C144.507 211.942 144.983 211.786 144.983 211.786C144.983 211.786 144.53 212.004 143.706 212.401C142.857 212.729 141.597 213.21 139.972 213.535C138.347 213.898 136.413 214.164 134.27 214.559C132.091 214.854 129.688 215.178 127.156 215.52C117.018 216.952 104.614 217.793 95.8528 217.993C78.3822 218.218 80.169 216.039 80.169 216.039Z" fill="#FFCADE"/>
<path d="M83.0156 212.797C83.0156 212.797 82.0703 211.997 83.6203 211.646C84.0062 211.556 84.5507 211.496 85.3032 211.487C85.6887 211.486 86.1126 211.485 86.5859 211.488C87.0512 211.466 87.5715 211.458 88.1469 211.459C90.4228 211.503 93.8723 211.502 98.7553 211.202C103.657 210.885 109.615 210.16 115.776 209.04C121.938 207.929 128.304 206.519 134.067 205.216C136.934 204.546 139.725 203.995 142.129 203.374C144.579 202.733 146.814 202.259 148.618 201.7C152.247 200.61 154.472 199.942 154.472 199.942C154.472 199.942 152.337 200.89 148.853 202.439C147.105 203.225 144.959 203.955 142.593 204.873C140.175 205.802 137.545 206.629 134.737 207.603C129.133 209.505 122.872 211.533 116.664 213.128C110.465 214.733 104.286 215.816 99.079 216.149C93.8516 216.467 90.2141 216.159 87.634 215.612C86.9954 215.486 86.4284 215.363 85.9332 215.241C85.44 215.115 85.0587 214.954 84.7022 214.823C84.0009 214.55 83.5141 214.305 83.1785 214.087C81.8509 213.218 83.0156 212.797 83.0156 212.797Z" fill="#EC86AD"/>
<path d="M86.7434 209.24C86.7434 209.24 85.7125 208.685 87.0797 208.054C88.4385 207.377 92.2834 206.903 101.629 205.996C102.809 205.872 104.051 205.739 105.341 205.602C105.989 205.538 106.645 205.474 107.314 205.406C107.982 205.322 108.66 205.234 109.348 205.146C110.723 204.976 112.135 204.806 113.575 204.629C115.016 204.471 116.465 204.203 117.941 203.998C123.841 203.189 129.87 201.965 135.314 200.766C136.67 200.453 137.971 200.083 139.237 199.765C140.486 199.423 141.758 199.153 142.846 198.794C145.153 198.073 147.129 197.305 148.839 196.712C149.697 196.42 150.471 196.158 151.151 195.927C151.841 195.724 152.445 195.587 152.929 195.458C153.901 195.208 154.434 195.073 154.434 195.073C154.434 195.073 153.921 195.278 152.991 195.65C152.528 195.84 151.956 196.051 151.302 196.331C150.665 196.641 149.934 196.996 149.125 197.389C147.512 198.179 145.577 199.209 143.386 200.181C142.242 200.707 141.066 201.094 139.826 201.586C138.586 202.049 137.306 202.568 135.969 203.026C130.613 204.814 124.601 206.638 118.668 207.903C117.185 208.221 115.725 208.593 114.268 208.845C112.807 209.104 111.375 209.358 109.982 209.604C109.284 209.725 108.593 209.843 107.916 209.957C107.232 210.048 106.562 210.136 105.902 210.222C104.582 210.38 103.312 210.533 102.105 210.676C92.3178 211.619 88.5566 210.899 87.1504 210.404C85.7472 209.86 86.7434 209.24 86.7434 209.24Z" fill="#EC86AD"/>
<path d="M89.7042 205.269C89.7042 205.269 88.6282 204.756 89.989 204.046C91.326 203.268 95.2718 202.695 104.585 201.045C109.322 200.155 115.061 199.043 120.99 197.675C122.473 197.341 123.971 197.003 125.469 196.665C126.964 196.309 128.459 195.951 129.945 195.597C132.916 194.888 135.839 194.19 138.62 193.524C141.4 192.872 144.035 192.254 146.426 191.694C147.619 191.42 148.748 191.161 149.805 190.918C150.842 190.646 151.81 190.392 152.69 190.159C153.552 189.87 154.331 189.606 155.015 189.375C155.701 189.144 156.243 188.834 156.711 188.639C157.638 188.213 158.15 187.98 158.15 187.98C158.15 187.98 157.673 188.278 156.806 188.821C156.365 189.076 155.855 189.46 155.196 189.78C154.535 190.097 153.78 190.461 152.945 190.864C152.081 191.205 151.137 191.582 150.119 191.983C149.096 192.349 148 192.738 146.845 193.149C144.534 193.967 141.985 194.87 139.296 195.822C136.598 196.77 133.763 197.779 130.848 198.746C129.389 199.231 127.922 199.722 126.454 200.21C124.971 200.672 123.49 201.129 122.022 201.584C116.143 203.405 110.327 204.843 105.445 205.758C95.4731 207.508 91.6318 206.843 90.1746 206.435C88.7216 205.947 89.7042 205.269 89.7042 205.269Z" fill="#EC86AD"/>
<path d="M93.4473 201.456C93.4473 201.456 92.344 200.971 93.692 200.212C95.0187 199.393 98.9557 198.645 108.38 196.837C113.147 195.864 118.926 194.691 124.866 193.189C130.826 191.773 136.935 190.03 142.467 188.458C145.227 187.639 147.841 186.863 150.212 186.156C152.585 185.474 154.747 184.929 156.533 184.448C157.422 184.194 158.222 183.964 158.924 183.762C159.622 183.547 160.204 183.314 160.689 183.146C161.661 182.799 162.193 182.607 162.193 182.607C162.193 182.607 161.689 182.867 160.773 183.334C160.311 183.563 159.753 183.874 159.083 184.179C158.406 184.467 157.63 184.796 156.776 185.16C155.053 185.859 153 186.645 150.715 187.6C148.433 188.56 145.917 189.618 143.262 190.737C137.898 192.889 131.919 195.228 125.985 197.108C120.08 199.071 114.224 200.576 109.321 201.577C99.3395 203.478 95.4477 202.986 93.9594 202.61C92.4749 202.172 93.4473 201.456 93.4473 201.456Z" fill="#EC86AD"/>
<path d="M95.5785 197.835C95.5785 197.835 94.5898 197.401 95.8005 196.721C96.9916 195.988 100.515 195.302 109.006 193.756C117.559 192.176 129.619 189.237 139.027 185.095C140.203 184.588 141.352 184.095 142.458 183.62C142.735 183.502 143.008 183.384 143.282 183.269C143.537 183.137 143.79 183.008 144.038 182.879C144.555 182.614 145.06 182.353 145.554 182.099C147.524 181.091 149.295 180.186 150.775 179.429C153.738 177.927 155.557 177.006 155.557 177.006C155.557 177.006 153.868 178.15 151.116 180.014C149.732 180.942 148.081 182.051 146.241 183.289C145.78 183.596 145.307 183.914 144.823 184.236C144.573 184.402 144.319 184.571 144.06 184.74C143.8 184.888 143.538 185.036 143.272 185.186C142.207 185.787 141.1 186.412 139.966 187.051C130.887 192.253 118.669 196.389 109.816 198.016C100.871 199.639 97.3715 199.214 96.0387 198.875C94.7107 198.478 95.5785 197.835 95.5785 197.835Z" fill="#EC86AD"/>
<path d="M99.005 194.013C99.005 194.013 97.9715 193.662 99.1285 192.872C100.265 192.021 103.773 191.095 112.016 188.54C114.096 187.827 116.435 187.184 118.845 186.273C120.06 185.847 121.308 185.41 122.577 184.965C123.844 184.506 125.117 183.993 126.413 183.507C131.595 181.56 136.876 179.289 141.648 177.22C144.027 176.153 146.252 175.139 148.328 174.241C149.36 173.803 150.326 173.376 151.197 172.94C152.078 172.512 152.912 172.135 153.624 171.703C154.348 171.292 155.002 170.919 155.578 170.594C156.121 170.218 156.59 169.899 156.971 169.637C157.741 169.111 158.165 168.819 158.165 168.819C158.165 168.819 157.783 169.163 157.09 169.783C156.74 170.098 156.312 170.48 155.815 170.926C155.276 171.324 154.666 171.779 153.989 172.284C153.321 172.81 152.531 173.293 151.684 173.831C150.841 174.384 149.925 174.926 148.957 175.478C147.02 176.61 144.887 177.857 142.638 179.172C138.08 181.747 132.982 184.538 127.862 186.904C126.582 187.496 125.323 188.105 124.058 188.654C122.783 189.179 121.531 189.695 120.312 190.198C117.887 191.24 115.482 191.98 113.338 192.715C112.798 192.89 112.28 193.058 111.778 193.221C111.263 193.355 110.765 193.485 110.287 193.609C109.333 193.842 108.456 194.054 107.649 194.251C106.843 194.428 106.111 194.587 105.435 194.736C104.77 194.853 104.176 194.905 103.635 194.967C101.478 195.191 100.246 195.16 99.56 195.019C98.1845 194.737 99.005 194.013 99.005 194.013Z" fill="#EC86AD"/>
<path d="M101.468 190.046C101.468 190.046 100.455 189.791 101.497 188.948C102.507 188.048 105.784 186.864 113.514 183.877C115.446 183.046 117.645 182.294 119.862 181.236C120.987 180.738 122.139 180.227 123.315 179.708C124.48 179.167 125.636 178.559 126.822 177.982C129.22 176.869 131.536 175.511 133.865 174.252C135.044 173.643 136.123 172.896 137.239 172.244C138.334 171.56 139.444 170.93 140.471 170.241C144.575 167.493 148.23 164.895 150.814 162.994C153.382 161.071 154.956 159.892 154.956 159.892C154.956 159.892 153.541 161.265 151.232 163.499C148.887 165.711 145.593 168.695 141.703 171.934C140.736 172.745 139.681 173.494 138.637 174.299C137.571 175.075 136.537 175.945 135.397 176.673C133.147 178.173 130.885 179.765 128.516 181.087C127.342 181.77 126.193 182.473 125.026 183.104C123.845 183.706 122.682 184.297 121.555 184.871C119.313 186.069 117.056 186.918 115.056 187.775C106.807 190.95 103.395 191.059 102.076 190.961C100.744 190.798 101.468 190.046 101.468 190.046Z" fill="#EC86AD"/>
<path d="M104.279 186.105C104.279 186.105 103.239 185.808 104.347 184.969C104.625 184.76 105.035 184.516 105.631 184.233C106.249 183.969 106.974 183.605 107.889 183.189C109.73 182.399 112.495 181.173 116.335 179.233C120.191 177.284 124.783 174.69 129.481 171.823C134.181 168.961 139.012 165.883 143.463 163.205C145.672 161.859 147.878 160.666 149.735 159.546C150.212 159.263 150.677 158.985 151.127 158.717C151.569 158.443 151.972 158.152 152.377 157.885C153.176 157.343 153.931 156.846 154.605 156.353C157.306 154.416 158.989 153.263 158.989 153.263C158.989 153.263 157.484 154.64 155.029 156.883C154.423 157.448 153.719 158.048 152.965 158.702C152.586 159.022 152.201 159.374 151.789 159.705C151.372 160.023 150.942 160.35 150.501 160.688C148.702 162.07 146.736 163.431 144.676 165.003C140.559 168.112 136.039 171.637 131.495 174.879C126.958 178.128 122.357 181.049 118.298 183.102C114.228 185.153 111.219 186.193 108.973 186.684C107.862 186.948 106.999 187.101 106.352 187.109C105.694 187.143 105.217 187.124 104.872 187.072C103.502 186.859 104.279 186.105 104.279 186.105Z" fill="#EC86AD"/>
<path d="M107.823 181.776C107.823 181.776 106.786 181.712 107.653 180.7C108.483 179.647 111.441 177.874 118.531 173.622C125.72 169.323 135.7 162.695 143.864 157.05C145.886 155.64 147.886 154.316 149.558 153.109C151.273 151.837 152.716 150.629 153.994 149.658C154.64 149.18 155.224 148.751 155.736 148.374C156.265 148.02 156.751 147.76 157.13 147.528C157.893 147.081 158.314 146.83 158.314 146.83C158.314 146.83 157.928 147.132 157.23 147.676C156.886 147.955 156.446 148.265 155.971 148.673C155.515 149.106 154.995 149.603 154.421 150.147C153.284 151.253 151.959 152.66 150.411 154.113C148.79 155.588 147.02 157.065 145.132 158.698C141.339 161.909 137.13 165.465 132.87 168.703C128.652 171.988 124.363 174.926 120.692 177.179C113.188 181.664 109.893 182.423 108.582 182.56C107.25 182.645 107.823 181.776 107.823 181.776Z" fill="#EC86AD"/>
<path d="M110.922 177.4C110.922 177.4 109.974 177.225 110.886 176.387C111.114 176.177 111.459 175.926 111.964 175.625C112.211 175.471 112.524 175.321 112.833 175.127C113.136 174.931 113.477 174.72 113.864 174.497C115.4 173.639 117.707 172.263 120.839 170.093C123.985 167.91 127.654 164.996 131.328 161.769C135.003 158.542 138.711 155.042 142.108 151.91C143.8 150.34 145.453 148.875 146.916 147.564C148.381 146.241 149.734 145.063 150.904 144.14C151.493 143.682 152.026 143.272 152.495 142.91C152.985 142.582 153.408 142.299 153.751 142.068C154.439 141.612 154.818 141.363 154.818 141.363C154.818 141.363 154.474 141.663 153.851 142.203C153.542 142.472 153.163 142.803 152.722 143.186C152.307 143.598 151.834 144.07 151.309 144.587C150.272 145.64 149.094 146.939 147.784 148.429C146.47 149.908 145.021 151.542 143.493 153.262C140.45 156.724 137.073 160.58 133.571 164.142C130.071 167.703 126.405 170.94 123.054 173.266C119.687 175.592 117.119 176.846 115.148 177.496C114.665 177.665 114.234 177.805 113.848 177.919C113.468 178.03 113.143 178.067 112.853 178.118C112.271 178.204 111.846 178.228 111.538 178.21C110.3 178.135 110.922 177.4 110.922 177.4Z" fill="#EC86AD"/>
<path d="M112.564 173.502C112.564 173.502 111.583 173.764 112.068 172.559C112.311 171.953 112.922 170.983 114.203 169.429C114.845 168.654 115.653 167.729 116.669 166.634C117.687 165.538 118.88 164.253 120.46 162.856C123.556 160.032 127.39 156.664 131.366 153.374C133.347 151.706 135.42 150.058 137.376 148.371C139.334 146.688 141.262 145.033 143.097 143.46C144.949 141.911 146.647 140.362 148.2 138.978C149.76 137.605 151.143 136.361 152.271 135.297C153.434 134.258 154.278 133.336 154.897 132.727C155.507 132.113 155.843 131.776 155.843 131.776C155.843 131.776 155.553 132.155 155.029 132.844C154.491 133.521 153.761 134.557 152.731 135.732C151.731 136.937 150.501 138.343 149.11 139.886C147.726 141.438 146.212 143.162 144.515 144.91C142.829 146.676 141.056 148.531 139.256 150.412C137.441 152.293 135.524 154.099 133.664 155.919C129.891 159.536 126.354 162.974 123.315 165.745C121.777 167.097 120.528 168.353 119.433 169.369C118.336 170.386 117.415 171.196 116.638 171.84C115.085 173.125 114.115 173.738 113.512 173.984C112.304 174.479 112.564 173.502 112.564 173.502Z" fill="#EC86AD"/>
<path d="M117.556 165.061C117.556 165.061 116.618 165.05 117.354 164.097C117.696 163.612 118.581 162.926 119.926 161.807C121.305 160.717 123.372 159.116 126.174 156.654C128.995 154.199 132.252 151.004 135.504 147.535C138.766 144.075 142.008 140.332 144.971 136.965C150.826 130.226 155.478 124.873 155.478 124.873C155.478 124.873 154.493 126.343 152.887 128.732C151.257 131.12 149.058 134.453 146.449 138.129C143.853 141.79 140.962 145.85 137.898 149.621C134.849 153.395 131.638 156.884 128.659 159.477C125.689 162.084 123.363 163.588 121.619 164.493C119.875 165.442 118.881 165.642 118.277 165.737C117.081 165.871 117.556 165.061 117.556 165.061Z" fill="#FFCADE"/>
<path d="M119.363 160.914C119.363 160.914 118.474 161.121 118.95 160.05C119.388 158.949 121.427 156.71 126.354 151.34C128.836 148.598 131.832 145.267 134.893 141.734C137.97 138.226 141.168 134.575 144.165 131.37C145.67 129.787 147.077 128.233 148.467 126.957C149.851 125.661 151.09 124.561 152.051 123.55C153.008 122.543 153.709 121.658 154.148 121.02C154.577 120.37 154.813 120.009 154.813 120.009C154.813 120.009 154.626 120.399 154.283 121.101C153.923 121.797 153.333 122.778 152.489 123.921C151.642 125.059 150.511 126.335 149.314 127.748C148.094 129.157 146.9 130.817 145.567 132.548C142.949 136.071 140.066 139.951 137.291 143.688C134.489 147.446 131.609 150.996 129.065 153.804C123.861 159.463 121.272 160.944 120.2 161.387C119.099 161.79 119.363 160.914 119.363 160.914Z" fill="#EC86AD"/>
<path d="M121.341 155.398C121.341 155.398 120.506 155.657 120.887 154.604C121.263 153.547 122.876 151.191 127.701 145.948C132.513 140.705 139.485 133.472 144.538 126.9C145.779 125.241 146.988 123.71 148.043 122.246C148.306 121.889 148.564 121.536 148.813 121.196C149.045 120.848 149.266 120.511 149.483 120.185C149.918 119.529 150.324 118.92 150.693 118.361C151.067 117.805 151.406 117.3 151.701 116.859C152.02 116.431 152.292 116.063 152.516 115.762C152.962 115.168 153.207 114.836 153.207 114.836C153.207 114.836 153.007 115.197 152.643 115.846C152.46 116.168 152.237 116.563 151.977 117.024C151.74 117.498 151.468 118.037 151.168 118.636C150.865 119.239 150.532 119.897 150.176 120.608C149.993 120.966 149.808 121.335 149.614 121.716C149.405 122.085 149.19 122.463 148.969 122.852C148.105 124.401 147.047 126.097 145.976 127.899C141.573 135.069 135.12 143.032 130.283 148.308C125.434 153.572 123.193 155.323 122.173 155.787C121.148 156.249 121.341 155.398 121.341 155.398Z" fill="#FFCADE"/>
<path d="M124.114 149.255C124.114 149.255 123.306 149.526 123.65 148.488C123.977 147.444 125.531 145.127 130.058 139.853C132.242 137.171 135.079 134.102 137.818 130.738C139.211 129.083 140.631 127.395 142.035 125.728C143.391 124.035 144.727 122.369 145.996 120.783C147.278 119.211 148.47 117.704 149.538 116.32C150.589 114.938 151.537 113.702 152.245 112.615C153.015 111.56 153.489 110.625 153.857 109.999C154.219 109.367 154.417 109.018 154.417 109.018C154.417 109.018 154.266 109.391 153.991 110.06C153.705 110.729 153.344 111.736 152.703 112.885C152.123 114.073 151.323 115.422 150.429 116.935C149.529 118.426 148.505 120.066 147.385 121.774C146.269 123.491 145.095 125.296 143.903 127.124C142.674 128.938 141.357 130.73 140.086 132.514C137.576 136.104 134.855 139.375 132.634 142.091C128.079 147.397 125.907 149.125 124.932 149.617C123.946 150.088 124.114 149.255 124.114 149.255Z" fill="#FFCADE"/>
<path d="M126.271 143.261C126.271 143.261 125.436 143.547 125.788 142.471C126.101 141.37 127.826 139.01 132.066 133.379C136.352 127.686 142.063 119.285 146.269 111.985C147.329 110.167 148.336 108.441 149.248 106.878C150.151 105.31 151.013 103.929 151.579 102.71C152.805 100.298 153.555 98.8155 153.555 98.8155C153.555 98.8155 152.994 100.387 152.08 102.948C151.654 104.257 150.966 105.722 150.249 107.384C149.529 109.043 148.713 110.869 147.837 112.803C146.987 114.745 145.972 116.735 144.985 118.788C143.93 120.805 142.895 122.881 141.746 124.852C141.173 125.84 140.608 126.823 140.05 127.781C139.476 128.739 138.876 129.655 138.305 130.556C137.182 132.371 135.981 134.003 134.906 135.489C130.442 141.409 128.11 143.1 127.123 143.632C126.104 144.127 126.271 143.261 126.271 143.261Z" fill="#EC86AD"/>
<path d="M128.437 137.573C128.437 137.573 127.541 137.901 127.898 136.728C127.988 136.434 128.155 136.048 128.434 135.541C128.747 135.002 129.109 134.383 129.55 133.624C130.504 132.105 131.92 129.829 133.847 126.544C135.773 123.239 137.978 119.14 140.164 114.8C142.357 110.465 144.577 105.923 146.73 101.876C148.886 97.8244 150.966 94.3376 152.401 91.7756C153.844 89.2228 154.729 87.6599 154.729 87.6599C154.729 87.6599 154.047 89.3218 152.939 92.0339C151.83 94.7459 150.161 98.4823 148.462 102.684C146.761 106.895 144.984 111.618 143.092 116.151C141.212 120.684 139.163 125.017 137.152 128.465C135.129 131.914 133.459 134.141 132.098 135.601C131.436 136.344 130.893 136.87 130.439 137.217C129.986 137.581 129.635 137.817 129.363 137.954C128.275 138.512 128.437 137.573 128.437 137.573Z" fill="#FFCADE"/>
<path d="M129.924 131.717C129.924 131.717 129.098 132.191 129.248 130.978C129.377 129.755 130.582 126.876 134.387 120.089C138.07 113.311 143.514 103.709 147.956 95.7392C148.514 94.7494 149.06 93.7843 149.586 92.8527C149.717 92.6228 149.847 92.3924 149.978 92.1637C150.067 92.0134 150.197 91.7192 150.301 91.5056C150.525 91.0459 150.745 90.593 150.956 90.1539C151.799 88.395 152.593 86.8323 153.182 85.4953C154.4 82.8418 155.15 81.2116 155.15 81.2116C155.15 81.2116 154.61 82.9278 153.732 85.7255C153.306 87.1356 152.703 88.7782 152.068 90.6238C151.907 91.0874 151.742 91.5582 151.573 92.0426C151.478 92.3027 151.427 92.4942 151.291 92.8156C151.187 93.0551 151.083 93.2988 150.978 93.5449C150.552 94.527 150.115 95.546 149.664 96.5905C146.084 104.966 141.474 115.052 137.702 121.988C133.869 128.816 131.859 131.183 130.898 131.935C129.924 132.673 129.924 131.717 129.924 131.717Z" fill="#EC86AD"/>
<path d="M132.493 121.682C132.493 121.682 131.787 122.103 131.899 121.054C132 120.001 132.971 117.486 136.201 111.591C139.453 105.715 144.172 97.4822 147.681 90.4747L148.019 89.8279C148.087 89.7089 148.195 89.4087 148.282 89.2108C148.462 88.7717 148.641 88.3352 148.817 87.9101C149.169 87.0575 149.506 86.2369 149.828 85.4572C150.508 83.9053 150.988 82.489 151.404 81.2996C152.251 78.9226 152.768 77.463 152.768 77.463C152.768 77.463 152.437 78.9809 151.896 81.4528C151.626 82.6938 151.311 84.1896 150.815 85.797C150.583 86.6116 150.338 87.4637 150.086 88.3509C149.957 88.7935 149.828 89.2444 149.695 89.7038C149.617 89.9555 149.59 90.1162 149.468 90.4452L149.197 91.1304C146.416 98.5352 142.368 107.269 139.093 113.184C135.846 119.106 134.169 121.2 133.343 121.858C132.508 122.502 132.493 121.682 132.493 121.682Z" fill="#FFCADE"/>
<path d="M134.592 113.618C134.592 113.618 133.939 114.21 133.834 113.082C133.769 111.97 133.995 109.085 136.786 102.222C139.523 95.4354 144.498 86.4901 147.85 78.8325C148.272 77.8756 148.681 76.9409 149.077 76.0387C149.444 75.127 149.8 74.2487 150.137 73.4127C150.816 71.738 151.437 70.2377 151.899 68.9718C152.866 66.4443 153.459 64.8901 153.459 64.8901C153.459 64.8901 153.066 66.5081 152.424 69.1395C152.115 70.4658 151.68 72.0257 151.199 73.7672C150.954 74.6402 150.698 75.5602 150.432 76.5146C150.133 77.464 149.821 78.4481 149.503 79.4594C146.918 87.5769 142.717 96.9555 140.056 103.565C137.395 110.083 136.292 112.769 135.519 113.615C134.781 114.477 134.592 113.618 134.592 113.618Z" fill="#FFCADE"/>
</svg>
