<svg width="230" height="211" viewBox="0 0 230 211" fill="none" xmlns="http://www.w3.org/2000/svg">
<path d="M188.079 34.2864C186.1 38.3963 153.384 67.7214 148.708 72.0555C144.032 76.3909 149.556 76.0785 152.962 74.1905C156.368 72.3011 182.36 47.3808 185.956 43.6991C189.554 40.0174 188.079 34.2864 188.079 34.2864Z" fill="#EC86AD"/>
<path d="M155.255 73.0315C155.255 73.0315 154.338 71.9042 156.133 72.6599C157.028 73.0554 158.615 73.8162 161.281 75.7144C162.645 76.6263 164.168 77.8405 166.056 79.3205C167.909 80.8257 170.06 82.6344 172.549 84.792C173.8 85.8526 175.097 87.0076 176.47 88.15C177.153 88.7269 177.849 89.3163 178.557 89.9134C179.275 90.4915 180.005 91.0797 180.744 91.6742C183.732 94.1027 186.88 96.6608 190.085 99.2631C191.678 100.569 193.283 101.888 194.891 103.206C196.49 104.538 198.122 105.817 199.654 107.212C202.746 109.953 205.786 112.65 208.675 115.212C211.54 117.776 214.257 120.206 216.716 122.406C219.158 124.623 221.376 126.57 223.192 128.258C224.103 129.096 224.923 129.853 225.645 130.518C226.345 131.203 226.947 131.791 227.439 132.275C228.418 133.237 228.957 133.767 228.957 133.767C228.957 133.767 228.385 133.274 227.346 132.374C226.825 131.928 226.189 131.379 225.447 130.742C224.686 130.124 223.821 129.422 222.861 128.641C218.998 125.546 213.635 121.254 207.633 116.447C204.639 114.044 201.484 111.514 198.278 108.943C196.701 107.63 195.003 106.419 193.356 105.157C191.7 103.903 190.041 102.649 188.396 101.404C185.12 98.9054 181.903 96.448 178.848 94.1178C178.077 93.5208 177.317 92.9351 176.568 92.3582C175.84 91.7612 175.122 91.1742 174.418 90.5998C173.004 89.4536 171.703 88.31 170.439 87.2381C160.519 78.5169 156.609 75.431 155.211 73.9863C153.88 72.568 155.255 73.0315 155.255 73.0315Z" fill="#FFCADE"/>
<path d="M158.698 73.9032C158.698 73.9032 155.135 70.4622 175.015 80.9694C184.954 86.2255 198.873 93.9718 210.308 100.406C213.163 102.022 215.866 103.549 218.315 104.936C219.544 105.611 220.678 106.331 221.737 107.001C222.799 107.659 223.782 108.275 224.634 108.908C225.497 109.516 226.275 110.068 226.959 110.55C227.611 111.074 228.157 111.545 228.609 111.919C229.507 112.67 230.001 113.084 230.001 113.084C230.001 113.084 229.481 112.703 228.535 112.011C228.064 111.669 227.485 111.247 226.81 110.758C226.104 110.32 225.295 109.821 224.401 109.267C223.519 108.695 222.506 108.143 221.417 107.554C220.334 106.955 219.18 106.313 217.907 105.705C215.387 104.459 212.606 103.081 209.67 101.627C197.919 95.8032 183.679 88.6653 173.741 83.4117C153.859 72.9007 158.698 73.9032 158.698 73.9032Z" fill="#EC86AD"/>
<path d="M154.26 72.3287C154.26 72.3287 154.081 71.1737 155.394 71.3362C156.716 71.4685 161.921 73.1777 170.459 75.7056C179.024 78.2562 191.305 81.6155 201.209 85.0994C202.442 85.5453 203.641 85.9824 204.799 86.4005C205.381 86.6134 205.952 86.8212 206.509 87.0253C207.051 87.2596 207.579 87.485 208.096 87.708C209.122 88.1551 210.099 88.5808 211.01 88.9801C211.92 89.3769 212.763 89.756 213.52 90.1301C214.278 90.4979 214.967 90.8166 215.56 91.1214C216.147 91.44 216.65 91.7146 217.062 91.9388C217.88 92.3847 218.333 92.6316 218.333 92.6316C218.333 92.6316 217.867 92.4162 217.019 92.0232C216.596 91.8255 216.077 91.5836 215.473 91.3053C214.864 91.0395 214.156 90.7637 213.381 90.4437C212.608 90.1188 211.746 89.7925 210.814 89.4512C209.884 89.1086 208.887 88.7408 207.835 88.3529C207.309 88.1614 206.769 87.9636 206.216 87.7634C205.659 87.5933 205.088 87.4221 204.51 87.2457C203.338 86.8918 202.122 86.524 200.873 86.1448C190.858 83.2 178.469 80.3824 169.838 77.8116C161.171 75.2446 157.978 73.6941 156.833 73.0429C155.7 72.3615 154.26 72.3287 154.26 72.3287Z" fill="#FFCADE"/>
<path d="M155.25 73.0821C155.25 73.0821 154.391 71.8212 156.204 72.7697C157.103 73.2722 158.705 74.1728 161.311 76.4665C161.974 77.0219 162.699 77.6517 163.435 78.3898C164.183 79.1229 165.019 79.9227 165.901 80.8296C166.759 81.7566 167.688 82.768 168.705 83.8702C169.681 84.9975 170.738 86.2218 171.86 87.5594C174.082 90.241 176.461 93.2564 178.974 96.4003C181.484 99.5731 184.129 102.916 186.82 106.315C189.485 109.728 192.199 113.199 194.867 116.614C197.501 120.057 200.089 123.443 202.55 126.66C204.994 129.886 207.339 132.905 209.396 135.709C211.407 138.532 213.228 141.045 214.715 143.184C217.61 147.507 219.38 150.151 219.38 150.151C219.38 150.151 217.45 147.628 214.291 143.504C212.661 141.48 210.715 139.062 208.542 136.361C206.342 133.697 203.825 130.803 201.22 127.715C195.985 121.546 190.194 114.721 184.595 108.12C181.805 104.807 179.063 101.551 176.464 98.4609C173.854 95.3435 171.452 92.386 169.25 89.7296C168.143 88.4134 167.12 87.1992 166.175 86.0769C165.213 84.9761 164.33 83.9659 163.52 83.0376C162.69 82.1332 161.936 81.3107 161.247 80.5588C160.572 79.7904 159.937 79.1493 159.366 78.5687C157.156 76.1982 155.732 74.8908 155.127 74.0796C153.851 72.4737 155.25 73.0821 155.25 73.0821Z" fill="#EC86AD"/>
<path d="M153.778 72.2597C153.778 72.2597 152.966 70.8125 154.84 72.0116C155.31 72.3113 155.946 72.7761 156.805 73.4701C157.233 73.8215 157.727 74.2082 158.262 74.702C158.791 75.2133 159.381 75.8016 160.037 76.4679C160.686 77.1392 161.434 77.8748 162.196 78.7326C162.933 79.6067 163.741 80.5652 164.629 81.6195C165.538 82.6636 166.399 83.8879 167.378 85.1966C167.863 85.8541 168.374 86.5355 168.885 87.256C169.378 87.9903 169.888 88.7549 170.418 89.5459C174.664 95.8966 179.111 103.949 183.304 112.418C187.517 120.881 191.589 129.722 195.557 137.548C199.504 145.37 203.511 152.14 206.236 157.097C208.995 162.035 210.68 165.054 210.68 165.054C210.68 165.054 208.807 162.147 205.741 157.392C202.719 152.613 198.321 146.098 193.931 138.426C189.533 130.771 185.038 122.114 180.54 113.858C176.064 105.591 171.485 97.7846 167.345 91.5914C166.83 90.8167 166.335 90.0699 165.858 89.3532C165.359 88.6516 164.879 87.9802 164.417 87.3328C163.49 86.0468 162.68 84.8301 161.842 83.7947C161.033 82.7329 160.299 81.7681 159.629 80.8851C158.95 80.0185 158.306 79.283 157.752 78.5852C157.193 77.8962 156.701 77.2752 156.267 76.7173C155.804 76.1719 155.396 75.6932 155.034 75.2688C154.328 74.4198 153.851 73.7913 153.544 73.3265C152.32 71.4712 153.778 72.2597 153.778 72.2597Z" fill="#FFCADE"/>
<path d="M154.328 73.6691C154.328 73.6691 153.766 72.1387 155.396 73.5923C155.803 73.9563 156.349 74.5067 157.072 75.3128C157.433 75.7209 157.847 76.1794 158.297 76.7336C158.734 77.3105 159.22 77.9566 159.767 78.6809C160.304 79.4152 160.917 80.2276 161.548 81.1534C162.156 82.0918 162.826 83.1196 163.558 84.2481C164.304 85.3742 165.025 86.6501 165.833 88.0281C166.231 88.7221 166.646 89.4425 167.078 90.1932C167.486 90.9553 167.91 91.7475 168.35 92.5738C171.866 99.1676 175.58 107.386 179.034 116C182.504 124.611 185.805 133.594 188.883 141.655C190.442 145.682 191.918 149.495 193.256 152.948C194.596 156.398 195.728 159.523 196.79 162.084C198.87 167.229 200.142 170.377 200.142 170.377C200.142 170.377 198.672 167.312 196.269 162.304C195.048 159.801 193.736 156.758 192.198 153.388C190.695 150.003 188.946 146.315 187.209 142.347C183.703 134.438 179.983 125.626 176.219 117.197C172.472 108.76 168.601 100.75 165.15 94.2742C164.722 93.4643 164.309 92.6834 163.912 91.9339C163.497 91.1933 163.098 90.4842 162.718 89.8015C161.951 88.4387 161.278 87.1665 160.592 86.0455C159.93 84.9081 159.327 83.8702 158.778 82.9268C158.217 82.0036 157.708 81.1698 157.249 80.4165C156.804 79.6596 156.409 78.9844 156.052 78.3798C155.688 77.7803 155.366 77.2513 155.081 76.784C154.528 75.8506 154.167 75.1667 153.941 74.6692C153.036 72.6753 154.328 73.6691 154.328 73.6691Z" fill="#EC86AD"/>
<path d="M153.377 73.242C153.377 73.242 153.278 71.5302 154.478 73.4952C155.08 74.4764 156.006 76.3783 157.433 79.8736C158.863 83.3663 160.799 88.4486 163.317 95.8586C164.579 99.5592 165.986 103.646 167.308 107.996C168.641 112.35 170.145 116.888 171.344 121.659C173.952 131.126 176.243 140.924 178.512 149.73C180.686 158.556 182.909 166.378 184.437 172.023C185.97 177.666 186.907 181.119 186.907 181.119C186.907 181.119 185.753 177.732 183.865 172.192C181.995 166.646 179.317 158.974 176.674 150.249C173.941 141.558 171.179 131.848 168.265 122.612C166.918 117.968 165.263 113.447 163.833 109.132C162.408 104.804 160.954 100.767 159.697 97.0842C157.199 89.7208 155.483 84.5566 154.391 80.943C153.303 77.3305 152.828 75.2712 152.677 74.13C152.377 71.8464 153.377 73.242 153.377 73.242Z" fill="#FFCADE"/>
<path d="M152.594 73.257C152.594 73.257 152.852 71.5339 153.636 73.7356C154.487 75.9184 155.473 82.1469 158.372 97.5627C161.281 113.055 166.147 134.973 169.198 153.243C169.902 157.823 170.554 162.148 171.101 166.083C171.552 170.016 171.959 173.542 172.299 176.493C172.965 182.394 173.374 186.004 173.374 186.004C173.374 186.004 172.738 182.428 171.7 176.584C171.186 173.66 170.572 170.164 169.887 166.268C169.123 162.398 168.233 158.119 167.294 153.611C163.309 135.611 157.504 113.934 154.564 98.2932C151.615 82.5752 151.609 76.319 151.714 73.9926C151.891 71.6624 152.594 73.257 152.594 73.257Z" fill="#EC86AD"/>
<path d="M152.061 72.7457C152.061 72.7457 153.673 65.9441 155.231 97.6661C155.929 113.504 156.92 135.959 157.735 154.477C157.923 159.109 158.099 163.489 158.26 167.462C158.337 169.446 158.409 171.325 158.478 173.082C158.539 174.84 158.607 176.47 158.71 177.954C159.068 183.894 159.286 187.528 159.286 187.528C159.286 187.528 158.838 183.912 158.104 177.998C157.91 176.52 157.743 174.893 157.579 173.144C157.408 171.394 157.226 169.521 157.033 167.546C156.653 163.594 156.236 159.231 155.798 154.623C154.927 145.396 153.989 135.173 153.135 125.271C152.926 122.794 152.718 120.339 152.515 117.925C152.364 115.512 152.216 113.137 152.071 110.826C151.789 106.203 151.544 101.825 151.35 97.8613C149.79 66.1368 152.061 72.7457 152.061 72.7457Z" fill="#FFCADE"/>
<path d="M150.948 72.747C150.948 72.747 151.696 71.0378 151.892 73.5343C152.02 74.7686 151.845 77.1202 151.81 81.0992C151.713 83.0792 151.774 85.5795 151.727 88.5822C151.744 90.095 151.761 91.7412 151.781 93.5361C151.817 95.3385 151.855 97.2871 151.895 99.3968C151.98 103.631 152.111 108.312 152.038 113.311C151.981 118.315 151.812 123.482 151.672 128.794C151.371 139.389 151.002 150.337 150.642 160.223C150.551 162.695 150.463 165.1 150.376 167.418C150.334 168.577 150.289 169.713 150.248 170.826C150.177 171.939 150.112 173.028 150.044 174.09C149.773 178.321 149.532 182.113 149.33 185.289C148.912 191.638 148.655 195.52 148.655 195.52C148.655 195.52 148.665 191.63 148.682 185.272C148.697 182.091 148.713 178.292 148.731 174.051C148.739 172.995 148.745 171.911 148.752 170.801C148.731 169.688 148.711 168.55 148.69 167.39C148.651 165.073 148.609 162.663 148.569 160.191C148.409 150.294 148.26 139.339 148.172 128.737C148.137 123.444 148.1 118.241 148.068 113.305C148.027 108.409 147.833 103.728 147.749 99.4862C147.723 97.3563 147.7 95.3876 147.68 93.5675C147.706 91.7412 147.733 90.0622 147.758 88.523C147.92 85.4308 148.02 82.9193 148.322 80.8183C148.769 76.6089 149.449 74.4588 149.837 73.261C150.666 70.9006 150.948 72.747 150.948 72.747Z" fill="#EC86AD"/>
<path d="M149.19 75.0331C149.19 75.0331 149.963 73.3112 150.139 75.8367C150.371 78.3633 149.684 85.1511 147.935 102.107C146.179 119.124 144.109 143.367 141.566 163.269C140.921 168.242 140.207 172.937 139.608 177.191C139.041 181.407 138.658 185.249 138.186 188.442C137.744 191.642 137.165 194.184 136.757 195.923C136.276 197.647 136.012 198.596 136.012 198.596C136.012 198.596 136.215 197.633 136.58 195.886C136.875 194.124 137.29 191.57 137.533 188.368C137.809 185.166 137.955 181.34 138.289 177.023C138.643 172.748 139.094 168.041 139.477 163.056C140.966 143.118 141.987 118.823 143.753 101.687C145.531 84.4936 147.248 77.9376 148.058 75.5419C148.923 73.1626 149.19 75.0331 149.19 75.0331Z" fill="#FFCADE"/>
<path d="M149.453 74.722C149.453 74.722 150.469 73.0342 150.334 75.6743C150.3 76.3343 150.196 77.2638 149.984 78.5587C149.751 79.8573 149.458 81.5098 149.084 83.6183C148.883 84.6713 148.663 85.8364 148.415 87.1274C148.158 88.416 147.931 89.8645 147.635 91.4313C147.034 94.5689 146.416 98.2959 145.669 102.684C144.199 111.47 142.661 122.16 140.904 133.232C139.163 144.303 137.037 155.747 134.402 165.912C134.065 167.181 133.779 168.442 133.415 169.664C133.058 170.888 132.706 172.092 132.363 173.272C131.711 175.644 130.913 177.875 130.214 180.011C129.532 182.154 128.758 184.14 128.079 185.999C127.389 187.858 126.749 189.587 126.165 191.161C123.823 197.456 122.389 201.306 122.389 201.306C122.389 201.306 123.574 197.375 125.515 190.945C126.002 189.339 126.539 187.575 127.113 185.678C127.685 183.776 128.336 181.763 128.89 179.602C129.462 177.445 130.126 175.197 130.641 172.81C130.92 171.625 131.201 170.414 131.488 169.185C131.782 167.958 132 166.691 132.267 165.419C136.478 145.043 138.308 119.737 141.348 101.969C142.102 97.5301 142.793 93.7666 143.525 90.6C143.886 89.0168 144.185 87.5771 144.534 86.2697C144.888 84.966 145.207 83.7896 145.498 82.7291C145.799 81.6773 146.058 80.7314 146.332 79.9202C146.609 79.1078 146.861 78.4012 147.09 77.7878C147.548 76.5585 147.92 75.7007 148.22 75.1112C149.41 72.7534 149.453 74.722 149.453 74.722Z" fill="#EC86AD"/>
<path d="M152.03 71.5427C152.03 71.5427 151.628 72.6927 150.853 75.4826C150.659 76.1804 150.326 77.1503 149.788 78.4829C149.538 79.1517 149.162 79.9062 148.87 80.7728C148.566 81.6368 148.212 82.6016 147.807 83.6798C147.601 84.2151 147.383 84.7819 147.154 85.3802C147.038 85.6775 146.921 85.9836 146.799 86.2972C146.689 86.6221 146.58 86.9547 146.466 87.2973C145.999 88.6589 145.488 90.1527 144.923 91.7939C143.863 95.1103 142.634 99.0301 141.292 103.721C139.939 108.405 138.502 113.623 136.853 119.139C136.431 120.517 136.006 121.912 135.572 123.324C135.12 124.787 134.64 126.141 134.167 127.573C133.209 130.404 132.237 133.286 131.253 136.192C129.29 141.995 127.293 147.896 125.328 153.704C123.438 159.523 121.579 165.25 119.814 170.686C118.187 176.165 116.646 181.351 115.251 186.047C113.874 190.759 112.671 194.981 111.705 198.526C111.242 200.305 110.823 201.91 110.457 203.318C110.092 204.727 109.84 205.954 109.6 206.947C109.142 208.939 108.889 210.035 108.889 210.035C108.889 210.035 109.071 208.925 109.399 206.907C109.574 205.899 109.745 204.658 110.022 203.226C110.303 201.794 110.623 200.16 110.976 198.354C111.724 194.746 112.676 190.446 113.782 185.668C114.921 180.886 116.176 175.607 117.505 170.031C118.979 164.493 120.546 158.654 122.193 152.735C123.905 146.842 125.633 140.84 127.394 134.965C128.277 132.029 129.152 129.117 130.013 126.254C130.435 124.835 130.902 123.379 131.277 122.028C131.668 120.625 132.054 119.237 132.436 117.869C133.943 112.383 135.308 107.134 136.678 102.391C138.035 97.6446 139.369 93.6417 140.585 90.2774C141.249 88.611 141.855 87.0958 142.404 85.7128C142.545 85.3689 142.683 85.0351 142.815 84.7064C142.969 84.3827 143.12 84.0665 143.263 83.7579C143.562 83.147 143.844 82.5651 144.112 82.0134C144.651 80.9151 145.139 79.9465 145.583 79.095C146.019 78.2348 146.498 77.5836 146.877 76.9664C147.662 75.7622 148.265 74.9322 148.725 74.373C150.564 72.1372 152.03 71.5427 152.03 71.5427Z" fill="#FFCADE"/>
<path d="M150.935 71.7948C150.935 71.7948 150.921 75.7889 145.93 58.3377C143.426 49.6241 139.993 37.264 136.293 27.3702C135.812 26.1421 135.343 24.9468 134.893 23.793C134.436 22.6355 134.031 21.5321 133.556 20.498C133.104 19.4564 132.683 18.4664 132.219 17.5847C131.768 16.6954 131.379 15.8503 130.956 15.1134C130.548 14.3678 130.18 13.6952 129.858 13.1032C129.516 12.5225 129.224 12.0237 128.985 11.6156C128.506 10.8007 128.244 10.3523 128.244 10.3523C128.244 10.3523 128.534 10.783 129.067 11.5652C129.331 11.957 129.655 12.4369 130.033 12.9974C130.393 13.568 130.802 14.2191 131.258 14.9396C131.727 15.6513 132.173 16.48 132.68 17.3529C133.203 18.222 133.683 19.1868 134.193 20.1982C134.725 21.1996 135.208 22.3131 135.723 23.4366C136.241 24.5702 136.774 25.7479 137.324 26.9545C141.567 36.7023 145.558 48.9943 148.066 57.7205C153.059 75.1793 150.935 71.7948 150.935 71.7948Z" fill="#FFCADE"/>
<path d="M150.498 72.4258C150.498 72.4258 150.702 73.5557 149.746 72.3478C148.755 71.165 146.813 67.4947 141.75 58.475C139.176 53.9595 136.042 48.5144 132.654 42.9522C129.304 37.3685 125.746 31.6464 122.564 26.4558C120.972 23.8648 119.465 21.4112 118.099 19.1906C116.703 16.9851 115.483 14.9875 114.411 13.3538C112.258 10.0878 110.939 8.08887 110.939 8.08887C110.939 8.08887 112.383 10.0009 114.741 13.1258C115.913 14.6965 117.246 16.6148 118.768 18.7347C120.288 20.8784 121.9 23.2514 123.633 25.7579C127.082 30.7748 130.911 36.3282 134.479 41.8047C138.079 47.2561 141.377 52.6608 143.971 57.2141C149.125 66.4026 150.466 70.306 150.889 71.7797C151.276 73.2735 150.498 72.4258 150.498 72.4258Z" fill="#EC86AD"/>
<path d="M150.712 72.7419C150.712 72.7419 151.201 74.0481 149.797 72.81C148.383 71.5819 145.115 67.7692 137.5 57.6235C135.562 55.122 133.441 52.3446 131.214 49.401C128.982 46.4574 126.675 43.3249 124.223 40.2126C121.806 37.0775 119.346 33.8883 116.925 30.7495C114.538 27.5842 112.063 24.5777 109.782 21.663C107.491 18.7598 105.32 16.0127 103.354 13.5225C101.328 11.0853 99.5126 8.90374 97.9898 7.07486C94.8711 3.48764 92.9629 1.29346 92.9629 1.29346C92.9629 1.29346 95.0096 3.36669 98.355 6.7549C99.9899 8.48931 101.94 10.5411 104.102 12.8852C106.205 15.267 108.526 17.8945 110.976 20.6693C113.409 23.4617 116.039 26.3524 118.571 29.4081C121.125 32.4499 123.721 35.5409 126.273 38.5802C128.843 41.6069 131.259 44.6802 133.567 47.5835C135.872 50.4906 138.042 53.2528 139.99 55.7669C147.611 65.924 150.251 70.1888 151.044 71.8854C151.825 73.5858 150.712 72.7419 150.712 72.7419Z" fill="#FFCADE"/>
<path d="M151.432 72.1789C151.432 72.1789 150.78 72.0845 149.019 70.9534C148.14 70.3891 146.63 69.1988 144.08 66.9064C142.806 65.7602 141.271 64.3382 139.426 62.5798C138.508 61.6956 137.508 60.7295 136.417 59.6803C135.325 58.6362 134.185 57.4522 132.877 56.2694C127.687 51.4705 121.564 45.5582 115.132 39.4619C108.707 33.3644 102.071 27.0577 96.2271 21.1857C93.2961 18.2711 90.5201 15.5089 88.006 13.0099C85.5234 10.482 83.3016 8.21726 81.4412 6.32037C77.7268 2.51776 75.457 0.192627 75.457 0.192627C75.457 0.192627 77.8678 2.37042 81.8153 5.92868C83.7865 7.71221 86.1419 9.84338 88.7706 12.2202C91.4144 14.5768 94.334 17.1778 97.4174 19.9236C103.539 25.4619 110.465 31.4473 117.111 37.303C123.754 43.1537 130.1 48.9766 135.315 53.8007C136.635 54.9948 137.757 56.1825 138.835 57.2456C139.897 58.325 140.871 59.3138 141.765 60.2219C143.544 62.047 144.983 63.5661 146.143 64.8282C148.465 67.3511 149.669 68.8461 150.243 69.7203C151.39 71.4673 151.432 72.1789 151.432 72.1789Z" fill="#EC86AD"/>
<path d="M150.105 72.2305C150.105 72.2305 150.954 73.621 149.07 72.5126C147.16 71.4332 142.65 67.6533 131.461 58.0592C125.825 53.2716 119.023 47.4764 111.889 41.5766C104.752 35.6819 97.3737 29.5843 90.7043 24.075C84.0425 18.5607 78.0911 13.6333 73.8048 10.0864C72.7455 9.18203 71.7895 8.36581 70.9506 7.65164C70.1433 6.89717 69.4518 6.25354 68.885 5.72452C67.7577 4.66901 67.1367 4.08838 67.1367 4.08838C67.1367 4.08838 67.793 4.62872 68.9883 5.6074C69.584 6.09737 70.3158 6.69566 71.1635 7.39345C72.0439 8.0522 73.0453 8.80666 74.1575 9.63923C78.6491 12.9166 84.8763 17.4913 91.8203 22.6455C98.7693 27.7996 106.461 33.5104 113.802 39.1872C121.167 44.8326 128.148 50.4842 133.815 55.2982C145.14 65.0094 148.993 69.4229 150.295 71.1724C151.566 72.9535 150.105 72.2305 150.105 72.2305Z" fill="#FFCADE"/>
<path d="M149.723 72.2484C149.723 72.2484 150.732 73.5948 148.687 72.6401C146.615 71.7282 141.624 68.2543 129.146 59.5785C122.857 55.262 115.256 50.0436 107.27 44.8039C99.316 39.5187 91.0054 34.1706 83.5198 29.3075C79.7663 26.9017 76.2345 24.5438 73.0075 22.5386C69.7453 20.5435 66.8181 18.7537 64.372 17.2573C59.4811 14.252 56.4922 12.4143 56.4922 12.4143C56.4922 12.4143 59.5932 14.0593 64.6642 16.7485C67.1984 18.1 70.2239 19.7134 73.602 21.5134C76.9877 23.3574 80.6102 25.4961 84.496 27.7079C92.2309 32.1743 100.793 37.1268 108.965 42.1336C117.164 47.0937 124.944 52.1496 131.275 56.4938C143.932 65.2956 148.3 69.4786 149.815 71.145C151.297 72.8479 149.723 72.2484 149.723 72.2484Z" fill="#EC86AD"/>
<path d="M151.379 72.4194C151.379 72.4194 151.511 72.9761 149.209 72.5403C148.054 72.2909 145.994 71.8249 142.372 70.2013C141.917 70.0048 141.441 69.7958 140.937 69.5779C140.442 69.3474 139.938 69.0879 139.399 68.8221C138.331 68.2805 137.143 67.6986 135.871 67.0134C134.614 66.308 133.245 65.541 131.752 64.7059C130.286 63.8393 128.702 62.9035 126.987 61.8908C125.285 60.8806 123.502 59.7798 121.643 58.7003C120.715 58.1537 119.768 57.5957 118.805 57.0289C117.836 56.4873 116.849 55.9368 115.849 55.3788C115.354 55.103 114.84 54.8058 114.349 54.5463C113.831 54.2705 113.309 53.9946 112.783 53.7188C111.734 53.1646 110.672 52.6015 109.603 52.0373C107.466 50.9024 105.289 49.7474 103.097 48.5823C100.882 47.4965 98.6487 46.3995 96.4142 45.3049C94.1747 44.2154 91.9667 43.073 89.702 42.059C85.1941 39.9971 80.8045 37.8735 76.5585 36.0232C74.4425 35.0811 72.3844 34.1616 70.4006 33.2749C69.9056 33.0519 69.4143 32.834 68.9281 32.6161L68.5654 32.4549L68.4054 32.3831L68.2215 32.3088C67.9784 32.2118 67.7328 32.1135 67.4922 32.0178C66.5249 31.6286 65.5777 31.2507 64.6557 30.8817C60.9614 29.4206 57.6765 28.0313 54.8841 27.006C49.3181 24.8799 45.916 23.5813 45.916 23.5813C45.916 23.5813 49.3974 24.6633 55.0919 26.4329C57.9536 27.292 61.3078 28.4797 65.0814 29.7267C66.0248 30.0441 66.9909 30.3691 67.9797 30.6991C68.2266 30.7822 68.4747 30.8666 68.7253 30.9497L68.9118 31.0127L69.1208 31.0908L69.4937 31.2344C69.9912 31.4246 70.4938 31.6173 71.0014 31.8112C73.0318 32.5897 75.1403 33.3983 77.308 34.2296C81.6534 35.8557 86.1614 37.7652 90.7802 39.6268C93.094 40.5388 95.3839 41.5968 97.6927 42.6044C99.9964 43.6234 102.301 44.6462 104.589 45.6589C106.819 46.7484 109.032 47.8303 111.209 48.8909C112.295 49.4274 113.373 49.9564 114.437 50.4817C114.97 50.7449 115.499 51.0057 116.026 51.2677C116.577 51.5423 117.08 51.8194 117.604 52.0927C118.639 52.6444 119.663 53.1885 120.668 53.7238C121.655 54.2818 122.626 54.8347 123.578 55.3751C125.49 56.452 127.273 57.5365 128.988 58.5517C132.378 60.5834 135.256 62.3052 137.699 63.7701C138.922 64.4754 140.035 65.1165 141.05 65.6997C141.554 65.9931 142.034 66.2728 142.493 66.5373C142.949 66.7842 143.383 67.021 143.794 67.2439C147.028 69.0917 149.015 70.0603 149.956 70.7442C151.886 72.0793 151.379 72.4194 151.379 72.4194Z" fill="#FFCADE"/>
<path d="M148.413 72.4901C148.413 72.4901 149.902 73.6224 147.426 73.2219C144.961 72.7924 138.484 71.0038 122.716 64.4919C106.977 58.0001 85.1253 47.9677 66.7055 40.7278C62.0779 38.9682 57.6972 37.2992 53.7283 35.7903C49.7569 34.2637 46.2226 32.8845 43.1858 31.9713C41.6781 31.4751 40.2787 31.1753 39.0607 30.8591C37.8289 30.6274 36.7658 30.4183 35.8917 30.2873C34.1334 30.1009 33.166 29.9963 33.166 29.9963C33.166 29.9963 34.1396 30.0366 35.9118 30.1122C36.7948 30.1865 37.8743 30.3276 39.1338 30.4825C40.3745 30.7218 41.8091 30.9372 43.3583 31.3453C46.4783 32.0784 50.1222 33.2573 54.1616 34.5484C58.2161 35.8394 62.6901 37.2678 67.4185 38.7755C86.2778 45.0682 108.624 54.1799 124.305 60.649C139.954 67.1117 146.09 69.8853 148.176 71.2821C150.277 72.6538 148.413 72.4901 148.413 72.4901Z" fill="#EC86AD"/>
<path d="M149.377 72.2521C149.377 72.2521 151.055 73.2471 148.439 73.1312C147.13 73.0746 144.748 72.7383 140.548 71.8629C140.023 71.7508 139.47 71.6324 138.885 71.5089C138.303 71.4006 137.69 71.286 137.045 71.1651C135.756 70.9107 134.342 70.6323 132.79 70.3262C129.675 69.6788 126.006 68.918 121.682 68.02C117.351 67.1244 112.549 66.0122 107.493 64.8471C102.458 63.7022 97.151 62.4955 91.7551 61.2662C80.9518 58.7811 69.801 56.1524 59.7358 53.753C54.6888 52.5576 49.9642 51.3888 45.6313 50.4265C43.4699 49.9113 41.4181 49.5196 39.4998 49.1228C38.5387 48.9276 37.6142 48.7386 36.7224 48.556C35.8307 48.3948 34.9742 48.2398 34.1567 48.0937C32.5205 47.8003 31.0443 47.5358 29.7495 47.3027C28.4496 47.1075 27.3312 46.94 26.4167 46.804C24.5904 46.5281 23.584 46.377 23.584 46.377C23.584 46.377 24.5967 46.4626 26.4381 46.6175C27.3601 46.6969 28.4887 46.7926 29.8037 46.9034C31.1111 47.0571 32.6062 47.2297 34.2575 47.4211C35.085 47.5194 35.9541 47.6227 36.8572 47.7297C37.7603 47.8595 38.6987 47.9917 39.6723 48.1303C41.6208 48.4137 43.718 48.6895 45.8971 49.0787C50.274 49.7891 55.1145 50.7048 60.1943 51.6293C70.374 53.4985 81.6383 55.5957 92.5272 57.6853C97.9823 58.7358 103.3 59.7573 108.422 60.7939C113.475 61.8569 118.254 62.8621 122.581 63.7702C124.753 64.2375 126.754 64.6683 128.608 65.065C130.465 65.4857 132.173 65.8989 133.735 66.278C135.293 66.6659 136.714 67.0211 138.006 67.3423C138.652 67.5111 139.263 67.6711 139.845 67.8222C140.417 67.996 140.957 68.161 141.471 68.3172C145.57 69.5881 147.813 70.4459 148.984 71.0291C151.328 72.1954 149.377 72.2521 149.377 72.2521Z" fill="#FFCADE"/>
<path d="M146.716 72.1109C146.716 72.1109 148.327 73.2407 145.706 72.9233C145.05 72.8439 144.133 72.6726 142.856 72.3716C142.219 72.223 141.491 72.034 140.665 71.8186C139.84 71.631 138.916 71.4081 137.882 71.1486C136.849 70.8803 135.704 70.583 134.437 70.2518C133.151 69.9407 131.74 69.5993 130.194 69.2252C129.419 69.0338 128.61 68.8335 127.768 68.6232C126.917 68.4317 126.031 68.2314 125.107 68.0198C123.262 67.5941 121.271 67.1154 119.093 66.6759C110.418 64.7928 99.8432 62.862 88.8246 61.1918C77.8085 59.5077 66.3541 58.0882 55.9992 56.8236C45.6356 55.5968 36.3967 54.3297 29.7273 53.9291C26.3908 53.7263 23.6966 53.8183 21.84 53.9317C20.9142 54.006 20.1988 54.1093 19.7126 54.1571C19.2264 54.2113 18.9707 54.2403 18.9707 54.2403C18.9707 54.2403 19.2214 54.1949 19.7038 54.108C20.1862 54.0286 20.8966 53.8787 21.8199 53.744C23.6714 53.511 26.3769 53.2452 29.7475 53.2452C36.4949 53.2364 45.7943 53.9632 56.2071 54.6446C66.6236 55.3625 78.1649 56.2417 89.3108 57.5265C100.458 58.7986 111.207 60.4801 120.018 62.3934C122.226 62.8393 124.248 63.3444 126.12 63.8091C127.053 64.0409 127.95 64.2651 128.809 64.4792C129.667 64.7034 130.479 64.949 131.26 65.1707C132.818 65.6292 134.234 66.0486 135.528 66.429C136.805 66.8699 137.959 67.2679 138.999 67.6256C140.033 67.9921 140.949 68.3297 141.756 68.6358C142.55 68.9645 143.234 69.2681 143.828 69.5401C145.021 70.0842 145.852 70.5125 146.418 70.8513C148.683 72.2066 146.716 72.1109 146.716 72.1109Z" fill="#EC86AD"/>
<path d="M148.817 73.0996C148.817 73.0996 150.607 74.0354 147.897 74.0606C145.183 74.1752 137.982 72.8615 119.987 70.2908C110.932 69.0703 99.9661 67.6684 88.5658 66.5297C85.7155 66.2425 82.8487 65.9163 79.9693 65.6443C77.0925 65.3697 74.2157 65.0938 71.3603 64.823C65.6482 64.2865 60.0318 63.7587 54.6988 63.2587C49.3671 62.7473 44.3238 62.2636 39.7541 61.8227C35.1769 61.4172 31.0859 61.0368 27.6561 60.8151C25.9406 60.7345 24.3901 60.6602 23.031 60.5959C21.6719 60.5632 20.5043 60.6237 19.547 60.6262C17.6338 60.6577 16.582 60.6753 16.582 60.6753C16.582 60.6753 17.6313 60.5896 19.5382 60.4335C20.493 60.368 21.6631 60.2332 23.0272 60.1816C24.3938 60.1614 25.9519 60.14 27.6775 60.1135C31.1274 60.1223 35.2487 60.2584 39.836 60.4032C44.4271 60.5897 49.4943 60.7975 54.8487 61.0154C60.2043 61.2471 65.8434 61.4613 71.5807 61.7585C74.4499 61.9046 77.3432 62.0533 80.2364 62.2019C83.1283 62.353 86.0228 62.5671 88.892 62.7523C100.369 63.474 111.46 64.6089 120.605 65.8395C138.982 68.4707 145.835 70.8714 148.346 71.8602C150.83 72.9346 148.817 73.0996 148.817 73.0996Z" fill="#FFCADE"/>
<path d="M149.085 72.9285C149.085 72.9285 151.215 73.4978 148.337 74.1704C146.896 74.5067 144.204 74.8695 139.368 75.197C136.951 75.362 133.994 75.5182 130.393 75.6592C128.59 75.7197 126.627 75.7864 124.488 75.857C122.35 75.9187 120.036 75.9905 117.523 75.9792C112.503 75.988 106.958 75.9615 101.101 75.9036C95.2428 75.8532 89.0722 75.7739 82.816 75.6063C70.2985 75.2713 57.3603 74.9287 45.6691 74.6163C33.9879 74.2951 23.5462 73.9437 16.0367 73.8026C8.5247 73.785 3.93359 73.7762 3.93359 73.7762C3.93359 73.7762 8.52342 73.4953 16.0291 73.0381C23.5449 72.7156 33.9778 72.4562 45.6729 72.164C57.3679 71.8604 70.3123 71.6236 82.8336 71.4661C89.0898 71.3792 95.2403 71.2923 101.078 71.2105C106.911 71.1311 112.432 71.0832 117.432 71.0744C122.439 71.0329 126.688 70.9951 130.294 70.9661C133.899 70.9585 136.857 70.9938 139.282 71.0593C144.128 71.1903 146.833 71.441 148.285 71.7181C151.19 72.2723 149.085 72.9285 149.085 72.9285Z" fill="#EC86AD"/>
<path d="M149.102 72.9815C149.102 72.9815 157.63 74.6013 118.386 78.2994C98.7633 80.1484 70.9132 82.1649 47.9691 83.723C42.2394 84.1286 36.788 84.4334 31.9022 84.8314C29.4473 85.0405 27.1209 85.2382 24.9494 85.4247C22.7817 85.63 20.7576 85.7748 18.9287 86.004C17.0935 86.2106 15.4385 86.3958 13.9862 86.5595C12.5415 86.7749 11.2996 86.9626 10.2844 87.1137C8.25524 87.4185 7.13672 87.5873 7.13672 87.5873C7.13672 87.5873 8.24138 87.348 10.2466 86.9109C11.253 86.6943 12.4836 86.4285 13.9144 86.1187C15.3579 85.8668 17.0041 85.5745 18.8242 85.2559C20.6468 84.9133 22.657 84.6475 24.8159 84.3137C26.9773 84.0014 29.2899 83.6663 31.7284 83.3136C36.6356 82.631 42.0253 82.0289 47.7348 81.3223C70.5631 78.5664 98.296 75.3469 117.919 73.4979C157.163 69.8024 149.102 72.9815 149.102 72.9815Z" fill="#FFCADE"/>
<path d="M149.578 73.5417C149.578 73.5417 151.764 73.8339 148.995 74.868C147.611 75.3869 144.99 76.0898 140.237 77.0344C137.871 77.5307 134.933 77.9892 131.351 78.5157C127.768 79.0459 123.532 79.6367 118.562 80.2123C108.581 81.3887 96.6328 82.6596 84.1845 84.1572C81.0558 84.4658 77.9862 85.0087 74.8827 85.4659C71.7817 85.9357 68.6819 86.4043 65.6061 86.869C62.539 87.4119 59.5136 88.0405 56.5271 88.6035C55.0346 88.8919 53.5546 89.1778 52.091 89.46C50.6311 89.7585 49.1676 89.9751 47.7606 90.3492C25.0621 95.8207 7.21289 100.125 7.21289 100.125C7.21289 100.125 11.6012 98.7694 18.7807 96.5538C22.373 95.4542 26.6642 94.1392 31.4531 92.6731C36.2583 91.2334 41.5661 89.6476 47.1711 87.9712C48.5692 87.5202 50.0265 87.2268 51.4813 86.8489C52.9399 86.4912 54.4136 86.1297 55.9024 85.7644C58.8813 85.049 61.9017 84.2681 64.9712 83.5804C68.0622 82.9745 71.1796 82.3598 74.2945 81.7477C77.4144 81.1532 80.5381 80.4768 83.6316 80.0586C95.9803 78.1101 108.063 76.5142 117.978 75.3454C122.936 74.771 127.143 74.2848 130.713 73.8704C134.282 73.4988 137.212 73.1966 139.621 72.9459C144.442 72.4547 147.155 72.3602 148.63 72.4484C151.581 72.6222 149.578 73.5417 149.578 73.5417Z" fill="#EC86AD"/>
<path d="M149.733 73.1475C149.733 73.1475 152.083 73.1765 149.285 74.6288C148.584 74.9915 147.564 75.4424 146.103 76.0055C144.643 76.5698 142.749 77.2487 140.249 77.9931C137.757 78.7526 134.699 79.6519 130.957 80.5865C127.218 81.5626 122.782 82.5804 117.544 83.7165C96.5796 88.2786 66.6588 92.7249 42.5269 98.6964C30.4503 101.619 19.8309 104.902 12.2648 107.508C8.48988 108.826 5.51858 110.068 3.51336 111.03C2.50194 111.492 1.75374 111.922 1.22976 112.179C0.709562 112.448 0.4375 112.587 0.4375 112.587C0.4375 112.587 0.698242 112.431 1.19955 112.13C1.70337 111.837 2.42761 111.358 3.40881 110.83C5.35483 109.739 8.26188 108.299 11.9688 106.745C19.3838 103.672 29.8482 99.7507 41.8417 96.171C53.8201 92.5573 67.281 89.2485 80.3389 86.3565C93.398 83.4507 106.031 80.8434 116.445 78.6027C126.833 76.3682 134.073 74.8102 139.117 73.7257C141.63 73.2319 143.608 72.8276 145.149 72.5568C146.694 72.2898 147.801 72.1537 148.588 72.1071C151.736 71.9169 149.733 73.1475 149.733 73.1475Z" fill="#FFCADE"/>
<path d="M149.096 73.4498C149.096 73.4498 151.319 73.4712 148.678 74.8492C146.028 76.2032 138.579 79.0498 119.009 84.2115C99.4709 89.3581 71.6649 95.8334 49.0999 102.416C46.2596 103.182 43.5415 104.066 40.9102 104.876C38.2778 105.691 35.7461 106.477 33.3391 107.22C32.7382 107.406 32.1437 107.59 31.5568 107.772C30.9811 107.969 30.4131 108.167 29.8551 108.361C28.7278 108.753 27.6358 109.136 26.5803 109.503C24.4705 110.238 22.5094 110.92 20.7221 111.543C13.6622 114.247 9.3457 115.902 9.3457 115.902C9.3457 115.902 13.5577 113.975 20.4475 110.822C22.1945 110.092 24.1115 109.292 26.1747 108.432C27.205 108.002 28.2731 107.557 29.3739 107.099C29.9294 106.868 30.4925 106.637 31.0656 106.4C31.6412 106.186 32.2256 105.967 32.8176 105.745C35.1881 104.863 37.6795 103.934 40.2692 102.97C42.8626 102.01 45.5442 100.977 48.3467 100.062C70.6346 92.2701 98.2517 84.5679 117.748 79.4315C137.217 74.2988 145.038 72.6311 148.012 72.4686C150.986 72.281 149.096 73.4498 149.096 73.4498Z" fill="#EC86AD"/>
<path d="M147.883 74.3002C147.883 74.3002 150.199 74.1742 147.54 75.7865C144.862 77.3634 137.317 80.8738 117.203 87.4462C97.1349 93.9909 68.4673 102.199 45.2713 110.213C43.8165 110.704 42.3831 111.188 40.9712 111.662C39.5718 112.175 38.1964 112.679 36.8474 113.171C34.1456 114.165 31.5509 115.119 29.0809 116.028C27.8465 116.48 26.6411 116.921 25.4748 117.349C24.3299 117.824 23.2189 118.285 22.147 118.73C19.9957 119.629 17.993 120.464 16.1704 121.224C8.91412 124.35 4.48047 126.262 4.48047 126.262C4.48047 126.262 5.55488 125.71 7.51097 124.712C9.47211 123.72 12.2986 122.243 15.8404 120.488C17.6139 119.619 19.5625 118.664 21.6571 117.638C22.7139 117.126 23.7731 116.594 24.9294 116.048C26.0731 115.551 27.252 115.039 28.4625 114.515C30.8846 113.467 33.4327 112.364 36.0828 111.218C37.4117 110.65 38.7569 110.052 40.1373 109.478C41.5266 108.925 42.9398 108.364 44.3682 107.794C67.2166 98.5354 95.6045 89.0648 115.606 82.539C135.567 76.0195 143.597 73.7057 146.688 73.3505C149.773 72.9588 147.883 74.3002 147.883 74.3002Z" fill="#FFCADE"/>
<path d="M148.358 74.5054C148.358 74.5054 150.745 74.3404 148.023 76.0433C145.36 77.847 137.252 80.9354 117.563 89.5659C115.098 90.6794 112.503 91.852 109.808 93.0675C108.456 93.6708 107.08 94.2868 105.68 94.9103C104.292 95.5627 102.879 96.224 101.449 96.8953C95.7285 99.587 89.6775 102.374 83.5725 105.342C77.4497 108.275 71.2212 111.259 65.0948 114.193C58.9746 117.138 52.8985 119.953 47.1574 122.653C41.3773 125.291 35.8932 127.733 30.9141 129.95C25.9187 132.09 21.4108 133.949 17.6888 135.597C10.3153 139.06 5.80859 141.176 5.80859 141.176C5.80859 141.176 10.1831 138.776 17.3361 134.843C20.9598 132.965 25.3418 130.845 30.2088 128.421C35.0316 125.927 40.3558 123.175 45.9797 120.268C51.5721 117.285 57.4631 114.142 63.4548 110.947C69.439 107.733 75.5327 104.479 81.5635 101.326C87.5678 98.1309 93.562 95.1383 99.2552 92.3005C100.681 91.5939 102.075 90.8822 103.471 90.2146C104.873 89.5622 106.252 88.9223 107.606 88.29C110.318 87.0418 112.928 85.8415 115.408 84.7003C117.872 83.5352 120.243 82.6069 122.412 81.7176C124.589 80.8473 126.586 80.0462 128.42 79.3106C130.258 78.5952 131.929 77.9264 133.46 77.3747C134.999 76.8671 136.388 76.4199 137.643 76.0282C142.662 74.4613 145.528 73.7698 147.116 73.5419C150.289 73.0909 148.358 74.5054 148.358 74.5054Z" fill="#EC86AD"/>
<path d="M147.187 75.3769C147.187 75.3769 149.566 74.9726 147.006 76.9564C145.726 77.9477 143.213 79.5373 138.55 82.0727C137.395 82.7202 136.06 83.3713 134.661 84.1875C133.248 84.9836 131.696 85.8589 129.989 86.8187C126.569 88.7282 122.51 90.877 117.73 93.575C108.166 98.8727 96.4635 105.231 84.3163 111.553C82.7985 112.347 81.2732 113.146 79.7453 113.945C78.2288 114.758 76.7098 115.573 75.1908 116.388C72.1489 118.014 69.1046 119.638 66.0867 121.25C64.5714 122.046 63.0738 122.858 61.6001 123.689C60.1176 124.509 58.6465 125.325 57.1866 126.131C54.2657 127.743 51.3927 129.33 48.5965 130.876C43.0658 134.075 37.8335 137.104 33.0925 139.847C28.3868 142.639 24.2013 145.235 20.6784 147.354C13.7596 151.794 9.53125 154.507 9.53125 154.507C9.53125 154.507 13.587 151.525 20.2237 146.65C23.6144 144.316 27.6198 141.485 32.1819 138.412C36.7742 135.404 41.8263 132.044 47.216 128.571C49.9392 126.88 52.7354 125.146 55.5794 123.381C57.004 122.5 58.4386 121.612 59.8846 120.716C61.3256 119.813 62.7892 118.927 64.2704 118.062C67.2266 116.313 70.208 114.548 73.1894 112.785C74.6807 111.905 76.172 111.025 77.662 110.147C79.1597 109.289 80.6522 108.433 82.1398 107.581C94.0791 100.799 105.507 94.2111 115.136 88.8756C119.906 86.1814 124.116 84.0477 127.658 82.2403C129.436 81.3523 131.055 80.5424 132.528 79.8043C134.005 79.0674 135.367 78.5296 136.584 77.993C141.465 75.911 144.271 74.926 145.842 74.538C148.981 73.7621 147.187 75.3769 147.187 75.3769Z" fill="#FFCADE"/>
<path d="M147.216 75.7335C147.216 75.7335 149.494 75.2322 147.116 77.2677C145.926 78.2854 143.569 79.9392 139.182 82.6056C138.094 83.282 136.847 83.9874 135.513 84.8212C134.189 85.6639 132.737 86.5871 131.137 87.6011C129.533 88.5974 127.779 89.6819 125.872 90.8646C124.916 91.4566 123.915 92.0461 122.882 92.701C121.849 93.3598 120.775 94.0412 119.659 94.7541C110.71 100.392 99.8599 107.233 88.5881 114.221C82.944 117.703 77.2043 121.244 71.5589 124.729C70.1482 125.602 68.7287 126.45 67.3457 127.329C65.9652 128.212 64.5961 129.09 63.237 129.961C60.5176 131.699 57.8436 133.407 55.2375 135.074C50.0192 138.395 45.0805 141.537 40.6065 144.383C39.4943 145.1 38.3746 145.771 37.3581 146.473C36.3203 147.177 35.3139 147.861 34.3427 148.52C32.3967 149.84 30.5905 151.064 28.943 152.181C22.4878 156.823 18.5391 159.66 18.5391 159.66C18.5391 159.66 19.4787 158.886 21.1841 157.479C22.8997 156.082 25.3558 154.01 28.4682 151.522C30.0464 150.308 31.7758 148.976 33.6374 147.542C34.5695 146.826 35.533 146.085 36.5268 145.319C37.532 144.538 38.5925 143.821 39.6656 143.036C43.9872 139.941 48.7534 136.524 53.7916 132.916C56.317 131.115 58.9066 129.267 61.5454 127.385C62.8654 126.446 64.1955 125.499 65.5357 124.545C66.8784 123.599 68.2538 122.687 69.623 121.751C75.1197 118.036 80.7071 114.258 86.2 110.545C97.2149 103.145 107.883 96.0326 116.894 90.357C118.019 89.6466 119.1 88.9639 120.143 88.3064C121.187 87.6514 122.226 87.0582 123.208 86.4712C125.185 85.3187 127.001 84.2607 128.666 83.2896C130.339 82.3399 131.863 81.4746 133.252 80.6861C134.649 79.9278 135.936 79.327 137.089 78.7577C141.709 76.5182 144.371 75.4363 145.873 74.9879C148.874 74.0885 147.216 75.7335 147.216 75.7335Z" fill="#EC86AD"/>
<path d="M147.414 75.6567C147.414 75.6567 149.692 74.8946 147.479 77.2374C146.372 78.4076 144.144 80.3561 139.945 83.5617C138.896 84.364 137.722 85.2444 136.414 86.2118C135.089 87.1653 133.739 88.3039 132.187 89.4892C129.12 91.9 125.44 94.6307 121.143 97.9471C119.01 99.6324 116.764 101.403 114.429 103.246C113.257 104.162 112.064 105.095 110.85 106.046C110.242 106.518 109.628 106.996 109.014 107.477C108.407 107.971 107.793 108.467 107.175 108.968C104.704 110.962 102.164 113.011 99.5822 115.093C98.2886 116.134 96.9825 117.182 95.6713 118.239C94.3676 119.308 93.0564 120.385 91.7389 121.467C81.1738 130.076 70.3038 139.078 60.352 147.047C50.3977 155.023 41.3742 161.964 34.8963 166.966C31.6202 169.435 28.9058 171.324 27.0707 172.668C25.2242 173.997 24.209 174.727 24.209 174.727C24.209 174.727 25.1763 173.931 26.9309 172.485C28.6791 171.024 31.2575 168.977 34.3673 166.32C40.5341 160.923 49.1243 153.475 58.6264 145.008C68.1323 136.54 78.5514 127.044 88.8243 118.026C90.1066 116.896 91.3812 115.77 92.6509 114.653C93.9356 113.551 95.2103 112.455 96.4749 111.369C99.0129 109.204 101.508 107.079 103.938 105.007C104.547 104.492 105.151 103.979 105.752 103.47C106.362 102.973 106.971 102.479 107.573 101.99C108.78 101.017 109.969 100.057 111.134 99.1147C113.473 97.2418 115.725 95.4393 117.865 93.7263C122.211 90.3696 126.024 87.6464 129.223 85.3213C130.838 84.1814 132.283 83.0855 133.658 82.2202C135.024 81.3373 136.262 80.5501 137.382 79.851C141.866 77.0573 144.474 75.6592 145.96 75.0382C148.932 73.7938 147.414 75.6567 147.414 75.6567Z" fill="#EC86AD"/>
<path d="M147.903 75.8493C147.903 75.8493 150.209 75.0659 147.976 77.4502C145.817 79.9139 138.678 85.1058 121.449 98.6486C112.848 105.532 102.497 113.918 92.0451 122.945C89.4265 125.194 86.7839 127.461 84.1439 129.729C81.5265 132.029 78.9104 134.327 76.3132 136.608C75.0108 137.745 73.716 138.879 72.4312 140.005C71.1528 141.142 69.8844 142.275 68.6249 143.394C66.1045 145.633 63.6269 147.836 61.2149 149.981C51.612 158.612 42.853 166.147 37.0187 172.005C35.5652 173.483 34.2527 174.817 33.1028 175.987C31.9515 177.158 31.027 178.225 30.2385 179.065C28.6767 180.763 27.8164 181.696 27.8164 181.696C27.8164 181.696 28.615 180.709 30.061 178.913C30.7953 178.023 31.6555 176.894 32.7299 175.65C33.8106 174.409 35.0425 172.991 36.4066 171.421C41.9298 165.153 50.2164 157.136 59.3595 148.004C61.6633 145.737 64.0262 143.41 66.4319 141.043C67.6373 139.859 68.8516 138.666 70.0758 137.467C71.3102 136.278 72.5534 135.081 73.8029 133.881C76.3044 131.483 78.8235 129.064 81.3476 126.646C83.8869 124.247 86.4652 121.885 89.0095 119.526C99.1666 110.08 109.393 101.354 118.08 94.4026C120.213 92.6254 122.31 91.1063 124.218 89.6742C126.138 88.2585 127.9 86.9586 129.517 85.7646C131.142 84.5856 132.619 83.5036 133.983 82.5627C135.366 81.6596 136.617 80.8586 137.749 80.1456C142.283 77.2902 144.923 75.8631 146.427 75.2271C149.434 73.9549 147.903 75.8493 147.903 75.8493Z" fill="#FFCADE"/>
<path d="M150.975 72.1738C150.975 72.1738 147.494 76.9123 146.669 79.6934C146.462 80.3874 146.112 81.3535 145.552 82.6785C144.991 84.0074 144.35 85.6964 143.409 87.8289C141.602 92.163 139.048 98.4331 135.442 107.565C133.631 112.116 131.552 117.207 129.254 122.444C128.11 125.071 126.934 127.769 125.739 130.514C125.134 131.886 124.526 133.267 123.914 134.658C123.275 136.044 122.633 137.434 121.989 138.832C116.861 150.044 111.329 161.471 106.313 171.782C103.792 176.93 101.407 181.805 99.2451 186.221C98.1569 188.422 97.124 190.511 96.1605 192.463C95.1931 194.411 94.2888 196.219 93.5381 197.898C90.4446 204.585 88.5527 208.671 88.5527 208.671C88.5527 208.671 90.1851 204.467 92.8516 197.592C93.5015 195.861 94.2951 194.001 95.1453 191.999C95.9942 189.994 96.9023 187.85 97.8584 185.588C99.7741 181.063 101.889 176.065 104.125 170.787C108.594 160.226 113.576 148.552 118.256 137.24C118.848 135.829 119.437 134.422 120.023 133.026C120.588 131.615 121.153 130.216 121.712 128.826C122.834 126.05 123.936 123.321 125.009 120.664C127.199 115.349 129.15 110.365 130.973 105.785C134.586 96.6345 137.482 90.3253 139.747 86.0781C140.931 83.962 141.857 82.3019 142.663 81.1091C143.469 79.9188 144.085 79.0951 144.557 78.5447C146.437 76.3392 150.975 72.1738 150.975 72.1738Z" fill="#EC86AD"/>
<path d="M151.432 72.179C151.432 72.179 150.85 73.567 148.946 76.1692C147.106 78.8206 140.826 84.8299 125.3 99.9572C121.413 103.789 117.101 107.976 112.504 112.402C107.911 116.809 103.062 121.503 98.0447 126.125C95.5432 128.446 93.0216 130.787 90.4974 133.129C87.8952 135.409 85.2916 137.684 82.7096 139.943C77.5857 144.505 72.3484 148.725 67.4387 152.802C64.9926 154.854 62.5516 156.772 60.205 158.626C57.861 160.482 55.6051 162.264 53.4601 163.958C51.3289 165.667 49.2431 167.226 47.3273 168.69C45.4014 170.152 43.6129 171.513 41.9817 172.752C35.5907 177.867 31.6836 180.995 31.6836 180.995C31.6836 180.995 32.6068 180.15 34.2858 178.613C35.9736 177.085 38.392 174.833 41.454 172.102C43.007 170.767 44.7125 169.301 46.5464 167.725C48.3828 166.143 50.3515 164.482 52.3819 162.657C54.4224 160.846 56.5699 158.942 58.8044 156.962C61.0388 154.989 63.3678 152.946 65.6954 150.777C70.3684 146.459 75.3764 142 80.2358 137.254C82.6919 134.908 85.1682 132.54 87.6458 130.174C90.0755 127.736 92.5026 125.297 94.9134 122.881C99.764 118.068 104.414 113.275 108.911 108.759C113.394 104.241 117.674 99.9673 121.568 96.1332C137.342 80.7692 144.422 75.8468 147.167 74.1728C149.961 72.5694 151.432 72.179 151.432 72.179Z" fill="#EC86AD"/>
<path d="M150.935 71.7949C150.935 71.7949 147.475 75.7991 146.406 78.6091C145.871 80.0161 144.648 82.4923 142.176 86.7597C141.547 87.824 140.853 89.0005 140.08 90.3066C139.278 91.6027 138.524 93.0676 137.609 94.6446C135.824 97.8199 133.633 101.495 131.109 105.887C128.631 110.317 125.895 115.209 123.003 120.379C121.588 122.983 120.134 125.657 118.653 128.382C117.91 129.738 117.16 131.109 116.406 132.491C115.666 133.88 114.921 135.278 114.174 136.681C108.188 147.918 102.002 159.533 96.4103 170.03C90.7738 180.502 85.6487 189.833 81.7188 196.388C80.7729 198.049 79.8383 199.505 79.0397 200.794C78.2374 202.08 77.5484 203.183 76.9879 204.086C75.8619 205.889 75.2422 206.879 75.2422 206.879C75.2422 206.879 75.7964 205.851 76.8003 203.979C77.3028 203.047 77.9213 201.902 78.6354 200.571C79.3483 199.237 80.1872 197.734 81.0324 196.02C84.5566 189.23 89.1023 179.66 94.1809 168.907C99.2607 158.163 104.809 146.221 110.424 134.763C111.124 133.328 111.82 131.901 112.511 130.483C113.224 129.075 113.933 127.674 114.637 126.285C116.049 123.51 117.44 120.783 118.791 118.128C121.55 112.839 124.307 107.904 126.769 103.421C129.324 98.9749 131.629 95.2605 133.56 92.1116C134.542 90.5535 135.395 89.0899 136.272 87.853C137.143 86.6124 137.928 85.4901 138.636 84.4774C141.499 80.4645 143.248 78.3257 144.308 77.2576C146.429 75.1226 150.935 71.7949 150.935 71.7949Z" fill="#FFCADE"/>
<path d="M140.705 82.2402C140.705 82.2402 142.544 80.9315 141.195 83.6421C140.859 84.3197 140.322 85.2493 139.506 86.5101C138.675 87.7671 137.613 89.3706 136.256 91.4173C135.569 92.4313 134.808 93.5548 133.964 94.8018C133.102 96.0349 132.219 97.4607 131.2 98.976C129.151 102.003 126.837 105.655 124.099 109.951C118.65 118.562 112.364 129.198 105.854 140.249C99.3486 151.296 92.5168 162.706 85.8147 172.677C84.977 173.921 84.1508 175.15 83.3371 176.359C82.4945 177.551 81.6669 178.724 80.8545 179.874C80.0383 181.02 79.2385 182.146 78.4551 183.247C77.6427 184.324 76.8466 185.378 76.0707 186.404C75.2948 187.431 74.5404 188.43 73.806 189.4C73.0579 190.353 72.3336 191.276 71.6308 192.169C70.2251 193.956 68.9202 195.614 67.7274 197.127C62.9575 203.167 60.0391 206.861 60.0391 206.861C60.0391 206.861 62.7156 202.994 67.0926 196.665C68.1884 195.087 69.3913 193.351 70.6874 191.487C71.3348 190.553 72.0074 189.586 72.7001 188.589C73.3715 187.583 74.063 186.548 74.7746 185.484C75.485 184.421 76.2168 183.331 76.9625 182.216C77.6779 181.082 78.4085 179.92 79.1554 178.738C79.8985 177.555 80.6555 176.348 81.4251 175.12C82.1683 173.878 82.924 172.615 83.6911 171.334C89.8201 161.096 96.065 149.445 102.165 138.161C108.265 126.879 114.324 116.004 119.849 107.274C122.624 102.918 125.04 99.2556 127.242 96.2478C128.339 94.7413 129.297 93.3533 130.263 92.1353C131.231 90.9236 132.101 89.8316 132.887 88.8466C133.683 87.8767 134.385 86.9963 135.043 86.2683C135.706 85.544 136.294 84.918 136.817 84.3764C137.861 83.2982 138.644 82.5639 139.228 82.0815C141.561 80.1519 140.705 82.2402 140.705 82.2402Z" fill="#EC86AD"/>
<path d="M138.603 83.7658C138.603 83.7658 140.501 82.7027 138.929 85.1601C138.533 85.7735 137.924 86.6073 137.013 87.7346C136.558 88.2951 136.027 88.9325 135.411 89.6491C134.792 90.3658 134.168 91.2009 133.412 92.1053C132.659 93.0084 131.824 94.0085 130.898 95.1194C129.951 96.2064 128.988 97.5063 127.876 98.8628C125.638 101.573 123.12 104.881 120.144 108.771C114.233 116.589 107.457 126.358 100.541 136.58C93.6161 146.79 86.4845 157.422 79.5746 166.703C76.1247 171.347 72.7654 175.672 69.5875 179.48C68.7902 180.428 68.0144 181.351 67.2611 182.251C66.8795 182.702 66.5054 183.146 66.1364 183.585C65.7534 184.003 65.3781 184.412 65.0078 184.818C63.5291 186.431 62.1549 187.931 60.9029 189.299C55.8873 194.758 52.8203 198.095 52.8203 198.095C52.8203 198.095 55.6707 194.569 60.3323 188.804C61.4999 187.363 62.7796 185.784 64.1588 184.083C64.5027 183.659 64.8541 183.227 65.2118 182.787C65.5456 182.341 65.8845 181.883 66.2308 181.422C66.9261 180.487 67.6453 179.524 68.3796 178.536C71.3157 174.579 74.4104 170.103 77.5908 165.315C83.9679 155.746 90.5567 144.838 97.1215 134.352C103.67 123.861 110.262 113.818 116.277 105.865C119.305 101.903 121.931 98.5807 124.323 95.8928C125.516 94.5451 126.547 93.2905 127.603 92.2149C128.648 91.143 129.59 90.1782 130.442 89.304C131.302 88.4513 132.055 87.6641 132.766 87.0419C133.476 86.4133 134.102 85.8755 134.659 85.412C135.772 84.4862 136.597 83.864 137.207 83.4622C139.639 81.8538 138.603 83.7658 138.603 83.7658Z" fill="#FFCADE"/>
<path d="M150.534 71.9988C150.534 71.9988 147.813 75.1452 145.857 77.7537C145.368 78.4062 144.623 79.2853 143.513 80.4656C142.96 81.055 142.317 81.7188 141.571 82.4695C140.844 83.229 140.085 84.1069 139.188 85.0617C138.296 86.0227 137.301 87.0782 136.188 88.2357C135.082 89.4071 133.91 90.7801 132.588 92.2235C131.929 92.9515 131.239 93.7111 130.517 94.5033C129.793 95.2943 129.079 96.1621 128.308 97.0426C126.79 98.8261 125.086 100.688 123.331 102.808C119.775 107.021 115.849 111.67 111.702 116.585C110.656 117.815 109.597 119.061 108.526 120.323C107.436 121.571 106.332 122.836 105.221 124.109C103.018 126.643 100.778 129.221 98.5192 131.819C93.9847 137.025 89.3748 142.32 84.8416 147.528C83.7055 148.826 82.5732 150.12 81.4471 151.405C80.3173 152.687 79.2517 154.001 78.1622 155.281C75.9983 157.85 73.8709 160.374 71.7976 162.836C67.6386 167.75 63.7025 172.403 60.1379 176.615C56.6048 180.862 53.4408 184.666 50.7882 187.853C45.3142 194.08 41.9688 197.889 41.9688 197.889C41.9688 197.889 45.0635 193.884 50.1257 187.33C52.5793 183.995 55.4914 179.987 58.7902 175.562C62.1255 171.15 65.8072 166.278 69.6967 161.133C71.6477 158.562 73.653 155.922 75.6909 153.235C76.7175 151.899 77.7276 150.525 78.7932 149.191C79.8576 147.856 80.9282 146.509 82.0038 145.159C86.3178 139.767 90.7023 134.285 95.0163 128.898C96.097 127.553 97.1777 126.213 98.2471 124.883C98.7963 124.211 99.3404 123.541 99.8845 122.872C100.421 122.22 100.956 121.571 101.485 120.924C102.55 119.631 103.605 118.348 104.648 117.08C105.684 115.799 106.708 114.532 107.719 113.28C111.765 108.28 115.615 103.527 119.216 99.2985C120.983 97.1635 122.744 95.2691 124.315 93.4868C125.115 92.6064 125.857 91.7424 126.617 90.9514C127.382 90.1629 128.111 89.4084 128.812 88.6854C130.225 87.2521 131.469 85.9295 132.7 84.7795C133.939 83.6409 135.064 82.6219 136.084 81.7163C137.107 80.8182 138.008 79.997 138.84 79.3382C139.682 78.6971 140.426 78.1492 141.083 77.6769C142.4 76.736 143.371 76.1112 144.082 75.7132C146.924 74.1274 150.534 71.9988 150.534 71.9988Z" fill="#EC86AD"/>
<path d="M150.937 71.7949C150.937 71.7949 145.633 75.9804 143.563 78.4882C143.047 79.1155 142.259 79.9581 141.101 81.0829C140.531 81.6497 139.829 82.2644 139.094 82.9987C138.383 83.7469 137.574 84.5744 136.659 85.4914C135.753 86.4259 134.702 87.3832 133.597 88.5596C132.488 89.7373 131.27 91.0309 129.935 92.4517C129.597 92.8031 129.253 93.1646 128.901 93.5324C128.562 93.9153 128.214 94.3057 127.86 94.7088C127.147 95.5061 126.405 96.3361 125.631 97.2052C124.06 98.9119 122.43 100.847 120.64 102.914C117.067 107.051 113.173 111.718 108.986 116.607C104.752 121.51 100.236 126.542 95.6319 131.66C94.4794 132.94 93.3231 134.224 92.1631 135.513C90.9904 136.792 89.7838 138.051 88.5935 139.321C86.2028 141.855 83.8109 144.387 81.4392 146.901C79.085 149.43 76.6592 151.837 74.3139 154.243C71.9547 156.639 69.6384 158.994 67.3813 161.288C62.8267 165.831 58.4724 170.085 54.5463 173.954C50.5813 177.777 47.0281 181.203 44.053 184.071C38.0864 189.792 34.4375 193.287 34.4375 193.287C34.4375 193.287 37.8559 189.569 43.4446 183.486C46.2446 180.447 49.5887 176.816 53.322 172.765C57.0214 168.689 61.1074 164.187 65.4239 159.432C67.555 157.033 69.7442 154.568 71.9711 152.064C74.1891 149.551 76.4941 147.033 78.7135 144.419C80.958 141.823 83.2202 139.203 85.4824 136.587C86.6135 135.277 87.7445 133.968 88.8731 132.662C89.9802 131.33 91.0887 130.004 92.192 128.682C96.5929 123.404 100.922 118.216 105.029 113.291C109.089 108.328 112.923 103.599 116.551 99.3981C118.366 97.2972 120.032 95.3537 121.676 93.6243C122.489 92.7552 123.267 91.9201 124.012 91.1203C124.386 90.7223 124.754 90.3318 125.113 89.9489C125.488 89.5811 125.856 89.2209 126.216 88.8707C127.665 87.4751 128.984 86.2055 130.184 85.0492C131.403 83.9081 132.618 82.9559 133.657 82.0729C134.712 81.2001 135.657 80.4355 136.502 79.7692C137.353 79.1255 138.132 78.6457 138.806 78.196C140.16 77.3206 141.156 76.7412 141.882 76.3797C144.794 74.9249 150.937 71.7949 150.937 71.7949Z" fill="#FFCADE"/>
</svg>
