<svg width="339" height="232" viewBox="0 0 339 232" fill="none" xmlns="http://www.w3.org/2000/svg">
<path d="M115.568 231.082C179.256 231.082 230.885 179.453 230.885 115.764C230.885 52.0762 179.256 0.446777 115.568 0.446777C51.8795 0.446777 0.25 52.0762 0.25 115.764C0.25 179.453 51.8795 231.082 115.568 231.082Z" fill="#1F1F27"/>
<path d="M263.412 100.998C263.412 146.387 226.345 183.181 180.62 183.181C134.895 183.181 97.8281 146.387 97.8281 100.998C97.8281 99.5723 97.868 98.1069 97.9478 96.6811L253.797 62.5406C259.941 73.9868 263.412 87.0964 263.412 100.998Z" fill="#FFCADE"/>
<path d="M93.0958 161.891C103.547 161.891 112.02 153.418 112.02 142.967C112.02 132.515 103.547 124.043 93.0958 124.043C82.6444 124.043 74.1719 132.515 74.1719 142.967C74.1719 153.418 82.6444 161.891 93.0958 161.891Z" stroke="#FFCADE" stroke-width="11.8275" stroke-miterlimit="10"/>
<path d="M157.501 34.3799L154.354 30.0953L157.395 37.3993C159.208 41.1774 159.961 45.3762 159.576 49.5487L159.256 53.0222C158.543 60.7523 162.314 68.1984 168.942 72.2024C168.988 72.2299 169.035 72.1718 168.998 72.1333C164.349 67.2847 162.034 60.6575 162.651 53.969L162.881 51.4707C163.452 45.2827 161.513 39.1249 157.501 34.3799Z" fill="#FFCADE" stroke="#FFCADE" stroke-width="1.54477" stroke-linejoin="round"/>
<path d="M169.001 46.7423L167.157 44.2307L168.94 48.5124C170.002 50.7271 170.444 53.1885 170.218 55.6344L170.03 57.6706C169.612 62.2021 171.823 66.567 175.709 68.9142C175.735 68.9303 175.763 68.8962 175.741 68.8737C173.016 66.0314 171.659 62.1465 172.02 58.2256L172.155 56.7611C172.49 53.1337 171.354 49.5239 169.001 46.7423Z" fill="#FFCADE" stroke="#FFCADE" stroke-width="0.905558" stroke-linejoin="round"/>
<mask id="mask0_135_1027" style="mask-type:luminance" maskUnits="userSpaceOnUse" x="242" y="90" width="97" height="70">
<path d="M242.596 90.7454H338.637V159.905H242.596V90.7454Z" fill="white"/>
</mask>
<g mask="url(#mask0_135_1027)">
<path d="M282.434 138.394C284.765 133.323 283.47 128.576 281.023 124.041C280.281 122.674 278.709 122.462 277.164 122.222C263.051 119.968 261.702 116.532 258.674 111.129C255.414 105.31 255.315 102.558 251.725 101.717C250.001 101.32 248.429 100.064 246.454 100.951C246.106 101.108 244.739 100.877 244.668 99.667C244.597 98.5495 244.775 97.5058 245.91 97.044C247.544 96.3882 249.206 95.7786 250.992 95.8064C256.62 95.8895 257.441 91.8903 259.46 95.2522C264.4 103.491 259.299 98.6141 266.722 109.522C268.455 112.053 271.188 111.545 273.6 111.304C277.539 110.917 280.799 108.783 283.819 106.28C284.739 105.523 285.73 104.691 284.917 103.149C284.551 102.475 284.882 101.838 285.605 101.533C287.847 100.591 288.928 98.5864 289.785 96.4806C291.259 92.8785 293.617 100.249 297.994 94.4394C300.308 91.3638 304.077 90.745 307.123 93.0725C310.089 95.3353 312.938 97.7644 316.484 99.0667C317.744 99.5377 318.333 100.581 318.226 102.013C317.86 106.917 322.022 105.366 323.684 109.116C324.64 111.258 327.257 112.45 327.346 114.943C327.453 118.028 328.739 120.864 328.766 123.893C328.802 126.71 329.901 129.001 331.473 131.153C331.508 131.845 331.723 132.483 332.125 133.018C334.876 136.694 335.081 141.109 335.483 145.459C335.769 148.683 338.011 150.613 335.367 152.137C335.019 152.34 334.947 152.784 335.153 153.153C335.885 154.483 334.822 154.742 334.072 155.268C333.027 155.989 331.893 155.767 330.892 155.481C330.204 155.287 330.41 154.308 330.722 153.726C333.885 147.759 332.33 142.125 329.436 136.704C328.516 134.977 327.909 133.046 326.596 131.541C326.078 128.908 323.541 127.966 322.308 125.602C321.12 127.929 321.62 130.017 321.692 132.067C320.691 138.117 325.551 138.006 321.692 142.698C320.379 144.296 319.244 146.041 317.922 147.63C315.064 151.084 317.181 153.8 313.456 154.834C311.777 155.296 309.633 157.522 308.427 154.936C307.981 153.984 308.838 153.624 309.535 153.338C311.902 152.368 312.179 150.604 316.091 145.404C318.53 142.162 318.548 136.011 316.315 132.695C316.252 132.464 316.189 132.233 316.127 132.003L316.243 131.827L316.109 131.67C315.627 129.37 314.376 127.301 314.26 124.863C314.224 124.133 313.956 123.228 312.617 123.819C306.56 126.544 299.968 127.375 296.002 126.904C295.091 126.803 294.752 127.301 294.439 128.123C293.323 131.014 294.037 133.453 295.967 135.651C297.798 138.181 297.664 141.405 298.762 144.194C299.772 146.725 300.388 149.403 301.808 151.805C304.702 156.727 296.181 158.51 297.851 155.296C299.138 152.821 298.352 150.549 297.637 148.184C296.556 144.619 295.136 141.239 293.028 138.191C292.617 137.59 292.304 136.824 291.438 136.741C290.884 133.656 288.722 131.522 287.141 129.038C287.141 131.781 287.141 134.515 287.141 137.258C286.793 138.431 286.329 139.548 286.891 140.851C287.275 141.747 287.097 142.716 286.373 143.501C284.846 145.136 284.399 154.261 283.917 158.473C283.658 160.708 281.853 159.36 281.443 159.267C276.61 158.205 281.505 157.476 281.943 153.929C283.649 139.909 283.05 142.402 282.434 138.394Z" fill="#1F1F27"/>
</g>
<mask id="mask1_135_1027" style="mask-type:luminance" maskUnits="userSpaceOnUse" x="220" y="120" width="21" height="40">
<path d="M220.361 120.3H240.307V159.904H220.361V120.3Z" fill="white"/>
</mask>
<g mask="url(#mask1_135_1027)">
<path d="M231.188 132.759C230.706 130.774 230.152 129 228.589 127.596C227.776 126.876 227.186 125.841 228.544 124.789C229.66 123.92 229.294 122.914 228.204 122.341C224.819 120.577 220.362 122.646 221.023 123.782C221.916 125.315 221.085 127.781 223.256 128.548C224.256 128.899 224.292 129.536 224.06 130.284C222.854 134.246 223.095 138.366 222.729 142.42C224.149 151.157 224.212 152.802 225.534 154.427C226.472 155.572 226.891 157.226 225.15 158.399C224.783 158.648 224.426 159.008 224.489 159.572C228.785 160.08 229.08 159.876 229.098 155.508C229.107 154.058 229.464 153.319 230.956 153.439C233.099 153.614 234.645 152.802 235.681 154.723C236.458 156.182 235.404 156.81 234.913 157.697C236.297 159.193 237.548 158.168 238.629 157.447C239.799 156.671 238.95 155.572 238.62 154.639C232.93 138.125 232.099 136.5 231.188 132.759Z" fill="#1F1F27"/>
</g>
<path d="M261.417 114.887C260.048 125.835 249.1 146.499 232.678 141.573" stroke="#1F1F27" stroke-width="0.821109" stroke-linejoin="bevel"/>
</svg>
