<svg width="52" height="62" viewBox="0 0 52 62" fill="none" xmlns="http://www.w3.org/2000/svg">
<path d="M14.9184 60.7755C14.9184 60.7755 19.0807 47.5925 19.4512 46.8108C19.8217 46.0292 20.1086 43.9402 18.7916 45.6789C17.4753 47.4162 16.0653 50.8222 11.9801 51.9777C7.89349 53.1339 4.77498 49.2486 4.31507 48.4803C3.85443 47.7119 5.92839 49.4256 7.76877 49.301C9.60988 49.1764 13.7657 47.5032 12.5691 46.4075C11.3738 45.311 7.74642 45.9068 6.41065 46.3743C5.07632 46.8418 3.37794 46.1966 3.37794 46.1966C3.37794 46.1966 0.881571 43.3097 0.628545 41.2671C0.375519 39.2253 0.806607 36.8908 0.806607 36.8908C0.806607 36.8908 2.97787 39.0675 4.85141 39.889C6.72712 40.7097 11.0805 42.6085 11.4914 40.883C11.9015 39.1582 7.26344 37.7336 5.07415 36.6946C2.88487 35.6556 0.211871 34.1956 0.0179563 33.0128C-0.176679 31.8308 1.27517 25.6065 1.27517 25.6065C1.27517 25.6065 2.25122 25.8816 3.59132 28.0694C4.92997 30.2565 7.75363 33.3203 9.60771 34.481C11.4618 35.6424 15.0936 36.3687 12.2252 34.0031C9.35614 31.6369 5.11524 28.0008 4.36265 26.6654C3.61006 25.33 1.53035 23.2764 1.92322 21.8812C2.3161 20.4861 4.85284 16.1038 4.85284 16.1038C4.85284 16.1038 5.78781 16.5226 6.1641 17.8573C6.54112 19.192 7.53521 22.8723 8.62589 23.8073C9.71728 24.7423 11.3025 24.718 11.0242 23.036C10.7452 21.354 8.50623 17.8219 8.2359 16.909C7.96702 15.9961 6.79921 13.4617 7.67002 12.5061C8.54227 11.5497 12.6642 7.59067 12.6642 7.59067C12.6642 7.59067 12.9151 10.4429 13.2683 11.8587C13.6215 13.2759 13.6994 16.2063 14.6488 16.8405C15.5989 17.4739 17.019 16.7026 16.4221 15.0833C15.8252 13.464 13.8846 9.93556 13.8825 8.60531C13.8803 7.27506 14.3763 5.51492 15.5909 4.94123C16.8049 4.36754 18.9365 2.94217 18.9365 2.94217C18.9365 2.94217 18.7138 5.06659 18.9084 6.51703C19.1016 7.96747 19.5702 11.3786 21.0364 10.7128C22.5027 10.0454 22.9417 6.88056 22.8674 5.54441C22.7932 4.20753 22.8069 2.55431 23.7952 1.98136C24.7835 1.40841 28.0382 0 28.0382 0C28.0382 0 27.2921 3.45171 27.1674 5.76342C27.0434 8.07439 26.7666 10.6626 27.5156 11.4723C28.266 12.2812 30.3032 11.9884 29.8195 10.1C29.3365 8.21154 29.0871 4.82251 29.3264 3.70463C29.5658 2.58528 29.5867 0.640787 31.1286 0.50732C32.6705 0.373852 32.5711 1.33393 32.5711 1.33393C32.5711 1.33393 31.8351 4.40884 31.7723 6.23609C31.7089 8.06407 31.8661 12.3166 32.8652 13.0466C33.8614 13.7751 34.4338 13.0812 34.4648 11.0984C34.4972 9.11558 33.935 4.16624 34.6212 3.06679C35.3053 1.96735 36.6296 2.34194 38.3308 2.44149C40.0328 2.54251 41.1069 3.26958 41.4212 2.95102C41.7377 2.631 41.3895 4.13306 42.2711 4.74435C43.152 5.35564 45.8272 6.80239 45.6426 7.99549C45.4566 9.18858 44.074 10.8956 42.4398 11.8955C40.8034 12.8954 36.9792 14.4631 36.5395 15.4873C36.1012 16.5116 36.9432 16.9924 38.8318 16.1628C40.7198 15.3325 44.9318 12.3925 46.0232 10.9192C47.1161 9.44593 47.4426 8.81989 47.4426 8.81989C47.4426 8.81989 47.3878 10.8846 47.9004 11.4715C48.4115 12.0592 48.8563 12.6123 48.2046 13.5937C47.5515 14.5752 43.8477 17.8514 42.9112 18.2393C41.9756 18.6257 35.1078 21.1114 34.4871 21.9823C33.865 22.8546 34.6313 24.1406 36.8754 23.3862C39.118 22.6319 42.4189 20.2575 43.8563 19.4302C45.2923 18.6028 47.1975 14.2574 48.0647 14.5044C48.9319 14.7507 48.8181 17.0277 49.5137 17.5004C50.2065 17.9731 50.2598 19.1234 49.6701 20.4205C49.079 21.7175 47.1233 23.5875 46.2964 23.8523C45.4689 24.1162 42.434 25.5497 41.8782 26.1854C41.3232 26.8203 41.5603 28.3894 44.1879 27.0665C46.8162 25.7444 49.6413 23.7247 50.4667 22.932C51.2906 22.1386 51.6201 20.9676 51.7736 21.7618C51.9257 22.5567 51.9243 25.7673 51.9892 26.6042C52.0555 27.4419 51.8558 27.8821 50.3009 28.8665C48.7438 29.8502 46.1472 31.0588 45.6657 31.9694C45.1827 32.8794 45.6066 34.0503 47.1327 33.439C48.6587 32.8263 50.9763 30.7255 50.9763 30.7255C50.9763 30.7255 50.3795 32.1516 50.9439 33.5238C51.5098 34.8961 51.9099 36.8605 50.6902 37.8103C49.4712 38.7593 43.8404 39.7931 41.9229 39.9207C40.0069 40.049 38.209 40.56 38.6877 41.7966C39.167 43.0325 42.5486 42.242 43.7777 42.1505C45.0061 42.0591 48.2233 41.8526 48.4317 41.9153C48.64 41.9758 47.6827 44.3096 46.6872 45.7092C45.6902 47.1087 44.6067 48.5555 43.4548 48.3711C42.3043 48.1883 35.7451 46.6405 34.4259 46.2534C33.106 45.864 31.0327 44.9445 30.6723 46.2231C30.3133 47.5025 32.7592 48.6978 34.5383 48.7914C36.3167 48.8866 40.0306 48.5171 40.0306 48.5171C40.0306 48.5171 39.1663 51.5854 37.7469 52.6222C36.3268 53.6589 33.9847 54.7621 32.5905 54.1095C31.1942 53.4547 28.8333 50.8893 27.8688 50.5789C26.9021 50.2677 25.8778 52.0352 26.8481 52.8633C27.8184 53.6914 30.668 55.0607 30.668 55.0607C30.668 55.0607 27.8198 57.6954 25.433 55.2229C23.0448 52.7475 22.2612 49.6527 22.241 48.3866C22.2222 47.1198 22.9611 44.5817 21.9231 45.4231C20.8843 46.2644 18.1118 53.1737 17.6065 55.2406C17.0997 57.3053 16.1424 61.5055 16.1749 61.928C16.2044 62.3505 14.9184 60.7755 14.9184 60.7755ZM29.8728 13.5237C29.4165 13.0038 27.295 12.2613 27.4558 13.829C27.6165 15.3959 28.3049 16.4246 29.1239 17.2534C29.9435 18.0837 31.1538 17.5218 30.761 16.2483C30.3666 14.9763 29.8728 13.5237 29.8728 13.5237ZM24.2248 15.9541C23.6849 14.6939 22.6829 12.0784 21.678 12.1757C20.6716 12.2746 19.9349 13.8267 20.5952 16.0212C21.2563 18.2164 22.3051 19.032 23.4441 18.7282C24.5816 18.4266 24.5564 16.7298 24.2248 15.9541ZM26.5287 21.6644C25.6139 20.2376 23.9761 19.6049 23.6409 20.2125C23.3057 20.8201 23.6352 22.8597 24.9558 23.7778C26.2764 24.6958 27.783 23.6207 26.5287 21.6644ZM19.9825 24.1952C19.1701 23.3191 17.6937 19.6492 17.2223 18.9236C16.7494 18.1972 14.4145 17.406 15.2795 20.2133C16.1439 23.0198 17.8408 25.2762 18.8204 26.0718C19.8001 26.8652 21.2202 25.5276 19.9825 24.1952ZM15.769 29.3141C14.6459 28.5701 13.969 26.324 13.1681 25.7695C12.3679 25.2157 10.7128 24.6811 11.1605 26.5673C11.6067 28.4543 13.8414 30.401 14.7122 30.783C15.5823 31.1627 17.0723 30.1783 15.769 29.3141ZM19.8398 33.6485C18.4766 32.6316 17.2735 32.1007 17.1985 33.1669C17.1242 34.2325 18.8983 35.4116 19.6567 36.1917C20.415 36.9726 21.9425 36.3738 20.8915 35.0119C19.8398 33.6485 19.8398 33.6485 19.8398 33.6485ZM36.6015 28.3607C34.7517 29.0545 33.5825 30.0035 34.1462 30.6746C34.7085 31.3471 36.5798 30.5772 38.3719 29.8222C40.1647 29.0671 40.9663 28.323 40.4213 27.6188C39.4835 26.4051 38.4527 27.6668 36.6015 28.3607ZM38.6617 33.8719C36.0824 34.4869 33.6315 35.7095 34.5052 36.6113C35.3796 37.5131 37.69 36.5199 39.9117 35.8422C42.1334 35.1645 44.4272 34.374 43.7539 33.4147C42.6279 31.8057 41.2424 33.2576 38.6617 33.8719ZM30.8907 41.2893C31.1971 41.9175 32.0398 42.1638 34.0553 42.2213C36.0709 42.2752 37.5826 41.7125 36.9987 40.9125C35.7616 39.2179 30.5836 40.6581 30.8907 41.2893Z" fill="#FFCADE"/>
</svg>
