<svg width="75" height="56" viewBox="0 0 75 56" fill="none" xmlns="http://www.w3.org/2000/svg">
<path d="M29.8627 21.9856C30.1761 21.4843 30.5397 21.0275 30.8865 20.5543C31.0568 20.3141 31.2539 20.1005 31.4365 19.8729C31.6247 19.6509 31.8042 19.4198 31.9996 19.207C32.3902 18.7863 32.7842 18.342 33.1803 17.9517C33.3774 17.7514 33.574 17.5519 33.7707 17.3524C33.9681 17.154 34.1836 16.9636 34.3888 16.7698C36.0427 15.2309 37.7888 13.93 39.5494 12.9742C39.77 12.8579 39.9801 12.7222 40.2044 12.6253C40.4264 12.5246 40.6471 12.4243 40.865 12.3258C41.0835 12.2301 41.2953 12.124 41.5128 12.0412C41.7327 11.9652 41.9496 11.8903 42.1641 11.8158C42.3775 11.7428 42.5879 11.6706 42.7969 11.5992C43.0199 11.5338 43.2159 11.4897 43.4218 11.4358C43.8343 11.3438 44.2458 11.2587 44.6361 11.2108C46.2038 10.9865 47.5638 11.1066 48.5612 11.3465C47.5419 11.2807 46.2103 11.329 44.7083 11.6893C44.33 11.7729 43.9541 11.8857 43.559 12.0081C43.3647 12.0758 43.1492 12.1434 42.9635 12.2149C42.7664 12.2992 42.5677 12.384 42.3662 12.4703C42.1644 12.5554 41.9602 12.6417 41.7543 12.7295C41.5491 12.8233 41.35 12.94 41.1451 13.0449C40.9402 13.1528 40.7336 13.2615 40.5256 13.3717C40.3142 13.4766 40.1169 13.621 39.9103 13.7442C38.2616 14.7547 36.6074 16.0902 35.0538 17.6108C34.8598 17.8027 34.6628 17.9836 34.4695 18.1862C34.277 18.3895 34.084 18.594 33.8911 18.7981C33.494 19.2059 33.143 19.6182 32.7658 20.0332C32.5804 20.2396 32.4114 20.4638 32.2325 20.6782C32.0598 20.8979 31.8716 21.1042 31.7109 21.3349C31.3821 21.7894 31.035 22.228 30.7377 22.7046C30.5438 23.0102 30.3399 23.2834 30.1826 23.5643C30.0194 23.841 29.8665 24.1005 29.7232 24.3441C29.571 24.5828 29.4632 24.826 29.3462 25.0427C29.2316 25.2597 29.1249 25.4619 29.025 25.6523C28.839 26.0312 28.7025 26.3554 28.5667 26.626C28.5031 26.7639 28.4346 26.8802 28.3857 27.0014C28.3368 27.1162 28.291 27.2245 28.2462 27.3294C27.9007 28.1066 27.7447 28.1443 27.6028 28.0895C27.4608 28.0356 27.3589 27.8995 27.5186 27.0512C27.5419 26.938 27.5662 26.8213 27.5911 26.6982C27.6195 26.5689 27.6743 26.4245 27.7245 26.2668C27.8323 25.9548 27.9547 25.5728 28.1302 25.1487C28.226 24.9408 28.3279 24.7196 28.4374 24.4825C28.5516 24.2465 28.6597 23.9827 28.813 23.7269C28.9604 23.4658 29.1174 23.1888 29.284 22.8931C29.4478 22.5944 29.6585 22.3067 29.8627 21.9856Z" fill="#EC86AD"/>
<path d="M32.9465 20.1511C33.8283 19.2561 34.746 18.3914 35.7161 17.6066C36.1977 17.2011 36.6851 16.8332 37.163 16.4596C37.3983 16.2704 37.6514 16.0914 37.9046 15.9139C38.1556 15.7364 38.4074 15.5586 38.6574 15.3818C40.6663 14.0072 42.7655 12.9195 44.8148 12.2035C45.3333 12.045 45.8341 11.8656 46.3376 11.7372C46.8445 11.6239 47.3347 11.5049 47.8211 11.4092C48.0588 11.3696 48.2952 11.3313 48.5281 11.2925C48.7635 11.2583 49.0012 11.2336 49.2317 11.2055C49.4626 11.1743 49.6901 11.1595 49.9128 11.1447C50.1372 11.131 50.3554 11.1067 50.5723 11.1067C52.3 11.0493 53.7705 11.2374 54.8657 11.5061C53.7458 11.4286 52.286 11.4232 50.6075 11.6376C50.3975 11.657 50.1854 11.7011 49.9692 11.7326C49.7524 11.7672 49.5334 11.7995 49.3131 11.8481C49.0922 11.8937 48.8688 11.9397 48.6427 11.9861C48.4129 12.0416 48.1803 12.0982 47.9442 12.1552C47.4862 12.281 47.0159 12.4296 46.5363 12.5683C46.0588 12.7226 45.583 12.9259 45.0925 13.1053C43.1524 13.9042 41.1616 15.0371 39.2485 16.4209C39.0121 16.5965 38.7761 16.7721 38.5387 16.9476C38.3014 17.1221 38.0633 17.2973 37.8269 17.4949C37.3521 17.881 36.8716 18.2561 36.4187 18.6491C35.4907 19.4195 34.6085 20.2636 33.7585 21.1259C33.4873 21.4102 33.2328 21.6777 32.9933 21.9301C32.7624 22.19 32.5452 22.434 32.3414 22.6636C31.9241 23.1124 31.6066 23.5403 31.3053 23.8889C31.1524 24.0633 31.0245 24.2298 30.9082 24.3841C30.7905 24.5338 30.6814 24.6729 30.5781 24.8044C30.4772 24.9268 30.3828 25.0415 30.2935 25.1499C30.2124 25.2563 30.1358 25.3562 30.0626 25.4524C29.5009 26.1707 29.3258 26.1627 29.189 26.0608C29.0518 25.9594 28.9783 25.7834 29.3597 24.9317C29.4089 24.8257 29.4599 24.7082 29.5276 24.5802C29.6046 24.4487 29.686 24.3103 29.7739 24.1621C29.8697 24.0067 29.9716 23.8421 30.0807 23.6654C30.1922 23.4841 30.3174 23.2926 30.4628 23.1014C30.7536 22.7153 31.0717 22.2478 31.4927 21.7693C31.6997 21.5257 31.9176 21.262 32.158 20.9914C32.405 20.7272 32.6677 20.4475 32.9465 20.1511Z" fill="#EC86AD"/>
<path d="M38.8671 16.7211C40.9919 15.2519 43.1859 13.8928 45.5755 12.959C47.9316 12.0412 50.3492 11.5734 52.6044 11.5034C53.1691 11.4966 53.7222 11.4654 54.2627 11.5194C54.8041 11.5574 55.3316 11.5817 55.8334 11.6403C56.8712 11.7653 57.8105 11.9644 58.6937 12.1244C59.5731 12.2875 60.3886 12.4057 61.1353 12.4429C61.8809 12.4832 62.5548 12.4289 63.137 12.3266C62.5763 12.5273 61.9011 12.682 61.1387 12.7352C60.3766 12.7914 59.5317 12.7603 58.6324 12.6797C57.7369 12.601 56.7751 12.4813 55.7913 12.4349C55.281 12.4121 54.7689 12.4247 54.248 12.4209C53.726 12.4015 53.1934 12.465 52.653 12.5011C50.4919 12.6892 48.1997 13.2327 45.9747 14.1687C43.7773 15.0881 41.5909 16.4733 39.5389 17.8962C39.2105 18.1338 38.9013 18.3572 38.6099 18.5678C38.3198 18.7799 38.0571 18.9919 37.8043 19.1823C37.295 19.5563 36.8845 19.9208 36.509 20.2134C36.3198 20.359 36.1553 20.5015 36.0048 20.633C35.8529 20.7599 35.7123 20.8777 35.5803 20.9891C35.4517 21.0921 35.3316 21.1875 35.2187 21.2787C35.1141 21.3672 35.0149 21.4512 34.9205 21.531C34.1963 22.1235 34.0195 22.0703 33.8998 21.9312C33.78 21.7921 33.7407 21.593 34.3085 20.8181C34.3797 20.7215 34.459 20.6155 34.5517 20.5003C34.6557 20.3848 34.7652 20.2628 34.8842 20.1317C35.0111 19.9968 35.1465 19.8527 35.2919 19.6981C35.4417 19.5403 35.6059 19.3731 35.79 19.2089C36.1583 18.8772 36.5733 18.4751 37.0898 18.0722C37.3453 17.8677 37.6145 17.642 37.9117 17.4193C38.2114 17.2008 38.5295 16.9678 38.8671 16.7211Z" fill="#EC86AD"/>
<path d="M42.491 15.9029C43.3886 15.3898 44.3091 14.9144 45.2347 14.4617L45.9284 14.1269L45.9715 14.106L46.0207 14.0836L46.0426 14.0748L46.1305 14.0399L46.3077 13.9699L46.66 13.8308C46.8974 13.7408 47.1256 13.6408 47.3695 13.5602C47.6205 13.4877 47.8719 13.4154 48.1216 13.3432C50.1114 12.7937 52.057 12.6614 53.8538 12.5702C54.7438 12.5292 55.6068 12.4893 56.4322 12.452C57.248 12.4205 58.0269 12.3904 58.7626 12.3619C59.4909 12.3471 60.1599 12.3027 60.7715 12.2707C61.3807 12.2396 61.9308 12.2175 62.409 12.2042C61.94 12.2989 61.3982 12.3996 60.7917 12.5064C60.1859 12.6143 59.5155 12.7314 58.7931 12.8138C58.0628 12.9028 57.2894 12.9966 56.4801 13.0954C55.6592 13.1981 54.7965 13.2858 53.9048 13.379C52.1285 13.5663 50.2136 13.7867 48.3765 14.35C48.1493 14.4203 47.9215 14.4914 47.693 14.5624C47.4635 14.6441 47.2278 14.7532 46.9949 14.8471L46.644 14.9934L46.4681 15.066L46.3806 15.1029L46.359 15.112C46.4117 15.0884 46.3703 15.107 46.3806 15.1029L46.3748 15.1055L46.3645 15.1105L46.3228 15.1317L45.6414 15.4734C44.7343 15.9325 43.8326 16.4064 42.9539 16.9085C41.8128 17.5481 40.973 18.0931 40.3248 18.499C40.0029 18.7019 39.7461 18.8866 39.5138 19.0295C39.4026 19.0987 39.2976 19.1633 39.1977 19.226C39.1068 19.2864 39.0206 19.3438 38.9357 19.3993C38.3022 19.801 38.1644 19.7398 38.0799 19.6148C37.9951 19.4905 37.9807 19.326 38.5027 18.7616C38.5738 18.6867 38.647 18.6107 38.7247 18.5305C38.8126 18.4492 38.9121 18.3629 39.0229 18.2683C39.2439 18.084 39.5066 17.8529 39.8278 17.6173C40.4695 17.1483 41.3246 16.5573 42.491 15.9029Z" fill="#EC86AD"/>
<path d="M46.7823 14.8672C47.0276 14.7532 47.2821 14.67 47.5352 14.578C47.7894 14.4906 48.0401 14.3914 48.2966 14.3146C48.8152 14.174 49.3269 14.003 49.8533 13.9084C50.1194 13.8548 50.3647 13.7974 50.6489 13.7468L51.4182 13.6359C51.9238 13.5522 52.4553 13.5131 52.977 13.4664C55.0546 13.301 57.0748 13.3919 58.9359 13.6264C59.3987 13.6929 59.8547 13.7582 60.3014 13.8221C60.7423 13.9023 61.176 13.9798 61.6002 14.0558C62.4375 14.2166 63.2274 14.3709 63.9659 14.4875C65.4422 14.7144 66.7242 14.7437 67.7086 14.6453C66.7502 14.9113 65.4432 15.0439 63.9258 14.9542C63.1685 14.906 62.3609 14.817 61.515 14.7171C61.0933 14.6704 60.6613 14.6228 60.2221 14.5746C59.7791 14.5377 59.3289 14.5001 58.8706 14.4621C57.0361 14.3336 55.0584 14.3294 53.0632 14.5438C51.055 14.7612 49.0303 15.1583 47.1483 15.9629C46.8453 16.0936 46.56 16.2164 46.2908 16.3323C46.0274 16.463 45.7801 16.5854 45.5485 16.7002C45.3139 16.8085 45.1025 16.9278 44.9058 17.0396C44.7091 17.1471 44.5244 17.2478 44.3517 17.3429C44.0117 17.5333 43.737 17.7119 43.4924 17.8468C43.2496 17.9779 43.0485 18.1033 42.8815 18.201C42.2108 18.5841 42.0709 18.5142 41.9884 18.3812C41.9057 18.2481 41.8971 18.0775 42.4605 17.52C42.6004 17.3793 42.7758 17.2159 43.017 17.035C43.2544 16.8553 43.5345 16.6299 43.8797 16.4026C44.0558 16.292 44.2433 16.1746 44.4434 16.0484C44.6459 15.9211 44.8631 15.7869 45.1066 15.6657C45.3488 15.5395 45.607 15.4054 45.881 15.2625C46.1622 15.134 46.4629 15.0063 46.7823 14.8672Z" fill="#EC86AD"/>
<path d="M49.7253 15.1337C50.7279 14.868 51.7643 14.6734 52.7953 14.6077L53.5512 14.5457L54.327 14.526C54.5846 14.5226 54.8439 14.5081 55.0977 14.5146C55.3508 14.5218 55.6039 14.5279 55.857 14.5347C57.8738 14.6005 59.8177 14.8604 61.6114 15.1588C62.508 15.3081 63.372 15.4662 64.1878 15.6277C65.0115 15.8052 65.7766 15.9934 66.4919 16.1534C67.9193 16.4901 69.1555 16.6455 70.1197 16.6569C69.1671 16.8116 67.8888 16.8089 66.4269 16.6049C65.6952 16.5114 64.916 16.3867 64.105 16.2723C63.2807 16.1693 62.4183 16.0678 61.5211 15.969C59.7277 15.7729 57.8054 15.597 55.8403 15.5875C55.5943 15.5875 55.3481 15.5875 55.1011 15.5871C54.8548 15.5871 54.6123 15.6065 54.367 15.6148L53.6323 15.6464L52.877 15.7201C51.8895 15.7972 50.9198 15.9877 49.9651 16.2408C48.7324 16.5748 47.8064 16.9214 47.1001 17.1993C46.7447 17.3311 46.4471 17.4516 46.194 17.55C45.9391 17.6473 45.7294 17.7173 45.5526 17.7807C44.8504 18.0205 44.7265 17.9267 44.668 17.7834C44.6099 17.6401 44.6287 17.4748 45.255 17.0469C45.4089 16.9382 45.6107 16.8211 45.8587 16.682C46.1064 16.5425 46.403 16.384 46.7614 16.2206C47.4702 15.8801 48.4276 15.4856 49.7253 15.1337Z" fill="#EC86AD"/>
<path d="M52.8718 15.9569C53.8641 15.9169 54.839 15.9196 55.8248 15.9325C56.3129 15.9386 56.7989 15.9409 57.2994 15.9842C57.5474 16.0009 57.7943 16.018 58.0416 16.0348C58.2882 16.053 58.5294 16.0872 58.7726 16.1138C60.7121 16.3327 62.5718 16.728 64.2821 17.1635C65.1386 17.3775 65.9568 17.6116 66.7333 17.8332C67.5087 18.0566 68.2407 18.2904 68.9221 18.4773C69.6038 18.6757 70.2417 18.8099 70.8256 18.9171C71.1181 18.9585 71.3975 18.9927 71.6623 19.0246C71.9226 19.0391 72.1713 19.0527 72.4086 19.0649C72.1709 19.0896 71.9216 19.1151 71.6599 19.142C71.3938 19.1481 71.1082 19.1523 70.8075 19.1462C70.2079 19.112 69.5436 19.0463 68.8424 18.9098C68.136 18.7848 67.3945 18.613 66.6084 18.4469C65.8217 18.2824 64.9977 18.1022 64.1408 17.9377C62.4278 17.6009 60.5858 17.2889 58.6909 17.1278C58.4545 17.1092 58.2151 17.081 57.9787 17.0696C57.742 17.0586 57.5056 17.0476 57.2682 17.037C56.7982 17.005 56.3074 17.0104 55.8186 17.0119C54.8499 17.013 53.8644 17.018 52.9118 17.0563C50.4405 17.1612 49.2173 17.5755 48.5766 17.7727C48.2619 17.8605 48.0556 17.9274 47.9356 17.9194C47.8135 17.9152 47.7666 17.8609 47.7351 17.7936C47.7033 17.726 47.69 17.6523 47.7574 17.5394C47.8302 17.4273 47.9585 17.2695 48.2965 17.0598C48.6252 16.8511 49.1136 16.6026 49.8593 16.3897C50.6026 16.1792 51.5928 16.0123 52.8718 15.9569Z" fill="#EC86AD"/>
<path d="M56.0373 17.3467C59.3573 17.4641 62.7433 17.745 65.6994 17.7184C67.1781 17.6986 68.5402 17.6469 69.7329 17.4808C70.0281 17.4367 70.3165 17.412 70.5884 17.3592C70.8569 17.3072 71.1172 17.2566 71.3693 17.208C71.621 17.1711 71.8475 17.0848 72.0681 17.032C72.2836 16.975 72.4902 16.9203 72.6886 16.8674C72.4988 16.9507 72.3007 17.0373 72.0951 17.1278C71.8814 17.2125 71.6597 17.3303 71.4134 17.3984C71.1637 17.4774 70.9058 17.5587 70.6397 17.6424C70.3688 17.7252 70.0801 17.7796 69.7825 17.8529C68.6003 18.1319 67.2072 18.2873 65.7182 18.3903C62.7276 18.5841 59.307 18.3987 56.0124 18.2824C54.9472 18.2497 54.1399 18.2295 53.5171 18.1961C52.8911 18.1839 52.4563 18.1581 52.156 18.1212C51.5561 18.0475 51.49 17.932 51.4883 17.8027C51.4863 17.6735 51.5489 17.5553 52.1458 17.4596C52.4447 17.4117 52.8781 17.3691 53.5034 17.3338C54.1321 17.3201 54.9626 17.3136 56.0373 17.3467Z" fill="#EC86AD"/>
<path d="M64.5342 19.1177C65.6865 19.5434 66.7524 20.2229 67.7348 20.9294C68.7182 21.6397 69.6342 22.3732 70.5177 23.0033C70.7363 23.1652 70.9569 23.3112 71.1707 23.459L71.3308 23.5688C71.3732 23.5989 71.4365 23.6354 71.4882 23.6684C71.5959 23.7353 71.703 23.8018 71.8093 23.8679C72.228 24.1431 72.6357 24.3548 73.0137 24.5722C73.3965 24.7732 73.7611 24.9397 74.0915 25.0982C74.4295 25.2243 74.7343 25.3422 75.0004 25.4486C74.7254 25.3893 74.4086 25.3163 74.0525 25.2304C73.7067 25.1134 73.3229 24.9849 72.9183 24.8169C72.5195 24.6341 72.082 24.4468 71.6513 24.2058C71.5419 24.1473 71.4314 24.088 71.3199 24.0291C71.2621 23.9972 71.2125 23.9732 71.1464 23.9341L70.9788 23.8334C70.7544 23.6973 70.5222 23.5616 70.294 23.41C69.3712 22.8224 68.4226 22.1205 67.4389 21.4497C66.4565 20.7804 65.4266 20.1473 64.3419 19.7471C63.9951 19.6023 63.677 19.5285 63.4009 19.4369C63.1191 19.3761 62.8762 19.3085 62.6652 19.2674C62.4551 19.2329 62.2759 19.1994 62.124 19.1675C61.9739 19.1337 61.8377 19.1253 61.7341 19.1021C61.3103 19.0231 61.2686 18.9379 61.2716 18.8464C61.2747 18.7548 61.3226 18.6738 61.7505 18.6324C61.8589 18.6255 61.9858 18.6065 62.1511 18.6172C62.3159 18.6252 62.5109 18.64 62.7425 18.6613C62.972 18.6879 63.2306 18.7453 63.5316 18.8019C63.8251 18.8901 64.1668 18.9653 64.5342 19.1177Z" fill="#EC86AD"/>
<path d="M64.1744 18.7844C66.3615 19.1542 68.5089 19.9572 70.3437 20.7063C70.7935 20.8937 71.2344 21.0776 71.6623 21.2566C72.0755 21.4303 72.4795 21.5701 72.8557 21.7089C73.6113 21.9814 74.2479 22.3029 74.6525 22.6715C74.201 22.3774 73.5614 22.1463 72.7942 21.946C72.41 21.843 71.9937 21.7362 71.5593 21.5888C71.1229 21.4383 70.6741 21.2825 70.2157 21.1243C68.3526 20.4798 66.2161 19.7509 64.0926 19.3932C63.7505 19.3157 63.4506 19.3073 63.1848 19.2689C62.9286 19.2351 62.7008 19.2055 62.4894 19.1785C62.0775 19.1614 61.7933 19.1382 61.5959 19.1097C61.2019 19.0531 61.1605 18.9759 61.1602 18.8908C61.1602 18.806 61.2022 18.7289 61.5959 18.6749C61.7933 18.6472 62.0782 18.6259 62.4908 18.6111C62.6991 18.6225 62.943 18.643 63.2234 18.6673C63.5015 18.6993 63.8261 18.7061 64.1744 18.7844Z" fill="#EC86AD"/>
<path d="M65.7848 18.6453C67.5303 18.8441 69.243 19.5073 70.6516 20.2218C72.0656 20.9351 73.2129 21.6648 73.9162 22.1368C73.1554 21.7914 71.9579 21.1704 70.5298 20.5433C69.1045 19.9139 67.4215 19.3191 65.739 19.1291C65.4684 19.0888 65.2276 19.082 65.0162 19.0653C64.8031 19.0448 64.6225 19.0478 64.4641 19.0432C64.1494 19.028 63.9223 19.0337 63.7653 19.0261C63.452 19.0094 63.4147 18.9516 63.4106 18.8848C63.4058 18.8175 63.4349 18.7544 63.7417 18.6833C63.8956 18.6472 64.1159 18.6058 64.4532 18.5955C64.6201 18.5876 64.8137 18.5754 65.0333 18.5895C65.2533 18.6001 65.5043 18.6043 65.7848 18.6453Z" fill="#EC86AD"/>
<path d="M17.0527 56C17.0527 56 17.702 53.8276 17.7533 53.3514C17.8029 52.8688 17.8778 52.155 17.991 51.2501C18.2198 49.4396 18.6094 46.8556 19.3459 43.8243C19.7146 42.3095 20.1726 40.6851 20.748 39.0019C21.3254 37.3206 22.0119 35.5761 22.8543 33.8446C23.6883 32.1101 24.6768 30.3888 25.8189 28.755C26.3878 27.936 27.0079 27.1508 27.6513 26.3858C28.3064 25.6321 28.9905 24.9036 29.7129 24.2233C31.1598 22.8673 32.7367 21.6792 34.3905 20.7284C36.043 19.7767 37.7584 19.0379 39.4598 18.5032C41.1632 17.9707 42.8492 17.6393 44.4558 17.4436C46.0632 17.2539 47.5911 17.2076 48.9973 17.2273C49.3486 17.2372 49.6937 17.2475 50.0303 17.2566C50.3662 17.271 50.6939 17.2996 51.0144 17.3193C51.6544 17.3528 52.2588 17.428 52.8263 17.4865C53.9619 17.6203 54.9481 17.7697 55.7546 17.9221C56.5643 18.0578 57.194 18.2045 57.625 18.2953C58.0553 18.3876 58.2848 18.437 58.2848 18.437L58.1918 18.9486C58.1918 18.9486 57.9636 18.9026 57.5357 18.8171C57.1071 18.7331 56.4815 18.5959 55.6773 18.4728C54.8762 18.3318 53.8979 18.198 52.775 18.0813C52.212 18.0304 51.6144 17.9643 50.9826 17.9396C50.6659 17.9247 50.3423 17.9004 50.0105 17.8913C49.6784 17.8863 49.3397 17.881 48.9918 17.8761C47.6055 17.8761 46.1025 17.9418 44.5284 18.149C42.9542 18.3622 41.3086 18.7099 39.6541 19.2511C38.0006 19.7953 36.3419 20.5361 34.7493 21.4809C33.156 22.4249 31.6431 23.5955 30.2568 24.9264C29.5651 25.5941 28.9104 26.3079 28.2848 27.0463C27.6701 27.7961 27.0777 28.5638 26.5352 29.3657C25.4454 30.9654 24.5037 32.6494 23.7105 34.3478C22.9098 36.0424 22.2595 37.7523 21.7143 39.4009C21.1711 41.0515 20.7404 42.6454 20.396 44.1322C19.7081 47.1076 19.3541 49.644 19.1488 51.4215C19.0476 52.3116 18.9823 53.0124 18.9375 53.4947C18.8903 53.9823 18.8656 54.2423 18.8656 54.2423L17.0527 56Z" fill="#EC86AD"/>
<path d="M13.3133 41.5076C13.0872 41.2066 12.8611 40.9037 12.6347 40.6016L11.9348 39.7115C11.4751 39.1106 10.987 38.5371 10.5115 37.9518C10.031 37.3749 9.53429 36.8068 9.05096 36.2485C8.54643 35.6837 8.0436 35.1209 7.54318 34.5618C5.53873 32.3134 3.59551 29.9826 2.18556 27.4397C1.48298 26.1722 0.910717 24.8603 0.542323 23.5427C0.452705 23.2124 0.381558 22.8798 0.303569 22.5572C0.261154 22.3968 0.234133 22.2326 0.211215 22.0684C0.186587 21.9054 0.161958 21.7439 0.137672 21.5835L0.102099 21.3445L0.0846536 21.2255L0.0798649 21.1962L0.075418 21.1632L0.0740505 21.1487L0.0696036 21.0917C0.0583158 20.9397 0.0463447 20.7884 0.0347148 20.6383C0.0241111 20.4874 0.0100856 20.3423 0.00358657 20.1899C0.00221835 20.0321 0.0015335 19.8748 0.000165281 19.719C-0.00667583 18.4861 0.199242 17.3691 0.545403 16.4316C0.640494 16.2039 0.733876 15.9812 0.824521 15.7638C0.931584 15.5578 1.04515 15.3632 1.15016 15.1747C1.20557 15.082 1.25107 14.9858 1.31161 14.9015C1.37215 14.8179 1.43167 14.7354 1.49016 14.6537C1.60646 14.4952 1.71968 14.3409 1.82914 14.1912C1.75184 14.3633 1.67247 14.5408 1.59038 14.7232C1.54933 14.8141 1.50761 14.906 1.46485 14.9995C1.42175 15.0926 1.39404 15.1968 1.35744 15.2963C1.28835 15.4974 1.21754 15.7038 1.14468 15.9154C1.09201 16.1347 1.03865 16.3582 0.982892 16.5881C0.794761 17.509 0.747558 18.5594 0.877197 19.6422C0.89259 19.7764 0.908325 19.9117 0.924401 20.0477C0.946293 20.1887 0.977076 20.3377 1.00273 20.4844C1.03044 20.6315 1.05746 20.7801 1.08448 20.9302L1.09509 20.9861L1.09748 21.0005C1.09885 21.0066 1.09372 20.9701 1.09645 20.9883L1.09816 20.9952L1.10501 21.0218L1.13306 21.1278L1.18779 21.3407C1.22404 21.4832 1.26064 21.6261 1.29724 21.7709C1.33213 21.9149 1.36976 22.0597 1.42312 22.2007C1.52231 22.4854 1.61262 22.7761 1.71934 23.0642C2.15649 24.2161 2.7674 25.3551 3.49461 26.469C4.95245 28.7045 6.89738 30.8035 8.95963 32.9481C9.47716 33.4904 9.99709 34.0358 10.5197 34.5831C11.0458 35.1566 11.5654 35.7232 12.074 36.3116C12.5755 36.9052 13.0882 37.4901 13.5685 38.105L14.2964 39.0183C14.5317 39.3303 14.766 39.6419 15.0003 39.9524C15.6133 40.7498 16.1065 41.4996 16.5543 42.1472C16.9867 42.8096 17.3441 43.3983 17.6506 43.9091C18.2406 44.9691 18.6254 45.7273 18.805 46.2723C19.1933 47.3657 19.0209 47.6325 18.765 47.8126C18.5095 47.9924 18.2184 48.0505 17.4946 47.1924C17.1375 46.7473 16.649 46.1438 16.0084 45.2142C15.667 44.757 15.2887 44.2181 14.8495 43.5986C14.3935 42.9921 13.9071 42.2799 13.3133 41.5076Z" fill="#EC86AD"/>
<path d="M14.5808 38.9688C13.8132 37.8358 13.0405 36.6949 12.2699 35.5563C11.8861 34.9847 11.5033 34.4127 11.1219 33.8438C10.9307 33.5816 10.7511 33.3197 10.5534 33.056C10.352 32.793 10.1597 32.5266 9.95313 32.267C8.32734 30.1824 6.57704 28.2046 5.15032 26.1193C4.43645 25.0791 3.80228 24.0138 3.30254 22.9311C3.1835 22.6582 3.05865 22.3849 2.95193 22.1246C2.8476 21.8647 2.74465 21.6081 2.6434 21.3546C2.55104 21.0799 2.46655 20.7986 2.38309 20.5295C2.3376 20.3954 2.30647 20.2593 2.28047 20.1244C2.25174 19.9902 2.22369 19.8569 2.19564 19.7246C2.16999 19.5923 2.1375 19.4635 2.11834 19.332C2.10397 19.2001 2.08892 19.0694 2.07456 18.9394C2.0513 18.6798 2.00546 18.4309 2.01538 18.1793C2.0147 17.9319 2.01436 17.6891 2.01367 17.4511C2.02975 17.2144 2.05917 16.9852 2.08174 16.7625C2.0944 16.6519 2.10637 16.5428 2.11834 16.4345C2.1416 16.3289 2.16452 16.224 2.18743 16.121C2.23361 15.9176 2.27842 15.7196 2.32255 15.5262C2.43577 15.1507 2.56815 14.8102 2.67966 14.4951C2.63553 14.8353 2.57191 15.1925 2.52744 15.5737C2.51684 15.7664 2.50589 15.9644 2.49494 16.167C2.48913 16.2677 2.48331 16.3699 2.47716 16.4737C2.48229 16.5774 2.48673 16.6827 2.49118 16.7895C2.50178 17.0019 2.50555 17.2182 2.5206 17.4386C2.55104 17.6579 2.58183 17.8814 2.61364 18.109C2.63348 18.3374 2.70736 18.562 2.75628 18.7942C2.78364 18.909 2.81032 19.0257 2.83803 19.1427C2.86847 19.259 2.91328 19.373 2.95022 19.4897C2.98888 19.6056 3.02787 19.7223 3.06686 19.8401C3.1038 19.9587 3.14451 20.0765 3.19787 20.1867C3.29501 20.4117 3.39421 20.6405 3.49443 20.8723C3.62031 21.1122 3.74755 21.355 3.87651 21.6005C4.00615 21.8457 4.13921 22.0737 4.27158 22.315C4.82092 23.2625 5.48793 24.1989 6.2343 25.1308C7.72395 27.0006 9.53582 28.8325 11.2995 30.9266C11.5215 31.1854 11.7352 31.4613 11.9548 31.7288C12.1727 32.0009 12.3892 32.2959 12.6068 32.5798C13.0015 33.1403 13.3976 33.7032 13.7937 34.2664C14.5791 35.3891 15.3778 36.5201 16.1488 37.6747C17.1534 39.1584 17.8522 40.3753 18.3509 41.327C18.6003 41.8047 18.7884 42.2456 18.9451 42.6043C19.022 42.786 19.0922 42.9524 19.1469 43.1045C19.1958 43.2557 19.2375 43.3929 19.2721 43.5183C19.5481 44.5209 19.3778 44.744 19.1387 44.8839C18.9003 45.023 18.6379 45.0518 18.0489 44.2328C17.9754 44.1302 17.8963 44.0143 17.8125 43.8843C17.724 43.7578 17.6302 43.624 17.5293 43.48C17.3227 43.1831 17.1106 42.8282 16.8329 42.4033C16.2747 41.5512 15.5666 40.4255 14.5808 38.9688Z" fill="#EC86AD"/>
<path d="M15.7089 36.0804C15.5543 35.7802 15.3997 35.48 15.2447 35.1793C15.0881 34.8814 14.9188 34.6005 14.757 34.3094L14.2678 33.4421L14.0236 33.0077L13.9018 32.7904L13.8406 32.682L13.7831 32.5897C13.6012 32.3092 13.4199 32.0067 13.2399 31.7437C13.0569 31.4837 12.8859 31.2249 12.6954 30.9623C12.5021 30.6997 12.3085 30.4375 12.1159 30.1752C11.9172 29.9153 11.7188 29.6557 11.5215 29.3969C9.91995 27.3309 8.26269 25.3285 6.93141 23.2272C6.26748 22.176 5.67983 21.108 5.23139 20.0184C5.02547 19.462 4.82127 18.9246 4.69471 18.3675C4.65947 18.231 4.62424 18.0954 4.5897 17.9604C4.56096 17.8331 4.53223 17.7066 4.50418 17.5808C4.4474 17.3193 4.39541 17.0605 4.35163 16.8021C4.26509 16.2863 4.20283 15.7748 4.22849 15.2564C4.24456 14.998 4.27808 14.7338 4.38686 14.4784C4.49084 14.2253 4.69984 13.9878 4.93893 13.9152C5.17358 13.8346 5.39113 13.8567 5.58405 13.8962C5.77526 13.9448 5.9521 14.0076 6.11287 14.0881C6.43748 14.2439 6.71626 14.4305 6.9687 14.6115C6.68547 14.4997 6.37933 14.3834 6.05096 14.3051C5.88711 14.2626 5.71677 14.2405 5.54814 14.2322C5.38156 14.2306 5.21395 14.255 5.08841 14.3291C4.96014 14.3998 4.89207 14.5237 4.84761 14.6833C4.80451 14.8444 4.80211 15.047 4.81751 15.2541C4.85137 15.6741 4.96083 16.1282 5.09594 16.5934C5.16367 16.8264 5.2396 17.0631 5.31998 17.3037C5.3624 17.4288 5.40482 17.5546 5.4486 17.6811C5.49238 17.7985 5.53719 17.9167 5.582 18.0357C5.74243 18.5165 5.97776 18.9851 6.20659 19.4677C6.70428 20.4175 7.32785 21.3592 8.02359 22.3018C9.42021 24.1891 11.1366 26.0471 12.8418 28.0861C13.0539 28.3445 13.2666 28.6041 13.4794 28.8644C13.6891 29.132 13.8991 29.4003 14.1098 29.669C14.3198 29.9423 14.5285 30.2391 14.7375 30.5249C14.9434 30.813 15.1161 31.0893 15.3073 31.3724L15.387 31.4932L15.452 31.6069L15.5847 31.8319L15.8478 32.2834L16.3728 33.1886C16.5445 33.4912 16.7269 33.7918 16.889 34.0954C17.0474 34.4006 17.2047 34.7058 17.3627 35.0098C18.1854 36.5996 18.7576 37.7663 19.1811 38.6948C19.3836 39.1596 19.5858 39.5522 19.7369 39.8904C19.8898 40.2298 20.0061 40.5141 20.0917 40.7528C20.4323 41.7078 20.2836 41.9419 20.0612 42.1012C19.8389 42.2593 19.5858 42.3125 18.9523 41.5653C18.7946 41.3783 18.6126 41.1416 18.4009 40.844C18.1912 40.5441 17.9442 40.1964 17.6877 39.7373C17.1667 38.8388 16.5032 37.6147 15.7089 36.0804Z" fill="#EC86AD"/>
<path d="M17.0427 33.2088C16.7605 32.6079 16.477 32.0048 16.192 31.4012L15.264 29.6367L14.8142 28.7751C14.6446 28.4859 14.4753 28.1967 14.3063 27.9086C13.9724 27.3514 13.629 26.7912 13.2818 26.2322C11.8924 24.0024 10.4848 21.797 9.40839 19.5532C8.86897 18.4343 8.41164 17.3102 8.06206 16.2053C7.97963 15.9264 7.89446 15.6539 7.81886 15.3822C7.75284 15.107 7.68751 14.8353 7.62286 14.5673C7.50895 14.0672 7.37521 13.5712 7.25652 13.0756C7.13885 12.582 7.03589 12.0936 6.98322 11.6056C6.93601 11.1214 6.92233 10.6152 7.1108 10.1519C7.20418 9.92389 7.36632 9.72855 7.55137 9.61833C7.73676 9.50584 7.929 9.46289 8.10858 9.44883C8.46911 9.42793 8.78756 9.50698 9.07523 9.59211C8.77832 9.58147 8.45405 9.58261 8.14039 9.67116C7.98544 9.7179 7.83596 9.79049 7.71864 9.89767C7.60063 10.0041 7.5223 10.1458 7.48194 10.3127C7.40121 10.6494 7.45731 11.0656 7.55856 11.4863C7.66186 11.9104 7.81168 12.3501 7.97928 12.8085C8.14621 13.2653 8.33536 13.7464 8.51221 14.2698C8.59703 14.5126 8.68255 14.7596 8.76978 15.0093C8.86829 15.2548 8.96782 15.5034 9.06873 15.755C9.48809 16.7545 9.99946 17.7689 10.5851 18.7908C11.7528 20.8389 13.2254 22.8969 14.7075 25.0947C15.0769 25.6443 15.4464 26.2063 15.8158 26.7863C15.9923 27.071 16.1688 27.356 16.346 27.6414L16.3911 27.717L16.4219 27.7733L16.4838 27.8858L16.6073 28.1119L16.8549 28.5634L17.8401 30.3766C18.1442 30.9961 18.4352 31.6228 18.7301 32.2438C18.9189 32.6474 19.0988 33.0244 19.2599 33.3859C19.407 33.7587 19.5449 34.1083 19.6745 34.4371C19.9297 35.0942 20.1428 35.6673 20.3196 36.1659C20.4151 36.4152 20.4688 36.6455 20.5286 36.8595C20.5864 37.0727 20.6364 37.2696 20.6805 37.4512C20.7681 37.8142 20.8296 38.1152 20.8693 38.3656C21.0287 39.3667 20.8413 39.5601 20.5964 39.6635C20.3518 39.7661 20.0956 39.76 19.6153 38.8935C19.4953 38.6765 19.3612 38.4063 19.21 38.0703C19.1337 37.9024 19.054 37.7184 18.9692 37.5162C18.8823 37.3159 18.8002 37.0872 18.6897 36.8667C18.478 36.4145 18.242 35.8908 17.9793 35.2823C17.8493 34.9767 17.7118 34.6518 17.5644 34.3056C17.3998 33.9613 17.2274 33.596 17.0427 33.2088Z" fill="#EC86AD"/>
<path d="M18.3416 31.0437C18.0943 30.4497 17.8056 29.869 17.5412 29.2776C17.2584 28.6938 16.982 28.1063 16.6905 27.5252L16.2548 26.6537L16.2004 26.5447L16.1939 26.531C16.2175 26.5751 16.1983 26.5394 16.2024 26.5473L16.1987 26.5409L16.1843 26.5139L16.1552 26.4599L16.0386 26.2444L15.8067 25.8142C15.494 25.2533 15.1824 24.6946 14.8725 24.1386C13.6072 21.9062 12.3608 19.6722 11.4461 17.422C10.9857 16.3008 10.6122 15.1728 10.3642 14.0642C10.2931 13.791 10.2435 13.5135 10.1983 13.2388C10.1518 12.9651 10.0978 12.6991 10.0776 12.4277C10.0506 12.1651 10.0256 11.9059 9.99925 11.6513C9.9777 11.3963 9.95204 11.1591 9.92536 10.9265C9.86858 10.4481 9.80359 9.97338 9.78751 9.49604C9.77554 9.02592 9.80222 8.51969 10.0317 8.10392C10.2592 7.6908 10.6273 7.46582 10.956 7.37498C11.1205 7.31912 11.2857 7.30201 11.4396 7.27199C11.5943 7.26401 11.7451 7.25603 11.8912 7.24805C11.7513 7.29061 11.6079 7.3347 11.4602 7.37992C11.3179 7.44415 11.1667 7.49508 11.0271 7.57869C10.7391 7.72767 10.4891 7.97812 10.3755 8.29774C10.2575 8.61775 10.2842 9.01642 10.3509 9.43105C10.42 9.8491 10.5359 10.2922 10.6492 10.7677C10.7066 11.0132 10.7617 11.2629 10.8086 11.5061C10.8592 11.7486 10.9098 11.9945 10.9614 12.2442C11.0042 12.4889 11.0795 12.7318 11.1462 12.9792C11.2115 13.2266 11.2796 13.4763 11.3692 13.7241C11.6897 14.7244 12.1186 15.7433 12.6279 16.7698C13.6394 18.8293 14.9498 20.9142 16.2962 23.1048C16.6314 23.6514 16.971 24.2157 17.3049 24.7873L17.5474 25.2111L17.6688 25.4231L17.741 25.5527L17.7991 25.6626L18.2609 26.5413C18.5684 27.128 18.8616 27.7289 19.1571 28.3256C19.4369 28.9352 19.7359 29.5292 19.9945 30.1502C20.6994 31.7312 21.1215 33.0162 21.4112 34.0069C21.5553 34.5048 21.6428 34.9574 21.7205 35.3253C21.7571 35.5108 21.7902 35.6814 21.8121 35.8342C21.8275 35.984 21.8388 36.1196 21.8457 36.2432C21.9028 37.2271 21.7034 37.3901 21.4574 37.4608C21.2115 37.5311 20.9659 37.4943 20.5866 36.6027C20.539 36.4909 20.4901 36.3655 20.4381 36.2264C20.3806 36.0908 20.3204 35.9471 20.2551 35.7924C20.121 35.4755 19.9972 35.1026 19.82 34.6534C19.4615 33.7531 19.0203 32.5662 18.3416 31.0437Z" fill="#EC86AD"/>
<path d="M19.2369 28.6581C18.8579 27.3937 18.4468 26.1505 18.0113 24.9298C17.9005 24.6269 17.7763 24.335 17.6611 24.0367L17.4849 23.592L17.4415 23.4807C17.4363 23.4644 17.4114 23.4111 17.3973 23.3785L17.2975 23.1523L17.0984 22.7016L16.8972 22.2816C16.7679 22.0038 16.6246 21.7176 16.4803 21.4315C15.3293 19.1481 14.1013 16.9074 13.1928 14.6544C12.7382 13.5287 12.3561 12.4026 12.1033 11.2845C12.0493 11.0022 11.9959 10.7232 11.9429 10.4477C11.9056 10.1672 11.8796 9.88747 11.8495 9.61574C11.8304 9.48082 11.829 9.34248 11.829 9.20528C11.828 9.06885 11.8266 8.93317 11.8259 8.79901L11.8246 8.5991L11.8242 8.50789L11.828 8.41478C11.8317 8.29088 11.8362 8.16775 11.84 8.04613C11.8564 7.56461 11.8632 7.08043 11.9251 6.60347C11.9607 6.36403 12 6.12612 12.09 5.89429C12.1632 5.66132 12.3164 5.44774 12.4861 5.28697C12.5846 5.22845 12.6759 5.15054 12.7768 5.12127C12.8774 5.09467 12.9746 5.04602 13.0707 5.04906C13.1664 5.04412 13.2612 5.02778 13.3508 5.03766C13.4391 5.04792 13.527 5.05743 13.6135 5.06769C13.7821 5.09885 13.9409 5.14484 14.0924 5.18854C14.2395 5.24403 14.3821 5.29838 14.521 5.35044C14.3763 5.33334 14.2275 5.31548 14.0749 5.29686C13.921 5.29002 13.7627 5.28089 13.6026 5.28659C13.2851 5.298 12.9434 5.38351 12.7389 5.61344C12.5473 5.85401 12.4912 6.23254 12.4916 6.65363C12.4919 7.07625 12.5401 7.53345 12.5802 8.02751C12.5897 8.14989 12.5993 8.27302 12.6089 8.39692L12.6161 8.49003C12.6198 8.53602 12.6233 8.55312 12.6267 8.58618L12.6475 8.76291C12.6612 8.88072 12.6746 8.9993 12.6883 9.11863C12.7006 9.23797 12.7132 9.35806 12.7437 9.47892C12.795 9.71987 12.8466 9.96348 12.8993 10.2109C12.9701 10.4553 13.0423 10.7031 13.1148 10.9531C13.437 11.9496 13.8735 12.9678 14.3783 14.0019C15.3891 16.0758 16.6941 18.1843 17.9556 20.4794C18.1129 20.7664 18.2706 21.0556 18.4266 21.365L18.6612 21.8222L18.8723 22.2661L18.9776 22.4888C18.9968 22.531 19.0088 22.5511 19.0344 22.6119L19.0847 22.7297L19.2845 23.2021C19.4155 23.5179 19.5554 23.833 19.6785 24.1511C20.1601 25.4262 20.5979 26.7164 20.9828 27.9987C21.489 29.6584 21.8252 30.9259 22.0688 31.9018C22.3164 32.866 22.4423 33.5376 22.5234 34.0293C22.6701 35.0053 22.4864 35.1915 22.248 35.29C22.0093 35.388 21.7609 35.38 21.3012 34.5333C21.0679 34.1187 20.8008 33.4543 20.4574 32.4977C20.1221 31.5472 19.7332 30.2851 19.2369 28.6581Z" fill="#EC86AD"/>
<path d="M20.3087 26.6062C20.1031 25.9601 19.916 25.3049 19.6988 24.6596L19.0571 22.7183C18.635 21.4185 18.1657 20.178 17.6937 18.9091C16.7516 16.3821 15.8407 13.8647 15.2661 11.3924C14.976 10.1599 14.7643 8.93809 14.7058 7.74701C14.6767 7.45323 14.6839 7.15528 14.6856 6.86454C14.6867 6.71936 14.6877 6.5757 14.6884 6.43204C14.6935 6.28838 14.7123 6.14472 14.7239 6.00297C14.7711 5.42339 14.845 4.93047 14.9319 4.41398C15.0212 3.90623 15.1259 3.40799 15.3078 2.93977C15.3995 2.7068 15.5127 2.48029 15.6636 2.2819C15.8134 2.08428 16.0077 1.91591 16.2239 1.82964C16.439 1.74185 16.6589 1.73083 16.8553 1.75667C17.053 1.78404 17.2298 1.84979 17.3954 1.91971C17.7221 2.07135 17.9964 2.26518 18.2396 2.45749C17.9629 2.33207 17.6612 2.20931 17.3369 2.13634C17.0161 2.06907 16.6566 2.05691 16.3884 2.23402C16.1206 2.40504 15.9577 2.75316 15.8589 3.16058C15.7597 3.57027 15.7169 4.03431 15.6889 4.52267C15.6625 5.00534 15.6417 5.55033 15.654 6.04629C15.656 6.17361 15.6509 6.29978 15.6595 6.42938C15.6714 6.55898 15.6827 6.68971 15.6947 6.82121C15.7186 7.08307 15.7351 7.34796 15.7864 7.61742C15.9348 8.69334 16.2194 9.81372 16.5741 10.9588C17.2767 13.2547 18.2796 15.6422 19.3071 18.1284C19.8175 19.3682 20.3484 20.6695 20.7982 21.9753L21.4761 23.9398C21.7029 24.5942 21.8979 25.262 22.1069 25.9206C22.2382 26.3478 22.3614 26.7506 22.4777 27.1295C22.5909 27.5096 22.6815 27.8775 22.7725 28.2172C22.9493 28.8998 23.0954 29.4927 23.2144 30.0088C23.4385 31.038 23.5209 31.7544 23.5603 32.264C23.628 33.2806 23.4231 33.4524 23.1693 33.5277C22.9158 33.6029 22.6613 33.5679 22.2611 32.6494C22.0569 32.1948 21.8356 31.5001 21.524 30.523C21.3636 30.0388 21.1867 29.479 20.9924 28.8303C20.8926 28.5061 20.7982 28.1595 20.6812 27.7893C20.5645 27.4176 20.4407 27.0243 20.3087 26.6062Z" fill="#EC86AD"/>
<path d="M22.2145 24.4977C21.906 23.2253 21.5495 21.9453 21.1958 20.6554L20.9301 19.6871L20.9133 19.6263L20.9051 19.5955L20.901 19.5807C20.9178 19.6384 20.9041 19.5928 20.9078 19.6035L20.9058 19.5959L20.8695 19.4765L20.797 19.2394L20.6516 18.7932C20.4474 18.1828 20.2261 17.566 20.0058 16.9511C19.1206 14.4872 18.2525 12.0382 17.7072 9.63173C17.4401 8.42735 17.241 7.23324 17.2325 6.05014C17.2311 5.45917 17.2779 4.86971 17.4206 4.30306C17.4486 4.16168 17.504 4.02296 17.5471 3.88576C17.5889 3.75541 17.6357 3.64633 17.6799 3.527C17.7192 3.4145 17.7763 3.28642 17.8328 3.16177C17.8861 3.03559 17.9453 2.91626 18.0106 2.80452C18.2586 2.34998 18.5819 1.93155 18.9975 1.67083C19.41 1.40442 19.8933 1.35045 20.287 1.44661C21.0813 1.65221 21.6159 2.1535 22.0359 2.58903C21.542 2.26827 20.9232 1.91483 20.2412 1.87416C19.9036 1.85858 19.5724 1.96575 19.3063 2.20176C19.0371 2.43511 18.8264 2.7859 18.665 3.19141C18.6215 3.29175 18.5846 3.39512 18.5542 3.49963C18.5206 3.60263 18.4864 3.70448 18.456 3.83256C18.4262 3.95265 18.3879 4.08073 18.3643 4.19702C18.3441 4.30724 18.311 4.41061 18.3014 4.52767C18.2354 4.98144 18.2395 5.47779 18.2867 5.98972C18.3848 7.01813 18.651 8.10811 18.9807 9.22128C19.6504 11.4544 20.6099 13.7834 21.5817 16.2157C21.8242 16.8264 22.0677 17.4436 22.301 18.0848L22.4765 18.5815L22.5559 18.8206L22.5945 18.9395L22.6397 19.0893L22.9232 20.0489C23.3005 21.3334 23.6761 22.6363 23.9969 23.9596C24.4286 25.663 24.625 27.0315 24.7313 28.0778C24.7655 28.334 24.7666 28.5954 24.7761 28.8261C24.783 29.0587 24.7867 29.2715 24.7874 29.4661C24.7874 29.6603 24.7871 29.8382 24.7796 29.9952C24.7628 30.1457 24.7447 30.281 24.7255 30.4029C24.5719 31.3782 24.3428 31.4853 24.0876 31.4891C23.8328 31.4929 23.6005 31.3926 23.4199 30.4219C23.3977 30.3007 23.3758 30.1658 23.3546 30.0161C23.3248 29.8713 23.2926 29.7185 23.2584 29.5547C23.2259 29.3875 23.1935 29.2047 23.1603 29.007C23.125 28.8071 23.1042 28.5985 23.0481 28.3556C22.8579 27.3971 22.6315 26.1422 22.2145 24.4977Z" fill="#EC86AD"/>
<path d="M23.1507 23.1117C22.9574 21.8932 22.7628 20.6657 22.5682 19.4404C22.4809 18.914 22.3226 18.3193 22.1738 17.7382C22.0164 17.151 21.8587 16.5661 21.7024 15.9842C21.0669 13.6439 20.4597 11.3229 20.1228 9.07608C19.9586 7.95304 19.8519 6.84709 19.9039 5.76851C19.9306 5.23074 19.9949 4.69905 20.132 4.18979C20.2015 3.93173 20.2884 3.69534 20.4019 3.44603C20.4536 3.34456 20.5052 3.24384 20.5565 3.14389C20.614 3.03976 20.6718 2.93638 20.7289 2.83377C20.9636 2.437 21.2297 2.06683 21.555 1.77799C21.8786 1.48878 22.2689 1.30673 22.641 1.26683C23.0132 1.2235 23.3573 1.29001 23.6525 1.40327C23.8047 1.44773 23.9391 1.52792 24.0729 1.58645C24.2039 1.65638 24.3253 1.73163 24.443 1.80042C24.3133 1.76203 24.1796 1.72289 24.0431 1.68222C23.9025 1.65714 23.7626 1.61001 23.6131 1.60013C23.3196 1.55414 23.0039 1.56213 22.706 1.65562C22.4077 1.74759 22.1351 1.93647 21.9066 2.20821C21.6778 2.48033 21.4883 2.82693 21.321 3.2085C21.2817 3.30389 21.242 3.40005 21.202 3.49696C21.1623 3.60261 21.1226 3.70865 21.0823 3.8162C21.0268 3.99254 20.9711 4.20233 20.9383 4.41212C20.8698 4.83663 20.8558 5.29839 20.875 5.77611C20.9123 6.73346 21.0891 7.75655 21.3173 8.80701C21.7818 10.9136 22.484 13.1381 23.1982 15.4488C23.3764 16.0276 23.556 16.6128 23.7287 17.2099C23.8984 17.8111 24.0746 18.4021 24.2045 19.0934C24.4088 20.3134 24.6133 21.5345 24.8172 22.7472C25.0669 24.3187 25.2632 25.5235 25.3792 26.4512C25.4972 27.3781 25.5468 28.0272 25.5481 28.4833C25.5509 29.3954 25.359 29.5353 25.1291 29.5858C24.8989 29.6368 24.6742 29.5889 24.3704 28.7436C24.2189 28.321 24.0469 27.6993 23.8444 26.7906C23.6443 25.8807 23.4014 24.6889 23.1507 23.1117Z" fill="#EC86AD"/>
<path d="M24.555 21.382C24.0803 18.8331 23.5908 16.2301 23.2029 13.6632C22.8215 11.0949 22.5089 8.56374 22.5198 6.13332C22.5267 5.52487 22.554 4.92325 22.6303 4.32657C22.709 3.73141 22.8208 3.13815 23.0616 2.56352C23.1837 2.27886 23.339 1.99725 23.5535 1.7525C23.769 1.51002 24.0426 1.30898 24.3539 1.23449L24.437 1.21244L24.4791 1.20142L24.5379 1.19344C24.6159 1.18394 24.6943 1.17596 24.7719 1.16988L24.8868 1.16266L24.9836 1.17064L25.1762 1.18736C25.4249 1.22195 25.6585 1.27933 25.8761 1.35306C26.7473 1.6495 27.4553 2.08048 28.0864 2.48485C28.7151 2.89302 29.2515 3.29854 29.7191 3.64894C29.1909 3.42699 28.5937 3.14348 27.9236 2.86186C27.2566 2.58366 26.5078 2.28228 25.7146 2.13292C25.5169 2.0953 25.3182 2.07668 25.127 2.07554L24.986 2.08238L24.9149 2.08466L24.8625 2.09758C24.8283 2.10556 24.7941 2.11164 24.7596 2.11544L24.7339 2.11848L24.6943 2.13482L24.6135 2.16751C24.3395 2.2667 24.1398 2.58898 24.0067 3.00666C23.873 3.42699 23.8131 3.93246 23.7871 4.45503C23.7608 4.97987 23.7752 5.53247 23.8076 6.09684C23.9499 8.36117 24.3744 10.8155 24.8352 13.3246C25.3226 15.8508 25.8213 18.434 26.3122 20.98C26.9368 24.2978 27.0794 26.1471 26.9782 27.1573C26.9535 27.4096 26.9156 27.608 26.8714 27.7608C26.8236 27.9212 26.774 28.0378 26.7165 28.1025C26.604 28.2408 26.4853 28.2602 26.3611 28.2549C26.2373 28.2488 26.1203 28.218 26.0184 28.0698C25.9688 27.9903 25.9144 27.9048 25.8678 27.7806C25.8169 27.6487 25.7669 27.4799 25.7122 27.2603C25.4967 26.3816 25.1752 24.6797 24.555 21.382Z" fill="#EC86AD"/>
<path d="M25.8299 19.4803C25.4126 16.9248 25.0305 14.3082 24.8048 11.7212C24.6929 10.4279 24.6194 9.14105 24.6153 7.87321C24.6132 6.60574 24.6748 5.35424 24.8838 4.14188C24.9885 3.53646 25.1345 2.93979 25.3545 2.36781C25.571 1.79964 25.8713 1.24476 26.2992 0.809988C26.4022 0.698634 26.5209 0.604382 26.6368 0.510509L26.8219 0.386613L26.8684 0.356209L26.919 0.326186L26.9293 0.322005L26.9498 0.312884L27.0312 0.276399C27.1451 0.229273 27.2306 0.177587 27.3883 0.137302C27.5282 0.100817 27.6794 0.0445693 27.8029 0.0388685C28.3208 -0.0432221 28.8034 0.0149253 29.2447 0.118299C29.6876 0.219392 30.0947 0.368751 30.4675 0.543954C30.8448 0.711556 31.1858 0.913362 31.5029 1.11137C32.1326 1.5203 32.6536 1.95964 33.0565 2.39099C32.5756 2.07403 32.0006 1.76315 31.3435 1.4861C31.0121 1.3546 30.6649 1.22082 30.2951 1.12201C29.9271 1.0156 29.5392 0.936925 29.1427 0.90386C28.748 0.866996 28.3382 0.878778 27.964 0.990132C27.8607 1.00647 27.7995 1.0536 27.7157 1.07906C27.6473 1.09351 27.5306 1.17294 27.4307 1.2288L27.3528 1.27479L27.3333 1.28619L27.323 1.29189C27.4 1.24742 27.3425 1.28125 27.3589 1.27213L27.3552 1.27517L27.3274 1.29873L27.2173 1.3907C27.1496 1.46215 27.0781 1.52866 27.0169 1.61189C26.5069 2.25494 26.2572 3.28487 26.146 4.36383C26.0334 5.45191 26.0413 6.62246 26.1046 7.82266C26.1686 9.02475 26.2907 10.2607 26.4419 11.5122C26.746 14.0167 27.1663 16.5843 27.5819 19.1265C28.1285 22.4135 28.3102 24.21 28.2554 25.1905C28.2301 25.6755 28.1556 25.9681 28.0594 26.1182C27.9626 26.2684 27.8474 26.3029 27.7249 26.3128C27.6028 26.3227 27.4841 26.3071 27.3681 26.1737C27.2522 26.0396 27.139 25.8153 27.0069 25.3695C26.7473 24.4871 26.3796 22.7841 25.8299 19.4803Z" fill="#EC86AD"/>
<path d="M27.6719 18.1972C27.4698 15.6847 27.3128 13.1084 27.3784 10.5662C27.413 9.29534 27.5033 8.03244 27.7061 6.79804C27.9141 5.56896 28.2178 4.35014 28.8014 3.2632C29.0887 2.72163 29.466 2.22528 29.9151 1.83269C30.3711 1.44846 30.8985 1.18015 31.4243 1.07411C31.5563 1.04523 31.6863 1.02167 31.8159 1.01141L31.9124 1.00115L31.9603 0.996585L32.016 0.993164L32.027 0.993544L32.0489 0.994684L32.2189 1.00343C32.3228 1.00343 32.4662 1.02737 32.5996 1.05055C32.7384 1.06917 32.8547 1.10376 32.9704 1.13758C33.4356 1.27516 33.8518 1.46329 34.2332 1.67383C35.7523 2.52438 36.8482 3.50947 37.7345 4.20344C36.7292 3.75308 35.4776 2.97588 33.9678 2.38566C33.5919 2.23935 33.1971 2.12305 32.8021 2.05806C32.7022 2.04096 32.602 2.02462 32.5178 2.02576C32.4289 2.02196 32.3495 2.00942 32.2257 2.0231L32.055 2.03374L32.0335 2.03488L32.0229 2.03564C32.0116 2.03602 32.1026 2.03108 32.0619 2.03374L32.0578 2.0345L32.0205 2.04324L31.9473 2.06034C31.8484 2.07821 31.7523 2.10785 31.6579 2.13977C31.2748 2.26215 30.9307 2.48942 30.6307 2.78852C30.3365 3.09902 30.0824 3.48325 29.8843 3.93361C29.4804 4.82786 29.2642 5.91556 29.1335 7.04545C29.0056 8.1799 28.9687 9.37325 28.9758 10.5868C28.9943 13.0175 29.1906 15.5327 29.3918 18.0247C29.6654 21.2479 29.7034 23.009 29.5638 23.9542C29.4985 24.4213 29.401 24.6995 29.2943 24.8299C29.1879 24.9644 29.0737 24.9853 28.9546 24.9815C28.8353 24.9781 28.7227 24.95 28.6228 24.8086C28.5226 24.6634 28.4327 24.438 28.3437 23.9949C28.1717 23.1193 27.948 21.4459 27.6719 18.1972Z" fill="#EC86AD"/>
<path d="M29.9152 16.3867C29.9097 15.0698 29.922 13.7297 30.0045 12.3821C30.0842 11.0359 30.2405 9.67575 30.5483 8.34406C30.8476 7.01541 31.3351 5.70576 32.0718 4.58271C32.8049 3.45548 33.83 2.59999 34.8931 2.09415C35.1596 1.96797 35.4325 1.87524 35.6973 1.76844C35.9679 1.69471 36.236 1.62174 36.5018 1.54916C36.7683 1.50507 37.032 1.46212 37.293 1.41918L37.3419 1.4112C37.3836 1.40436 37.3805 1.40702 37.4018 1.40436L37.4941 1.39676L37.6781 1.38117C37.8002 1.37129 37.9224 1.36103 38.0428 1.35115C38.2805 1.32493 38.537 1.32683 38.783 1.32303C39.0293 1.32265 39.2752 1.3101 39.5071 1.32721C39.9754 1.34697 40.4265 1.37167 40.8582 1.42146C42.5887 1.59932 44.0308 1.90336 45.1425 2.13291C44.013 2.19258 42.536 2.15761 40.8384 2.22336C40.4139 2.234 39.9778 2.26859 39.5297 2.30507C39.3022 2.3161 39.0853 2.35562 38.8599 2.38146C38.6355 2.41111 38.4136 2.43163 38.17 2.4856C38.0517 2.50802 37.9309 2.5312 37.8098 2.55439L37.6282 2.58897L37.5365 2.60645C37.5269 2.60873 37.4924 2.61329 37.503 2.61443L37.4606 2.62546C37.2331 2.68664 37.0026 2.74783 36.771 2.8094C36.547 2.89301 36.3209 2.97738 36.0937 3.06251C35.8782 3.17501 35.6535 3.27078 35.4411 3.39316C34.5955 3.89064 33.8474 4.60589 33.3063 5.54081C32.7645 6.47498 32.393 7.58358 32.1676 8.77503C31.935 9.96345 31.8187 11.2203 31.7654 12.498C31.7099 13.7761 31.7082 15.0751 31.7137 16.376C31.7247 18.0604 31.7151 19.3685 31.6535 20.3745C31.5913 21.3843 31.4992 22.0749 31.3792 22.5685C31.269 23.0607 31.1373 23.2899 31.02 23.4259C30.8989 23.5563 30.7796 23.5673 30.6557 23.5529C30.5326 23.5384 30.4173 23.4989 30.3236 23.3431C30.2261 23.193 30.1683 22.903 30.1119 22.4485C30.0653 21.9977 30.0257 21.317 29.9959 20.3468C29.9658 19.3716 29.9254 18.0893 29.9152 16.3867Z" fill="#EC86AD"/>
<path d="M31.9804 16.0811C31.9903 13.7868 31.8918 11.3868 32.2629 8.98486C32.3693 8.38591 32.4873 7.78771 32.685 7.20509C32.7681 6.91207 32.8964 6.62856 33.0076 6.34618C33.0708 6.2067 33.1437 6.07102 33.2118 5.93459L33.3157 5.73126L33.4372 5.53782C33.7409 5.00917 34.1552 4.56755 34.5807 4.18218C34.8095 4.01458 35.0233 3.82037 35.2672 3.6961C35.3859 3.62769 35.5039 3.55966 35.6215 3.49239C35.7423 3.43424 35.8651 3.38598 35.9851 3.33391C36.1073 3.2864 36.2256 3.22598 36.3481 3.19025C36.4702 3.15453 36.5913 3.11994 36.7127 3.08384C36.9528 3.00441 37.194 2.96982 37.4324 2.92802L37.6099 2.89723L37.6978 2.88203L37.7703 2.87177L37.8121 2.86949C37.9232 2.86341 38.0344 2.85771 38.1452 2.85239C38.255 2.84669 38.3645 2.84175 38.4736 2.83604L38.6368 2.82806L38.8088 2.83452C39.037 2.84555 39.2624 2.85619 39.4854 2.86721C39.7067 2.87861 39.9106 2.91433 40.1192 2.93676C40.5338 2.9816 40.9244 3.05609 41.3041 3.11994C42.0447 3.25714 42.7387 3.38636 43.3818 3.50645C43.6961 3.55206 43.9964 3.60945 44.2803 3.64441C44.5601 3.67481 44.828 3.70408 45.0811 3.73182C44.8269 3.76413 44.5581 3.79871 44.2766 3.83405C43.9886 3.86142 43.6835 3.86408 43.3582 3.87776C42.7113 3.88536 42.0005 3.85838 41.2429 3.82835C40.8649 3.81923 40.4719 3.79643 40.0741 3.80365C39.876 3.80707 39.6681 3.79643 39.4714 3.80935C39.275 3.82151 39.0756 3.83405 38.8748 3.8466L38.7237 3.85572L38.5622 3.8808C38.4538 3.89714 38.3446 3.91462 38.2359 3.93135C38.1268 3.94769 38.0159 3.96441 37.9065 3.98113L37.8651 3.98759C37.837 3.9914 37.8966 3.98303 37.8887 3.98455L37.8842 3.98569L37.8747 3.98873L37.8559 3.99405L37.7796 4.01534L37.6256 4.0579C37.4208 4.11415 37.2111 4.1628 37.0151 4.24983C36.9155 4.28859 36.816 4.32698 36.7148 4.36536C36.6135 4.40337 36.5229 4.46304 36.4261 4.50978C36.3317 4.56071 36.2328 4.6067 36.1398 4.66066L35.8719 4.8446C35.6841 4.95482 35.5353 5.12166 35.365 5.2581C35.0623 5.57962 34.7685 5.92015 34.5574 6.34504L34.4712 6.49744L34.3987 6.66238C34.3508 6.77336 34.2985 6.88015 34.253 6.99378C34.1753 7.2298 34.0816 7.45478 34.0228 7.70638C33.8795 8.1917 33.7967 8.71807 33.7197 9.24824C33.4574 11.3997 33.5808 13.7385 33.5757 16.0846C33.5771 17.6051 33.4946 18.7996 33.3496 19.7091C33.3181 19.936 33.275 20.1462 33.233 20.3396C33.1916 20.533 33.1529 20.709 33.1033 20.869C33.0565 21.0298 33.0117 21.1742 32.9682 21.3045C32.9207 21.4379 32.869 21.5592 32.8228 21.6644C32.7756 21.7701 32.7322 21.8621 32.6905 21.9415C32.6477 22.0187 32.6039 22.0734 32.5643 22.1262C32.4849 22.2281 32.4144 22.2946 32.3491 22.336C32.2201 22.4181 32.1145 22.3983 32.0115 22.3554C31.9082 22.3124 31.8165 22.2505 31.7673 22.0939C31.743 22.0156 31.7286 21.9138 31.7286 21.7781C31.7276 21.7116 31.7355 21.6325 31.7372 21.5516C31.7372 21.4714 31.7399 21.3844 31.7457 21.2882C31.7649 21.0685 31.7851 20.8329 31.8073 20.5665C31.8251 20.4217 31.8346 20.2586 31.8483 20.0819C31.8627 19.906 31.8808 19.7163 31.8897 19.5058C31.9462 18.6712 31.9821 17.5656 31.9804 16.0811Z" fill="#EC86AD"/>
<path d="M33.6826 15.0353C33.8721 12.8203 34.0345 10.5381 34.3944 8.30688C34.577 7.19181 34.8079 6.08739 35.1551 5.02591C35.3429 4.49727 35.5362 3.97584 35.8071 3.48557C35.9281 3.23626 36.0899 3.00481 36.2404 2.77412C36.3174 2.65859 36.4142 2.55521 36.4994 2.44728C36.5866 2.33935 36.6749 2.23407 36.7812 2.14324C37.1616 1.74153 37.6559 1.47283 38.1402 1.31283C38.2651 1.28243 38.3882 1.25278 38.5114 1.22276C38.6335 1.19236 38.7573 1.1992 38.878 1.1878L39.0597 1.17715L39.1496 1.17297C39.2071 1.17335 39.1688 1.17297 39.1828 1.17335L39.1876 1.17411L39.1972 1.17525L39.217 1.17715L39.2567 1.18095C39.3651 1.19502 39.4527 1.19426 39.5881 1.22846C39.8502 1.27711 40.0544 1.3535 40.2623 1.42685C40.4621 1.51046 40.6595 1.59141 40.8435 1.68566C41.2163 1.86656 41.5601 2.06571 41.8878 2.26258C43.189 3.06068 44.2134 3.85612 45.0497 4.39351C44.1214 4.08301 42.9731 3.47645 41.6254 2.88396C41.2882 2.73916 40.9386 2.5917 40.5777 2.46818C40.3978 2.40129 40.2151 2.35151 40.0314 2.29792C39.8498 2.25497 39.6579 2.21241 39.5088 2.20101C39.4414 2.18466 39.3189 2.19303 39.2187 2.19113L39.1794 2.19075L39.1592 2.19113H39.1493H39.1445C39.1551 2.19113 39.1134 2.19075 39.1674 2.19151L39.0993 2.20367L38.9649 2.22647C38.8763 2.24547 38.7823 2.24547 38.6967 2.27816C38.6116 2.30818 38.5264 2.33821 38.4399 2.36899C38.1108 2.52177 37.7924 2.71749 37.5368 3.0375C37.4657 3.10476 37.4051 3.19066 37.3463 3.27807C37.2875 3.36586 37.2201 3.44263 37.1671 3.5384C37.061 3.73223 36.9458 3.91541 36.8575 4.13242C36.6601 4.54325 36.5161 5.01261 36.3738 5.48539C36.1118 6.44844 35.9367 7.49015 35.7999 8.55885C35.5269 10.7012 35.4051 12.9545 35.2143 15.1949C34.9755 18.1008 34.6071 19.67 34.2343 20.4639C34.0506 20.8812 33.8957 21.0321 33.7708 21.1134C33.6453 21.1909 33.544 21.17 33.4445 21.1271C33.3463 21.0838 33.2598 21.023 33.2136 20.8709C33.1654 20.7227 33.1773 20.4628 33.1961 20.1013C33.2652 19.3515 33.4482 17.8967 33.6826 15.0353Z" fill="#EC86AD"/>
<path d="M35.5715 14.5853C35.9341 12.4247 36.3353 10.1767 37.2017 8.08187C37.6303 7.03901 38.2146 6.04329 38.9825 5.24936C39.7425 4.44366 40.7208 3.93591 41.6666 3.72118C42.6206 3.50304 43.541 3.55738 44.374 3.70674C44.479 3.72612 44.5819 3.74551 44.6856 3.76451C44.7417 3.77629 44.7752 3.77971 44.8504 3.79795L44.9944 3.83748C45.1877 3.89335 45.3724 3.93629 45.5643 4.00128C45.7559 4.06893 45.944 4.13582 46.1304 4.20119C46.311 4.27264 46.4834 4.34941 46.6548 4.42161C48.0124 5.02817 49.0772 5.71264 49.9012 6.22723C48.9931 5.93573 47.8339 5.45535 46.4677 5.05934C46.2963 5.01297 46.1229 4.96584 45.9467 4.91872C45.7733 4.88071 45.5971 4.84195 45.4176 4.8028C45.238 4.76442 45.0382 4.742 44.8443 4.70969L44.6965 4.68689L44.5658 4.67701C44.4704 4.66979 44.374 4.66295 44.2768 4.65573C43.5038 4.60138 42.6907 4.63976 41.92 4.88679C41.1532 5.13497 40.4304 5.57582 39.8581 6.25345C39.2814 6.92234 38.8214 7.76795 38.4738 8.70971C37.7661 10.5929 37.4056 12.7493 37.0509 14.8855C36.8251 16.2716 36.6332 17.3452 36.4441 18.1612C36.2549 18.9779 36.0781 19.5335 35.9166 19.9166C35.5954 20.6577 35.3881 20.6657 35.1901 20.606C34.9873 20.5445 34.8405 20.3947 34.8908 19.6053C34.911 19.2215 34.9753 18.6613 35.0851 17.8552C35.1966 17.0476 35.343 15.9869 35.5715 14.5853Z" fill="#EC86AD"/>
<path d="M37.8286 13.3064L37.9552 12.8739L38.1006 12.4403L38.3927 11.5726C38.5015 11.2857 38.6212 11.0002 38.7361 10.7137C38.851 10.4279 38.9639 10.1406 39.113 9.86618L39.5345 9.03615L39.5871 8.93278L39.6124 8.88831L39.6265 8.86551L39.6542 8.81914L39.7674 8.63368L39.8793 8.44897L40.0058 8.25325C40.3427 7.73144 40.6961 7.2408 41.1264 6.77676C41.5533 6.31956 42.0626 5.8844 42.6923 5.63205C43.0046 5.50891 43.3364 5.43252 43.6624 5.4177C43.9877 5.40402 44.2996 5.44088 44.5938 5.50321C45.1756 5.63965 45.6846 5.8616 46.156 6.09419C46.6294 6.32716 47.072 6.57191 47.5033 6.80792C48.3653 7.28564 49.1784 7.71586 49.9873 8.10085C50.7949 8.49306 51.5498 8.86399 52.2702 9.14902C52.9882 9.4561 53.672 9.64423 54.3051 9.79473C54.6229 9.84489 54.9273 9.89012 55.2177 9.92661C55.5057 9.93459 55.7794 9.94257 56.04 9.95055C55.79 10.006 55.5167 10.0634 55.2208 10.1212C54.9256 10.1489 54.6078 10.1657 54.2716 10.1744C53.6049 10.1429 52.8582 10.0596 52.0862 9.84908C51.3066 9.65981 50.4946 9.37515 49.6552 9.07225C48.8107 8.7762 47.9145 8.40337 47.0234 7.99861C46.576 7.79909 46.1266 7.59272 45.6774 7.40992C45.229 7.22559 44.7813 7.07244 44.3571 7.00137C44.1467 6.97096 43.9449 6.96222 43.753 6.98084C43.5625 7.00137 43.384 7.05609 43.2078 7.13514C42.8575 7.29552 42.5165 7.59462 42.1967 7.96669C41.8772 8.33572 41.5724 8.78456 41.2971 9.23758L41.1927 9.40746L41.0847 9.59596L40.9766 9.78447L40.9492 9.83159L40.9365 9.85478L40.9287 9.86694C40.9513 9.82855 40.9342 9.85972 40.9376 9.8525L40.9348 9.8582L40.8911 9.95093L40.5353 10.6909C40.4074 10.9311 40.3099 11.1952 40.2087 11.4574C40.1074 11.7201 40.0017 11.9781 39.9035 12.2426L39.6364 13.0571L39.5016 13.463L39.3799 13.8799C39.1695 14.6031 38.9834 15.2408 38.8182 15.8067C38.6516 16.3734 38.4953 16.8747 38.3557 17.2999C38.0564 18.1619 37.8208 18.7749 37.6056 19.1314C37.188 19.8752 36.9677 19.8786 36.757 19.7874C36.5469 19.6962 36.3862 19.5278 36.5288 18.6643C36.5733 18.4272 36.6208 18.1729 36.6759 17.8833C36.7354 17.5743 36.8189 17.2266 36.9181 16.7968C37.0169 16.3608 37.1373 15.8694 37.2851 15.2883C37.4305 14.7103 37.6053 14.0547 37.8286 13.3064Z" fill="#EC86AD"/>
<path d="M39.6798 13.2003C40.1997 12.2099 40.8558 11.2586 41.6808 10.4776C42.5018 9.69928 43.504 9.11628 44.5449 8.85177C45.5851 8.56521 46.6335 8.58156 47.6097 8.71685C48.587 8.86431 49.4999 9.15239 50.3496 9.49025C50.7737 9.65824 51.1852 9.84978 51.5741 10.0349C51.9613 10.2215 52.3369 10.4005 52.7074 10.5894C53.4476 10.955 54.1361 11.3449 54.7676 11.7265C56.028 12.5067 57.0087 13.3611 57.6535 14.1136C56.8678 13.545 55.8101 12.9061 54.5093 12.325C53.8556 12.0419 53.1513 11.7481 52.3954 11.4696C52.0143 11.3278 51.6258 11.183 51.228 11.0352C50.8302 10.8892 50.4364 10.7463 50.0246 10.6209C49.2064 10.3704 48.3489 10.1694 47.4766 10.093C46.6071 10.0273 45.7185 10.0653 44.8904 10.3336C44.0571 10.5833 43.2926 11.0614 42.6352 11.7052C41.9781 12.352 41.424 13.1585 40.9639 14.0372C40.3653 15.1747 40.0154 16.1404 39.7308 16.867C39.4493 17.6005 39.2584 18.1136 39.0939 18.4564C38.7717 19.1663 38.5739 19.1948 38.3749 19.1325C38.1785 19.0702 38.0164 18.936 38.0807 18.1371C38.1214 17.7297 38.2158 17.1524 38.4412 16.3456C38.4963 16.143 38.5589 15.9264 38.6369 15.6949C38.7094 15.4627 38.7946 15.2157 38.8951 14.9538C39.0905 14.429 39.3415 13.8418 39.6798 13.2003Z" fill="#EC86AD"/>
<path d="M41.6177 12.2016C41.8589 11.6422 42.1472 11.0797 42.5108 10.5457C42.6087 10.4142 42.6972 10.2793 42.8029 10.1524L43.133 9.78107L43.1423 9.76967L43.1477 9.76397L43.1758 9.73623L43.1953 9.71875L43.2326 9.68378L43.3085 9.61309L43.4604 9.47209L43.7638 9.19048C44.7222 8.36387 45.8472 7.83332 46.9812 7.63683C48.1188 7.43275 49.2278 7.52852 50.2522 7.71703C51.2805 7.90819 52.2403 8.19019 53.1529 8.4604C54.0648 8.73366 54.9285 8.99665 55.7549 9.18744C55.8572 9.21214 55.9611 9.23646 56.0624 9.26117C56.1503 9.28397 56.2676 9.30259 56.3668 9.32387C56.5731 9.3634 56.78 9.40938 56.9774 9.44245C57.1741 9.47779 57.369 9.51238 57.5616 9.54658C57.7535 9.57433 57.9434 9.60131 58.1294 9.62829C59.6177 9.83238 60.9121 9.74877 61.9016 9.52492C60.989 9.99542 59.6574 10.3367 58.0952 10.342C57.8999 10.3405 57.7022 10.3394 57.5 10.3382C57.2982 10.328 57.0934 10.3181 56.8861 10.3078C56.6764 10.2983 56.4732 10.2786 56.2628 10.263C56.1544 10.2527 56.06 10.2497 55.9379 10.2337C55.8298 10.2204 55.7203 10.2067 55.6109 10.193C54.7308 10.0878 53.8216 9.90231 52.8967 9.70696C51.9707 9.51428 51.0239 9.30981 50.0692 9.19314C49.1163 9.07722 48.1513 9.05556 47.2418 9.25927C46.3299 9.45651 45.4833 9.90649 44.78 10.5229L44.2084 11.0748L43.9868 11.3324C43.9143 11.421 43.8489 11.5259 43.7792 11.6209C43.511 12.0237 43.2729 12.4821 43.0615 12.9742C42.5231 14.2584 42.1729 15.3621 41.8274 16.1781C41.4884 17.0043 41.1758 17.558 40.911 17.9221C40.634 18.3063 40.4465 18.4215 40.3015 18.4698C40.1575 18.5154 40.059 18.4679 39.9683 18.3983C39.877 18.3288 39.8014 18.2444 39.7874 18.0779C39.7723 17.9145 39.8353 17.6534 39.9273 17.2988C40.0302 16.9245 40.2095 16.3829 40.4561 15.5677C40.5816 15.1584 40.726 14.6856 40.9083 14.1262C41.093 13.5664 41.3071 12.9264 41.6177 12.2016Z" fill="#EC86AD"/>
<path d="M43.3592 14.3884C44.0361 13.1916 44.7698 11.9728 45.6844 10.9303C46.1431 10.4138 46.6473 9.9414 47.2035 9.57655C47.759 9.21209 48.3634 8.94985 48.9689 8.84268L49.1939 8.80277L49.4183 8.78187L49.5291 8.77275L49.5565 8.77047L49.5705 8.76933L49.5996 8.76819H49.6513L49.8575 8.77047C50.1709 8.79289 50.4517 8.83926 50.7154 8.91641C51.2476 9.06159 51.7166 9.28049 52.139 9.50206C52.9849 9.95242 53.6475 10.4317 54.152 10.806C53.5839 10.57 52.8574 10.2196 51.9947 9.90188C51.5644 9.74682 51.0985 9.59556 50.6083 9.51803C50.3631 9.47318 50.1106 9.46292 49.878 9.46558L49.6728 9.48268L49.6208 9.48686L49.6147 9.48762C49.6208 9.48724 49.5976 9.48838 49.6266 9.48686H49.6232L49.6119 9.48876L49.5876 9.49332L49.4922 9.5108L49.2993 9.54501L49.1088 9.59594C48.0802 9.86463 47.1324 10.6297 46.3333 11.6121C45.5295 12.5987 44.8444 13.7761 44.1777 14.9577C43.3225 16.4965 42.7985 17.2965 42.4524 17.6644C42.1096 18.0323 41.9841 17.9855 41.876 17.9015C41.7662 17.8145 41.7074 17.6876 41.8948 17.2254C42.0836 16.7675 42.4944 15.9439 43.3592 14.3884Z" fill="#EC86AD"/>
<path d="M45.6153 14.3905C47.7046 12.407 50.5047 11.1798 52.9856 11.1711C53.604 11.1619 54.1937 11.2079 54.7547 11.3033C55.0215 11.3539 55.2845 11.404 55.5421 11.4527C55.7973 11.5275 56.0466 11.6013 56.2895 11.6731C56.5324 11.7396 56.7544 11.8244 56.9668 11.9099C57.1751 11.9923 57.3786 12.0733 57.5753 12.1512C57.9553 12.3207 58.2936 12.4822 58.584 12.6263C58.2704 12.5601 57.9126 12.4742 57.5148 12.3785C57.3116 12.3355 57.1022 12.2914 56.8878 12.2455C56.6692 12.1961 56.4427 12.1466 56.2084 12.1166C55.9731 12.0794 55.7316 12.0406 55.4857 12.0011C55.2254 11.9825 54.9593 11.9635 54.6887 11.9441C54.1626 11.9129 53.5989 11.9224 53.0253 11.9798C50.7191 12.1877 48.2211 13.4088 46.2632 15.2589C45.9375 15.5443 45.6752 15.8316 45.4299 16.0665C45.199 16.3089 44.9962 16.5225 44.8122 16.7164C44.4746 17.0983 44.2197 17.3434 44.0354 17.5293C43.6618 17.8823 43.5312 17.8383 43.4224 17.7406C43.3133 17.6429 43.2466 17.5103 43.4764 17.0291C43.5828 16.7886 43.7983 16.4632 44.127 16.0083C44.2991 15.7932 44.4989 15.5458 44.74 15.2706C44.9918 15.0084 45.2671 14.6975 45.6153 14.3905Z" fill="#EC86AD"/>
<path d="M48.2024 14.5051C49.4099 13.7366 50.7549 13.1889 52.0947 12.9195C53.4352 12.636 54.7528 12.5679 55.9671 12.5991C56.2712 12.6071 56.5678 12.6261 56.8588 12.6398C57.1469 12.6633 57.4304 12.6861 57.7092 12.7089C57.8724 12.7181 57.9873 12.7466 58.1255 12.7644C58.2575 12.7831 58.3889 12.8055 58.5206 12.8317C58.7754 12.8822 59.0251 12.9317 59.2683 12.9803C59.7427 13.0742 60.1802 13.1502 60.5828 13.1741C60.7839 13.1897 60.9745 13.1787 61.1571 13.184C61.3326 13.168 61.5036 13.1525 61.6688 13.1376C61.5084 13.1912 61.3428 13.2467 61.1718 13.3041C60.9909 13.3383 60.7959 13.3892 60.5893 13.4113C60.1734 13.4641 59.7119 13.4588 59.2211 13.4318C58.9768 13.4158 58.7272 13.3999 58.472 13.3832C58.3461 13.374 58.2161 13.3672 58.0813 13.3634L57.8792 13.3562L57.7769 13.3527C57.7677 13.355 57.7164 13.3546 57.6873 13.3554C57.4119 13.3615 57.1328 13.3672 56.8496 13.3733C56.5623 13.3858 56.2715 13.3987 55.977 13.4117C54.7952 13.4804 53.5368 13.6271 52.29 13.9445C51.0398 14.25 49.8204 14.7817 48.7118 15.4856C48.5274 15.5901 48.3697 15.7178 48.2134 15.8242C48.0612 15.9367 47.9086 16.026 47.7803 16.1362C47.5221 16.3487 47.2789 16.5148 47.0931 16.6805C46.9033 16.8431 46.7384 16.9765 46.5948 17.0864C46.4515 17.1992 46.3321 17.3072 46.2298 17.3797C45.82 17.6819 45.6948 17.6211 45.596 17.509C45.4978 17.3972 45.4458 17.2559 45.7263 16.807C45.7998 16.6953 45.8823 16.5619 46.0092 16.4095C46.1402 16.2575 46.2999 16.0815 46.4928 15.8786C46.6844 15.6707 46.9273 15.4761 47.2012 15.2325C47.3357 15.1078 47.4985 15.0033 47.6627 14.8783C47.8303 14.7593 48.002 14.6202 48.2024 14.5051Z" fill="#EC86AD"/>
<path d="M50.6974 15.3054C51.2102 15.0212 51.7568 14.8144 52.2955 14.597L52.4977 14.5161L52.7046 14.4515L53.1175 14.3241C53.3935 14.2455 53.662 14.1406 53.9408 14.0889C54.4956 13.9696 55.0385 13.8358 55.5827 13.7887C55.8539 13.7609 56.1187 13.7119 56.3838 13.7054C56.6475 13.699 56.9082 13.6933 57.1664 13.6868L57.3576 13.683L57.4736 13.6826L57.5656 13.6925C57.6874 13.7069 57.8088 13.7206 57.9292 13.7343C58.1683 13.7632 58.4019 13.7879 58.6314 13.8202C59.0939 13.9198 59.5351 13.9927 59.9319 14.1087C60.3277 14.2318 60.6974 14.3264 61.0214 14.4568C61.346 14.5841 61.636 14.7023 61.884 14.8102C61.6183 14.7684 61.3149 14.7141 60.9793 14.6495C60.6444 14.5818 60.2692 14.5476 59.8721 14.4822C59.4732 14.4241 59.0467 14.4081 58.601 14.3599C58.3687 14.3549 58.1341 14.3504 57.895 14.3454C57.7742 14.3431 57.6528 14.3405 57.5307 14.3374L57.438 14.3355C57.4178 14.3352 57.4616 14.3359 57.4565 14.3363L57.453 14.3367L57.4476 14.3371L57.4363 14.3386L57.4137 14.3412L57.3682 14.3458L57.1859 14.3652C56.94 14.3903 56.692 14.4157 56.4419 14.4408C56.1905 14.4644 55.9384 14.5297 55.6812 14.5719C55.165 14.6479 54.6502 14.8045 54.1255 14.9391C53.8615 14.9987 53.607 15.1101 53.3456 15.1926L52.9543 15.3256L52.7583 15.3917L52.5671 15.4734C52.0575 15.6919 51.5392 15.893 51.0539 16.164C50.4016 16.4718 49.9637 16.7804 49.5929 16.9716C49.4093 17.0613 49.2577 17.1821 49.1237 17.2581C48.9909 17.3395 48.8794 17.4014 48.7857 17.4478C48.4091 17.6328 48.313 17.5629 48.2463 17.4557C48.1796 17.3486 48.1546 17.2235 48.443 16.8986C48.5148 16.8169 48.6061 16.7234 48.7221 16.6139C48.8415 16.5075 48.9656 16.3718 49.1578 16.2464C49.5307 15.9956 50.0198 15.6258 50.6974 15.3054Z" fill="#EC86AD"/>
<path d="M53.2239 15.4773C54.326 15.0512 55.489 14.862 56.6096 14.7635C57.7343 14.667 58.8241 14.6921 59.8325 14.7403C60.0815 14.7552 60.3288 14.7692 60.5723 14.7837C60.8306 14.7973 61.0533 14.8297 61.2859 14.8521C61.7333 14.9038 62.166 14.9539 62.5833 15.0022C63.395 15.1535 64.0828 15.3325 64.6004 15.4712C64.0606 15.4681 63.371 15.4176 62.5675 15.3819C62.1472 15.386 61.7114 15.3898 61.2633 15.3933C61.0365 15.3967 60.7875 15.3876 60.5634 15.3986C60.3213 15.4058 60.076 15.4134 59.8273 15.4214C57.8376 15.4906 55.5393 15.6084 53.4993 16.3753C52.8395 16.6144 52.3739 16.8834 52.0103 17.0742C51.8321 17.1719 51.6956 17.2669 51.567 17.3357C51.4401 17.3999 51.332 17.471 51.2404 17.5265C50.8764 17.7389 50.7755 17.677 50.7023 17.5747C50.6288 17.4718 50.5963 17.3498 50.8648 17.0024C50.9305 16.915 51.0156 16.8139 51.1473 16.7025C51.2749 16.5927 51.4275 16.4509 51.617 16.3183C51.9946 16.0614 52.507 15.7372 53.2239 15.4773Z" fill="#EC86AD"/>
<path d="M56.4981 15.573C57.8068 15.1451 59.214 14.9778 60.5676 15.0808C61.9224 15.1933 63.2065 15.5966 64.3182 16.1374C64.8706 16.4133 65.395 16.7082 65.8581 17.0385C66.3428 17.379 66.7406 17.7385 67.1172 18.0798C67.8554 18.7704 68.4567 19.3781 68.9452 19.8261C68.3794 19.5149 67.6799 19.0159 66.8799 18.4416C66.4783 18.163 66.0418 17.8541 65.5852 17.5994C65.1097 17.3296 64.5939 17.1008 64.0528 16.8823C62.9681 16.46 61.7624 16.1644 60.5166 16.1123C59.2701 16.0712 57.9905 16.2487 56.7725 16.6466C56.3764 16.7629 56.0346 16.9024 55.7292 17.01C55.4333 17.1282 55.1727 17.2327 54.936 17.3265C54.4899 17.5227 54.1704 17.6344 53.9361 17.7176C53.4709 17.8677 53.368 17.7693 53.3054 17.6317C53.2418 17.4945 53.2305 17.3448 53.6139 17.0141C53.7986 16.8458 54.1092 16.6466 54.5693 16.3825C54.8015 16.2632 55.0707 16.1267 55.3875 15.985C55.7093 15.8546 56.0709 15.6992 56.4981 15.573Z" fill="#EC86AD"/>
<path d="M58.4495 16.7803C58.7564 16.7841 59.0659 16.7795 59.3721 16.8217C59.6806 16.8434 59.9833 16.9045 60.2864 16.9627C60.887 17.0969 61.4737 17.2766 62.0288 17.5008C63.1463 17.9383 64.1684 18.4715 65.1268 18.9348C65.6054 19.1704 66.0671 19.3851 66.5091 19.5942C66.728 19.6972 66.9442 19.7986 67.1562 19.8986C67.3632 19.9913 67.5653 20.0825 67.763 20.1726C67.8609 20.2159 67.9566 20.263 68.0511 20.3018C68.1458 20.3372 68.2399 20.3729 68.3326 20.4078C68.5121 20.4778 68.689 20.5458 68.861 20.6119C69.2038 20.7062 69.5157 20.7917 69.7884 20.8745C69.5099 20.8635 69.1853 20.8468 68.8217 20.8156C68.6397 20.7788 68.4519 20.7411 68.2604 20.7024C68.1612 20.6815 68.0606 20.6606 67.9594 20.6393C67.8574 20.6142 67.7576 20.5808 67.6529 20.5507C67.4422 20.4869 67.2274 20.4219 67.0088 20.355C66.7889 20.2805 66.5641 20.2045 66.3363 20.1274C65.8756 19.9674 65.3882 19.7937 64.8905 19.5972C62.9028 18.8329 60.6948 17.7015 58.4636 17.7718C57.7483 17.795 57.1949 17.8767 56.7834 17.952C56.5771 17.9923 56.4023 18.0211 56.2508 18.0409C56.0959 18.0732 55.9659 18.0979 55.8588 18.1108C55.4302 18.1637 55.3539 18.0599 55.3184 17.9288C55.2821 17.798 55.2927 17.665 55.6734 17.4404C55.7685 17.3846 55.8862 17.3215 56.0346 17.2542C56.192 17.1953 56.3808 17.1303 56.6062 17.0596C57.0567 16.9243 57.6522 16.8054 58.4495 16.7803Z" fill="#EC86AD"/>
<path d="M61.791 18.9292C64.4259 19.7493 66.9242 21.1232 69.0734 22.301C69.2037 22.3728 69.3337 22.4447 69.463 22.515C69.596 22.5841 69.7281 22.6514 69.8608 22.7183C70.1197 22.8532 70.3759 22.9855 70.628 23.1154C71.1291 23.348 71.5981 23.5905 72.0469 23.79C72.498 23.9827 72.9106 24.1876 73.2947 24.3422C73.6774 24.5007 74.0219 24.6482 74.3198 24.7835C74.0031 24.728 73.6395 24.6569 73.2341 24.571C72.8285 24.4882 72.3916 24.3517 71.9152 24.2214C71.4401 24.0842 70.9389 23.898 70.406 23.7155C70.1447 23.6114 69.8796 23.5054 69.6087 23.3982C69.4729 23.3435 69.3354 23.2887 69.1979 23.2321C69.0375 23.1656 68.9167 23.1078 68.7724 23.0436C66.5418 22.0441 64.0376 20.8036 61.5126 20.0199C61.309 19.9538 61.1185 19.8915 60.9383 19.8322C60.7583 19.7847 60.5904 19.7395 60.432 19.6969C60.1163 19.611 59.843 19.5323 59.6063 19.459C59.1202 19.3324 58.7713 19.2473 58.5415 19.1542C58.0756 18.9748 58.0428 18.8262 58.0629 18.6715C58.0835 18.5165 58.1536 18.3842 58.6451 18.3606C58.8928 18.353 59.2406 18.3542 59.7493 18.4264C60.0065 18.4747 60.3034 18.5358 60.6451 18.6122C60.8161 18.6514 60.9998 18.6898 61.1917 18.7407C61.3802 18.7996 61.58 18.8619 61.791 18.9292Z" fill="#EC86AD"/>
<path d="M65.7704 20.8089C66.6522 21.3372 67.4506 22.0357 68.1579 22.767C68.8663 23.5001 69.4991 24.2575 70.0998 24.942C70.7011 25.6245 71.2631 26.2478 71.795 26.7423C72.0564 26.9977 72.3163 27.2071 72.5438 27.4165C72.7829 27.6031 72.998 27.7749 73.1841 27.9288C72.9731 27.8266 72.7306 27.7038 72.4614 27.5617C72.2052 27.396 71.9113 27.2253 71.6182 27.0045C71.0199 26.5777 70.3895 26.0046 69.7348 25.3657C68.4313 24.0876 67.06 22.4979 65.4184 21.5257C65.1568 21.3623 64.9135 21.2502 64.7066 21.1289C64.498 21.0165 64.3129 20.9477 64.1552 20.8663C63.848 20.7025 63.5895 20.6223 63.4355 20.5307C63.1164 20.3586 63.1037 20.2499 63.1301 20.1412C63.1561 20.0321 63.2163 19.9443 63.57 19.9728C63.7492 19.996 63.9924 20.0086 64.3622 20.1499C64.5428 20.218 64.762 20.2837 64.9943 20.3951C65.2214 20.5144 65.4892 20.6326 65.7704 20.8089Z" fill="#EC86AD"/>
<path d="M21.8312 43.8517C22.8482 42.3239 23.9558 40.8064 25.2132 39.4892C26.4651 38.1753 27.8836 37.0595 29.3876 36.4366C30.1346 36.1215 30.8933 35.9281 31.6195 35.8547L31.755 35.8384L31.7922 35.8346L31.8083 35.8342L31.8405 35.8338L31.9051 35.8331C31.9906 35.8319 32.0762 35.8304 32.162 35.8297C32.2468 35.8285 32.3313 35.8285 32.4155 35.8278C32.5037 35.8338 32.5916 35.8388 32.6785 35.8449C33.0301 35.8593 33.351 35.9156 33.664 35.9604C34.9067 36.1941 35.9144 36.5613 36.6809 36.8592C35.8737 36.7642 34.8239 36.5886 33.6151 36.5347C33.3134 36.5339 32.998 36.5221 32.6901 36.5483C32.6122 36.5521 32.5345 36.5563 32.4555 36.5601C32.3731 36.5708 32.2903 36.581 32.2058 36.5913C32.1213 36.6023 32.0365 36.6129 31.951 36.6243L31.8867 36.6323L31.8545 36.6365L31.8384 36.6384H31.8343C31.8282 36.6395 31.8702 36.635 31.8511 36.6373L31.8429 36.6392L31.7214 36.6673C31.0674 36.8064 30.4008 37.0466 29.7464 37.3867C28.4309 38.0606 27.1872 39.154 26.0491 40.4397C24.9084 41.7265 23.8675 43.2072 22.8714 44.7038C21.5932 46.6531 20.8773 47.683 20.4162 48.16C19.9609 48.6385 19.7919 48.5883 19.6472 48.4728C19.5022 48.3565 19.4132 48.1911 19.6756 47.5652C19.9414 46.9446 20.529 45.8383 21.8312 43.8517Z" fill="#EC86AD"/>
<path d="M22.9218 40.7954C23.9268 39.1794 24.8517 37.394 26.0574 35.8114C26.6557 35.0217 27.3343 34.2905 28.0978 33.7113C28.4741 33.4141 28.8804 33.1731 29.2854 32.9561C29.4944 32.8619 29.6986 32.7612 29.9076 32.681C30.119 32.6099 30.3236 32.5206 30.5353 32.4704C30.9547 32.3515 31.3713 32.2732 31.7793 32.2302C31.9842 32.2158 32.1857 32.1869 32.3848 32.1873C32.5866 32.1873 32.787 32.1862 32.9851 32.1862C33.1698 32.201 33.3535 32.2154 33.5341 32.2295C33.713 32.2409 33.9128 32.2926 34.0947 32.323C34.2839 32.3545 34.457 32.399 34.6235 32.4469C34.7915 32.4932 34.9601 32.5354 35.1178 32.5848C35.7564 32.7813 36.3314 32.9596 36.8674 33.08C37.1346 33.1363 37.3908 33.1655 37.635 33.2066C37.8765 33.215 38.1064 33.2233 38.327 33.2309C38.1074 33.2754 37.8765 33.3217 37.6364 33.37C37.3877 33.3829 37.1185 33.4061 36.8363 33.3997C36.2736 33.3788 35.6542 33.2902 35.0084 33.1864C34.8449 33.1591 34.6834 33.1427 34.5168 33.1188C34.4344 33.1078 34.3513 33.0964 34.2668 33.0846C34.184 33.0762 34.1046 33.074 34.0229 33.0675C33.8556 33.0618 33.7034 33.0337 33.5211 33.0424C33.3398 33.0489 33.1568 33.055 32.9714 33.0614C32.2842 33.1188 31.5276 33.2541 30.8158 33.5243C29.3655 34.0435 28.0855 35.2045 27.045 36.7091C25.9863 38.2023 25.1024 39.9768 24.0588 41.6616C23.3884 42.7553 22.7867 43.5512 22.2794 44.1102C21.7752 44.6723 21.3648 44.9969 21.0607 45.2025C20.4662 45.5719 20.3082 45.451 20.1884 45.2914C20.0646 45.1257 20.0304 44.9273 20.4399 44.3675C20.812 43.8149 21.6405 42.8929 22.9218 40.7954Z" fill="#EC86AD"/>
<path d="M22.7745 37.3904L23.1658 36.7363C23.2996 36.5208 23.446 36.3111 23.5862 36.0982C23.8599 35.6672 24.178 35.2671 24.4845 34.8596C25.1258 34.0707 25.8116 33.3147 26.5874 32.693C27.34 32.0408 28.1845 31.5509 29.0198 31.1321C29.8756 30.7604 30.7335 30.4701 31.5787 30.3241C32.0008 30.2538 32.4126 30.1672 32.8211 30.1573C33.0239 30.144 33.2247 30.1314 33.4234 30.1181C33.5295 30.1132 33.6078 30.1033 33.7323 30.1026C33.827 30.1056 33.9221 30.1079 34.0169 30.1102C34.7988 30.1398 35.5048 30.2352 36.1619 30.2903C36.8176 30.3496 37.4183 30.3576 37.9649 30.293C38.5105 30.2268 38.9952 30.0832 39.409 29.9209C39.0407 30.1839 38.5768 30.4374 38.0217 30.6122C37.4682 30.7848 36.8303 30.8786 36.1551 30.9128C35.4802 30.9508 34.7609 30.9451 34.0367 30.9972C33.9433 31.0048 33.8479 31.0135 33.7528 31.0208C33.6871 31.0284 33.5756 31.0496 33.4891 31.0633C33.3034 31.0941 33.1156 31.1249 32.9268 31.1564C32.545 31.2009 32.1688 31.3183 31.7836 31.4153C31.0126 31.6136 30.2515 31.9378 29.499 32.3171C28.7674 32.7435 28.034 33.2129 27.3776 33.8297C26.0312 35.0109 24.9168 36.5839 23.9444 38.2379C23.7815 38.5009 23.6413 38.7608 23.5065 39.0029C23.3718 39.2443 23.2452 39.4712 23.1251 39.6855C22.8967 40.1191 22.6873 40.4893 22.5112 40.8139C22.1605 41.4622 21.8934 41.9012 21.6892 42.2018C21.277 42.7951 21.0889 42.7776 20.9172 42.6803C20.7451 42.5838 20.6213 42.4257 20.8081 41.7055C20.8977 41.3456 21.079 40.8435 21.3783 40.134C21.5291 39.7798 21.7207 39.3822 21.9413 38.9227C22.0531 38.694 22.1848 38.4549 22.321 38.198C22.4574 37.9422 22.6025 37.6701 22.7745 37.3904Z" fill="#EC86AD"/>
<path d="M25.0299 32.6098C26.0157 31.2739 27.1339 29.9836 28.4176 28.9677C29.0463 28.444 29.7356 28.026 30.419 27.657C30.591 27.568 30.7703 27.4962 30.944 27.4168C31.1202 27.3438 31.2881 27.2526 31.4674 27.1982C31.6442 27.1397 31.8207 27.0812 31.9955 27.0234L32.2565 26.9379C32.3441 26.9147 32.4323 26.898 32.5202 26.8775C33.218 26.7042 33.9018 26.6263 34.55 26.6016C34.8578 26.5864 35.1876 26.6103 35.4937 26.624C35.7951 26.654 36.0879 26.6783 36.3649 26.7179C37.4766 26.8703 38.4067 27.0257 39.1414 27.066C38.4183 27.215 37.4475 27.2332 36.34 27.2381C36.0626 27.2374 35.779 27.2518 35.4862 27.2587C35.1992 27.283 34.9146 27.291 34.5965 27.3415C33.9918 27.4312 33.3614 27.565 32.7306 27.7786C32.6516 27.8037 32.5712 27.8253 32.4925 27.8534L32.2579 27.9515C32.1009 28.0161 31.9428 28.0819 31.7845 28.1476C31.6237 28.208 31.4735 28.3049 31.3165 28.3817C31.1619 28.4653 31.0029 28.5394 30.8486 28.6306C30.2408 29.0092 29.6292 29.4189 29.0641 29.9293C27.9127 30.9128 26.8818 32.1453 25.9312 33.4329C25.3292 34.266 24.8691 34.9007 24.4959 35.4168C24.1375 35.9143 23.8696 36.2434 23.6675 36.4631C23.2618 36.8975 23.1086 36.8576 22.9772 36.7542C22.8455 36.6508 22.761 36.5037 22.9936 35.9337C23.1086 35.6494 23.3104 35.2579 23.6278 34.7126C23.9517 34.1721 24.3885 33.4748 25.0299 32.6098Z" fill="#EC86AD"/>
<path d="M27.1775 28.6959C27.7172 28.1448 28.2984 27.6268 28.8966 27.1365C29.2048 26.9028 29.5041 26.6573 29.8263 26.4479C29.9857 26.3414 30.1407 26.2286 30.3028 26.1286L30.7926 25.8379C32.1003 25.0709 33.5072 24.6232 34.8214 24.4154C35.1491 24.3519 35.4751 24.3298 35.7921 24.3036L36.0285 24.2839L36.1462 24.2744L36.153 24.2736L36.1828 24.2725H36.1869L36.2012 24.2728L36.2296 24.274L36.2868 24.2766C36.4379 24.2839 36.5881 24.2911 36.7362 24.2983C37.3266 24.3162 37.8968 24.3861 38.4232 24.4454C38.9295 24.5054 39.4114 24.5621 39.8643 24.616C40.3011 24.6487 40.6958 24.6844 41.0413 24.7224C40.7003 24.773 40.3049 24.8228 39.8616 24.8718C39.42 24.9014 38.9288 24.9185 38.4068 24.9345C37.8872 24.9497 37.3372 24.9493 36.7424 24.9961C36.5936 25.0048 36.4434 25.0132 36.2922 25.0223L36.2358 25.025L36.2071 25.0269L36.193 25.0276H36.1889C36.1995 25.0269 36.1609 25.0291 36.2118 25.0269L36.2047 25.028L36.0938 25.0481L35.8708 25.0888C35.5715 25.1424 35.2654 25.191 34.9603 25.2773C33.7357 25.5776 32.4629 26.0705 31.2746 26.8313L30.8289 27.1187C30.6805 27.2171 30.5382 27.3281 30.3924 27.4318C30.0983 27.6344 29.8212 27.8746 29.5359 28.0996C28.9801 28.5742 28.4331 29.0698 27.9132 29.6011C27.2349 30.2784 26.7301 30.8249 26.3292 31.2262C25.9337 31.634 25.644 31.8993 25.4282 32.0734C24.9969 32.4158 24.859 32.3554 24.7496 32.2391C24.6398 32.1228 24.5789 31.9726 24.8662 31.4774C25.0081 31.2293 25.2448 30.8963 25.6085 30.4369C25.9775 29.9842 26.4711 29.4016 27.1775 28.6959Z" fill="#EC86AD"/>
<path d="M29.4151 25.1719C30.2196 24.2122 31.1305 23.2781 32.1666 22.5765C33.2092 21.8875 34.3544 21.4747 35.4271 21.3144C37.5913 21.0358 39.4042 21.4789 40.4522 21.9057C40.1711 21.8803 39.8516 21.8445 39.4979 21.8001C39.1428 21.7727 38.7505 21.7602 38.3322 21.7412C38.1208 21.7461 37.9049 21.751 37.685 21.7564C37.5731 21.759 37.4609 21.7617 37.347 21.7643C37.2297 21.775 37.1114 21.7856 36.992 21.7963C36.8719 21.8065 36.7498 21.8175 36.6277 21.8282L36.442 21.8434L36.3486 21.8514L36.3424 21.8517L36.3397 21.8521C36.3342 21.8525 36.3725 21.8498 36.3551 21.8514L36.3438 21.8533L36.3212 21.8582L36.2754 21.8673C36.0339 21.9171 35.7856 21.957 35.5365 22.0152C34.5418 22.2512 33.5287 22.6913 32.6031 23.3541C31.6836 24.0317 30.85 24.913 30.063 25.8514C29.0484 27.0645 28.4717 27.7174 28.1215 27.9926C27.7739 28.2753 27.6617 28.2275 27.5718 28.134C27.4821 28.0405 27.4312 27.9196 27.6604 27.5145C27.8977 27.1116 28.3718 26.4192 29.4151 25.1719Z" fill="#EC86AD"/>
</svg>
