<svg width="74" height="68" viewBox="0 0 74 68" fill="none" xmlns="http://www.w3.org/2000/svg">
<path d="M60.0782 10.9159C59.4447 12.2318 48.97 21.6209 47.4726 23.0086C45.9756 24.3967 47.7444 24.2966 48.8349 23.6921C49.9253 23.0872 58.2474 15.1084 59.3987 13.9296C60.5505 12.7508 60.0782 10.9159 60.0782 10.9159Z" fill="#7CD7BD"/>
<path d="M49.5691 23.3211C49.5691 23.3211 49.2755 22.9602 49.8502 23.2021C50.1365 23.3288 50.6447 23.5724 51.4984 24.1801C51.9351 24.4721 52.4227 24.8608 53.0272 25.3347C53.6204 25.8166 54.3092 26.3957 55.1061 27.0865C55.5066 27.4261 55.9219 27.7959 56.3615 28.1617C56.5801 28.3464 56.8031 28.5351 57.0297 28.7262C57.2596 28.9113 57.4931 29.0997 57.7298 29.29C58.6864 30.0675 59.6946 30.8866 60.7205 31.7198C61.2307 32.138 61.7445 32.5602 62.2594 32.982C62.7712 33.4087 63.2939 33.818 63.7842 34.2649C64.7743 35.1424 65.7478 36.0058 66.6725 36.8261C67.59 37.6471 68.4598 38.4251 69.247 39.1296C70.029 39.8394 70.7392 40.4628 71.3207 41.0032C71.6123 41.2714 71.8748 41.5138 72.1059 41.7267C72.3301 41.9461 72.5229 42.1344 72.6805 42.2893C72.9939 42.5974 73.1665 42.7672 73.1665 42.7672C73.1665 42.7672 72.9834 42.6091 72.6507 42.3211C72.4837 42.1784 72.2801 42.0025 72.0426 41.7985C71.799 41.6005 71.5219 41.3758 71.2146 41.1258C69.9778 40.135 68.2606 38.7606 66.339 37.2217C65.3804 36.4522 64.3702 35.642 63.3439 34.819C62.839 34.3987 62.2953 34.0108 61.7679 33.6067C61.2375 33.2054 60.7064 32.8038 60.1798 32.4053C59.1308 31.6052 58.1009 30.8184 57.1229 30.0724C56.8761 29.8812 56.6325 29.6937 56.393 29.509C56.1599 29.3179 55.93 29.1299 55.7046 28.946C55.2517 28.579 54.8351 28.2129 54.4306 27.8697C51.2544 25.0774 50.0026 24.0894 49.555 23.6268C49.1287 23.1727 49.5691 23.3211 49.5691 23.3211Z" fill="#7CD7BD"/>
<path d="M50.672 23.6002C50.672 23.6002 49.5311 22.4984 55.896 25.8626C59.0783 27.5455 63.5349 30.0256 67.1958 32.0855C68.1101 32.603 68.9755 33.0921 69.7595 33.5361C70.1531 33.7523 70.516 33.9826 70.8552 34.1971C71.1951 34.408 71.5101 34.6052 71.7827 34.8077C72.059 35.0025 72.3082 35.1791 72.5272 35.3335C72.7361 35.5013 72.9107 35.6521 73.0555 35.7719C73.343 36.0123 73.5011 36.1449 73.5011 36.1449C73.5011 36.1449 73.3345 36.0227 73.0317 35.8013C72.8808 35.6917 72.6957 35.5566 72.4796 35.4001C72.2533 35.2597 71.9944 35.1 71.7081 34.9226C71.4258 34.7395 71.1016 34.5629 70.7528 34.3741C70.4059 34.1826 70.0365 33.9769 69.6288 33.7821C68.8223 33.3833 67.9318 32.9421 66.9918 32.4767C63.2292 30.612 58.6702 28.3266 55.4883 26.6445C49.1226 23.2792 50.672 23.6002 50.672 23.6002Z" fill="#7CD7BD"/>
<path d="M49.2507 23.0961C49.2507 23.0961 49.1934 22.7263 49.6136 22.7783C50.0371 22.8207 51.7034 23.3679 54.4372 24.1773C57.1795 24.9939 61.1115 26.0695 64.2824 27.1849C64.6773 27.3277 65.0612 27.4676 65.4318 27.6015C65.6181 27.6697 65.8012 27.7362 65.9794 27.8016C66.1528 27.8766 66.3218 27.9488 66.4876 28.0201C66.8158 28.1633 67.1288 28.2996 67.4203 28.4274C67.7119 28.5545 67.9817 28.6759 68.2241 28.7956C68.4668 28.9134 68.6874 29.0154 68.8774 29.113C69.0653 29.215 69.2262 29.303 69.3581 29.3747C69.6202 29.5175 69.765 29.5965 69.765 29.5965C69.765 29.5965 69.6158 29.5276 69.3444 29.4018C69.2089 29.3385 69.0427 29.261 68.8496 29.1719C68.6544 29.0868 68.4277 28.9985 68.1797 28.8961C67.9321 28.792 67.6563 28.6876 67.3578 28.5783C67.0598 28.4686 66.7408 28.3508 66.4041 28.2266C66.2355 28.1653 66.0625 28.102 65.8855 28.0379C65.7072 27.9834 65.5245 27.9286 65.3394 27.8721C64.964 27.7588 64.5748 27.641 64.1748 27.5197C60.9683 26.5768 57.0017 25.6747 54.2384 24.8516C51.4635 24.0297 50.4411 23.5333 50.0746 23.3248C49.7116 23.1066 49.2507 23.0961 49.2507 23.0961Z" fill="#7CD7BD"/>
<path d="M49.5668 23.3373C49.5668 23.3373 49.2918 22.9336 49.8721 23.2372C50.1601 23.3981 50.673 23.6865 51.5074 24.4209C51.7195 24.5987 51.9518 24.8003 52.1873 25.0367C52.4269 25.2714 52.6947 25.5275 52.977 25.8178C53.2516 26.1146 53.5492 26.4385 53.8747 26.7913C54.1872 27.1523 54.5255 27.5442 54.8849 27.9725C55.5963 28.8311 56.358 29.7966 57.1626 30.8031C57.9663 31.819 58.8132 32.8893 59.6746 33.9777C60.5279 35.0702 61.397 36.1816 62.2511 37.2749C63.0944 38.3775 63.9231 39.4615 64.7111 40.4915C65.4935 41.5243 66.2444 42.4909 66.9029 43.3886C67.547 44.2928 68.1297 45.0973 68.606 45.7821C69.5327 47.1661 70.0997 48.0126 70.0997 48.0126C70.0997 48.0126 69.4815 47.2048 68.4701 45.8845C67.9482 45.2364 67.3252 44.4621 66.6295 43.5975C65.925 42.7446 65.1192 41.8179 64.2853 40.8294C62.6092 38.8542 60.755 36.6688 58.9624 34.5556C58.0691 33.4946 57.1912 32.4521 56.3588 31.4629C55.5233 30.4648 54.7542 29.5179 54.0493 28.6674C53.6948 28.2459 53.3673 27.8572 53.0649 27.4979C52.7568 27.1454 52.4741 26.822 52.2148 26.5248C51.949 26.2352 51.7074 25.9719 51.4868 25.7311C51.2707 25.4851 51.0674 25.2798 50.8848 25.0939C50.177 24.335 49.7213 23.9164 49.5273 23.6567C49.1188 23.1425 49.5668 23.3373 49.5668 23.3373Z" fill="#7CD7BD"/>
<path d="M49.095 23.0739C49.095 23.0739 48.8349 22.6106 49.4349 22.9945C49.5854 23.0905 49.789 23.2393 50.0641 23.4615C50.2012 23.574 50.3593 23.6978 50.5306 23.8559C50.7 24.0196 50.8888 24.208 51.0989 24.4213C51.3066 24.6362 51.5461 24.8718 51.7901 25.1464C52.026 25.4263 52.2849 25.7332 52.5692 26.0707C52.86 26.405 53.1358 26.797 53.4492 27.216C53.6044 27.4265 53.7682 27.6447 53.9319 27.8754C54.0896 28.1105 54.2529 28.3553 54.4227 28.6085C55.7821 30.6419 57.2057 33.22 58.5482 35.9316C59.8972 38.6413 61.201 41.4719 62.4713 43.9774C63.7352 46.4818 65.018 48.6494 65.8907 50.2367C66.7739 51.8176 67.3134 52.7842 67.3134 52.7842C67.3134 52.7842 66.7138 51.8534 65.7322 50.3311C64.7643 48.801 63.3565 46.7149 61.9507 44.2585C60.5428 41.8078 59.1035 39.0361 57.6634 36.3926C56.2302 33.7459 54.7643 31.2464 53.4387 29.2634C53.2737 29.0154 53.1153 28.7763 52.9624 28.5468C52.8027 28.3222 52.6491 28.1073 52.5011 27.9C52.2043 27.4882 51.9449 27.0987 51.6768 26.7672C51.4179 26.4272 51.1827 26.1183 50.9682 25.8356C50.7508 25.5581 50.5448 25.3226 50.3673 25.0992C50.1883 24.8786 50.0306 24.6798 49.8919 24.5011C49.7435 24.3265 49.6128 24.1733 49.4971 24.0374C49.2708 23.7656 49.1184 23.5643 49.02 23.4155C48.628 22.8215 49.095 23.0739 49.095 23.0739Z" fill="#7CD7BD"/>
<path d="M49.2718 23.5252C49.2718 23.5252 49.092 23.0352 49.6138 23.5006C49.7441 23.6171 49.9191 23.7934 50.1506 24.0515C50.2659 24.1821 50.3986 24.3289 50.5426 24.5063C50.6825 24.691 50.8382 24.8979 51.0132 25.1298C51.1854 25.3649 51.3814 25.625 51.5834 25.9214C51.7782 26.2219 51.9927 26.551 52.227 26.9123C52.4658 27.2728 52.6969 27.6814 52.9554 28.1225C53.0828 28.3447 53.2159 28.5754 53.3542 28.8158C53.4849 29.0598 53.6204 29.3134 53.7615 29.578C54.8871 31.6891 56.0763 34.3205 57.1821 37.0785C58.2931 39.8353 59.3501 42.7115 60.3353 45.2925C60.8346 46.5818 61.3072 47.8025 61.7355 48.9083C62.1646 50.0128 62.5272 51.0134 62.8671 51.8332C63.5329 53.4806 63.9402 54.4884 63.9402 54.4884C63.9402 54.4884 63.4696 53.5072 62.7002 51.9038C62.3094 51.1025 61.8892 50.1282 61.3968 49.049C60.9157 47.9654 60.3555 46.7846 59.7994 45.5139C58.6771 42.9817 57.4858 40.1604 56.2808 37.4616C55.081 34.7605 53.8418 32.1956 52.7368 30.1224C52.5997 29.8631 52.4674 29.613 52.3404 29.3731C52.2077 29.136 52.0798 28.9089 51.958 28.6903C51.7125 28.254 51.4971 27.8467 51.2773 27.4878C51.0656 27.1236 50.8724 26.7913 50.6966 26.4893C50.5171 26.1937 50.3542 25.9267 50.207 25.6855C50.0647 25.4432 49.938 25.227 49.8239 25.0334C49.7074 24.8415 49.6041 24.6721 49.513 24.5225C49.3359 24.2237 49.2202 24.0047 49.148 23.8454C48.8581 23.207 49.2718 23.5252 49.2718 23.5252Z" fill="#7CD7BD"/>
<path d="M48.9668 23.3882C48.9668 23.3882 48.9349 22.8402 49.3192 23.4693C49.512 23.7834 49.8084 24.3924 50.2653 25.5115C50.7231 26.6298 51.3429 28.257 52.149 30.6295C52.5531 31.8143 53.0036 33.1229 53.427 34.5155C53.8537 35.9096 54.3352 37.3626 54.7191 38.8902C55.5543 41.9212 56.2879 45.0583 57.0142 47.8777C57.7102 50.7034 58.422 53.2078 58.9112 55.0153C59.402 56.8219 59.702 57.9277 59.702 57.9277C59.702 57.9277 59.3326 56.8433 58.7281 55.0693C58.1292 53.2937 57.2719 50.8373 56.4258 48.0438C55.5507 45.2612 54.6663 42.1523 53.7335 39.1951C53.302 37.7082 52.7721 36.2608 52.3144 34.8792C51.8583 33.4935 51.3925 32.2011 50.99 31.0219C50.1903 28.6643 49.6411 27.0109 49.2914 25.8539C48.943 24.6973 48.791 24.0379 48.7426 23.6725C48.6466 22.9414 48.9668 23.3882 48.9668 23.3882Z" fill="#7CD7BD"/>
<path d="M48.7173 23.3934C48.7173 23.3934 48.8 22.8417 49.0508 23.5466C49.3234 24.2455 49.6392 26.2397 50.5671 31.1754C51.4987 36.1357 53.0566 43.1532 54.0333 49.0027C54.2587 50.469 54.4677 51.8539 54.6427 53.1137C54.787 54.3732 54.9173 55.5019 55.0262 56.4468C55.2395 58.3362 55.3706 59.492 55.3706 59.492C55.3706 59.492 55.1669 58.3471 54.8346 56.4758C54.6701 55.5398 54.4733 54.4203 54.2539 53.173C54.0095 51.9341 53.7244 50.5638 53.424 49.1205C52.148 43.3576 50.2893 36.4172 49.348 31.4093C48.404 26.3768 48.4019 24.3738 48.4354 23.6289C48.4923 22.8828 48.7173 23.3934 48.7173 23.3934Z" fill="#7CD7BD"/>
<path d="M48.5454 23.2294C48.5454 23.2294 49.0615 21.0517 49.5604 31.2082C49.7838 36.279 50.1012 43.4686 50.3621 49.3976C50.4222 50.8805 50.4787 52.2831 50.5303 53.555C50.5549 54.1902 50.5779 54.7919 50.6001 55.3544C50.6194 55.9174 50.6412 56.4393 50.6743 56.9143C50.7888 58.8162 50.8586 59.9796 50.8586 59.9796C50.8586 59.9796 50.7154 58.8218 50.4803 56.9284C50.4182 56.455 50.3645 55.9344 50.3121 55.3742C50.2573 54.8141 50.1992 54.2144 50.1375 53.582C50.0157 52.3166 49.8822 50.9196 49.7419 49.4444C49.4632 46.49 49.1628 43.217 48.8894 40.0464C48.8224 39.2536 48.7559 38.4676 48.6909 37.6945C48.6426 36.9218 48.595 36.1617 48.5486 35.4216C48.4583 33.9416 48.38 32.5398 48.3179 31.2707C47.8182 21.1134 48.5454 23.2294 48.5454 23.2294Z" fill="#7CD7BD"/>
<path d="M48.1891 23.23C48.1891 23.23 48.4286 22.6827 48.4911 23.482C48.5323 23.8772 48.4762 24.6302 48.4649 25.9041C48.4339 26.5381 48.4536 27.3386 48.4383 28.3C48.4439 28.7843 48.4492 29.3114 48.4556 29.8861C48.4673 30.4632 48.4794 31.087 48.4923 31.7625C48.5194 33.1184 48.5613 34.6169 48.5379 36.2175C48.5198 37.8198 48.4657 39.474 48.421 41.1746C48.3246 44.567 48.2064 48.0723 48.0911 51.2376C48.062 52.0288 48.0338 52.7991 48.006 53.5411C47.9923 53.9121 47.9782 54.2759 47.9649 54.6324C47.9423 54.9885 47.9213 55.3373 47.8995 55.6773C47.8128 57.0319 47.7358 58.2462 47.6709 59.2628C47.537 61.2957 47.4547 62.5387 47.4547 62.5387C47.4547 62.5387 47.4579 61.2933 47.4636 59.2576C47.4684 58.2389 47.4733 57.0226 47.4793 55.6648C47.4817 55.3268 47.4837 54.9796 47.4858 54.6243C47.4793 54.2678 47.4729 53.9037 47.466 53.5323C47.4535 52.7902 47.4402 52.0188 47.4273 51.2271C47.3761 48.0586 47.3285 44.5509 47.3003 41.1565C47.289 39.4619 47.2773 37.796 47.2668 36.2155C47.2539 34.648 47.1918 33.1494 47.1648 31.7912C47.1563 31.1092 47.149 30.4789 47.1426 29.8962C47.151 29.3114 47.1595 28.7738 47.1676 28.281C47.2196 27.291 47.2515 26.4869 47.3482 25.8142C47.4914 24.4664 47.7092 23.778 47.8334 23.3945C48.0987 22.6388 48.1891 23.23 48.1891 23.23Z" fill="#7CD7BD"/>
<path d="M47.6257 23.9619C47.6257 23.9619 47.873 23.4106 47.9294 24.2192C48.0036 25.0282 47.7838 27.2014 47.2237 32.6304C46.6615 38.0786 45.9989 45.8405 45.1847 52.2127C44.9782 53.8048 44.7496 55.3083 44.5576 56.6701C44.3761 58.0199 44.2535 59.2503 44.1023 60.2726C43.9608 61.2969 43.7757 62.1107 43.645 62.6677C43.4909 63.2198 43.4062 63.5234 43.4062 63.5234C43.4062 63.5234 43.4712 63.2153 43.5881 62.656C43.6825 62.0918 43.8156 61.274 43.8934 60.2488C43.9817 59.2237 44.0285 57.9985 44.1354 56.6165C44.2487 55.2478 44.3931 53.7407 44.5157 52.1446C44.9923 45.7611 45.3194 37.9823 45.8848 32.4957C46.4542 26.9909 47.0039 24.8919 47.2632 24.1248C47.5402 23.363 47.6257 23.9619 47.6257 23.9619Z" fill="#7CD7BD"/>
<path d="M47.7101 23.8623C47.7101 23.8623 48.0356 23.3219 47.9924 24.1672C47.9815 24.3785 47.9481 24.6761 47.8803 25.0907C47.8057 25.5065 47.7118 26.0356 47.592 26.7106C47.5279 27.0478 47.4573 27.4208 47.3778 27.8342C47.2956 28.2467 47.223 28.7105 47.1282 29.2122C46.9358 30.2167 46.7378 31.41 46.4987 32.8151C46.0281 35.6279 45.5357 39.0505 44.9731 42.5957C44.4158 46.1401 43.735 49.8043 42.8914 53.0588C42.7833 53.4653 42.6918 53.869 42.5752 54.2601C42.4611 54.6521 42.3482 55.0377 42.2385 55.4155C42.0296 56.1749 41.7743 56.8891 41.5505 57.5731C41.3319 58.259 41.0843 58.895 40.8669 59.4902C40.6459 60.0855 40.4411 60.6392 40.2539 61.1429C39.5042 63.1585 39.0449 64.3913 39.0449 64.3913C39.0449 64.3913 39.4244 63.1327 40.0459 61.0739C40.2019 60.5597 40.3737 59.9947 40.5576 59.3874C40.7407 58.7785 40.9492 58.134 41.1266 57.442C41.3097 56.7516 41.5223 56.0317 41.6872 55.2675C41.7763 54.888 41.8663 54.5005 41.9582 54.1069C42.0526 53.7141 42.1223 53.3084 42.2078 52.9011C43.556 46.3773 44.1419 38.275 45.1151 32.586C45.3566 31.1648 45.578 29.9599 45.8123 28.946C45.9276 28.4391 46.0236 27.9782 46.1353 27.5596C46.2487 27.1422 46.3507 26.7655 46.4438 26.4259C46.5402 26.0892 46.6233 25.7863 46.7108 25.5266C46.7995 25.2665 46.8802 25.0403 46.9536 24.8439C47.1004 24.4503 47.2194 24.1756 47.3153 23.9869C47.6964 23.232 47.7101 23.8623 47.7101 23.8623Z" fill="#7CD7BD"/>
<path d="M48.5353 22.8447C48.5353 22.8447 48.4067 23.2129 48.1587 24.1062C48.0966 24.3296 47.9897 24.6401 47.8175 25.0668C47.7376 25.2809 47.6171 25.5225 47.5235 25.7999C47.4263 26.0766 47.313 26.3855 47.1831 26.7307C47.1174 26.9021 47.0476 27.0836 46.9742 27.2751C46.9371 27.3703 46.8996 27.4683 46.8605 27.5687C46.8254 27.6728 46.7903 27.7792 46.754 27.8889C46.6044 28.3249 46.4407 28.8032 46.26 29.3286C45.9205 30.3905 45.5269 31.6454 45.0974 33.1473C44.6643 34.647 44.2041 36.3178 43.6762 38.0838C43.5411 38.525 43.4048 38.9718 43.2661 39.4239C43.1213 39.8921 42.9677 40.3256 42.816 40.7841C42.5095 41.6907 42.1982 42.6134 41.8833 43.5437C41.2545 45.4016 40.6153 47.291 39.9862 49.1505C39.3809 51.0137 38.7857 52.8474 38.2207 54.5879C37.6997 56.3422 37.2064 58.0025 36.7596 59.5059C36.3188 61.0145 35.9337 62.3663 35.6244 63.5016C35.476 64.071 35.3421 64.5848 35.2247 65.0356C35.1078 65.4869 35.0271 65.8797 34.9505 66.1975C34.8037 66.8354 34.7227 67.1863 34.7227 67.1863C34.7227 67.1863 34.7811 66.831 34.886 66.185C34.942 65.8619 34.9969 65.4647 35.0856 65.0062C35.1755 64.5476 35.278 64.0246 35.3909 63.4463C35.6304 62.2913 35.9353 60.9145 36.2894 59.3845C36.654 57.8536 37.056 56.1635 37.4815 54.3782C37.9533 52.605 38.455 50.7354 38.9825 48.8404C39.5305 46.9535 40.0838 45.0318 40.6476 43.151C40.9303 42.2109 41.2106 41.2785 41.486 40.3619C41.6211 39.9074 41.7707 39.4412 41.8909 39.0089C42.0159 38.5596 42.1397 38.1152 42.2619 37.6773C42.7443 35.9206 43.1814 34.2401 43.6202 32.7214C44.0545 31.2018 44.4816 29.9202 44.8711 28.8431C45.0837 28.3095 45.2776 27.8244 45.4535 27.3816C45.4986 27.2715 45.5426 27.1646 45.5849 27.0594C45.6341 26.9557 45.6825 26.8545 45.7285 26.7557C45.8241 26.5601 45.9144 26.3738 46.0003 26.1972C46.1729 25.8455 46.329 25.5354 46.4713 25.2628C46.6109 24.9873 46.7641 24.7788 46.8855 24.5812C47.1367 24.1957 47.3299 23.9299 47.4771 23.7509C48.0659 23.0351 48.5353 22.8447 48.5353 22.8447Z" fill="#7CD7BD"/>
<path d="M48.1869 22.9252C48.1869 22.9252 48.1825 24.2039 46.5843 18.6165C45.7826 15.8267 44.6837 11.8693 43.4988 8.70155C43.3448 8.30835 43.1947 7.92564 43.0508 7.55624C42.9044 7.18563 42.7745 6.83236 42.6225 6.50127C42.4777 6.16776 42.343 5.85078 42.1946 5.56849C42.0502 5.28378 41.9256 5.01317 41.7901 4.77726C41.6595 4.53852 41.5417 4.32316 41.4385 4.13362C41.3292 3.94771 41.2356 3.78801 41.159 3.65735C41.0058 3.39643 40.9219 3.25287 40.9219 3.25287C40.9219 3.25287 41.0146 3.39078 41.1852 3.64122C41.2699 3.76664 41.3736 3.9203 41.4945 4.09975C41.6099 4.28244 41.7409 4.49093 41.8869 4.7216C42.0369 4.94946 42.1797 5.21481 42.3422 5.49428C42.5096 5.77254 42.6632 6.08145 42.8266 6.40528C42.9967 6.72589 43.1516 7.08239 43.3165 7.44212C43.4823 7.80507 43.6529 8.18213 43.8291 8.56847C45.1873 11.6894 46.4653 15.625 47.2683 18.4189C48.8668 24.0088 48.1869 22.9252 48.1869 22.9252Z" fill="#7CD7BD"/>
<path d="M48.0466 23.1271C48.0466 23.1271 48.1119 23.4889 47.8058 23.1021C47.4885 22.7235 46.8666 21.5483 45.2454 18.6604C44.4215 17.2147 43.4182 15.4713 42.3334 13.6904C41.2606 11.9027 40.1214 10.0706 39.1027 8.40873C38.593 7.57919 38.1106 6.7936 37.6731 6.08262C37.2263 5.37648 36.8355 4.73689 36.4923 4.21383C35.8031 3.16814 35.3809 2.52814 35.3809 2.52814C35.3809 2.52814 35.843 3.14031 36.5979 4.14084C36.9734 4.64373 37.4001 5.25792 37.8872 5.93664C38.374 6.62302 38.8902 7.38279 39.4451 8.18531C40.5493 9.79156 41.7752 11.5696 42.9177 13.3231C44.0703 15.0685 45.1261 16.7989 45.9568 18.2568C47.607 21.1987 48.0361 22.4484 48.1716 22.9203C48.2954 23.3985 48.0466 23.1271 48.0466 23.1271Z" fill="#7CD7BD"/>
<path d="M48.1149 23.2284C48.1149 23.2284 48.2713 23.6466 47.8217 23.2502C47.3692 22.857 46.3227 21.6363 43.8845 18.3879C43.2642 17.587 42.5851 16.6977 41.8721 15.7553C41.1575 14.8128 40.4187 13.8099 39.6335 12.8134C38.8596 11.8096 38.072 10.7885 37.2969 9.78353C36.5327 8.7701 35.7403 7.80746 35.01 6.87428C34.2764 5.94473 33.5816 5.06518 32.952 4.26791C32.3032 3.48756 31.722 2.78909 31.2345 2.20353C30.236 1.055 29.625 0.352478 29.625 0.352478C29.625 0.352478 30.2803 1.01627 31.3514 2.10109C31.8749 2.6564 32.4992 3.31334 33.1916 4.06384C33.8647 4.82644 34.6079 5.66769 35.3923 6.55611C36.1714 7.45017 37.0134 8.37569 37.824 9.35404C38.6419 10.328 39.473 11.3176 40.2901 12.2907C41.1128 13.2598 41.8862 14.2438 42.6255 15.1733C43.3635 16.1041 44.0583 16.9885 44.6818 17.7934C47.122 21.0455 47.9673 22.411 48.2209 22.9542C48.471 23.4986 48.1149 23.2284 48.1149 23.2284Z" fill="#7CD7BD"/>
<path d="M48.3448 23.0481C48.3448 23.0481 48.1359 23.0179 47.5721 22.6557C47.2907 22.4751 46.8071 22.094 45.9909 21.36C45.5828 20.993 45.0916 20.5377 44.5008 19.9747C44.2068 19.6916 43.8866 19.3823 43.5374 19.0464C43.1877 18.7121 42.8228 18.333 42.4037 17.9543C40.7422 16.4178 38.7819 14.5248 36.7224 12.573C34.6652 10.6207 32.5408 8.6015 30.6696 6.72142C29.7311 5.78824 28.8423 4.90385 28.0374 4.10375C27.2425 3.29437 26.5311 2.56928 25.9355 1.96194C24.7462 0.744446 24.0195 0 24.0195 0C24.0195 0 24.7914 0.697273 26.0553 1.83653C26.6864 2.40757 27.4405 3.08992 28.2822 3.8509C29.1287 4.60543 30.0635 5.4382 31.0507 6.31735C33.0106 8.09056 35.2282 10.0069 37.3559 11.8818C39.4828 13.755 41.5149 15.6193 43.1845 17.1639C43.6071 17.5462 43.9664 17.9265 44.3116 18.2669C44.6516 18.6125 44.9634 18.929 45.2497 19.2198C45.8191 19.8041 46.28 20.2905 46.6515 20.6946C47.3947 21.5024 47.7802 21.981 47.9641 22.2609C48.3311 22.8203 48.3448 23.0481 48.3448 23.0481Z" fill="#7CD7BD"/>
<path d="M47.9198 23.0644C47.9198 23.0644 48.1916 23.5096 47.5883 23.1547C46.9769 22.8091 45.5328 21.5989 41.9504 18.5271C40.1458 16.9943 37.9681 15.1388 35.6839 13.2498C33.3989 11.3625 31.0365 9.41021 28.9012 7.64627C26.7683 5.88072 24.8628 4.3031 23.4904 3.16748C23.1513 2.87792 22.8452 2.61659 22.5766 2.38793C22.3181 2.14637 22.0967 1.9403 21.9152 1.77092C21.5543 1.43297 21.3555 1.24707 21.3555 1.24707C21.3555 1.24707 21.5656 1.42007 21.9483 1.73342C22.139 1.8903 22.3733 2.08185 22.6447 2.30527C22.9266 2.51618 23.2472 2.75774 23.6033 3.02431C25.0414 4.07364 27.0352 5.53835 29.2585 7.18856C31.4834 8.83877 33.9462 10.6672 36.2965 12.4848C38.6545 14.2923 40.8898 16.1018 42.7042 17.6431C46.33 20.7524 47.5637 22.1655 47.9807 22.7256C48.3876 23.2959 47.9198 23.0644 47.9198 23.0644Z" fill="#7CD7BD"/>
<path d="M47.7975 23.0703C47.7975 23.0703 48.1205 23.5014 47.4656 23.1957C46.8022 22.9038 45.2044 21.7915 41.2091 19.0138C39.1956 17.6317 36.7618 15.9609 34.205 14.2833C31.6583 12.5912 28.9975 10.8788 26.6008 9.32178C25.399 8.55152 24.2682 7.79658 23.235 7.15457C22.1906 6.51578 21.2533 5.94272 20.4702 5.46363C18.9042 4.50141 17.9473 3.91302 17.9473 3.91302C17.9473 3.91302 18.9401 4.43971 20.5637 5.30071C21.3751 5.73342 22.3438 6.25002 23.4254 6.8263C24.5094 7.4167 25.6692 8.10146 26.9133 8.80962C29.3899 10.2396 32.1313 11.8253 34.7478 13.4284C37.3727 15.0165 39.8638 16.6352 41.8907 18.0261C45.9432 20.8442 47.3418 22.1835 47.8269 22.717C48.3012 23.2623 47.7975 23.0703 47.7975 23.0703Z" fill="#7CD7BD"/>
<path d="M48.327 23.1252C48.327 23.1252 48.3693 23.3034 47.6321 23.1639C47.2623 23.084 46.603 22.9348 45.4431 22.415C45.2975 22.3521 45.1451 22.2851 44.9838 22.2154C44.8253 22.1416 44.664 22.0585 44.4914 21.9734C44.1494 21.8 43.7691 21.6137 43.3618 21.3943C42.9593 21.1684 42.521 20.9228 42.0431 20.6555C41.5737 20.378 41.0664 20.0784 40.5175 19.7542C39.9723 19.4307 39.4016 19.0783 38.8064 18.7327C38.5092 18.5576 38.2059 18.379 37.8978 18.1975C37.5873 18.0241 37.2715 17.8479 36.9513 17.6692C36.7928 17.5809 36.6283 17.4857 36.471 17.4026C36.3053 17.3143 36.1379 17.226 35.9697 17.1377C35.6338 16.9602 35.2938 16.78 34.9515 16.5993C34.2671 16.236 33.5702 15.8662 32.8685 15.4931C32.1592 15.1455 31.4442 14.7942 30.7287 14.4438C30.0117 14.095 29.3048 13.7292 28.5797 13.4046C27.1364 12.7444 25.7309 12.0645 24.3715 11.472C23.694 11.1704 23.035 10.876 22.3999 10.5921C22.2414 10.5207 22.0841 10.4509 21.9284 10.3812L21.8123 10.3296L21.7611 10.3066L21.7022 10.2828C21.6243 10.2517 21.5457 10.2203 21.4687 10.1896C21.159 10.065 20.8557 9.94402 20.5605 9.82586C19.3777 9.35805 18.3259 8.91324 17.4319 8.58497C15.6498 7.90424 14.5605 7.48846 14.5605 7.48846C14.5605 7.48846 15.6752 7.83488 17.4984 8.40149C18.4147 8.67652 19.4886 9.05681 20.6968 9.45605C20.9989 9.55768 21.3082 9.66173 21.6248 9.76739C21.7038 9.794 21.7832 9.82102 21.8635 9.84764L21.9232 9.8678L21.9901 9.89281L22.1095 9.93879C22.2688 9.99968 22.4297 10.0614 22.5922 10.1235C23.2423 10.3727 23.9174 10.6316 24.6114 10.8978C26.0027 11.4184 27.4461 12.0298 28.9249 12.6258C29.6657 12.9178 30.3989 13.2565 31.1381 13.5792C31.8757 13.9054 32.6137 14.2329 33.346 14.5571C34.0602 14.906 34.7688 15.2524 35.4656 15.5919C35.8133 15.7637 36.1585 15.9331 36.4992 16.1013C36.6698 16.1855 36.8392 16.269 37.0078 16.3529C37.1844 16.4408 37.3453 16.5295 37.5131 16.6171C37.8446 16.7937 38.1724 16.9679 38.4943 17.1393C38.81 17.318 39.121 17.495 39.4258 17.668C40.038 18.0128 40.609 18.36 41.1579 18.6851C42.2435 19.3356 43.165 19.8868 43.947 20.3558C44.3386 20.5817 44.6951 20.7869 45.0201 20.9737C45.1814 21.0676 45.3351 21.1572 45.4818 21.2418C45.6278 21.3209 45.767 21.3967 45.8984 21.4681C46.934 22.0597 47.57 22.3698 47.8713 22.5888C48.4895 23.0163 48.327 23.1252 48.327 23.1252Z" fill="#7CD7BD"/>
<path d="M47.3776 23.1477C47.3776 23.1477 47.8543 23.5103 47.0614 23.382C46.2722 23.2445 44.1986 22.6719 39.1499 20.5869C34.111 18.5084 27.1145 15.2963 21.217 12.9783C19.7353 12.4149 18.3327 11.8806 17.062 11.3974C15.7905 10.9087 14.6589 10.4671 13.6866 10.1747C13.2039 10.0158 12.7558 9.91983 12.3659 9.8186C11.9714 9.7444 11.6311 9.67745 11.3512 9.63551C10.7882 9.57583 10.4785 9.54236 10.4785 9.54236C10.4785 9.54236 10.7902 9.55526 11.3577 9.57945C11.6404 9.60325 11.986 9.64841 12.3892 9.69802C12.7865 9.77464 13.2458 9.8436 13.7418 9.97426C14.7407 10.209 15.9074 10.5864 17.2008 10.9998C18.4989 11.4132 19.9313 11.8705 21.4452 12.3532C27.4835 14.368 34.6381 17.2853 39.6589 19.3565C44.6692 21.4257 46.634 22.3137 47.3018 22.761C47.9745 23.2002 47.3776 23.1477 47.3776 23.1477Z" fill="#7CD7BD"/>
<path d="M47.6859 23.0715C47.6859 23.0715 48.223 23.3901 47.3854 23.353C46.9664 23.3349 46.2038 23.2272 44.8589 22.9469C44.6907 22.911 44.5137 22.8731 44.3266 22.8336C44.1403 22.7989 43.9439 22.7622 43.7374 22.7235C43.3248 22.642 42.872 22.5529 42.3751 22.4549C41.3778 22.2476 40.2031 22.004 38.8186 21.7165C37.4317 21.4298 35.8944 21.0737 34.2757 20.7006C32.6634 20.3341 30.9644 19.9477 29.2367 19.5541C25.7778 18.7585 22.2076 17.9168 18.985 17.1486C17.3691 16.7659 15.8564 16.3916 14.4691 16.0835C13.7771 15.9186 13.1202 15.7932 12.506 15.6661C12.1983 15.6036 11.9023 15.5431 11.6167 15.4847C11.3312 15.433 11.057 15.3834 10.7953 15.3367C10.2714 15.2427 9.79876 15.158 9.3842 15.0834C8.96801 15.0209 8.6099 14.9673 8.31712 14.9237C7.73237 14.8354 7.41016 14.787 7.41016 14.787C7.41016 14.787 7.73439 14.8144 8.32398 14.864C8.61918 14.8894 8.98051 14.9201 9.40154 14.9556C9.82014 15.0048 10.2988 15.06 10.8275 15.1213C11.0925 15.1528 11.3707 15.1858 11.6599 15.2201C11.949 15.2616 12.2495 15.304 12.5612 15.3483C13.1851 15.4391 13.8565 15.5274 14.5542 15.652C15.9556 15.8795 17.5054 16.1727 19.1318 16.4687C22.3911 17.0671 25.9976 17.7386 29.484 18.4076C31.2305 18.744 32.9332 19.071 34.5729 19.4029C36.1909 19.7433 37.7209 20.0651 39.1066 20.3559C39.8018 20.5055 40.4426 20.6434 41.0362 20.7704C41.6307 20.9051 42.1775 21.0374 42.6776 21.1588C43.1764 21.283 43.6313 21.3967 44.0451 21.4995C44.252 21.5536 44.4476 21.6048 44.6339 21.6532C44.817 21.7088 44.99 21.7617 45.1545 21.8117C46.4668 22.2186 47.185 22.4932 47.5601 22.6799C48.3106 23.0534 47.6859 23.0715 47.6859 23.0715Z" fill="#7CD7BD"/>
<path d="M46.8344 23.0266C46.8344 23.0266 47.3502 23.3884 46.511 23.2868C46.3009 23.2614 46.0073 23.2065 45.5984 23.1101C45.3943 23.0625 45.1612 23.002 44.8971 22.9331C44.6329 22.873 44.3369 22.8016 44.0058 22.7185C43.6751 22.6326 43.3086 22.5375 42.9029 22.4314C42.4911 22.3318 42.0394 22.2225 41.5442 22.1027C41.2962 22.0414 41.0373 21.9773 40.7675 21.91C40.4953 21.8487 40.2114 21.7846 39.9158 21.7168C39.325 21.5805 38.6874 21.4272 37.9901 21.2865C35.2128 20.6836 31.8268 20.0654 28.299 19.5306C24.7719 18.9915 21.1045 18.537 17.7892 18.1321C14.471 17.7393 11.5129 17.3336 9.37759 17.2053C8.30931 17.1404 7.4467 17.1699 6.85227 17.2061C6.55586 17.2299 6.3268 17.263 6.17113 17.2783C6.01547 17.2957 5.93359 17.3049 5.93359 17.3049C5.93359 17.3049 6.01385 17.2904 6.1683 17.2626C6.32276 17.2372 6.55021 17.1892 6.84582 17.146C7.43864 17.0714 8.30487 16.9864 9.38404 16.9864C11.5444 16.9835 14.5218 17.2162 17.8557 17.4344C21.1908 17.6643 24.886 17.9458 28.4546 18.3571C32.0236 18.7644 35.4652 19.3028 38.2861 19.9154C38.9931 20.0581 39.6407 20.2198 40.24 20.3687C40.5388 20.4429 40.826 20.5146 41.101 20.5832C41.3756 20.655 41.6358 20.7336 41.8858 20.8046C42.3846 20.9514 42.8379 21.0857 43.2521 21.2075C43.661 21.3486 44.0304 21.4761 44.3635 21.5906C44.6946 21.7079 44.9878 21.816 45.2463 21.914C45.5004 22.0193 45.7193 22.1165 45.9097 22.2036C46.2916 22.3778 46.5578 22.5149 46.7388 22.6234C47.4639 23.0573 46.8344 23.0266 46.8344 23.0266Z" fill="#7CD7BD"/>
<path d="M47.5061 23.3428C47.5061 23.3428 48.0791 23.6425 47.2117 23.6505C46.3426 23.6872 44.0371 23.2666 38.2754 22.4435C35.3763 22.0528 31.8654 21.6039 28.2153 21.2394C27.3027 21.1474 26.3848 21.043 25.4629 20.9559C24.5418 20.8679 23.6207 20.7796 22.7065 20.6929C20.8777 20.5211 19.0794 20.3521 17.372 20.192C15.6649 20.0283 14.0502 19.8735 12.5871 19.7323C11.1216 19.6024 9.81172 19.4807 8.71359 19.4097C8.16433 19.3839 7.6679 19.3601 7.23276 19.3395C6.79762 19.329 6.42378 19.3484 6.11729 19.3492C5.50471 19.3593 5.16797 19.3649 5.16797 19.3649C5.16797 19.3649 5.50391 19.3375 6.11447 19.2875C6.42015 19.2665 6.79479 19.2234 7.23154 19.2068C7.6691 19.2004 8.16796 19.1935 8.72045 19.1851C9.82503 19.1879 11.1445 19.2314 12.6133 19.2778C14.0832 19.3375 15.7056 19.404 17.4199 19.4738C19.1347 19.548 20.9402 19.6166 22.7771 19.7117C23.6958 19.7585 24.6221 19.8061 25.5484 19.8537C26.4743 19.9021 27.4011 19.9706 28.3197 20.0299C31.9944 20.261 35.5453 20.6244 38.4734 21.0184C44.3573 21.8608 46.5515 22.6295 47.3552 22.946C48.1505 23.29 47.5061 23.3428 47.5061 23.3428Z" fill="#7CD7BD"/>
<path d="M47.5928 23.2878C47.5928 23.2878 48.2748 23.4701 47.3533 23.6854C46.8919 23.7931 46.0301 23.9093 44.4816 24.0141C43.7077 24.0669 42.7612 24.117 41.6082 24.1621C41.0307 24.1815 40.4024 24.2028 39.7176 24.2254C39.0329 24.2452 38.2921 24.2682 37.4875 24.2646C35.8801 24.2674 34.1048 24.2589 32.2296 24.2404C30.3539 24.2242 28.3783 24.1988 26.3752 24.1452C22.3674 24.0379 18.225 23.9282 14.4817 23.8282C10.7417 23.7254 7.39858 23.6129 4.99424 23.5677C2.58909 23.562 1.11914 23.5592 1.11914 23.5592C1.11914 23.5592 2.58868 23.4693 4.99181 23.3229C7.39817 23.2197 10.7385 23.1366 14.483 23.043C18.2274 22.9458 22.3719 22.87 26.3808 22.8196C28.3839 22.7918 30.3531 22.764 32.2223 22.7377C34.0899 22.7123 35.8575 22.697 37.4585 22.6942C39.0615 22.6809 40.4218 22.6688 41.5764 22.6595C42.7305 22.6571 43.6778 22.6684 44.4541 22.6893C46.0055 22.7313 46.8718 22.8115 47.3368 22.9003C48.2667 23.0777 47.5928 23.2878 47.5928 23.2878Z" fill="#7CD7BD"/>
<path d="M47.5979 23.305C47.5979 23.305 50.3285 23.8236 37.7636 25.0076C31.481 25.5996 22.5641 26.2453 15.218 26.7442C13.3835 26.874 11.6381 26.9716 10.0738 27.099C9.28779 27.166 8.54293 27.2293 7.84768 27.289C7.15364 27.3547 6.50557 27.4011 5.92002 27.4745C5.33244 27.5406 4.80254 27.5999 4.33756 27.6523C3.875 27.7213 3.47737 27.7814 3.15233 27.8298C2.50265 27.9274 2.14453 27.9814 2.14453 27.9814C2.14453 27.9814 2.49822 27.9048 3.14023 27.7648C3.46245 27.6955 3.85645 27.6104 4.31457 27.5112C4.77673 27.4305 5.30382 27.337 5.88655 27.2349C6.47009 27.1252 7.11372 27.0402 7.80494 26.9333C8.49696 26.8333 9.23738 26.726 10.0181 26.6131C11.5893 26.3945 13.3149 26.2017 15.143 25.9755C22.452 25.0931 31.3313 24.0624 37.614 23.4703C50.1789 22.2871 47.5979 23.305 47.5979 23.305Z" fill="#7CD7BD"/>
<path d="M47.7496 23.4845C47.7496 23.4845 48.4493 23.578 47.5629 23.9091C47.1197 24.0753 46.2805 24.3003 44.7589 24.6028C44.0012 24.7617 43.0607 24.9084 41.9138 25.077C40.7665 25.2468 39.4103 25.4359 37.8189 25.6202C34.6233 25.9969 30.7979 26.4038 26.8123 26.8833C25.8105 26.9821 24.8277 27.1559 23.8341 27.3023C22.8412 27.4527 21.8487 27.6027 20.8639 27.7515C19.8819 27.9254 18.9133 28.1266 17.9571 28.3069C17.4792 28.3992 17.0054 28.4908 16.5367 28.5811C16.0694 28.6767 15.6007 28.746 15.1503 28.8658C7.88282 30.6176 2.16797 31.9956 2.16797 31.9956C2.16797 31.9956 3.573 31.5617 5.87168 30.8523C7.02183 30.5003 8.39578 30.0793 9.92904 29.6098C11.4675 29.1489 13.167 28.6412 14.9615 28.1044C15.4092 27.96 15.8758 27.8661 16.3416 27.7451C16.8086 27.6306 17.2804 27.5148 17.7571 27.3979C18.7108 27.1688 19.6779 26.9188 20.6607 26.6986C21.6503 26.5046 22.6484 26.3078 23.6457 26.1118C24.6446 25.9215 25.6448 25.7049 26.6352 25.571C30.589 24.9471 34.4576 24.4362 37.6322 24.062C39.2195 23.8781 40.5664 23.7224 41.7093 23.5897C42.8522 23.4707 43.7902 23.374 44.5617 23.2937C46.1051 23.1364 46.9737 23.1062 47.4459 23.1344C48.3908 23.1901 47.7496 23.4845 47.7496 23.4845Z" fill="#7CD7BD"/>
<path d="M47.8005 23.3582C47.8005 23.3582 48.553 23.3675 47.6569 23.8325C47.4327 23.9486 47.106 24.093 46.6382 24.2733C46.1708 24.4539 45.5643 24.6713 44.7638 24.9097C43.9661 25.1528 42.987 25.4408 41.7888 25.74C40.5919 26.0525 39.1716 26.3784 37.4943 26.7421C30.7822 28.2028 21.2023 29.6264 13.4759 31.5383C9.6093 32.4739 6.20927 33.5253 3.78678 34.3597C2.57816 34.7815 1.62683 35.1791 0.98481 35.4872C0.660979 35.6352 0.421424 35.7727 0.253661 35.855C0.0871071 35.9413 0 35.9857 0 35.9857C0 35.9857 0.0834829 35.9357 0.243987 35.8393C0.405298 35.7457 0.637182 35.5921 0.951335 35.4231C1.5744 35.0739 2.50516 34.6129 3.69201 34.1153C6.0661 33.1313 9.41653 31.8759 13.2565 30.7298C17.0917 29.5728 21.4015 28.5133 25.5823 27.5874C29.7635 26.657 33.8084 25.8223 37.1427 25.1048C40.4685 24.3894 42.7865 23.8906 44.4017 23.5433C45.2062 23.3853 45.8393 23.2558 46.333 23.1691C46.8274 23.0836 47.1819 23.0401 47.4339 23.0251C48.4417 22.9642 47.8005 23.3582 47.8005 23.3582Z" fill="#7CD7BD"/>
<path d="M47.596 23.4551C47.596 23.4551 48.3078 23.4619 47.4621 23.9031C46.6136 24.3366 44.2286 25.2481 37.9629 26.9007C31.7073 28.5485 22.8045 30.6217 15.5798 32.7292C14.6704 32.9744 13.8001 33.2575 12.9577 33.5168C12.1148 33.7778 11.3043 34.0294 10.5336 34.2674C10.3412 34.327 10.1509 34.3859 9.96296 34.444C9.77866 34.5073 9.59679 34.5706 9.41814 34.6327C9.05721 34.7581 8.70756 34.8807 8.36961 34.9985C7.69412 35.2336 7.06622 35.4522 6.49397 35.6514C4.2336 36.5172 2.85156 37.0471 2.85156 37.0471C2.85156 37.0471 4.20013 36.4301 6.40606 35.4207C6.96541 35.1868 7.57919 34.9307 8.23976 34.6553C8.56964 34.5178 8.91161 34.3754 9.26408 34.2286C9.44192 34.1548 9.6222 34.0806 9.80569 34.0048C9.98999 33.9363 10.1771 33.8661 10.3666 33.7951C11.1256 33.5128 11.9233 33.2152 12.7524 32.9067C13.5828 32.5994 14.4414 32.2687 15.3387 31.9755C22.4747 29.4809 31.3169 27.0148 37.5592 25.3702C43.7927 23.7269 46.2966 23.193 47.2488 23.1409C48.2009 23.0808 47.596 23.4551 47.596 23.4551Z" fill="#7CD7BD"/>
<path d="M47.2085 23.7273C47.2085 23.7273 47.9501 23.687 47.0988 24.2032C46.2414 24.7081 43.8258 25.832 37.3858 27.9363C30.9604 30.0317 21.7818 32.6599 14.3551 35.2255C13.8893 35.3828 13.4304 35.5377 12.9783 35.6897C12.5302 35.8538 12.0899 36.0152 11.658 36.1728C10.7929 36.491 9.96216 36.7963 9.17134 37.0875C8.77612 37.2322 8.39019 37.3734 8.01675 37.5105C7.65017 37.6625 7.29448 37.8102 6.95129 37.9525C6.26249 38.2404 5.62128 38.5078 5.03774 38.751C2.71446 39.7519 1.29492 40.3641 1.29492 40.3641C1.29492 40.3641 1.63892 40.1875 2.26521 39.8677C2.89311 39.5503 3.79807 39.0772 4.93209 38.5155C5.4999 38.2372 6.12378 37.9315 6.79443 37.6029C7.13278 37.4391 7.47193 37.2685 7.84214 37.0939C8.20831 36.9346 8.58578 36.7709 8.97333 36.6031C9.74883 36.2676 10.5647 35.9143 11.4132 35.5474C11.8386 35.3655 12.2693 35.1739 12.7113 34.9904C13.1561 34.8134 13.6086 34.6335 14.0659 34.4513C21.3814 31.4868 30.4704 28.4545 36.8745 26.3651C43.2652 24.2778 45.8365 23.5369 46.8262 23.4232C47.8138 23.2978 47.2085 23.7273 47.2085 23.7273Z" fill="#7CD7BD"/>
<path d="M47.3593 23.793C47.3593 23.793 48.1235 23.7401 47.252 24.2854C46.3995 24.8629 43.8036 25.8517 37.4995 28.615C36.7103 28.9715 35.8796 29.3469 35.0166 29.7361C34.5838 29.9292 34.1431 30.1264 33.695 30.3261C33.2506 30.535 32.7981 30.7467 32.3404 30.9616C30.5087 31.8234 28.5714 32.7159 26.6167 33.666C24.6564 34.6052 22.6622 35.5606 20.7006 36.4998C18.7411 37.4427 16.7957 38.344 14.9575 39.2087C13.1069 40.0531 11.351 40.8351 9.75688 41.5448C8.15748 42.23 6.71415 42.8252 5.52247 43.3527C3.16168 44.4617 1.71875 45.1393 1.71875 45.1393C1.71875 45.1393 3.11934 44.3706 5.40955 43.1116C6.56978 42.5103 7.97278 41.8316 9.53105 41.0553C11.0752 40.2568 12.7798 39.3756 14.5805 38.4448C16.371 37.4899 18.2572 36.4837 20.1756 35.4606C22.0915 34.4314 24.0426 33.3898 25.9735 32.3804C27.8959 31.3572 29.8151 30.3991 31.6379 29.4905C32.0944 29.2642 32.5408 29.0364 32.9877 28.8226C33.4365 28.6137 33.8781 28.4089 34.3116 28.2064C35.1799 27.8068 36.0155 27.4225 36.8095 27.0571C37.5984 26.6841 38.3577 26.3869 39.0522 26.1021C39.749 25.8235 40.3886 25.567 40.9758 25.3315C41.5642 25.1024 42.0993 24.8883 42.5893 24.7116C43.0821 24.5491 43.5269 24.406 43.9286 24.2805C45.5357 23.7789 46.4531 23.5575 46.9616 23.4845C47.9775 23.3401 47.3593 23.793 47.3593 23.793Z" fill="#7CD7BD"/>
<path d="M46.9859 24.0721C46.9859 24.0721 47.7477 23.9426 46.9278 24.5778C46.5181 24.8952 45.7136 25.4041 44.2206 26.2159C43.8508 26.4232 43.4233 26.6317 42.9753 26.893C42.5228 27.1479 42.026 27.4281 41.4796 27.7354C40.3847 28.3468 39.0849 29.0348 37.5545 29.8986C34.4924 31.5948 30.7455 33.6306 26.8563 35.6546C26.3704 35.9091 25.882 36.1647 25.3928 36.4204C24.9073 36.6809 24.4209 36.9419 23.9346 37.2028C22.9606 37.7234 21.9859 38.2432 21.0197 38.7594C20.5345 39.0143 20.055 39.2744 19.5832 39.5402C19.1085 39.8027 18.6375 40.064 18.1701 40.3221C17.2349 40.8383 16.315 41.3465 15.4198 41.8413C13.649 42.8656 11.9738 43.8355 10.4558 44.7138C8.94917 45.6075 7.60908 46.4386 6.48112 47.1174C4.26591 48.5389 2.91211 49.4076 2.91211 49.4076C2.91211 49.4076 4.21067 48.4526 6.33554 46.8919C7.42116 46.1447 8.70358 45.2381 10.1642 44.2541C11.6346 43.2911 13.2521 42.2155 14.9778 41.1033C15.8497 40.5621 16.7449 40.0068 17.6555 39.4418C18.1116 39.1595 18.571 38.8752 19.0339 38.5884C19.4953 38.2993 19.9639 38.0158 20.4382 37.7387C21.3846 37.1786 22.3392 36.6136 23.2938 36.049C23.7712 35.7675 24.2487 35.4856 24.7258 35.2045C25.2053 34.9299 25.6832 34.6557 26.1594 34.3831C29.9821 32.2114 33.6411 30.1023 36.7241 28.394C38.2513 27.5314 39.5991 26.8482 40.7331 26.2695C41.3025 25.9852 41.8207 25.7259 42.2926 25.4896C42.7652 25.2537 43.2015 25.0815 43.5911 24.9097C45.1538 24.2431 46.0523 23.9277 46.5552 23.8035C47.5602 23.5551 46.9859 24.0721 46.9859 24.0721Z" fill="#7CD7BD"/>
<path d="M46.9957 24.1861C46.9957 24.1861 47.7252 24.0256 46.9638 24.6773C46.5827 25.0032 45.8282 25.5327 44.4236 26.3864C44.0752 26.603 43.6759 26.8288 43.2488 27.0958C42.825 27.3656 42.36 27.6612 41.8479 27.9858C41.3341 28.3048 40.7727 28.652 40.1622 29.0307C39.8561 29.2203 39.5355 29.409 39.2048 29.6187C38.8741 29.8296 38.5301 30.0478 38.1728 30.276C35.3075 32.0811 31.8337 34.2713 28.2247 36.5087C26.4177 37.6238 24.5799 38.7574 22.7724 39.8732C22.3208 40.1527 21.8663 40.4241 21.4235 40.7056C20.9815 40.9883 20.5431 41.2694 20.108 41.5485C19.2373 42.105 18.3811 42.6518 17.5468 43.1854C15.876 44.2488 14.2947 45.2546 12.8623 46.166C12.5062 46.3954 12.1477 46.6104 11.8222 46.835C11.4899 47.0605 11.1677 47.2794 10.8568 47.4903C10.2337 47.913 9.65543 48.305 9.12794 48.6627C7.06114 50.1487 5.79688 51.0573 5.79688 51.0573C5.79688 51.0573 6.09772 50.8093 6.64376 50.3589C7.19302 49.9116 7.97941 49.2482 8.97591 48.4518C9.48122 48.063 10.0349 47.6363 10.631 47.1774C10.9294 46.9479 11.2379 46.7108 11.5561 46.4656C11.8779 46.2156 12.2174 45.9861 12.561 45.7345C13.9447 44.7436 15.4707 43.6495 17.0838 42.4945C17.8924 41.9179 18.7215 41.3262 19.5664 40.7237C19.989 40.4229 20.4149 40.1196 20.844 39.8144C21.2739 39.5115 21.7142 39.2195 22.1526 38.9199C23.9125 37.7302 25.7014 36.5208 27.4601 35.3319C30.9868 32.9627 34.4026 30.6854 37.2876 28.8682C37.6477 28.6408 37.9937 28.4222 38.3277 28.2117C38.662 28.002 38.9947 27.812 39.3092 27.6241C39.942 27.2551 40.5235 26.9163 41.0566 26.6054C41.5922 26.3013 42.0802 26.0243 42.525 25.7718C42.9722 25.5291 43.3844 25.3367 43.7534 25.1544C45.2326 24.4374 46.0851 24.091 46.5658 23.9474C47.5268 23.6595 46.9957 24.1861 46.9957 24.1861Z" fill="#7CD7BD"/>
<path d="M47.0583 24.1613C47.0583 24.1613 47.7878 23.9174 47.0793 24.6674C46.7248 25.0421 46.0114 25.666 44.6669 26.6923C44.3309 26.9492 43.9551 27.2311 43.5365 27.5408C43.1122 27.8461 42.6799 28.2107 42.1831 28.5901C41.2011 29.362 40.0227 30.2363 38.6472 31.2981C37.964 31.8377 37.245 32.4047 36.4973 32.9947C36.1222 33.2879 35.7403 33.5867 35.3516 33.8912C35.1568 34.0424 34.9604 34.1953 34.7636 34.3493C34.5692 34.5074 34.3728 34.6663 34.1748 34.8268C33.3836 35.4652 32.5706 36.1213 31.7438 36.788C31.3297 37.1211 30.9115 37.4566 30.4917 37.7949C30.0743 38.1373 29.6545 38.4821 29.2326 38.8285C25.8499 41.5849 22.3697 44.4672 19.1834 47.0187C15.9963 49.5723 13.1072 51.7947 11.0331 53.3961C9.98421 54.1866 9.11514 54.7915 8.52756 55.2218C7.93636 55.6472 7.61133 55.8811 7.61133 55.8811C7.61133 55.8811 7.92104 55.6263 8.4828 55.1633C9.04255 54.6955 9.86807 54.0402 10.8638 53.1893C12.8382 51.4612 15.5886 49.0766 18.6309 46.3658C21.6744 43.6546 25.0103 40.6142 28.2995 37.7268C28.71 37.365 29.1181 37.0045 29.5246 36.6468C29.936 36.2939 30.3441 35.9431 30.749 35.5955C31.5616 34.9022 32.3605 34.2219 33.1384 33.5585C33.3336 33.3936 33.5267 33.2294 33.7191 33.0665C33.9147 32.9072 34.1095 32.7491 34.3022 32.5927C34.6886 32.2809 35.0693 31.9736 35.4423 31.672C36.1912 31.0723 36.9123 30.4952 37.5974 29.9468C38.9891 28.872 40.2099 28.0001 41.2342 27.2557C41.7512 26.8907 42.2137 26.5399 42.6541 26.2628C43.0913 25.9801 43.4877 25.7281 43.8462 25.5043C45.2819 24.6098 46.1171 24.1621 46.5929 23.9633C47.5443 23.5649 47.0583 24.1613 47.0583 24.1613Z" fill="#7CD7BD"/>
<path d="M47.2141 24.2232C47.2141 24.2232 47.9525 23.9724 47.2375 24.7358C46.5463 25.5246 44.2605 27.1869 38.7445 31.523C35.9905 33.7269 32.6764 36.4119 29.33 39.3022C28.4915 40.022 27.6455 40.7479 26.8002 41.4742C25.9622 42.2106 25.1246 42.9462 24.293 43.6765C23.876 44.0407 23.4615 44.4036 23.0501 44.7642C22.6408 45.1283 22.2347 45.4909 21.8314 45.8494C21.0245 46.566 20.2312 47.2713 19.4589 47.9581C16.3843 50.7218 13.58 53.1342 11.712 55.0098C11.2466 55.4829 10.8264 55.91 10.4582 56.2846C10.0896 56.6596 9.79358 57.0012 9.54113 57.2702C9.04107 57.8138 8.76562 58.1127 8.76562 58.1127C8.76562 58.1127 9.02131 57.7965 9.48427 57.2214C9.71938 56.9367 9.99482 56.575 10.3388 56.1769C10.6848 55.7793 11.0792 55.3256 11.516 54.8227C13.2844 52.816 15.9375 50.2491 18.8649 47.3254C19.6025 46.5995 20.359 45.8542 21.1293 45.0965C21.5152 44.7174 21.904 44.3355 22.296 43.9516C22.6912 43.5709 23.0892 43.1878 23.4893 42.8034C24.2902 42.0356 25.0968 41.2613 25.9049 40.487C26.7179 39.7188 27.5434 38.9626 28.3581 38.2073C31.6101 35.1831 34.8843 32.3892 37.6657 30.1635C38.3484 29.5945 39.0199 29.1081 39.6309 28.6496C40.2455 28.1963 40.8097 27.7801 41.3275 27.3978C41.8477 27.0204 42.3207 26.6739 42.7575 26.3727C43.2003 26.0835 43.6007 25.8271 43.9633 25.5988C45.4147 24.6846 46.2599 24.2277 46.7415 24.024C47.7045 23.6167 47.2141 24.2232 47.2141 24.2232Z" fill="#7CD7BD"/>
<path d="M48.1989 23.0465C48.1989 23.0465 47.0843 24.5636 46.8201 25.4541C46.754 25.6763 46.6419 25.9856 46.4624 26.4098C46.2829 26.8353 46.0777 27.3761 45.7764 28.0588C45.1977 29.4465 44.3803 31.454 43.2257 34.3778C42.6458 35.8348 41.98 37.4649 41.2444 39.1417C40.8782 39.9829 40.5016 40.8468 40.1189 41.7255C39.9253 42.1647 39.7305 42.6071 39.5345 43.0523C39.33 43.4959 39.1244 43.9411 38.9183 44.3888C37.2765 47.9783 35.5054 51.6373 33.8991 54.9385C33.0921 56.5867 32.3283 58.1474 31.6363 59.5613C31.2879 60.2662 30.9572 60.9348 30.6487 61.5599C30.339 62.1838 30.0494 62.7625 29.8091 63.3001C28.8186 65.4411 28.2129 66.7493 28.2129 66.7493C28.2129 66.7493 28.7355 65.4031 29.5893 63.2021C29.7974 62.648 30.0514 62.0523 30.3236 61.4115C30.5955 60.7695 30.8862 60.0831 31.1923 59.3588C31.8057 57.9098 32.4828 56.3096 33.1986 54.6199C34.6294 51.2384 36.2248 47.5008 37.723 43.879C37.9125 43.4273 38.1013 42.9769 38.2888 42.5296C38.4699 42.078 38.6505 41.6299 38.8296 41.1851C39.1889 40.2963 39.5418 39.4224 39.8854 38.5719C40.5863 36.87 41.2109 35.2743 41.7949 33.808C42.9515 30.8782 43.8786 28.8581 44.6041 27.4983C44.9832 26.8208 45.2796 26.2893 45.5377 25.9074C45.7958 25.5263 45.993 25.2625 46.1438 25.0863C46.7459 24.3801 48.1989 23.0465 48.1989 23.0465Z" fill="#7CD7BD"/>
<path d="M48.3443 23.0479C48.3443 23.0479 48.158 23.4923 47.5482 24.3254C46.959 25.1743 44.9483 27.0984 39.9775 31.9417C38.733 33.1685 37.3522 34.509 35.8806 35.9261C34.4099 37.3372 32.8572 38.8402 31.251 40.3198C30.4501 41.0631 29.6427 41.8128 28.8345 42.5624C28.0014 43.2924 27.1678 44.0207 26.3411 44.7442C24.7005 46.2048 23.0237 47.5558 21.4517 48.8612C20.6686 49.5182 19.887 50.1324 19.1357 50.726C18.3852 51.32 17.663 51.8907 16.9762 52.4331C16.2938 52.9803 15.626 53.4796 15.0126 53.9482C14.396 54.4164 13.8233 54.8519 13.3011 55.2488C11.2549 56.8865 10.0039 57.8878 10.0039 57.8878C10.0039 57.8878 10.2995 57.6172 10.8371 57.1252C11.3775 56.636 12.1518 55.915 13.1321 55.0407C13.6294 54.6132 14.1754 54.1438 14.7626 53.6393C15.3506 53.1328 15.9809 52.6008 16.631 52.0165C17.2843 51.4366 17.9719 50.8272 18.6873 50.1933C19.4027 49.5613 20.1483 48.9072 20.8936 48.2128C22.3898 46.8303 23.9932 45.4027 25.549 43.8832C26.3354 43.1319 27.1283 42.3737 27.9215 41.6164C28.6994 40.8356 29.4766 40.0549 30.2484 39.2814C31.8015 37.7405 33.2904 36.2056 34.7301 34.7598C36.1653 33.3133 37.5357 31.945 38.7826 30.7174C43.8328 25.7982 46.0997 24.2222 46.9788 23.6862C47.8733 23.1729 48.3443 23.0479 48.3443 23.0479Z" fill="#7CD7BD"/>
<path d="M48.1842 22.9252C48.1842 22.9252 47.0764 24.2072 46.734 25.1069C46.5626 25.5574 46.171 26.3502 45.3798 27.7165C45.1781 28.0573 44.9559 28.4339 44.7087 28.8521C44.4518 29.2671 44.2103 29.7361 43.9175 30.241C43.3461 31.2577 42.6444 32.4344 41.8362 33.8407C41.0429 35.259 40.167 36.8253 39.2411 38.4804C38.7878 39.3144 38.3224 40.1705 37.8482 41.0428C37.6102 41.4771 37.3703 41.9159 37.1287 42.3583C36.892 42.8031 36.6533 43.2508 36.4141 43.7C34.4977 47.2976 32.5168 51.0167 30.7267 54.3776C28.922 57.7304 27.2811 60.7179 26.0229 62.8166C25.72 63.3485 25.4208 63.8147 25.1651 64.2272C24.9082 64.639 24.6876 64.9923 24.5082 65.2814C24.1476 65.8585 23.9492 66.1755 23.9492 66.1755C23.9492 66.1755 24.1267 65.8464 24.4481 65.2471C24.609 64.9487 24.807 64.5821 25.0356 64.1559C25.2639 63.7288 25.5325 63.2477 25.8031 62.6988C26.9314 60.5247 28.3869 57.4606 30.0129 54.0179C31.6393 50.5779 33.4157 46.7544 35.2136 43.0858C35.4378 42.6265 35.6604 42.1696 35.8818 41.7155C36.11 41.2646 36.3371 40.8162 36.5625 40.3714C37.0146 39.4829 37.4598 38.6098 37.8925 37.7597C38.7757 36.0664 39.6585 34.4863 40.4469 33.0511C41.2647 31.6275 42.0027 30.4382 42.621 29.43C42.9355 28.9312 43.2085 28.4626 43.4892 28.0666C43.7683 27.6693 44.0195 27.31 44.2462 26.9858C45.1628 25.7009 45.723 25.0162 46.0621 24.6742C46.7412 23.9906 48.1842 22.9252 48.1842 22.9252Z" fill="#7CD7BD"/>
<path d="M44.9091 26.2695C44.9091 26.2695 45.4979 25.8505 45.066 26.7183C44.9583 26.9353 44.7865 27.2329 44.5252 27.6366C44.2591 28.0391 43.9191 28.5524 43.4848 29.2078C43.2646 29.5324 43.021 29.8921 42.7508 30.2914C42.475 30.6862 42.1923 31.1427 41.866 31.6278C41.2099 32.5969 40.4691 33.7664 39.5923 35.1416C37.8477 37.8988 35.835 41.3041 33.7508 44.8424C31.6679 48.3792 29.4805 52.0325 27.3347 55.2248C27.0665 55.6232 26.802 56.0168 26.5415 56.404C26.2717 56.7855 26.0067 57.1609 25.7466 57.5291C25.4853 57.8961 25.2292 58.2566 24.9784 58.6091C24.7182 58.9539 24.4634 59.2915 24.2149 59.6201C23.9665 59.9488 23.725 60.2686 23.4899 60.5791C23.2503 60.8844 23.0184 61.18 22.7934 61.4659C22.3433 62.0378 21.9255 62.5689 21.5436 63.0532C20.0164 64.9869 19.082 66.1698 19.082 66.1698C19.082 66.1698 19.939 64.9317 21.3404 62.9052C21.6912 62.3999 22.0764 61.8442 22.4913 61.2473C22.6986 60.9485 22.914 60.6388 23.1358 60.3194C23.3507 59.9976 23.5721 59.6661 23.8 59.3253C24.0274 58.985 24.2617 58.6361 24.5005 58.2792C24.7295 57.9159 24.9634 57.5441 25.2026 57.1654C25.4405 56.7867 25.6829 56.4004 25.9293 56.0072C26.1672 55.6095 26.4092 55.205 26.6548 54.7949C28.6171 51.5171 30.6166 47.7868 32.5697 44.1738C34.5227 40.5616 36.4625 37.0797 38.2317 34.2846C39.1201 32.8901 39.8936 31.7174 40.5985 30.7543C40.9498 30.272 41.2566 29.8276 41.566 29.4376C41.8757 29.0497 42.1543 28.7 42.406 28.3847C42.6609 28.0742 42.8855 27.7923 43.0964 27.5592C43.3085 27.3273 43.4969 27.1268 43.6642 26.9534C43.9985 26.6082 44.2494 26.3731 44.4361 26.2187C45.1834 25.6008 44.9091 26.2695 44.9091 26.2695Z" fill="#7CD7BD"/>
<path d="M44.2367 26.7579C44.2367 26.7579 44.8444 26.4175 44.3411 27.2043C44.2145 27.4007 44.0193 27.6677 43.7278 28.0286C43.5822 28.208 43.412 28.4121 43.2148 28.6416C43.0168 28.871 42.8168 29.1384 42.5748 29.428C42.3336 29.7171 42.0662 30.0373 41.7698 30.393C41.4666 30.741 41.1585 31.1572 40.8024 31.5915C40.0858 32.4594 39.2796 33.5184 38.3267 34.7637C36.4341 37.2669 34.2649 40.3947 32.0505 43.6677C29.8332 46.9367 27.5499 50.3407 25.3375 53.3121C24.2329 54.7989 23.1574 56.1838 22.1399 57.4029C21.8846 57.7066 21.6362 58.0022 21.3951 58.2901C21.2729 58.4345 21.1531 58.5769 21.0349 58.7172C20.9123 58.8511 20.7922 58.9822 20.6736 59.112C20.2001 59.6286 19.7602 60.1089 19.3593 60.5469C17.7535 62.2947 16.7715 63.3629 16.7715 63.3629C16.7715 63.3629 17.6841 62.2342 19.1766 60.3884C19.5505 59.927 19.9602 59.4213 20.4018 58.8769C20.5119 58.741 20.6244 58.6027 20.7389 58.4619C20.8458 58.3192 20.9543 58.1724 21.0652 58.0248C21.2878 57.7255 21.5181 57.417 21.7532 57.1009C22.6932 55.8338 23.6841 54.4009 24.7023 52.8677C26.7441 49.804 28.8537 46.3116 30.9556 42.9543C33.0522 39.5954 35.163 36.3797 37.0886 33.8334C38.0581 32.5651 38.8989 31.5012 39.6647 30.6406C40.0466 30.2091 40.3769 29.8074 40.7149 29.463C41.0496 29.1198 41.3512 28.8109 41.6239 28.5311C41.8993 28.2581 42.1405 28.006 42.3679 27.8068C42.5954 27.6055 42.7958 27.4333 42.974 27.2849C43.3305 26.9885 43.5947 26.7893 43.7899 26.6607C44.5686 26.1457 44.2367 26.7579 44.2367 26.7579Z" fill="#7CD7BD"/>
<path d="M48.0566 22.9902C48.0566 22.9902 47.1855 23.9976 46.5592 24.8328C46.4027 25.0417 46.164 25.3232 45.8087 25.7011C45.6317 25.8898 45.4256 26.1023 45.1869 26.3427C44.9542 26.5859 44.711 26.8669 44.4238 27.1726C44.1383 27.4803 43.8197 27.8183 43.4632 28.1889C43.1092 28.5639 42.7341 29.0035 42.3107 29.4657C42.0998 29.6988 41.8788 29.9419 41.6477 30.1956C41.4158 30.4489 41.1871 30.7267 40.9403 31.0086C40.4544 31.5796 39.9088 32.1757 39.347 32.8544C38.2085 34.2034 36.9515 35.6919 35.6235 37.2655C35.2888 37.6595 34.9497 38.0583 34.6069 38.4624C34.2576 38.862 33.9044 39.2669 33.5487 39.6746C32.8433 40.486 32.1259 41.3111 31.4028 42.1431C29.951 43.8098 28.475 45.5052 27.0236 47.1728C26.6599 47.5881 26.2973 48.0027 25.9368 48.4141C25.5751 48.8246 25.2339 49.2452 24.8851 49.6549C24.1922 50.4776 23.5111 51.2858 22.8473 52.0738C21.5157 53.6474 20.2554 55.1371 19.1142 56.4857C17.983 57.8455 16.9699 59.0634 16.1206 60.0837C14.368 62.0775 13.2969 63.297 13.2969 63.297C13.2969 63.297 14.2877 62.0146 15.9085 59.9163C16.6941 58.8485 17.6265 57.5652 18.6827 56.1485C19.7505 54.7358 20.9293 53.176 22.1746 51.5286C22.7993 50.7055 23.4413 49.8602 24.0938 49C24.4225 48.5721 24.7459 48.1322 25.0871 47.7051C25.4279 47.2776 25.7707 46.8465 26.1151 46.4142C27.4963 44.6878 28.9001 42.9327 30.2813 41.2079C30.6273 40.7772 30.9733 40.3481 31.3157 39.9222C31.4915 39.7073 31.6658 39.4928 31.84 39.2786C32.0118 39.0697 32.1832 38.862 32.3526 38.6547C32.6933 38.241 33.0313 37.83 33.3652 37.4239C33.6967 37.0138 34.0245 36.6081 34.3484 36.2072C35.6437 34.6066 36.8765 33.0847 38.0295 31.7309C38.5953 31.0473 39.1591 30.4408 39.662 29.8701C39.918 29.5883 40.1556 29.3116 40.3991 29.0583C40.6439 28.8059 40.8774 28.5643 41.1017 28.3329C41.5541 27.8739 41.9526 27.4505 42.3466 27.0823C42.7434 26.7177 43.1035 26.3915 43.4302 26.1015C43.7576 25.814 44.046 25.551 44.3125 25.3401C44.5819 25.1349 44.8203 24.9594 45.0308 24.8082C45.4522 24.507 45.7631 24.3069 45.991 24.1795C46.9008 23.6718 48.0566 22.9902 48.0566 22.9902Z" fill="#7CD7BD"/>
<path d="M48.1847 22.9252C48.1847 22.9252 46.4865 24.2653 45.8239 25.0682C45.6586 25.269 45.4065 25.5388 45.0355 25.8989C44.8532 26.0804 44.6282 26.2772 44.3931 26.5123C44.1652 26.7519 43.9063 27.0168 43.6136 27.3104C43.3232 27.6096 42.9869 27.9161 42.6332 28.2928C42.2779 28.6699 41.8879 29.084 41.4605 29.5389C41.3524 29.6514 41.2423 29.7672 41.1294 29.8849C41.0209 30.0075 40.9096 30.1325 40.7963 30.2616C40.568 30.5169 40.3305 30.7826 40.0825 31.0609C39.5796 31.6073 39.0577 32.2268 38.4847 32.8885C37.3406 34.2133 36.0936 35.7075 34.7532 37.273C33.3977 38.8425 31.9516 40.4536 30.4776 42.0925C30.1086 42.5023 29.7384 42.9132 29.367 43.3262C28.9915 43.7355 28.6052 44.1388 28.2241 44.5453C27.4587 45.3567 26.6928 46.1673 25.9335 46.9722C25.1797 47.782 24.403 48.5526 23.6521 49.3229C22.8968 50.0899 22.1552 50.8441 21.4325 51.5784C19.9742 53.0331 18.5801 54.3949 17.3231 55.6338C16.0536 56.8577 14.9159 57.9547 13.9634 58.8729C12.0531 60.7046 10.8848 61.8237 10.8848 61.8237C10.8848 61.8237 11.9793 60.6332 13.7686 58.6858C14.6651 57.7127 15.7358 56.55 16.9311 55.2531C18.1155 53.9481 19.4238 52.5068 20.8058 50.9844C21.4881 50.2162 22.189 49.427 22.902 48.6252C23.6122 47.8207 24.3502 47.0145 25.0608 46.1773C25.7794 45.3462 26.5037 44.5074 27.228 43.6698C27.5901 43.2504 27.9523 42.8313 28.3136 42.4131C28.6681 41.9869 29.023 41.5622 29.3762 41.1388C30.7853 39.4491 32.1714 37.788 33.4864 36.2111C34.7862 34.6222 36.0138 33.1079 37.1752 31.763C37.7564 31.0903 38.2899 30.4681 38.8162 29.9144C39.0767 29.6361 39.3255 29.3687 39.5642 29.1127C39.684 28.9852 39.8018 28.8602 39.9167 28.7376C40.0369 28.6199 40.1546 28.5045 40.27 28.3924C40.7338 27.9456 41.156 27.5391 41.5403 27.1689C41.9307 26.8035 42.3194 26.4986 42.6521 26.2159C42.9901 25.9364 43.2925 25.6917 43.5631 25.4783C43.8358 25.2722 44.085 25.1186 44.3007 24.9746C44.7343 24.6943 45.0532 24.5088 45.2855 24.3931C46.2179 23.9273 48.1847 22.9252 48.1847 22.9252Z" fill="#7CD7BD"/>
</svg>
