<svg width="1440" height="1155" viewBox="0 0 1440 1155" fill="none" xmlns="http://www.w3.org/2000/svg">
<g clip-path="url(#clip0_73_1303)">
<rect width="1440" height="1155" fill="#FFCADE"/>
<g opacity="0.56">
<g opacity="0.5">
<path d="M1117.66 -625.827C1068.72 -723.786 841.907 -844.789 784.24 -878.485C723.682 -913.834 720.245 -927.754 720.245 -927.754L719.013 -931V-927.754C719.013 -927.754 715.543 -913.834 655.053 -878.485C597.386 -844.789 370.54 -723.786 321.603 -625.827C275.256 -532.897 281.254 -497.878 281.254 -150.244V374.642H719.633H1158.01V-150.244C1158.01 -497.878 1164.04 -532.897 1117.66 -625.827Z" fill="#7CD7BD" fill-opacity="0.5"/>
<path d="M1117.66 626.098C1068.72 724.058 841.907 845.061 784.24 878.756C723.682 914.105 720.245 928.026 720.245 928.026L719.013 931.271V928.026C719.013 928.026 715.543 914.105 655.053 878.756C597.386 845.061 370.54 724.058 321.603 626.098C275.256 533.169 281.254 498.149 281.254 150.516V-374.371H719.633H1158.01V150.516C1158.01 498.149 1164.04 533.169 1117.66 626.098Z" fill="#EC86AD"/>
</g>
<g opacity="0.8">
<path d="M972.18 -395.041C941.26 -456.927 797.971 -533.371 761.539 -554.659C723.282 -576.991 721.11 -585.785 721.11 -585.785L720.332 -587.835V-585.785C720.332 -585.785 718.14 -576.991 679.925 -554.659C643.493 -533.371 500.183 -456.927 469.266 -395.041C439.986 -336.332 443.775 -314.209 443.775 -94.5897V237.009H720.723H997.671V-94.5897C997.671 -314.209 1001.48 -336.332 972.18 -395.041Z" fill="#EC86AD"/>
<path d="M972.18 395.868C941.26 457.754 797.971 534.198 761.539 555.485C723.282 577.817 721.11 586.612 721.11 586.612L720.332 588.662V586.612C720.332 586.612 718.14 577.817 679.925 555.485C643.493 534.198 500.183 457.754 469.266 395.868C439.986 337.159 443.775 315.035 443.775 95.4164L443.775 -236.183H720.723H997.671V95.4164C997.671 315.035 1001.48 337.159 972.18 395.868Z" fill="#EC86AD"/>
</g>
<g opacity="0.7">
<path d="M1017.92 -466.735C981.374 -539.878 812.021 -630.227 768.963 -655.386C723.746 -681.781 721.18 -692.175 721.18 -692.175L720.26 -694.598V-692.175C720.26 -692.175 717.669 -681.781 672.503 -655.386C629.444 -630.227 460.066 -539.878 423.526 -466.735C388.92 -397.347 393.398 -371.199 393.398 -111.632V280.284H720.722H1048.05V-111.632C1048.05 -371.199 1052.55 -397.347 1017.92 -466.735Z" fill="#EC86AD"/>
<path d="M1017.92 468.038C981.374 541.181 812.021 631.531 768.963 656.69C723.746 683.084 721.18 693.478 721.18 693.478L720.26 695.901V693.478C720.26 693.478 717.669 683.084 672.503 656.69C629.444 631.531 460.066 541.181 423.526 468.038C388.92 398.651 393.398 372.503 393.398 112.936V-278.98H720.722H1048.05V112.936C1048.05 372.503 1052.55 398.651 1017.92 468.038Z" fill="#EC86AD"/>
</g>
<g opacity="0.6">
<path d="M1058.38 -532.062C1016.76 -615.359 823.897 -718.249 774.862 -746.901C723.368 -776.959 720.446 -788.796 720.446 -788.796L719.398 -791.555V-788.796C719.398 -788.796 716.448 -776.959 665.012 -746.901C615.977 -718.249 423.087 -615.359 381.474 -532.062C342.065 -453.043 347.165 -423.265 347.165 -127.667V318.651H719.925H1092.68V-127.667C1092.68 -423.265 1097.81 -453.043 1058.38 -532.062Z" fill="#EC86AD"/>
<path d="M1058.38 532.468C1016.76 615.764 823.897 718.655 774.862 747.307C723.368 777.365 720.446 789.202 720.446 789.202L719.398 791.961V789.202C719.398 789.202 716.448 777.365 665.012 747.307C615.977 718.655 423.087 615.764 381.474 532.468C342.065 453.449 347.165 423.671 347.165 128.073V-318.245H719.925H1092.69V128.073C1092.69 423.671 1097.81 453.449 1058.38 532.468Z" fill="#EC86AD"/>
</g>
<path d="M891.574 -269.941C870.468 -312.186 772.656 -364.368 747.788 -378.899C721.672 -394.143 720.19 -400.147 720.19 -400.147L719.659 -401.546V-400.147C719.659 -400.147 718.162 -394.143 692.076 -378.899C667.208 -364.368 569.381 -312.186 548.277 -269.941C528.29 -229.866 530.877 -214.764 530.877 -64.8486V161.506H719.926H908.975V-64.8486C908.975 -214.764 911.576 -229.866 891.574 -269.941Z" fill="#EC86AD"/>
<path d="M891.574 269.946C870.468 312.19 772.656 364.372 747.788 378.903C721.672 394.148 720.19 400.151 720.19 400.151L719.659 401.55V400.151C719.659 400.151 718.162 394.148 692.076 378.903C667.208 364.372 569.381 312.19 548.277 269.946C528.29 229.87 530.877 214.768 530.877 64.8528V-161.502H719.926H908.975V64.8528C908.975 214.768 911.576 229.87 891.574 269.946Z" fill="#EC86AD"/>
</g>
</g>
<defs>
<clipPath id="clip0_73_1303">
<rect width="1440" height="1155" fill="white"/>
</clipPath>
</defs>
</svg>
